<svg width="128" height="39" viewBox="0 0 128 39" fill="none" xmlns="http://www.w3.org/2000/svg">
<path d="M9.348 38V6.956L0.508 12.416V7.476L10.024 1.6H13.768V38H9.348ZM38.7893 38.78C35.7387 38.78 33.0173 37.9827 30.6253 36.388C28.2333 34.7587 26.3613 32.5053 25.0093 29.628C23.692 26.716 23.0333 23.44 23.0333 19.8C23.0333 16.16 23.692 12.9013 25.0093 10.024C26.3613 7.112 28.2333 4.85866 30.6253 3.264C33.0173 1.63466 35.7387 0.819998 38.7893 0.819998C41.8053 0.819998 44.492 1.63466 46.8493 3.264C49.2413 4.85866 51.1133 7.112 52.4653 10.024C53.8173 12.9013 54.4933 16.16 54.4933 19.8C54.4933 23.44 53.8173 26.716 52.4653 29.628C51.1133 32.5053 49.2413 34.7587 46.8493 36.388C44.492 37.9827 41.8053 38.78 38.7893 38.78ZM38.7893 34.62C40.9387 34.62 42.8453 33.996 44.5093 32.748C46.208 31.5 47.5253 29.7667 48.4613 27.548C49.432 25.2947 49.9173 22.712 49.9173 19.8C49.9173 16.888 49.432 14.3227 48.4613 12.104C47.5253 9.85067 46.208 8.1 44.5093 6.852C42.8453 5.604 40.9387 4.98 38.7893 4.98C36.6053 4.98 34.664 5.604 32.9653 6.852C31.3013 8.1 30.0013 9.85067 29.0653 12.104C28.1293 14.3227 27.6613 16.888 27.6613 19.8C27.6613 22.712 28.1293 25.2947 29.0653 27.548C30.0013 29.7667 31.3013 31.5 32.9653 32.748C34.664 33.996 36.6053 34.62 38.7893 34.62ZM71.5981 38L82.5181 24.74L72.0141 12H76.9541L85.3781 21.984L93.8021 12H98.5341L88.0301 24.74L98.9501 38H94.0621L85.2741 27.34L76.3821 38H71.5981ZM105.301 38V12H117.261C120.207 12 122.513 12.6067 124.177 13.82C125.875 14.9987 126.725 16.6453 126.725 18.76C126.725 20.2853 126.291 21.568 125.425 22.608C124.558 23.6133 123.31 24.3413 121.681 24.792V24.948C123.587 25.3293 125.061 26.0573 126.101 27.132C127.175 28.172 127.713 29.5067 127.713 31.136C127.713 33.32 126.863 35.0187 125.165 36.232C123.501 37.4107 121.143 38 118.093 38H105.301ZM117.053 34.932C119.098 34.932 120.693 34.516 121.837 33.684C122.981 32.8173 123.553 31.6387 123.553 30.148C123.553 28.692 122.963 27.5653 121.785 26.768C120.606 25.936 118.994 25.52 116.949 25.52H109.253V34.932H117.053ZM116.221 24.48C118.266 24.48 119.861 24.064 121.005 23.232C122.183 22.4 122.773 21.2733 122.773 19.852C122.773 18.3267 122.218 17.148 121.109 16.316C119.999 15.484 118.457 15.068 116.481 15.068H109.253V24.48H116.221Z" fill="#FF9F42"/>
</svg>
