<svg width="101" height="38" viewBox="0 0 101 38" fill="none" xmlns="http://www.w3.org/2000/svg">
<path d="M0.6 38V34.256L16.408 24.064C17.344 23.4053 18.1587 22.764 18.852 22.14C19.58 21.516 20.2213 20.84 20.776 20.112C19.944 20.8747 18.9387 21.464 17.76 21.88C16.5813 22.2613 15.2813 22.452 13.86 22.452C11.3987 22.452 9.128 22.0533 7.048 21.256C4.968 20.424 3.28667 19.228 2.004 17.668C0.756 16.0733 0.132 14.2013 0.132 12.052C0.132 10.0067 0.721333 8.13466 1.9 6.436C3.07867 4.70267 4.74267 3.33333 6.892 2.328C9.076 1.32266 11.572 0.819998 14.38 0.819998C17.1187 0.819998 19.58 1.32266 21.764 2.328C23.948 3.29866 25.6467 4.668 26.86 6.436C28.108 8.16933 28.732 10.1453 28.732 12.364C28.732 13.9587 28.4027 15.5187 27.744 17.044C27.12 18.5693 26.2187 20.008 25.04 21.36C23.8613 22.712 22.4573 23.9427 20.828 25.052C20.62 25.1907 20.412 25.3293 20.204 25.468C20.0307 25.572 19.84 25.6933 19.632 25.832L7.516 33.944H29.72V38H0.6ZM14.38 21.516C16.252 21.516 17.9333 21.1693 19.424 20.476C20.9493 19.748 22.128 18.7427 22.96 17.46C23.8267 16.1773 24.26 14.7387 24.26 13.144C24.26 11.5147 23.844 10.0587 23.012 8.776C22.18 7.49333 21.0013 6.50533 19.476 5.812C17.9853 5.084 16.2867 4.72 14.38 4.72C12.4733 4.72 10.7747 5.084 9.284 5.812C7.79333 6.50533 6.61467 7.49333 5.748 8.776C4.916 10.0587 4.5 11.5147 4.5 13.144C4.5 14.7387 4.916 16.1773 5.748 17.46C6.61467 18.7427 7.79333 19.748 9.284 20.476C10.7747 21.1693 12.4733 21.516 14.38 21.516ZM44.7504 38L55.6704 24.74L45.1664 12H50.1064L58.5304 21.984L66.9544 12H71.6864L61.1824 24.74L72.1024 38H67.2144L58.4264 27.34L49.5344 38H44.7504ZM78.4529 38V12H90.4129C93.3596 12 95.6649 12.6067 97.3289 13.82C99.0276 14.9987 99.8769 16.6453 99.8769 18.76C99.8769 20.2853 99.4436 21.568 98.5769 22.608C97.7103 23.6133 96.4623 24.3413 94.8329 24.792V24.948C96.7396 25.3293 98.2129 26.0573 99.2529 27.132C100.328 28.172 100.865 29.5067 100.865 31.136C100.865 33.32 100.016 35.0187 98.3169 36.232C96.6529 37.4107 94.2956 38 91.2449 38H78.4529ZM90.2049 34.932C92.2503 34.932 93.8449 34.516 94.9889 33.684C96.1329 32.8173 96.7049 31.6387 96.7049 30.148C96.7049 28.692 96.1156 27.5653 94.9369 26.768C93.7583 25.936 92.1463 25.52 90.1009 25.52H82.4049V34.932H90.2049ZM89.3729 24.48C91.4183 24.48 93.0129 24.064 94.1569 23.232C95.3356 22.4 95.9249 21.2733 95.9249 19.852C95.9249 18.3267 95.3703 17.148 94.2609 16.316C93.1516 15.484 91.6089 15.068 89.6329 15.068H82.4049V24.48H89.3729Z" fill="#FF9F42"/>
</svg>
