<svg width="103" height="38" viewBox="0 0 103 38" fill="none" xmlns="http://www.w3.org/2000/svg">
<path d="M15.068 37.78C12.364 37.78 9.95467 37.2947 7.84 36.324C5.76 35.3533 4.11333 34.0187 2.9 32.32C1.72133 30.5867 1.04533 28.6107 0.872 26.392H5.396C5.53467 27.8133 6.02 29.096 6.852 30.24C7.71867 31.3493 8.84533 32.216 10.232 32.84C11.6533 33.464 13.2653 33.776 15.068 33.776C17.0787 33.776 18.8293 33.36 20.32 32.528C21.8453 31.696 23.0067 30.552 23.804 29.096C24.636 27.6053 25.052 25.924 25.052 24.052C25.052 22.284 24.6533 20.6893 23.856 19.268C23.0587 17.8467 21.9493 16.7373 20.528 15.94C19.1067 15.1427 17.4427 14.744 15.536 14.744C13.2827 14.744 11.3413 15.2293 9.712 16.2C8.08267 17.136 6.99067 18.4013 6.436 19.996H2.328L5.032 0.599998H28.016V4.604H8.672L6.852 17.448C7.82267 16.2 9.17467 15.2293 10.908 14.536C12.6413 13.808 14.5827 13.444 16.732 13.444C19.1587 13.444 21.3427 13.912 23.284 14.848C25.2253 15.784 26.768 17.1187 27.912 18.852C29.056 20.5853 29.628 22.6307 29.628 24.988C29.628 27.4493 29.004 29.6507 27.756 31.592C26.5427 33.5333 24.8267 35.0587 22.608 36.168C20.424 37.2427 17.9107 37.78 15.068 37.78ZM46.1567 37L57.0767 23.74L46.5727 11H51.5127L59.9367 20.984L68.3607 11H73.0927L62.5887 23.74L73.5087 37H68.6207L59.8327 26.34L50.9407 37H46.1567ZM79.8592 37V11H91.8192C94.7659 11 97.0712 11.6067 98.7352 12.82C100.434 13.9987 101.283 15.6453 101.283 17.76C101.283 19.2853 100.85 20.568 99.9832 21.608C99.1165 22.6133 97.8685 23.3413 96.2392 23.792V23.948C98.1459 24.3293 99.6192 25.0573 100.659 26.132C101.734 27.172 102.271 28.5067 102.271 30.136C102.271 32.32 101.422 34.0187 99.7232 35.232C98.0592 36.4107 95.7019 37 92.6512 37H79.8592ZM91.6112 33.932C93.6565 33.932 95.2512 33.516 96.3952 32.684C97.5392 31.8173 98.1112 30.6387 98.1112 29.148C98.1112 27.692 97.5219 26.5653 96.3432 25.768C95.1645 24.936 93.5525 24.52 91.5072 24.52H83.8112V33.932H91.6112ZM90.7792 23.48C92.8245 23.48 94.4192 23.064 95.5632 22.232C96.7419 21.4 97.3312 20.2733 97.3312 18.852C97.3312 17.3267 96.7765 16.148 95.6672 15.316C94.5579 14.484 93.0152 14.068 91.0392 14.068H83.8112V23.48H90.7792Z" fill="#FF9F42"/>
</svg>
