<svg width="101" height="37" viewBox="0 0 101 37" fill="none" xmlns="http://www.w3.org/2000/svg">
<path d="M9.932 37C10.348 33.152 11.3013 29.2347 12.792 25.248C14.2827 21.2613 16.0853 17.5 18.2 13.964C20.3493 10.428 22.6547 7.36 25.116 4.76H0.52V0.599998H29.796V4.604C27.404 7.06533 25.116 10.0813 22.932 13.652C20.7827 17.188 18.9627 21.0013 17.472 25.092C16.016 29.148 15.08 33.1173 14.664 37H9.932ZM44.6176 37L55.5376 23.74L45.0336 11H49.9736L58.3976 20.984L66.8216 11H71.5536L61.0496 23.74L71.9696 37H67.0816L58.2936 26.34L49.4016 37H44.6176ZM78.3201 37V11H90.2801C93.2268 11 95.5321 11.6067 97.1961 12.82C98.8948 13.9987 99.7441 15.6453 99.7441 17.76C99.7441 19.2853 99.3108 20.568 98.4441 21.608C97.5775 22.6133 96.3295 23.3413 94.7001 23.792V23.948C96.6068 24.3293 98.0801 25.0573 99.1201 26.132C100.195 27.172 100.732 28.5067 100.732 30.136C100.732 32.32 99.8828 34.0187 98.1841 35.232C96.5201 36.4107 94.1628 37 91.1121 37H78.3201ZM90.0721 33.932C92.1175 33.932 93.7121 33.516 94.8561 32.684C96.0001 31.8173 96.5721 30.6387 96.5721 29.148C96.5721 27.692 95.9828 26.5653 94.8041 25.768C93.6255 24.936 92.0135 24.52 89.9681 24.52H82.2721V33.932H90.0721ZM89.2401 23.48C91.2855 23.48 92.8801 23.064 94.0241 22.232C95.2028 21.4 95.7921 20.2733 95.7921 18.852C95.7921 17.3267 95.2375 16.148 94.1281 15.316C93.0188 14.484 91.4761 14.068 89.5001 14.068H82.2721V23.48H89.2401Z" fill="#FF9F42"/>
</svg>
