<svg width="58" height="78" viewBox="0 0 58 78" fill="none" xmlns="http://www.w3.org/2000/svg">
<g id="Component 8">
<g id="Vector" filter="url(#filter0_d_158_400)">
<path d="M29 0C15.1984 0 4 10.0797 4 22.5C4 42.5 29 70 29 70C29 70 54 42.5 54 22.5C54 10.0797 42.8016 0 29 0ZM29 35C27.0222 35 25.0888 34.4135 23.4443 33.3147C21.7998 32.2159 20.5181 30.6541 19.7612 28.8268C19.0043 26.9996 18.8063 24.9889 19.1921 23.0491C19.578 21.1093 20.5304 19.3275 21.9289 17.9289C23.3275 16.5304 25.1093 15.578 27.0491 15.1921C28.9889 14.8063 30.9996 15.0043 32.8268 15.7612C34.6541 16.5181 36.2159 17.7998 37.3147 19.4443C38.4135 21.0888 39 23.0222 39 25C38.9971 27.6513 37.9426 30.1931 36.0679 32.0679C34.1931 33.9426 31.6513 34.9971 29 35Z" fill="#FF9F42"/>
</g>
</g>
<defs>
<filter id="filter0_d_158_400" x="0" y="0" width="58" height="78" filterUnits="userSpaceOnUse" color-interpolation-filters="sRGB">
<feFlood flood-opacity="0" result="BackgroundImageFix"/>
<feColorMatrix in="SourceAlpha" type="matrix" values="0 0 0 0 0 0 0 0 0 0 0 0 0 0 0 0 0 0 127 0" result="hardAlpha"/>
<feOffset dy="4"/>
<feGaussianBlur stdDeviation="2"/>
<feComposite in2="hardAlpha" operator="out"/>
<feColorMatrix type="matrix" values="0 0 0 0 0 0 0 0 0 0 0 0 0 0 0 0 0 0 0.25 0"/>
<feBlend mode="normal" in2="BackgroundImageFix" result="effect1_dropShadow_158_400"/>
<feBlend mode="normal" in="SourceGraphic" in2="effect1_dropShadow_158_400" result="shape"/>
</filter>
</defs>
</svg>
