<svg width="321" height="182" viewBox="0 0 321 182" fill="none" xmlns="http://www.w3.org/2000/svg">
<path d="M85.96 9V0.36H86.842V9H85.96ZM88.6348 9V2.52H89.5168V5.334H93.1708V2.52H94.0528V9H93.1708V6.18H89.5168V9H88.6348ZM98.8026 11.7V9.126C98.1706 9.226 97.5946 9.158 97.0746 8.922C96.5546 8.682 96.1406 8.294 95.8326 7.758C95.5246 7.222 95.3706 6.558 95.3706 5.766C95.3706 4.974 95.5246 4.31 95.8326 3.774C96.1406 3.234 96.5546 2.844 97.0746 2.604C97.5946 2.364 98.1706 2.294 98.8026 2.394V0.408H99.6186V2.394C100.251 2.294 100.827 2.364 101.347 2.604C101.867 2.844 102.281 3.234 102.589 3.774C102.897 4.31 103.051 4.974 103.051 5.766C103.051 6.558 102.897 7.222 102.589 7.758C102.281 8.294 101.867 8.682 101.347 8.922C100.827 9.158 100.251 9.226 99.6186 9.126V11.7H98.8026ZM98.8026 8.304V3.222C98.4786 3.166 98.1666 3.176 97.8666 3.252C97.5666 3.324 97.2966 3.466 97.0566 3.678C96.8166 3.886 96.6266 4.164 96.4866 4.512C96.3506 4.856 96.2826 5.274 96.2826 5.766C96.2826 6.258 96.3526 6.678 96.4926 7.026C96.6326 7.37 96.8226 7.646 97.0626 7.854C97.3026 8.062 97.5726 8.202 97.8726 8.274C98.1726 8.346 98.4826 8.356 98.8026 8.304ZM99.6186 8.304C99.9386 8.356 100.249 8.346 100.549 8.274C100.849 8.202 101.119 8.064 101.359 7.86C101.599 7.652 101.789 7.376 101.929 7.032C102.069 6.684 102.139 6.262 102.139 5.766C102.139 5.27 102.069 4.85 101.929 4.506C101.793 4.158 101.605 3.88 101.365 3.672C101.125 3.464 100.855 3.324 100.555 3.252C100.255 3.176 99.9426 3.166 99.6186 3.222V8.304ZM107.277 9.18C106.681 9.18 106.177 9.03 105.765 8.73C105.353 8.426 105.041 8.016 104.829 7.5C104.617 6.98 104.511 6.398 104.511 5.754C104.511 5.098 104.617 4.514 104.829 4.002C105.045 3.486 105.361 3.08 105.777 2.784C106.193 2.488 106.705 2.34 107.313 2.34C107.905 2.34 108.413 2.49 108.837 2.79C109.261 3.09 109.585 3.498 109.809 4.014C110.037 4.53 110.151 5.11 110.151 5.754C110.151 6.402 110.037 6.984 109.809 7.5C109.581 8.016 109.253 8.426 108.825 8.73C108.397 9.03 107.881 9.18 107.277 9.18ZM104.361 11.88V2.52H105.153V7.398H105.249V11.88H104.361ZM107.187 8.358C107.639 8.358 108.015 8.244 108.315 8.016C108.615 7.788 108.839 7.478 108.987 7.086C109.139 6.69 109.215 6.246 109.215 5.754C109.215 5.266 109.141 4.826 108.993 4.434C108.845 4.042 108.619 3.732 108.315 3.504C108.015 3.276 107.633 3.162 107.169 3.162C106.717 3.162 106.341 3.272 106.041 3.492C105.745 3.712 105.523 4.018 105.375 4.41C105.227 4.798 105.153 5.246 105.153 5.754C105.153 6.254 105.227 6.702 105.375 7.098C105.523 7.49 105.747 7.798 106.047 8.022C106.347 8.246 106.727 8.358 107.187 8.358ZM113.323 9.18C112.835 9.18 112.425 9.092 112.093 8.916C111.765 8.74 111.519 8.506 111.355 8.214C111.191 7.922 111.109 7.604 111.109 7.26C111.109 6.908 111.179 6.608 111.319 6.36C111.463 6.108 111.657 5.902 111.901 5.742C112.149 5.582 112.435 5.46 112.759 5.376C113.087 5.296 113.449 5.226 113.845 5.166C114.245 5.102 114.635 5.048 115.015 5.004C115.399 4.956 115.735 4.91 116.023 4.866L115.711 5.058C115.723 4.418 115.599 3.944 115.339 3.636C115.079 3.328 114.627 3.174 113.983 3.174C113.539 3.174 113.163 3.274 112.855 3.474C112.551 3.674 112.337 3.99 112.213 4.422L111.355 4.17C111.503 3.59 111.801 3.14 112.249 2.82C112.697 2.5 113.279 2.34 113.995 2.34C114.587 2.34 115.089 2.452 115.501 2.676C115.917 2.896 116.211 3.216 116.383 3.636C116.463 3.824 116.515 4.034 116.539 4.266C116.563 4.498 116.575 4.734 116.575 4.974V9H115.789V7.374L116.017 7.47C115.797 8.026 115.455 8.45 114.991 8.742C114.527 9.034 113.971 9.18 113.323 9.18ZM113.425 8.418C113.837 8.418 114.197 8.344 114.505 8.196C114.813 8.048 115.061 7.846 115.249 7.59C115.437 7.33 115.559 7.038 115.615 6.714C115.663 6.506 115.689 6.278 115.693 6.03C115.697 5.778 115.699 5.59 115.699 5.466L116.035 5.64C115.735 5.68 115.409 5.72 115.057 5.76C114.709 5.8 114.365 5.846 114.025 5.898C113.689 5.95 113.385 6.012 113.113 6.084C112.929 6.136 112.751 6.21 112.579 6.306C112.407 6.398 112.265 6.522 112.153 6.678C112.045 6.834 111.991 7.028 111.991 7.26C111.991 7.448 112.037 7.63 112.129 7.806C112.225 7.982 112.377 8.128 112.585 8.244C112.797 8.36 113.077 8.418 113.425 8.418ZM120.825 9.18C120.173 9.18 119.621 9.034 119.169 8.742C118.717 8.45 118.373 8.048 118.137 7.536C117.905 7.02 117.785 6.428 117.777 5.76C117.785 5.08 117.909 4.484 118.149 3.972C118.389 3.456 118.735 3.056 119.187 2.772C119.639 2.484 120.187 2.34 120.831 2.34C121.487 2.34 122.057 2.5 122.541 2.82C123.029 3.14 123.363 3.578 123.543 4.134L122.679 4.41C122.527 4.022 122.285 3.722 121.953 3.51C121.625 3.294 121.249 3.186 120.825 3.186C120.349 3.186 119.955 3.296 119.643 3.516C119.331 3.732 119.099 4.034 118.947 4.422C118.795 4.81 118.717 5.256 118.713 5.76C118.721 6.536 118.901 7.16 119.253 7.632C119.605 8.1 120.129 8.334 120.825 8.334C121.265 8.334 121.639 8.234 121.947 8.034C122.259 7.83 122.495 7.534 122.655 7.146L123.543 7.41C123.303 7.986 122.951 8.426 122.487 8.73C122.023 9.03 121.469 9.18 120.825 9.18ZM126.387 9V3.336H124.089V2.52H129.567V3.336H127.269V9H126.387ZM133.621 9.18C133.025 9.18 132.521 9.03 132.109 8.73C131.697 8.426 131.385 8.016 131.173 7.5C130.961 6.98 130.855 6.398 130.855 5.754C130.855 5.098 130.961 4.514 131.173 4.002C131.389 3.486 131.705 3.08 132.121 2.784C132.537 2.488 133.049 2.34 133.657 2.34C134.249 2.34 134.757 2.49 135.181 2.79C135.605 3.09 135.929 3.498 136.153 4.014C136.381 4.53 136.495 5.11 136.495 5.754C136.495 6.402 136.381 6.984 136.153 7.5C135.925 8.016 135.597 8.426 135.169 8.73C134.741 9.03 134.225 9.18 133.621 9.18ZM130.705 11.88V2.52H131.497V7.398H131.593V11.88H130.705ZM133.531 8.358C133.983 8.358 134.359 8.244 134.659 8.016C134.959 7.788 135.183 7.478 135.331 7.086C135.483 6.69 135.559 6.246 135.559 5.754C135.559 5.266 135.485 4.826 135.337 4.434C135.189 4.042 134.963 3.732 134.659 3.504C134.359 3.276 133.977 3.162 133.513 3.162C133.061 3.162 132.685 3.272 132.385 3.492C132.089 3.712 131.867 4.018 131.719 4.41C131.571 4.798 131.497 5.246 131.497 5.754C131.497 6.254 131.571 6.702 131.719 7.098C131.867 7.49 132.091 7.798 132.391 8.022C132.691 8.246 133.071 8.358 133.531 8.358ZM138.502 11.88L139.756 8.478L139.774 9.486L136.936 2.52H137.872L140.2 8.346H139.816L141.964 2.52H142.864L139.384 11.88H138.502ZM143.9 9L143.906 2.52H144.794V5.64L147.686 2.52H148.862L145.826 5.76L149.258 9H147.974L144.794 5.88V9H143.9ZM151.618 9V3.336H149.32V2.52H154.798V3.336H152.5V9H151.618ZM156.784 11.88L158.038 8.478L158.056 9.486L155.218 2.52H156.154L158.482 8.346H158.098L160.246 2.52H161.146L157.666 11.88H156.784ZM165.098 9.18C164.502 9.18 163.998 9.03 163.586 8.73C163.174 8.426 162.862 8.016 162.65 7.5C162.438 6.98 162.332 6.398 162.332 5.754C162.332 5.098 162.438 4.514 162.65 4.002C162.866 3.486 163.182 3.08 163.598 2.784C164.014 2.488 164.526 2.34 165.134 2.34C165.726 2.34 166.234 2.49 166.658 2.79C167.082 3.09 167.406 3.498 167.63 4.014C167.858 4.53 167.972 5.11 167.972 5.754C167.972 6.402 167.858 6.984 167.63 7.5C167.402 8.016 167.074 8.426 166.646 8.73C166.218 9.03 165.702 9.18 165.098 9.18ZM162.182 11.88V2.52H162.974V7.398H163.07V11.88H162.182ZM165.008 8.358C165.46 8.358 165.836 8.244 166.136 8.016C166.436 7.788 166.66 7.478 166.808 7.086C166.96 6.69 167.036 6.246 167.036 5.754C167.036 5.266 166.962 4.826 166.814 4.434C166.666 4.042 166.44 3.732 166.136 3.504C165.836 3.276 165.454 3.162 164.99 3.162C164.538 3.162 164.162 3.272 163.862 3.492C163.566 3.712 163.344 4.018 163.196 4.41C163.048 4.798 162.974 5.246 162.974 5.754C162.974 6.254 163.048 6.702 163.196 7.098C163.344 7.49 163.568 7.798 163.868 8.022C164.168 8.246 164.548 8.358 165.008 8.358ZM171.143 9.18C170.655 9.18 170.245 9.092 169.913 8.916C169.585 8.74 169.339 8.506 169.175 8.214C169.011 7.922 168.929 7.604 168.929 7.26C168.929 6.908 168.999 6.608 169.139 6.36C169.283 6.108 169.477 5.902 169.721 5.742C169.969 5.582 170.255 5.46 170.579 5.376C170.907 5.296 171.269 5.226 171.665 5.166C172.065 5.102 172.455 5.048 172.835 5.004C173.219 4.956 173.555 4.91 173.843 4.866L173.531 5.058C173.543 4.418 173.419 3.944 173.159 3.636C172.899 3.328 172.447 3.174 171.803 3.174C171.359 3.174 170.983 3.274 170.675 3.474C170.371 3.674 170.157 3.99 170.033 4.422L169.175 4.17C169.323 3.59 169.621 3.14 170.069 2.82C170.517 2.5 171.099 2.34 171.815 2.34C172.407 2.34 172.909 2.452 173.321 2.676C173.737 2.896 174.031 3.216 174.203 3.636C174.283 3.824 174.335 4.034 174.359 4.266C174.383 4.498 174.395 4.734 174.395 4.974V9H173.609V7.374L173.837 7.47C173.617 8.026 173.275 8.45 172.811 8.742C172.347 9.034 171.791 9.18 171.143 9.18ZM171.245 8.418C171.657 8.418 172.017 8.344 172.325 8.196C172.633 8.048 172.881 7.846 173.069 7.59C173.257 7.33 173.379 7.038 173.435 6.714C173.483 6.506 173.509 6.278 173.513 6.03C173.517 5.778 173.519 5.59 173.519 5.466L173.855 5.64C173.555 5.68 173.229 5.72 172.877 5.76C172.529 5.8 172.185 5.846 171.845 5.898C171.509 5.95 171.205 6.012 170.933 6.084C170.749 6.136 170.571 6.21 170.399 6.306C170.227 6.398 170.085 6.522 169.973 6.678C169.865 6.834 169.811 7.028 169.811 7.26C169.811 7.448 169.857 7.63 169.949 7.806C170.045 7.982 170.197 8.128 170.405 8.244C170.617 8.36 170.897 8.418 171.245 8.418Z" fill="#FF9F42"/>
<line x1="65" y1="5.5" x2="4.37114e-08" y2="5.50001" stroke="#FF9F42"/>
<path d="M17.444 45.42C15.764 45.42 14.224 45.1213 12.824 44.524C11.4427 43.908 10.3133 42.9933 9.436 41.78C8.55867 40.548 8.064 39.064 7.952 37.328H12.32C12.488 38.5973 13.02 39.596 13.916 40.324C14.812 41.0333 15.96 41.388 17.36 41.388C18.648 41.388 19.6653 41.1173 20.412 40.576C21.1587 40.016 21.532 39.2693 21.532 38.336C21.532 37.776 21.392 37.2813 21.112 36.852C20.832 36.4227 20.4213 36.0867 19.88 35.844C19.3573 35.6013 18.76 35.48 18.088 35.48H15.82V34.92H18.088C18.6667 34.92 19.18 34.7987 19.628 34.556C20.0947 34.2947 20.4587 33.9493 20.72 33.52C20.9813 33.0907 21.112 32.6147 21.112 32.092C21.112 31.476 20.9347 30.9347 20.58 30.468C20.244 30.0013 19.768 29.6467 19.152 29.404C18.5547 29.1613 17.864 29.04 17.08 29.04C15.8107 29.04 14.7653 29.3573 13.944 29.992C13.1413 30.608 12.656 31.4667 12.488 32.568H8.148C8.372 30.888 8.92267 29.4787 9.8 28.34C10.696 27.2013 11.8067 26.3613 13.132 25.82C14.4573 25.26 15.9133 24.98 17.5 24.98C18.9373 24.98 20.2627 25.204 21.476 25.652C22.708 26.1 23.6787 26.7533 24.388 27.612C25.116 28.4707 25.48 29.4787 25.48 30.636C25.48 31.756 25.1347 32.7173 24.444 33.52C23.772 34.304 22.848 34.8547 21.672 35.172C22.9227 35.4333 23.9307 35.956 24.696 36.74C25.4613 37.524 25.844 38.4667 25.844 39.568C25.844 40.744 25.48 41.78 24.752 42.676C24.0427 43.5533 23.0533 44.2347 21.784 44.72C20.5147 45.1867 19.068 45.42 17.444 45.42ZM27.1922 45L34.6122 25.4H40.3802L47.8002 45H43.0682L40.9682 39.344H33.9402L31.8122 45H27.1922ZM34.1362 38.812H40.7722L37.4682 30.132L34.1362 38.812ZM51.0604 45V25.4H60.6364C62.6337 25.4 64.2017 25.848 65.3404 26.744C66.4977 27.64 67.0764 28.872 67.0764 30.44C67.0764 31.5787 66.7591 32.54 66.1244 33.324C65.5084 34.108 64.6311 34.6773 63.4924 35.032V35.172C64.7991 35.4893 65.8257 36.068 66.5724 36.908C67.3191 37.748 67.6924 38.7653 67.6924 39.96C67.6924 40.968 67.4311 41.8547 66.9084 42.62C66.4044 43.3853 65.6764 43.9733 64.7244 44.384C63.7911 44.7947 62.6991 45 61.4484 45H51.0604ZM59.8524 40.8C60.8044 40.8 61.5697 40.5573 62.1484 40.072C62.7271 39.568 63.0164 38.924 63.0164 38.14C63.0164 37.3373 62.7177 36.6933 62.1204 36.208C61.5417 35.7227 60.7857 35.48 59.8524 35.48H55.5404V40.8H59.8524ZM59.4604 34.92C60.4124 34.92 61.1777 34.6773 61.7564 34.192C62.3351 33.688 62.6244 33.044 62.6244 32.26C62.6244 31.4573 62.3351 30.8133 61.7564 30.328C61.1777 29.8427 60.4124 29.6 59.4604 29.6H55.5404V34.92H59.4604ZM69.5496 49.088V40.912H71.7616C72.0976 39.3253 72.3403 37.692 72.4896 36.012C72.6389 34.3133 72.7136 32.2507 72.7136 29.824C72.7136 29.6747 72.7136 29.5253 72.7136 29.376C72.7136 29.208 72.7136 29.0307 72.7136 28.844V25.4H88.4216V40.912H91.1096V49.088H86.8256V45H73.8336V49.088H69.5496ZM76.0456 40.996H84.0256V29.404H77.0536V30.804C77.0349 32.9133 76.9416 34.7613 76.7736 36.348C76.6243 37.916 76.3816 39.4653 76.0456 40.996ZM98.5058 36.124C97.1618 35.7507 96.1164 35.116 95.3698 34.22C94.6231 33.324 94.2498 32.2413 94.2498 30.972C94.2498 29.236 94.9591 27.8733 96.3778 26.884C97.7964 25.8947 99.7471 25.4 102.23 25.4H109.874V45H105.394V36.572H103.574C103.536 36.572 103.499 36.572 103.462 36.572C103.424 36.572 103.387 36.5627 103.35 36.544C103.331 36.544 103.303 36.544 103.266 36.544C103.228 36.544 103.191 36.544 103.154 36.544L97.2738 45H92.3178L98.5058 36.124ZM102.706 36.012H105.394V29.292H102.706C101.511 29.292 100.55 29.6 99.8218 30.216C99.0938 30.832 98.7298 31.644 98.7298 32.652C98.7298 33.66 99.0938 34.472 99.8218 35.088C100.55 35.704 101.511 36.012 102.706 36.012ZM115.373 45V25.4H119.825V34.92H121.505L128.029 25.4H132.929L126.405 34.836L133.349 45H128.001L121.477 35.48H119.825V45H115.373ZM136.619 45V25.4H141.099V43.6L150.143 25.4H154.651V45H150.171V26.744L141.099 45H136.619ZM167.135 45V25.4H176.711C178.708 25.4 180.276 25.848 181.415 26.744C182.572 27.64 183.151 28.872 183.151 30.44C183.151 31.5787 182.833 32.54 182.199 33.324C181.583 34.108 180.705 34.6773 179.567 35.032V35.172C180.873 35.4893 181.9 36.068 182.647 36.908C183.393 37.748 183.767 38.7653 183.767 39.96C183.767 40.968 183.505 41.8547 182.983 42.62C182.479 43.3853 181.751 43.9733 180.799 44.384C179.865 44.7947 178.773 45 177.523 45H167.135ZM175.927 40.8C176.879 40.8 177.644 40.5573 178.223 40.072C178.801 39.568 179.091 38.924 179.091 38.14C179.091 37.3373 178.792 36.6933 178.195 36.208C177.616 35.7227 176.86 35.48 175.927 35.48H171.615V40.8H175.927ZM175.535 34.92C176.487 34.92 177.252 34.6773 177.831 34.192C178.409 33.688 178.699 33.044 178.699 32.26C178.699 31.4573 178.409 30.8133 177.831 30.328C177.252 29.8427 176.487 29.6 175.535 29.6H171.615V34.92H175.535ZM187.752 45V25.4H192.232V43.6L201.276 25.4H205.784V45H201.304V26.744L192.232 45H187.752ZM211.267 45V25.4H225.379V29.712H215.747V45H211.267ZM228.932 45V25.4H233.412V45H228.932ZM236.784 49.088V40.912H238.996C239.332 39.3253 239.575 37.692 239.724 36.012C239.873 34.3133 239.948 32.2507 239.948 29.824C239.948 29.6747 239.948 29.5253 239.948 29.376C239.948 29.208 239.948 29.0307 239.948 28.844V25.4H255.656V40.912H258.344V49.088H254.06V45H241.068V49.088H236.784ZM243.28 40.996H251.26V29.404H244.288V30.804C244.269 32.9133 244.176 34.7613 244.008 36.348C243.859 37.916 243.616 39.4653 243.28 40.996ZM262.072 45V25.4H266.552V34.92H275.064V25.4H279.544V45H275.064V35.48H266.552V45H262.072ZM285.041 45V25.4H289.521V45H285.041ZM295.021 45V25.4H299.501V43.6L308.545 25.4H313.053V45H308.573V26.744L299.501 45H295.021ZM304.037 23.888C302.936 23.888 301.956 23.664 301.097 23.216C300.257 22.768 299.604 22.1613 299.137 21.396C298.671 20.612 298.437 19.7347 298.437 18.764V18.54H301.629V18.736C301.629 19.4267 301.853 19.9867 302.301 20.416C302.749 20.8453 303.328 21.06 304.037 21.06C304.765 21.06 305.353 20.8453 305.801 20.416C306.249 19.9867 306.473 19.4267 306.473 18.736V18.54H309.637V18.764C309.637 19.7347 309.404 20.612 308.937 21.396C308.471 22.1613 307.808 22.768 306.949 23.216C306.109 23.664 305.139 23.888 304.037 23.888ZM58.912 79.392C58.3707 79.392 57.8947 79.3547 57.484 79.28C57.0733 79.2053 56.7187 79.112 56.42 79V74.688C56.4387 74.688 56.448 74.688 56.448 74.688C56.784 74.744 57.092 74.7813 57.372 74.8C57.6707 74.8187 57.9973 74.828 58.352 74.828C58.576 74.828 58.7813 74.7813 58.968 74.688C59.1547 74.576 59.3133 74.4173 59.444 74.212C59.5933 74.0067 59.7053 73.7453 59.78 73.428C60.0413 72.5133 60.2187 71.132 60.312 69.284C60.424 67.436 60.48 65.1867 60.48 62.536V59.4H75.992V79H71.512V63.712H64.764V64.524C64.7453 67.212 64.624 69.6667 64.4 71.888C64.1947 74.1093 63.8307 75.7333 63.308 76.76C62.86 77.656 62.2813 78.3187 61.572 78.748C60.8627 79.1773 59.976 79.392 58.912 79.392ZM90.0152 79.42C88.0739 79.42 86.3192 78.9813 84.7512 78.104C83.1832 77.208 81.9512 75.9853 81.0552 74.436C80.1779 72.868 79.7392 71.1227 79.7392 69.2C79.7392 67.2773 80.1779 65.5413 81.0552 63.992C81.9512 62.424 83.1832 61.2013 84.7512 60.324C86.3192 59.428 88.0739 58.98 90.0152 58.98C91.9565 58.98 93.7112 59.428 95.2792 60.324C96.8472 61.2013 98.0699 62.424 98.9472 63.992C99.8432 65.5413 100.291 67.2773 100.291 69.2C100.291 71.1227 99.8432 72.868 98.9472 74.436C98.0699 75.9853 96.8472 77.208 95.2792 78.104C93.7112 78.9813 91.9565 79.42 90.0152 79.42ZM90.0152 75.024C91.0979 75.024 92.0685 74.772 92.9272 74.268C93.8045 73.764 94.4859 73.0733 94.9712 72.196C95.4752 71.3 95.7272 70.3013 95.7272 69.2C95.7272 68.0987 95.4752 67.1093 94.9712 66.232C94.4859 65.336 93.8045 64.636 92.9272 64.132C92.0685 63.6093 91.0979 63.348 90.0152 63.348C88.9325 63.348 87.9619 63.6093 87.1032 64.132C86.2445 64.636 85.5632 65.336 85.0592 66.232C84.5739 67.1093 84.3312 68.0987 84.3312 69.2C84.3312 70.3013 84.5739 71.3 85.0592 72.196C85.5632 73.0733 86.2445 73.764 87.1032 74.268C87.9619 74.772 88.9325 75.024 90.0152 75.024ZM104.025 79V59.4H108.477V68.92H110.157L116.681 59.4H121.581L115.057 68.836L122.001 79H116.653L110.129 69.48H108.477V79H104.025ZM122.458 79L129.878 59.4H135.646L143.066 79H138.334L136.234 73.344H129.206L127.078 79H122.458ZM129.402 72.812H136.038L132.734 64.132L129.402 72.812ZM161.894 83.088V79H146.326V59.4H150.806V74.912H159.318V59.4H163.798V74.912H166.178V83.088H161.894ZM169.896 79V59.4H174.376V79H169.896ZM179.877 79V59.4H184.357V79H179.877ZM179.681 57.804L177.553 52.54H182.033L179.933 57.804H179.681ZM184.329 57.804L182.201 52.54H186.681L184.581 57.804H184.329ZM191.761 81.772H189.605C189.848 81.38 190.072 80.96 190.277 80.512C190.483 80.064 190.632 79.6067 190.725 79.14C190.707 79.14 190.697 79.14 190.697 79.14C190.697 79.14 190.688 79.14 190.669 79.14C190.016 78.9347 189.521 78.608 189.185 78.16C188.868 77.712 188.709 77.208 188.709 76.648C188.709 76.2 188.812 75.7707 189.017 75.36C189.241 74.9493 189.549 74.6133 189.941 74.352C190.352 74.0907 190.819 73.96 191.341 73.96C192.088 73.96 192.723 74.2027 193.245 74.688C193.787 75.1733 194.057 75.836 194.057 76.676C194.057 77.516 193.824 78.44 193.357 79.448C192.909 80.456 192.377 81.2307 191.761 81.772ZM220.373 113V93.4H229.949C231.946 93.4 233.514 93.848 234.653 94.744C235.81 95.64 236.389 96.872 236.389 98.44C236.389 99.5787 236.072 100.54 235.437 101.324C234.821 102.108 233.944 102.677 232.805 103.032V103.172C234.112 103.489 235.138 104.068 235.885 104.908C236.632 105.748 237.005 106.765 237.005 107.96C237.005 108.968 236.744 109.855 236.221 110.62C235.717 111.385 234.989 111.973 234.037 112.384C233.104 112.795 232.012 113 230.761 113H220.373ZM229.165 108.8C230.117 108.8 230.882 108.557 231.461 108.072C232.04 107.568 232.329 106.924 232.329 106.14C232.329 105.337 232.03 104.693 231.433 104.208C230.854 103.723 230.098 103.48 229.165 103.48H224.853V108.8H229.165ZM228.773 102.92C229.725 102.92 230.49 102.677 231.069 102.192C231.648 101.688 231.937 101.044 231.937 100.26C231.937 99.4573 231.648 98.8133 231.069 98.328C230.49 97.8427 229.725 97.6 228.773 97.6H224.853V102.92H228.773ZM249.563 113.42C247.621 113.42 245.876 112.981 244.327 112.104C242.796 111.227 241.592 110.013 240.715 108.464C239.856 106.915 239.427 105.16 239.427 103.2C239.427 101.24 239.856 99.4853 240.715 97.936C241.592 96.3867 242.796 95.1733 244.327 94.296C245.876 93.4187 247.621 92.98 249.563 92.98C251.261 92.98 252.811 93.344 254.211 94.072C255.629 94.7813 256.768 95.78 257.627 97.068C258.504 98.356 259.008 99.8027 259.139 101.408H254.603C254.435 100.587 254.108 99.8773 253.623 99.28C253.156 98.664 252.568 98.188 251.859 97.852C251.168 97.516 250.384 97.348 249.507 97.348C248.443 97.348 247.491 97.6 246.651 98.104C245.829 98.608 245.185 99.308 244.719 100.204C244.252 101.081 244.019 102.08 244.019 103.2C244.019 104.32 244.252 105.328 244.719 106.224C245.185 107.101 245.829 107.792 246.651 108.296C247.491 108.781 248.443 109.024 249.507 109.024C250.384 109.024 251.168 108.865 251.859 108.548C252.568 108.212 253.156 107.745 253.623 107.148C254.108 106.532 254.435 105.813 254.603 104.992H259.139C259.008 106.597 258.504 108.044 257.627 109.332C256.768 110.62 255.629 111.628 254.211 112.356C252.811 113.065 251.261 113.42 249.563 113.42ZM266.67 104.124C265.326 103.751 264.28 103.116 263.534 102.22C262.787 101.324 262.414 100.241 262.414 98.972C262.414 97.236 263.123 95.8733 264.542 94.884C265.96 93.8947 267.911 93.4 270.394 93.4H278.038V113H273.558V104.572H271.738C271.7 104.572 271.663 104.572 271.626 104.572C271.588 104.572 271.551 104.563 271.514 104.544C271.495 104.544 271.467 104.544 271.43 104.544C271.392 104.544 271.355 104.544 271.318 104.544L265.438 113H260.482L266.67 104.124ZM270.87 104.012H273.558V97.292H270.87C269.675 97.292 268.714 97.6 267.986 98.216C267.258 98.832 266.894 99.644 266.894 100.652C266.894 101.66 267.258 102.472 267.986 103.088C268.714 103.704 269.675 104.012 270.87 104.012ZM9.744 147V127.4H14.224V136.92H22.736V127.4H27.216V147H22.736V137.48H14.224V147H9.744ZM32.7128 147V127.4H46.2368V131.292H37.1088V136.92H43.3248V137.48H37.1088V143.108H47.0488V147H32.7128ZM59.1714 147.42C57.2301 147.42 55.4754 146.981 53.9074 146.104C52.3394 145.208 51.1074 143.985 50.2114 142.436C49.3341 140.868 48.8954 139.123 48.8954 137.2C48.8954 135.277 49.3341 133.541 50.2114 131.992C51.1074 130.424 52.3394 129.201 53.9074 128.324C55.4754 127.428 57.2301 126.98 59.1714 126.98C61.1128 126.98 62.8674 127.428 64.4354 128.324C66.0034 129.201 67.2261 130.424 68.1034 131.992C68.9994 133.541 69.4474 135.277 69.4474 137.2C69.4474 139.123 68.9994 140.868 68.1034 142.436C67.2261 143.985 66.0034 145.208 64.4354 146.104C62.8674 146.981 61.1128 147.42 59.1714 147.42ZM59.1714 143.024C60.2541 143.024 61.2248 142.772 62.0834 142.268C62.9608 141.764 63.6421 141.073 64.1274 140.196C64.6314 139.3 64.8834 138.301 64.8834 137.2C64.8834 136.099 64.6314 135.109 64.1274 134.232C63.6421 133.336 62.9608 132.636 62.0834 132.132C61.2248 131.609 60.2541 131.348 59.1714 131.348C58.0888 131.348 57.1181 131.609 56.2594 132.132C55.4008 132.636 54.7194 133.336 54.2154 134.232C53.7301 135.109 53.4874 136.099 53.4874 137.2C53.4874 138.301 53.7301 139.3 54.2154 140.196C54.7194 141.073 55.4008 141.764 56.2594 142.268C57.1181 142.772 58.0888 143.024 59.1714 143.024ZM73.5643 147V127.4H88.3203V131.292H77.8483V135.912H82.3003C84.559 135.912 86.3416 136.407 87.6483 137.396C88.955 138.385 89.6083 139.739 89.6083 141.456C89.6083 143.173 88.955 144.527 87.6483 145.516C86.3416 146.505 84.559 147 82.3003 147H73.5643ZM81.2363 143.108C82.4123 143.108 83.355 142.809 84.0643 142.212C84.7736 141.596 85.1283 140.784 85.1283 139.776C85.1283 138.768 84.7736 137.965 84.0643 137.368C83.355 136.771 82.4123 136.472 81.2363 136.472H77.8483V143.108H81.2363ZM90.9825 147L97.8705 136.92L91.2625 127.4H96.4705L101.147 134.148L105.795 127.4H110.891L104.255 136.892L111.199 147H105.935L101.035 139.916L96.1065 147H90.9825ZM114.334 147V127.4H118.814V147H114.334ZM122.186 151.088V142.912H124.398C124.734 141.325 124.977 139.692 125.126 138.012C125.276 136.313 125.35 134.251 125.35 131.824C125.35 131.675 125.35 131.525 125.35 131.376C125.35 131.208 125.35 131.031 125.35 130.844V127.4H141.058V142.912H143.746V151.088H139.462V147H126.47V151.088H122.186ZM128.682 142.996H136.662V131.404H129.69V132.804C129.672 134.913 129.578 136.761 129.41 138.348C129.261 139.916 129.018 141.465 128.682 142.996ZM147.474 147V127.4H151.954V136.92H160.466V127.4H164.946V147H160.466V137.48H151.954V147H147.474ZM168.231 147L175.651 127.4H181.419L188.839 147H184.107L182.007 141.344H174.979L172.851 147H168.231ZM175.175 140.812H181.811L178.507 132.132L175.175 140.812Z" fill="black"/>
<path d="M205.361 79V59.4H222.833V79H218.353V63.712H209.841V79H205.361ZM236.851 79.42C234.91 79.42 233.155 78.9813 231.587 78.104C230.019 77.208 228.787 75.9853 227.891 74.436C227.014 72.868 226.575 71.1227 226.575 69.2C226.575 67.2773 227.014 65.5413 227.891 63.992C228.787 62.424 230.019 61.2013 231.587 60.324C233.155 59.428 234.91 58.98 236.851 58.98C238.792 58.98 240.547 59.428 242.115 60.324C243.683 61.2013 244.906 62.424 245.783 63.992C246.679 65.5413 247.127 67.2773 247.127 69.2C247.127 71.1227 246.679 72.868 245.783 74.436C244.906 75.9853 243.683 77.208 242.115 78.104C240.547 78.9813 238.792 79.42 236.851 79.42ZM236.851 75.024C237.934 75.024 238.904 74.772 239.763 74.268C240.64 73.764 241.322 73.0733 241.807 72.196C242.311 71.3 242.563 70.3013 242.563 69.2C242.563 68.0987 242.311 67.1093 241.807 66.232C241.322 65.336 240.64 64.636 239.763 64.132C238.904 63.6093 237.934 63.348 236.851 63.348C235.768 63.348 234.798 63.6093 233.939 64.132C233.08 64.636 232.399 65.336 231.895 66.232C231.41 67.1093 231.167 68.0987 231.167 69.2C231.167 70.3013 231.41 71.3 231.895 72.196C232.399 73.0733 233.08 73.764 233.939 74.268C234.798 74.772 235.768 75.024 236.851 75.024ZM250.861 79V59.4H258.477C260.941 59.4 262.883 59.904 264.301 60.912C265.72 61.9013 266.429 63.264 266.429 65C266.429 66.736 265.767 68.108 264.441 69.116C263.135 70.1053 261.343 70.6 259.065 70.6H255.341V79H250.861ZM257.973 70.04C259.187 70.04 260.148 69.732 260.857 69.116C261.585 68.5 261.949 67.688 261.949 66.68C261.949 65.6533 261.585 64.832 260.857 64.216C260.148 63.6 259.187 63.292 257.973 63.292H255.341V70.04H257.973ZM273.56 70.124C272.216 69.7507 271.171 69.116 270.424 68.22C269.678 67.324 269.304 66.2413 269.304 64.972C269.304 63.236 270.014 61.8733 271.432 60.884C272.851 59.8947 274.802 59.4 277.284 59.4H284.928V79H280.448V70.572H278.628C278.591 70.572 278.554 70.572 278.516 70.572C278.479 70.572 278.442 70.5627 278.404 70.544C278.386 70.544 278.358 70.544 278.32 70.544C278.283 70.544 278.246 70.544 278.208 70.544L272.328 79H267.372L273.56 70.124ZM277.76 70.012H280.448V63.292H277.76C276.566 63.292 275.604 63.6 274.876 64.216C274.148 64.832 273.784 65.644 273.784 66.652C273.784 67.66 274.148 68.472 274.876 69.088C275.604 69.704 276.566 70.012 277.76 70.012ZM288.3 83.088V74.912H290.512C290.848 73.3253 291.09 71.692 291.24 70.012C291.389 68.3133 291.464 66.2507 291.464 63.824C291.464 63.6747 291.464 63.5253 291.464 63.376C291.464 63.208 291.464 63.0307 291.464 62.844V59.4H307.172V74.912H309.86V83.088H305.576V79H292.584V83.088H288.3ZM294.796 74.996H302.776V63.404H295.804V64.804C295.785 66.9133 295.692 68.7613 295.524 70.348C295.374 71.916 295.132 73.4653 294.796 74.996ZM35.616 117.088V108.912H37.828C38.164 107.325 38.4067 105.692 38.556 104.012C38.7053 102.313 38.78 100.251 38.78 97.824C38.78 97.6747 38.78 97.5253 38.78 97.376C38.78 97.208 38.78 97.0307 38.78 96.844V93.4H54.488V108.912H57.176V117.088H52.892V113H39.9V117.088H35.616ZM42.112 108.996H50.092V97.404H43.12V98.804C43.1013 100.913 43.008 102.761 42.84 104.348C42.6907 105.916 42.448 107.465 42.112 108.996ZM69.4253 113.42C67.484 113.42 65.7293 112.981 64.1613 112.104C62.5933 111.208 61.3613 109.985 60.4653 108.436C59.588 106.868 59.1493 105.123 59.1493 103.2C59.1493 101.277 59.588 99.5413 60.4653 97.992C61.3613 96.424 62.5933 95.2013 64.1613 94.324C65.7293 93.428 67.484 92.98 69.4253 92.98C71.3667 92.98 73.1213 93.428 74.6893 94.324C76.2573 95.2013 77.48 96.424 78.3573 97.992C79.2533 99.5413 79.7013 101.277 79.7013 103.2C79.7013 105.123 79.2533 106.868 78.3573 108.436C77.48 109.985 76.2573 111.208 74.6893 112.104C73.1213 112.981 71.3667 113.42 69.4253 113.42ZM69.4253 109.024C70.508 109.024 71.4787 108.772 72.3373 108.268C73.2147 107.764 73.896 107.073 74.3813 106.196C74.8853 105.3 75.1373 104.301 75.1373 103.2C75.1373 102.099 74.8853 101.109 74.3813 100.232C73.896 99.336 73.2147 98.636 72.3373 98.132C71.4787 97.6093 70.508 97.348 69.4253 97.348C68.3427 97.348 67.372 97.6093 66.5133 98.132C65.6547 98.636 64.9733 99.336 64.4693 100.232C63.984 101.109 63.7413 102.099 63.7413 103.2C63.7413 104.301 63.984 105.3 64.4693 106.196C64.9733 107.073 65.6547 107.764 66.5133 108.268C67.372 108.772 68.3427 109.024 69.4253 109.024ZM92.5822 113.42C90.6409 113.42 88.8956 112.981 87.3462 112.104C85.8156 111.227 84.6116 110.013 83.7342 108.464C82.8756 106.915 82.4462 105.16 82.4462 103.2C82.4462 101.24 82.8756 99.4853 83.7342 97.936C84.6116 96.3867 85.8156 95.1733 87.3462 94.296C88.8956 93.4187 90.6409 92.98 92.5822 92.98C94.2809 92.98 95.8302 93.344 97.2302 94.072C98.6489 94.7813 99.7876 95.78 100.646 97.068C101.524 98.356 102.028 99.8027 102.158 101.408H97.6222C97.4542 100.587 97.1276 99.8773 96.6422 99.28C96.1756 98.664 95.5876 98.188 94.8782 97.852C94.1876 97.516 93.4036 97.348 92.5262 97.348C91.4622 97.348 90.5102 97.6 89.6702 98.104C88.8489 98.608 88.2049 99.308 87.7382 100.204C87.2716 101.081 87.0382 102.08 87.0382 103.2C87.0382 104.32 87.2716 105.328 87.7382 106.224C88.2049 107.101 88.8489 107.792 89.6702 108.296C90.5102 108.781 91.4622 109.024 92.5262 109.024C93.4036 109.024 94.1876 108.865 94.8782 108.548C95.5876 108.212 96.1756 107.745 96.6422 107.148C97.1276 106.532 97.4542 105.813 97.6222 104.992H102.158C102.028 106.597 101.524 108.044 100.646 109.332C99.7876 110.62 98.6489 111.628 97.2302 112.356C95.8302 113.065 94.2809 113.42 92.5822 113.42ZM110.625 113V97.712H103.569V93.4H122.133V97.712H115.105V113H110.625ZM130.844 113.42C129.612 113.42 128.501 113.168 127.512 112.664C126.541 112.141 125.776 111.413 125.216 110.48C124.675 109.547 124.404 108.483 124.404 107.288V106.28H128.8V107.372C128.8 108.044 128.977 108.595 129.332 109.024C129.705 109.435 130.191 109.64 130.788 109.64C131.273 109.64 131.647 109.519 131.908 109.276C132.188 109.015 132.328 108.679 132.328 108.268C132.328 107.745 132.16 107.223 131.824 106.7L123.06 93.4H128.408L134.288 103.2C134.381 103.349 134.465 103.517 134.54 103.704C134.615 103.872 134.68 104.059 134.736 104.264L137.984 93.4H142.548L137.676 107.652C137.023 109.593 136.136 111.04 135.016 111.992C133.915 112.944 132.524 113.42 130.844 113.42ZM145.779 113V93.4H163.251V113H158.771V97.712H150.259V113H145.779ZM168.748 113V93.4H173.228V102.92H181.74V93.4H186.22V113H181.74V103.48H173.228V113H168.748ZM189.505 113L196.925 93.4H202.693L210.113 113H205.381L203.281 107.344H196.253L194.125 113H189.505ZM196.449 106.812H203.085L199.781 98.132L196.449 106.812ZM16.744 181V161.4H21.224V181H16.744ZM26.7245 181V161.4H31.2045V170.92H39.7165V161.4H44.1965V181H39.7165V171.48H31.2045V181H26.7245ZM59.2132 181V177.724H56.7212C55.0972 177.724 53.6599 177.444 52.4092 176.884C51.1586 176.324 50.1879 175.521 49.4972 174.476C48.8252 173.431 48.4892 172.227 48.4892 170.864C48.4892 169.464 48.8532 168.232 49.5812 167.168C50.3279 166.104 51.4199 165.283 52.8572 164.704C54.3132 164.107 56.0586 163.808 58.0932 163.808H59.2132V161.12H63.6932V163.808H64.8132C66.8666 163.808 68.6119 164.107 70.0492 164.704C71.4866 165.283 72.5692 166.104 73.2972 167.168C74.0439 168.232 74.4172 169.464 74.4172 170.864C74.4172 172.227 74.0719 173.431 73.3812 174.476C72.7092 175.521 71.7479 176.324 70.4972 176.884C69.2466 177.444 67.8092 177.724 66.1852 177.724H63.6932V181H59.2132ZM57.9252 177.164H59.2132V167.7H57.9252C56.2266 167.7 54.8732 168.12 53.8652 168.96C52.8759 169.8 52.3812 170.939 52.3812 172.376C52.3812 173.309 52.6052 174.14 53.0532 174.868C53.5199 175.596 54.1732 176.165 55.0132 176.576C55.8532 176.968 56.8239 177.164 57.9252 177.164ZM65.0092 177.164C66.1106 177.164 67.0719 176.968 67.8932 176.576C68.7332 176.165 69.3772 175.596 69.8252 174.868C70.2919 174.14 70.5252 173.309 70.5252 172.376C70.5252 170.939 70.0212 169.8 69.0132 168.96C68.0239 168.12 66.6892 167.7 65.0092 167.7H63.6932V177.164H65.0092ZM78.7049 181V161.4H86.3209C88.7849 161.4 90.7263 161.904 92.1449 162.912C93.5636 163.901 94.2729 165.264 94.2729 167C94.2729 168.736 93.6103 170.108 92.2849 171.116C90.9783 172.105 89.1863 172.6 86.9089 172.6H83.1849V181H78.7049ZM85.8169 172.04C87.0303 172.04 87.9916 171.732 88.7009 171.116C89.4289 170.5 89.7929 169.688 89.7929 168.68C89.7929 167.653 89.4289 166.832 88.7009 166.216C87.9916 165.6 87.0303 165.292 85.8169 165.292H83.1849V172.04H85.8169ZM94.4031 181L101.823 161.4H107.591L115.011 181H110.279L108.179 175.344H101.151L99.0231 181H94.4031ZM101.347 174.812H107.983L104.679 166.132L101.347 174.812ZM126.242 181.42C124.301 181.42 122.556 180.981 121.006 180.104C119.476 179.227 118.272 178.013 117.394 176.464C116.536 174.915 116.106 173.16 116.106 171.2C116.106 169.24 116.536 167.485 117.394 165.936C118.272 164.387 119.476 163.173 121.006 162.296C122.556 161.419 124.301 160.98 126.242 160.98C127.941 160.98 129.49 161.344 130.89 162.072C132.309 162.781 133.448 163.78 134.306 165.068C135.184 166.356 135.688 167.803 135.818 169.408H131.282C131.114 168.587 130.788 167.877 130.302 167.28C129.836 166.664 129.248 166.188 128.538 165.852C127.848 165.516 127.064 165.348 126.186 165.348C125.122 165.348 124.17 165.6 123.33 166.104C122.509 166.608 121.865 167.308 121.398 168.204C120.932 169.081 120.698 170.08 120.698 171.2C120.698 172.32 120.932 173.328 121.398 174.224C121.865 175.101 122.509 175.792 123.33 176.296C124.17 176.781 125.122 177.024 126.186 177.024C127.064 177.024 127.848 176.865 128.538 176.548C129.248 176.212 129.836 175.745 130.302 175.148C130.788 174.532 131.114 173.813 131.282 172.992H135.818C135.688 174.597 135.184 176.044 134.306 177.332C133.448 178.62 132.309 179.628 130.89 180.356C129.49 181.065 127.941 181.42 126.242 181.42ZM144.285 181V165.712H137.229V161.4H155.793V165.712H148.765V181H144.285ZM159.287 181V161.4H166.903C169.367 161.4 171.308 161.904 172.727 162.912C174.146 163.901 174.855 165.264 174.855 167C174.855 168.736 174.192 170.108 172.867 171.116C171.56 172.105 169.768 172.6 167.491 172.6H163.767V181H159.287ZM166.399 172.04C167.612 172.04 168.574 171.732 169.283 171.116C170.011 170.5 170.375 169.688 170.375 168.68C170.375 167.653 170.011 166.832 169.283 166.216C168.574 165.6 167.612 165.292 166.399 165.292H163.767V172.04H166.399ZM183.508 181.42C182.276 181.42 181.165 181.168 180.176 180.664C179.205 180.141 178.44 179.413 177.88 178.48C177.339 177.547 177.068 176.483 177.068 175.288V174.28H181.464V175.372C181.464 176.044 181.641 176.595 181.996 177.024C182.369 177.435 182.855 177.64 183.452 177.64C183.937 177.64 184.311 177.519 184.572 177.276C184.852 177.015 184.992 176.679 184.992 176.268C184.992 175.745 184.824 175.223 184.488 174.7L175.724 161.4H181.072L186.952 171.2C187.045 171.349 187.129 171.517 187.204 171.704C187.279 171.872 187.344 172.059 187.4 172.264L190.648 161.4H195.212L190.34 175.652C189.687 177.593 188.8 179.04 187.68 179.992C186.579 180.944 185.188 181.42 183.508 181.42ZM198.443 181V161.4H202.895V170.92H204.575L211.099 161.4H215.999L209.475 170.836L216.419 181H211.071L204.547 171.48H202.895V181H198.443ZM224.566 181V165.712H217.51V161.4H236.074V165.712H229.046V181H224.566ZM244.785 181.42C243.553 181.42 242.443 181.168 241.453 180.664C240.483 180.141 239.717 179.413 239.157 178.48C238.616 177.547 238.345 176.483 238.345 175.288V174.28H242.741V175.372C242.741 176.044 242.919 176.595 243.273 177.024C243.647 177.435 244.132 177.64 244.729 177.64C245.215 177.64 245.588 177.519 245.849 177.276C246.129 177.015 246.269 176.679 246.269 176.268C246.269 175.745 246.101 175.223 245.765 174.7L237.001 161.4H242.349L248.229 171.2C248.323 171.349 248.407 171.517 248.481 171.704C248.556 171.872 248.621 172.059 248.677 172.264L251.925 161.4H256.489L251.617 175.652C250.964 177.593 250.077 179.04 248.957 179.992C247.856 180.944 246.465 181.42 244.785 181.42ZM259.721 181V161.4H267.337C269.801 161.4 271.742 161.904 273.161 162.912C274.579 163.901 275.289 165.264 275.289 167C275.289 168.736 274.626 170.108 273.301 171.116C271.994 172.105 270.202 172.6 267.925 172.6H264.201V181H259.721ZM266.833 172.04C268.046 172.04 269.007 171.732 269.717 171.116C270.445 170.5 270.809 169.688 270.809 168.68C270.809 167.653 270.445 166.832 269.717 166.216C269.007 165.6 268.046 165.292 266.833 165.292H264.201V172.04H266.833ZM275.419 181L282.839 161.4H288.607L296.027 181H291.295L289.195 175.344H282.167L280.039 181H275.419ZM282.363 174.812H288.999L285.695 166.132L282.363 174.812Z" fill="#FF9F42"/>
<line x1="0.5" y1="5" x2="0.5" y2="118" stroke="#FF9F42"/>
<line x1="196" y1="4.5" x2="288" y2="4.49999" stroke="#FF9F42"/>
<line x1="312" y1="3.5" x2="320" y2="3.5" stroke="#FF9F42"/>
<line x1="320.5" y1="3" x2="320.5" y2="85" stroke="#FF9F42"/>
<line x1="202" y1="146.5" x2="305" y2="146.5" stroke="#FF9F42"/>
<line x1="304.5" y1="146" x2="304.5" y2="181" stroke="#FF9F42"/>
</svg>
