<svg width="1280" height="584" viewBox="0 0 1280 584" fill="none" xmlns="http://www.w3.org/2000/svg">
<path d="M109.6 15V0.599999H111.07V15H109.6ZM114.058 15V4.2H115.528V8.89H121.618V4.2H123.088V15H121.618V10.3H115.528V15H114.058ZM131.004 19.5V15.21C129.951 15.3767 128.991 15.2633 128.124 14.87C127.258 14.47 126.568 13.8233 126.054 12.93C125.541 12.0367 125.284 10.93 125.284 9.61C125.284 8.29 125.541 7.18333 126.054 6.29C126.568 5.39 127.258 4.74 128.124 4.34C128.991 3.94 129.951 3.82333 131.004 3.99V0.68H132.364V3.99C133.418 3.82333 134.378 3.94 135.244 4.34C136.111 4.74 136.801 5.39 137.314 6.29C137.828 7.18333 138.084 8.29 138.084 9.61C138.084 10.93 137.828 12.0367 137.314 12.93C136.801 13.8233 136.111 14.47 135.244 14.87C134.378 15.2633 133.418 15.3767 132.364 15.21V19.5H131.004ZM131.004 13.84V5.37C130.464 5.27667 129.944 5.29333 129.444 5.42C128.944 5.54 128.494 5.77667 128.094 6.13C127.694 6.47667 127.378 6.94 127.144 7.52C126.918 8.09333 126.804 8.79 126.804 9.61C126.804 10.43 126.921 11.13 127.154 11.71C127.388 12.2833 127.704 12.7433 128.104 13.09C128.504 13.4367 128.954 13.67 129.454 13.79C129.954 13.91 130.471 13.9267 131.004 13.84ZM132.364 13.84C132.898 13.9267 133.414 13.91 133.914 13.79C134.414 13.67 134.864 13.44 135.264 13.1C135.664 12.7533 135.981 12.2933 136.214 11.72C136.448 11.14 136.564 10.4367 136.564 9.61C136.564 8.78333 136.448 8.08333 136.214 7.51C135.988 6.93 135.674 6.46667 135.274 6.12C134.874 5.77333 134.424 5.54 133.924 5.42C133.424 5.29333 132.904 5.27667 132.364 5.37V13.84ZM145.129 15.3C144.136 15.3 143.296 15.05 142.609 14.55C141.922 14.0433 141.402 13.36 141.049 12.5C140.696 11.6333 140.519 10.6633 140.519 9.59C140.519 8.49667 140.696 7.52333 141.049 6.67C141.409 5.81 141.936 5.13333 142.629 4.64C143.322 4.14667 144.176 3.9 145.189 3.9C146.176 3.9 147.022 4.15 147.729 4.65C148.436 5.15 148.976 5.83 149.349 6.69C149.729 7.55 149.919 8.51667 149.919 9.59C149.919 10.67 149.729 11.64 149.349 12.5C148.969 13.36 148.422 14.0433 147.709 14.55C146.996 15.05 146.136 15.3 145.129 15.3ZM140.269 19.8V4.2H141.589V12.33H141.749V19.8H140.269ZM144.979 13.93C145.732 13.93 146.359 13.74 146.859 13.36C147.359 12.98 147.732 12.4633 147.979 11.81C148.232 11.15 148.359 10.41 148.359 9.59C148.359 8.77667 148.236 8.04333 147.989 7.39C147.742 6.73667 147.366 6.22 146.859 5.84C146.359 5.46 145.722 5.27 144.949 5.27C144.196 5.27 143.569 5.45333 143.069 5.82C142.576 6.18667 142.206 6.69667 141.959 7.35C141.712 7.99667 141.589 8.74333 141.589 9.59C141.589 10.4233 141.712 11.17 141.959 11.83C142.206 12.4833 142.579 12.9967 143.079 13.37C143.579 13.7433 144.212 13.93 144.979 13.93ZM155.205 15.3C154.392 15.3 153.708 15.1533 153.155 14.86C152.608 14.5667 152.198 14.1767 151.925 13.69C151.652 13.2033 151.515 12.6733 151.515 12.1C151.515 11.5133 151.632 11.0133 151.865 10.6C152.105 10.18 152.428 9.83667 152.835 9.57C153.248 9.30333 153.725 9.1 154.265 8.96C154.812 8.82667 155.415 8.71 156.075 8.61C156.742 8.50333 157.392 8.41333 158.025 8.34C158.665 8.26 159.225 8.18333 159.705 8.11L159.185 8.43C159.205 7.36333 158.998 6.57333 158.565 6.06C158.132 5.54667 157.378 5.29 156.305 5.29C155.565 5.29 154.938 5.45667 154.425 5.79C153.918 6.12333 153.562 6.65 153.355 7.37L151.925 6.95C152.172 5.98333 152.668 5.23333 153.415 4.7C154.162 4.16667 155.132 3.9 156.325 3.9C157.312 3.9 158.148 4.08667 158.835 4.46C159.528 4.82667 160.018 5.36 160.305 6.06C160.438 6.37333 160.525 6.72333 160.565 7.11C160.605 7.49667 160.625 7.89 160.625 8.29V15H159.315V12.29L159.695 12.45C159.328 13.3767 158.758 14.0833 157.985 14.57C157.212 15.0567 156.285 15.3 155.205 15.3ZM155.375 14.03C156.062 14.03 156.662 13.9067 157.175 13.66C157.688 13.4133 158.102 13.0767 158.415 12.65C158.728 12.2167 158.932 11.73 159.025 11.19C159.105 10.8433 159.148 10.4633 159.155 10.05C159.162 9.63 159.165 9.31667 159.165 9.11L159.725 9.4C159.225 9.46667 158.682 9.53333 158.095 9.6C157.515 9.66667 156.942 9.74333 156.375 9.83C155.815 9.91667 155.308 10.02 154.855 10.14C154.548 10.2267 154.252 10.35 153.965 10.51C153.678 10.6633 153.442 10.87 153.255 11.13C153.075 11.39 152.985 11.7133 152.985 12.1C152.985 12.4133 153.062 12.7167 153.215 13.01C153.375 13.3033 153.628 13.5467 153.975 13.74C154.328 13.9333 154.795 14.03 155.375 14.03ZM167.708 15.3C166.621 15.3 165.701 15.0567 164.948 14.57C164.195 14.0833 163.621 13.4133 163.228 12.56C162.841 11.7 162.641 10.7133 162.628 9.6C162.641 8.46667 162.848 7.47333 163.248 6.62C163.648 5.76 164.225 5.09333 164.978 4.62C165.731 4.14 166.645 3.9 167.718 3.9C168.811 3.9 169.761 4.16667 170.568 4.7C171.381 5.23333 171.938 5.96333 172.238 6.89L170.798 7.35C170.545 6.70333 170.141 6.20333 169.588 5.85C169.041 5.49 168.415 5.31 167.708 5.31C166.915 5.31 166.258 5.49333 165.738 5.86C165.218 6.22 164.831 6.72333 164.578 7.37C164.325 8.01667 164.195 8.76 164.188 9.6C164.201 10.8933 164.501 11.9333 165.088 12.72C165.675 13.5 166.548 13.89 167.708 13.89C168.441 13.89 169.065 13.7233 169.578 13.39C170.098 13.05 170.491 12.5567 170.758 11.91L172.238 12.35C171.838 13.31 171.251 14.0433 170.478 14.55C169.705 15.05 168.781 15.3 167.708 15.3ZM176.978 15V5.56H173.148V4.2H182.278V5.56H178.448V15H176.978ZM189.035 15.3C188.042 15.3 187.202 15.05 186.515 14.55C185.828 14.0433 185.308 13.36 184.955 12.5C184.602 11.6333 184.425 10.6633 184.425 9.59C184.425 8.49667 184.602 7.52333 184.955 6.67C185.315 5.81 185.842 5.13333 186.535 4.64C187.228 4.14667 188.082 3.9 189.095 3.9C190.082 3.9 190.928 4.15 191.635 4.65C192.342 5.15 192.882 5.83 193.255 6.69C193.635 7.55 193.825 8.51667 193.825 9.59C193.825 10.67 193.635 11.64 193.255 12.5C192.875 13.36 192.328 14.0433 191.615 14.55C190.902 15.05 190.042 15.3 189.035 15.3ZM184.175 19.8V4.2H185.495V12.33H185.655V19.8H184.175ZM188.885 13.93C189.638 13.93 190.265 13.74 190.765 13.36C191.265 12.98 191.638 12.4633 191.885 11.81C192.138 11.15 192.265 10.41 192.265 9.59C192.265 8.77667 192.142 8.04333 191.895 7.39C191.648 6.73667 191.272 6.22 190.765 5.84C190.265 5.46 189.628 5.27 188.855 5.27C188.102 5.27 187.475 5.45333 186.975 5.82C186.482 6.18667 186.112 6.69667 185.865 7.35C185.618 7.99667 185.495 8.74333 185.495 9.59C185.495 10.4233 185.618 11.17 185.865 11.83C186.112 12.4833 186.485 12.9967 186.985 13.37C187.485 13.7433 188.118 13.93 188.885 13.93ZM197.17 19.8L199.26 14.13L199.29 15.81L194.56 4.2H196.12L200 13.91H199.36L202.94 4.2H204.44L198.64 19.8H197.17ZM206.167 15L206.177 4.2H207.657V9.4L212.477 4.2H214.437L209.377 9.6L215.097 15H212.957L207.657 9.8V15H206.167ZM219.029 15V5.56H215.199V4.2H224.329V5.56H220.499V15H219.029ZM227.639 19.8L229.729 14.13L229.759 15.81L225.029 4.2H226.589L230.469 13.91H229.829L233.409 4.2H234.909L229.109 19.8H227.639ZM241.496 15.3C240.503 15.3 239.663 15.05 238.976 14.55C238.289 14.0433 237.769 13.36 237.416 12.5C237.063 11.6333 236.886 10.6633 236.886 9.59C236.886 8.49667 237.063 7.52333 237.416 6.67C237.776 5.81 238.303 5.13333 238.996 4.64C239.689 4.14667 240.543 3.9 241.556 3.9C242.543 3.9 243.389 4.15 244.096 4.65C244.803 5.15 245.343 5.83 245.716 6.69C246.096 7.55 246.286 8.51667 246.286 9.59C246.286 10.67 246.096 11.64 245.716 12.5C245.336 13.36 244.789 14.0433 244.076 14.55C243.363 15.05 242.503 15.3 241.496 15.3ZM236.636 19.8V4.2H237.956V12.33H238.116V19.8H236.636ZM241.346 13.93C242.099 13.93 242.726 13.74 243.226 13.36C243.726 12.98 244.099 12.4633 244.346 11.81C244.599 11.15 244.726 10.41 244.726 9.59C244.726 8.77667 244.603 8.04333 244.356 7.39C244.109 6.73667 243.733 6.22 243.226 5.84C242.726 5.46 242.089 5.27 241.316 5.27C240.563 5.27 239.936 5.45333 239.436 5.82C238.943 6.18667 238.573 6.69667 238.326 7.35C238.079 7.99667 237.956 8.74333 237.956 9.59C237.956 10.4233 238.079 11.17 238.326 11.83C238.573 12.4833 238.946 12.9967 239.446 13.37C239.946 13.7433 240.579 13.93 241.346 13.93ZM251.572 15.3C250.759 15.3 250.075 15.1533 249.522 14.86C248.975 14.5667 248.565 14.1767 248.292 13.69C248.019 13.2033 247.882 12.6733 247.882 12.1C247.882 11.5133 247.999 11.0133 248.232 10.6C248.472 10.18 248.795 9.83667 249.202 9.57C249.615 9.30333 250.092 9.1 250.632 8.96C251.179 8.82667 251.782 8.71 252.442 8.61C253.109 8.50333 253.759 8.41333 254.392 8.34C255.032 8.26 255.592 8.18333 256.072 8.11L255.552 8.43C255.572 7.36333 255.365 6.57333 254.932 6.06C254.499 5.54667 253.745 5.29 252.672 5.29C251.932 5.29 251.305 5.45667 250.792 5.79C250.285 6.12333 249.929 6.65 249.722 7.37L248.292 6.95C248.539 5.98333 249.035 5.23333 249.782 4.7C250.529 4.16667 251.499 3.9 252.692 3.9C253.679 3.9 254.515 4.08667 255.202 4.46C255.895 4.82667 256.385 5.36 256.672 6.06C256.805 6.37333 256.892 6.72333 256.932 7.11C256.972 7.49667 256.992 7.89 256.992 8.29V15H255.682V12.29L256.062 12.45C255.695 13.3767 255.125 14.0833 254.352 14.57C253.579 15.0567 252.652 15.3 251.572 15.3ZM251.742 14.03C252.429 14.03 253.029 13.9067 253.542 13.66C254.055 13.4133 254.469 13.0767 254.782 12.65C255.095 12.2167 255.299 11.73 255.392 11.19C255.472 10.8433 255.515 10.4633 255.522 10.05C255.529 9.63 255.532 9.31667 255.532 9.11L256.092 9.4C255.592 9.46667 255.049 9.53333 254.462 9.6C253.882 9.66667 253.309 9.74333 252.742 9.83C252.182 9.91667 251.675 10.02 251.222 10.14C250.915 10.2267 250.619 10.35 250.332 10.51C250.045 10.6633 249.809 10.87 249.622 11.13C249.442 11.39 249.352 11.7133 249.352 12.1C249.352 12.4133 249.429 12.7167 249.582 13.01C249.742 13.3033 249.995 13.5467 250.342 13.74C250.695 13.9333 251.162 14.03 251.742 14.03Z" fill="#FF9F42"/>
<line x1="1" y1="7.5" x2="88" y2="7.5" stroke="#FF9F42"/>
<line x1="1279.5" y1="584" x2="1279.5" y2="444" stroke="#FF9F42"/>
<line x1="1280" y1="443.5" x2="1001" y2="443.5" stroke="#FF9F42"/>
<line x1="1279.5" y1="121" x2="1279.5" y2="9" stroke="#FF9F42"/>
<line x1="1280" y1="8.5" x2="1242" y2="8.5" stroke="#FF9F42"/>
<line x1="1161" y1="8.5" x2="279" y2="8.50008" stroke="#FF9F42"/>
<line x1="1.52148" y1="8.00216" x2="0.499835" y2="244.002" stroke="#FF9F42"/>
<path d="M281.07 104.35C275.67 104.35 270.72 103.39 266.22 101.47C261.78 99.49 258.15 96.55 255.33 92.65C252.51 88.69 250.92 83.92 250.56 78.34H264.6C265.14 82.42 266.85 85.63 269.73 87.97C272.61 90.25 276.3 91.39 280.8 91.39C284.94 91.39 288.21 90.52 290.61 88.78C293.01 86.98 294.21 84.58 294.21 81.58C294.21 79.78 293.76 78.19 292.86 76.81C291.96 75.43 290.64 74.35 288.9 73.57C287.22 72.79 285.3 72.4 283.14 72.4H275.85V70.6H283.14C285 70.6 286.65 70.21 288.09 69.43C289.59 68.59 290.76 67.48 291.6 66.1C292.44 64.72 292.86 63.19 292.86 61.51C292.86 59.53 292.29 57.79 291.15 56.29C290.07 54.79 288.54 53.65 286.56 52.87C284.64 52.09 282.42 51.7 279.9 51.7C275.82 51.7 272.46 52.72 269.82 54.76C267.24 56.74 265.68 59.5 265.14 63.04H251.19C251.91 57.64 253.68 53.11 256.5 49.45C259.38 45.79 262.95 43.09 267.21 41.35C271.47 39.55 276.15 38.65 281.25 38.65C285.87 38.65 290.13 39.37 294.03 40.81C297.99 42.25 301.11 44.35 303.39 47.11C305.73 49.87 306.9 53.11 306.9 56.83C306.9 60.43 305.79 63.52 303.57 66.1C301.41 68.62 298.44 70.39 294.66 71.41C298.68 72.25 301.92 73.93 304.38 76.45C306.84 78.97 308.07 82 308.07 85.54C308.07 89.32 306.9 92.65 304.56 95.53C302.28 98.35 299.1 100.54 295.02 102.1C290.94 103.6 286.29 104.35 281.07 104.35ZM312.403 103L336.253 40H354.793L378.643 103H363.433L356.683 84.82H334.093L327.253 103H312.403ZM334.723 83.11H356.053L345.433 55.21L334.723 83.11ZM389.123 103V40H419.903C426.323 40 431.363 41.44 435.023 44.32C438.743 47.2 440.603 51.16 440.603 56.2C440.603 59.86 439.583 62.95 437.543 65.47C435.563 67.99 432.743 69.82 429.083 70.96V71.41C433.283 72.43 436.583 74.29 438.983 76.99C441.383 79.69 442.583 82.96 442.583 86.8C442.583 90.04 441.743 92.89 440.063 95.35C438.443 97.81 436.103 99.7 433.043 101.02C430.043 102.34 426.533 103 422.513 103H389.123ZM417.383 89.5C420.443 89.5 422.903 88.72 424.763 87.16C426.623 85.54 427.553 83.47 427.553 80.95C427.553 78.37 426.593 76.3 424.673 74.74C422.813 73.18 420.383 72.4 417.383 72.4H403.523V89.5H417.383ZM416.123 70.6C419.183 70.6 421.643 69.82 423.503 68.26C425.363 66.64 426.293 64.57 426.293 62.05C426.293 59.47 425.363 57.4 423.503 55.84C421.643 54.28 419.183 53.5 416.123 53.5H403.523V70.6H416.123ZM448.552 116.14V89.86H455.662C456.742 84.76 457.522 79.51 458.002 74.11C458.482 68.65 458.722 62.02 458.722 54.22C458.722 53.74 458.722 53.26 458.722 52.78C458.722 52.24 458.722 51.67 458.722 51.07V40H509.212V89.86H517.852V116.14H504.082V103H462.322V116.14H448.552ZM469.432 90.13H495.082V52.87H472.672V57.37C472.612 64.15 472.312 70.09 471.772 75.19C471.292 80.23 470.512 85.21 469.432 90.13ZM541.626 74.47C537.306 73.27 533.946 71.23 531.546 68.35C529.146 65.47 527.946 61.99 527.946 57.91C527.946 52.33 530.226 47.95 534.786 44.77C539.346 41.59 545.616 40 553.596 40H578.166V103H563.766V75.91H557.916C557.796 75.91 557.676 75.91 557.556 75.91C557.436 75.91 557.316 75.88 557.196 75.82C557.136 75.82 557.046 75.82 556.926 75.82C556.806 75.82 556.686 75.82 556.566 75.82L537.666 103H521.736L541.626 74.47ZM555.126 74.11H563.766V52.51H555.126C551.286 52.51 548.196 53.5 545.856 55.48C543.516 57.46 542.346 60.07 542.346 63.31C542.346 66.55 543.516 69.16 545.856 71.14C548.196 73.12 551.286 74.11 555.126 74.11ZM595.841 103V40H610.151V70.6H615.551L636.521 40H652.271L631.301 70.33L653.621 103H636.431L615.461 72.4H610.151V103H595.841ZM664.133 103V40H678.533V98.5L707.603 40H722.093V103H707.693V44.32L678.533 103H664.133ZM762.218 103V40H792.998C799.418 40 804.458 41.44 808.118 44.32C811.838 47.2 813.698 51.16 813.698 56.2C813.698 59.86 812.678 62.95 810.638 65.47C808.658 67.99 805.838 69.82 802.178 70.96V71.41C806.378 72.43 809.678 74.29 812.078 76.99C814.478 79.69 815.678 82.96 815.678 86.8C815.678 90.04 814.838 92.89 813.158 95.35C811.538 97.81 809.198 99.7 806.138 101.02C803.138 102.34 799.628 103 795.608 103H762.218ZM790.478 89.5C793.538 89.5 795.998 88.72 797.858 87.16C799.718 85.54 800.648 83.47 800.648 80.95C800.648 78.37 799.688 76.3 797.768 74.74C795.908 73.18 793.478 72.4 790.478 72.4H776.618V89.5H790.478ZM789.218 70.6C792.278 70.6 794.738 69.82 796.598 68.26C798.458 66.64 799.388 64.57 799.388 62.05C799.388 59.47 798.458 57.4 796.598 55.84C794.738 54.28 792.278 53.5 789.218 53.5H776.618V70.6H789.218ZM828.488 103V40H842.888V98.5L871.958 40H886.448V103H872.048V44.32L842.888 103H828.488ZM904.074 103V40H949.434V53.86H918.474V103H904.074ZM960.851 103V40H975.251V103H960.851ZM986.091 116.14V89.86H993.201C994.281 84.76 995.061 79.51 995.541 74.11C996.021 68.65 996.261 62.02 996.261 54.22C996.261 53.74 996.261 53.26 996.261 52.78C996.261 52.24 996.261 51.67 996.261 51.07V40H1046.75V89.86H1055.39V116.14H1041.62V103H999.861V116.14H986.091ZM1006.97 90.13H1032.62V52.87H1010.21V57.37C1010.15 64.15 1009.85 70.09 1009.31 75.19C1008.83 80.23 1008.05 85.21 1006.97 90.13ZM1067.37 103V40H1081.77V70.6H1109.13V40H1123.53V103H1109.13V72.4H1081.77V103H1067.37ZM1141.2 103V40H1155.6V103H1141.2ZM1173.28 103V40H1187.68V98.5L1216.75 40H1231.24V103H1216.84V44.32L1187.68 103H1173.28ZM1202.26 35.14C1198.72 35.14 1195.57 34.42 1192.81 32.98C1190.11 31.54 1188.01 29.59 1186.51 27.13C1185.01 24.61 1184.26 21.79 1184.26 18.67V17.95H1194.52V18.58C1194.52 20.8 1195.24 22.6 1196.68 23.98C1198.12 25.36 1199.98 26.05 1202.26 26.05C1204.6 26.05 1206.49 25.36 1207.93 23.98C1209.37 22.6 1210.09 20.8 1210.09 18.58V17.95H1220.26V18.67C1220.26 21.79 1219.51 24.61 1218.01 27.13C1216.51 29.59 1214.38 31.54 1211.62 32.98C1208.92 34.42 1205.8 35.14 1202.26 35.14ZM144.36 212.26C142.62 212.26 141.09 212.14 139.77 211.9C138.45 211.66 137.31 211.36 136.35 211V197.14C136.41 197.14 136.44 197.14 136.44 197.14C137.52 197.32 138.51 197.44 139.41 197.5C140.37 197.56 141.42 197.59 142.56 197.59C143.28 197.59 143.94 197.44 144.54 197.14C145.14 196.78 145.65 196.27 146.07 195.61C146.55 194.95 146.91 194.11 147.15 193.09C147.99 190.15 148.56 185.71 148.86 179.77C149.22 173.83 149.4 166.6 149.4 158.08V148H199.26V211H184.86V161.86H163.17V164.47C163.11 173.11 162.72 181 162 188.14C161.34 195.28 160.17 200.5 158.49 203.8C157.05 206.68 155.19 208.81 152.91 210.19C150.63 211.57 147.78 212.26 144.36 212.26ZM244.335 212.35C238.095 212.35 232.455 210.94 227.415 208.12C222.375 205.24 218.415 201.31 215.535 196.33C212.715 191.29 211.305 185.68 211.305 179.5C211.305 173.32 212.715 167.74 215.535 162.76C218.415 157.72 222.375 153.79 227.415 150.97C232.455 148.09 238.095 146.65 244.335 146.65C250.575 146.65 256.215 148.09 261.255 150.97C266.295 153.79 270.225 157.72 273.045 162.76C275.925 167.74 277.365 173.32 277.365 179.5C277.365 185.68 275.925 191.29 273.045 196.33C270.225 201.31 266.295 205.24 261.255 208.12C256.215 210.94 250.575 212.35 244.335 212.35ZM244.335 198.22C247.815 198.22 250.935 197.41 253.695 195.79C256.515 194.17 258.705 191.95 260.265 189.13C261.885 186.25 262.695 183.04 262.695 179.5C262.695 175.96 261.885 172.78 260.265 169.96C258.705 167.08 256.515 164.83 253.695 163.21C250.935 161.53 247.815 160.69 244.335 160.69C240.855 160.69 237.735 161.53 234.975 163.21C232.215 164.83 230.025 167.08 228.405 169.96C226.845 172.78 226.065 175.96 226.065 179.5C226.065 183.04 226.845 186.25 228.405 189.13C230.025 191.95 232.215 194.17 234.975 195.79C237.735 197.41 240.855 198.22 244.335 198.22ZM289.367 211V148H303.677V178.6H309.077L330.047 148H345.797L324.827 178.33L347.147 211H329.957L308.987 180.4H303.677V211H289.367ZM348.614 211L372.464 148H391.004L414.854 211H399.644L392.894 192.82H370.304L363.464 211H348.614ZM370.934 191.11H392.264L381.644 163.21L370.934 191.11ZM475.374 224.14V211H425.334V148H439.734V197.86H467.094V148H481.494V197.86H489.144V224.14H475.374ZM501.095 211V148H515.495V211H501.095ZM533.175 211V148H547.575V211H533.175ZM532.545 142.87L525.705 125.95H540.105L533.355 142.87H532.545ZM547.485 142.87L540.645 125.95H555.045L548.295 142.87H547.485ZM571.376 219.91H564.446C565.226 218.65 565.946 217.3 566.606 215.86C567.266 214.42 567.746 212.95 568.046 211.45C567.986 211.45 567.956 211.45 567.956 211.45C567.956 211.45 567.926 211.45 567.866 211.45C565.766 210.79 564.176 209.74 563.096 208.3C562.076 206.86 561.566 205.24 561.566 203.44C561.566 202 561.896 200.62 562.556 199.3C563.276 197.98 564.266 196.9 565.526 196.06C566.846 195.22 568.346 194.8 570.026 194.8C572.426 194.8 574.466 195.58 576.146 197.14C577.886 198.7 578.756 200.83 578.756 203.53C578.756 206.23 578.006 209.2 576.506 212.44C575.066 215.68 573.356 218.17 571.376 219.91ZM618.341 319V256H649.121C655.541 256 660.581 257.44 664.241 260.32C667.961 263.2 669.821 267.16 669.821 272.2C669.821 275.86 668.801 278.95 666.761 281.47C664.781 283.99 661.961 285.82 658.301 286.96V287.41C662.501 288.43 665.801 290.29 668.201 292.99C670.601 295.69 671.801 298.96 671.801 302.8C671.801 306.04 670.961 308.89 669.281 311.35C667.661 313.81 665.321 315.7 662.261 317.02C659.261 318.34 655.751 319 651.731 319H618.341ZM646.601 305.5C649.661 305.5 652.121 304.72 653.981 303.16C655.841 301.54 656.771 299.47 656.771 296.95C656.771 294.37 655.811 292.3 653.891 290.74C652.031 289.18 649.601 288.4 646.601 288.4H632.741V305.5H646.601ZM645.341 286.6C648.401 286.6 650.861 285.82 652.721 284.26C654.581 282.64 655.511 280.57 655.511 278.05C655.511 275.47 654.581 273.4 652.721 271.84C650.861 270.28 648.401 269.5 645.341 269.5H632.741V286.6H645.341ZM712.166 320.35C705.926 320.35 700.316 318.94 695.336 316.12C690.416 313.3 686.546 309.4 683.726 304.42C680.966 299.44 679.586 293.8 679.586 287.5C679.586 281.2 680.966 275.56 683.726 270.58C686.546 265.6 690.416 261.7 695.336 258.88C700.316 256.06 705.926 254.65 712.166 254.65C717.626 254.65 722.606 255.82 727.106 258.16C731.666 260.44 735.326 263.65 738.086 267.79C740.906 271.93 742.526 276.58 742.946 281.74H728.366C727.826 279.1 726.776 276.82 725.216 274.9C723.716 272.92 721.826 271.39 719.546 270.31C717.326 269.23 714.806 268.69 711.986 268.69C708.566 268.69 705.506 269.5 702.806 271.12C700.166 272.74 698.096 274.99 696.596 277.87C695.096 280.69 694.346 283.9 694.346 287.5C694.346 291.1 695.096 294.34 696.596 297.22C698.096 300.04 700.166 302.26 702.806 303.88C705.506 305.44 708.566 306.22 711.986 306.22C714.806 306.22 717.326 305.71 719.546 304.69C721.826 303.61 723.716 302.11 725.216 300.19C726.776 298.21 727.826 295.9 728.366 293.26H742.946C742.526 298.42 740.906 303.07 738.086 307.21C735.326 311.35 731.666 314.59 727.106 316.93C722.606 319.21 717.626 320.35 712.166 320.35ZM767.153 290.47C762.833 289.27 759.473 287.23 757.073 284.35C754.673 281.47 753.473 277.99 753.473 273.91C753.473 268.33 755.753 263.95 760.313 260.77C764.873 257.59 771.143 256 779.123 256H803.693V319H789.293V291.91H783.443C783.323 291.91 783.203 291.91 783.083 291.91C782.963 291.91 782.843 291.88 782.723 291.82C782.663 291.82 782.573 291.82 782.453 291.82C782.333 291.82 782.213 291.82 782.093 291.82L763.193 319H747.263L767.153 290.47ZM780.653 290.11H789.293V268.51H780.653C776.813 268.51 773.723 269.5 771.383 271.48C769.043 273.46 767.873 276.07 767.873 279.31C767.873 282.55 769.043 285.16 771.383 287.14C773.723 289.12 776.813 290.11 780.653 290.11ZM31.32 427V364H45.72V394.6H73.08V364H87.48V427H73.08V396.4H45.72V427H31.32ZM105.148 427V364H148.618V376.51H119.278V394.6H139.258V396.4H119.278V414.49H151.228V427H105.148ZM190.194 428.35C183.954 428.35 178.314 426.94 173.274 424.12C168.234 421.24 164.274 417.31 161.394 412.33C158.574 407.29 157.164 401.68 157.164 395.5C157.164 389.32 158.574 383.74 161.394 378.76C164.274 373.72 168.234 369.79 173.274 366.97C178.314 364.09 183.954 362.65 190.194 362.65C196.434 362.65 202.074 364.09 207.114 366.97C212.154 369.79 216.084 373.72 218.904 378.76C221.784 383.74 223.224 389.32 223.224 395.5C223.224 401.68 221.784 407.29 218.904 412.33C216.084 417.31 212.154 421.24 207.114 424.12C202.074 426.94 196.434 428.35 190.194 428.35ZM190.194 414.22C193.674 414.22 196.794 413.41 199.554 411.79C202.374 410.17 204.564 407.95 206.124 405.13C207.744 402.25 208.554 399.04 208.554 395.5C208.554 391.96 207.744 388.78 206.124 385.96C204.564 383.08 202.374 380.83 199.554 379.21C196.794 377.53 193.674 376.69 190.194 376.69C186.714 376.69 183.594 377.53 180.834 379.21C178.074 380.83 175.884 383.08 174.264 385.96C172.704 388.78 171.924 391.96 171.924 395.5C171.924 399.04 172.704 402.25 174.264 405.13C175.884 407.95 178.074 410.17 180.834 411.79C183.594 413.41 186.714 414.22 190.194 414.22ZM236.457 427V364H283.887V376.51H250.227V391.36H264.537C271.797 391.36 277.527 392.95 281.727 396.13C285.927 399.31 288.027 403.66 288.027 409.18C288.027 414.7 285.927 419.05 281.727 422.23C277.527 425.41 271.797 427 264.537 427H236.457ZM261.117 414.49C264.897 414.49 267.927 413.53 270.207 411.61C272.487 409.63 273.627 407.02 273.627 403.78C273.627 400.54 272.487 397.96 270.207 396.04C267.927 394.12 264.897 393.16 261.117 393.16H250.227V414.49H261.117ZM292.444 427L314.584 394.6L293.344 364H310.084L325.114 385.69L340.054 364H356.434L335.104 394.51L357.424 427H340.504L324.754 404.23L308.914 427H292.444ZM367.502 427V364H381.902V427H367.502ZM392.742 440.14V413.86H399.852C400.932 408.76 401.712 403.51 402.192 398.11C402.672 392.65 402.912 386.02 402.912 378.22C402.912 377.74 402.912 377.26 402.912 376.78C402.912 376.24 402.912 375.67 402.912 375.07V364H453.402V413.86H462.042V440.14H448.272V427H406.512V440.14H392.742ZM413.622 414.13H439.272V376.87H416.862V381.37C416.802 388.15 416.502 394.09 415.962 399.19C415.482 404.23 414.702 409.21 413.622 414.13ZM474.025 427V364H488.425V394.6H515.785V364H530.185V427H515.785V396.4H488.425V427H474.025ZM540.743 427L564.593 364H583.133L606.983 427H591.773L585.023 408.82H562.433L555.593 427H540.743ZM563.063 407.11H584.393L573.773 379.21L563.063 407.11Z" fill="black"/>
<path d="M615.09 211V148H671.25V211H656.85V161.86H629.49V211H615.09ZM716.307 212.35C710.067 212.35 704.427 210.94 699.387 208.12C694.347 205.24 690.387 201.31 687.507 196.33C684.687 191.29 683.277 185.68 683.277 179.5C683.277 173.32 684.687 167.74 687.507 162.76C690.387 157.72 694.347 153.79 699.387 150.97C704.427 148.09 710.067 146.65 716.307 146.65C722.547 146.65 728.187 148.09 733.227 150.97C738.267 153.79 742.197 157.72 745.017 162.76C747.897 167.74 749.337 173.32 749.337 179.5C749.337 185.68 747.897 191.29 745.017 196.33C742.197 201.31 738.267 205.24 733.227 208.12C728.187 210.94 722.547 212.35 716.307 212.35ZM716.307 198.22C719.787 198.22 722.907 197.41 725.667 195.79C728.487 194.17 730.677 191.95 732.237 189.13C733.857 186.25 734.667 183.04 734.667 179.5C734.667 175.96 733.857 172.78 732.237 169.96C730.677 167.08 728.487 164.83 725.667 163.21C722.907 161.53 719.787 160.69 716.307 160.69C712.827 160.69 709.707 161.53 706.947 163.21C704.187 164.83 701.997 167.08 700.377 169.96C698.817 172.78 698.037 175.96 698.037 179.5C698.037 183.04 698.817 186.25 700.377 189.13C701.997 191.95 704.187 194.17 706.947 195.79C709.707 197.41 712.827 198.22 716.307 198.22ZM761.34 211V148H785.82C793.74 148 799.98 149.62 804.54 152.86C809.1 156.04 811.38 160.42 811.38 166C811.38 171.58 809.25 175.99 804.99 179.23C800.79 182.41 795.03 184 787.71 184H775.74V211H761.34ZM784.2 182.2C788.1 182.2 791.19 181.21 793.47 179.23C795.81 177.25 796.98 174.64 796.98 171.4C796.98 168.1 795.81 165.46 793.47 163.48C791.19 161.5 788.1 160.51 784.2 160.51H775.74V182.2H784.2ZM834.301 182.47C829.981 181.27 826.621 179.23 824.221 176.35C821.821 173.47 820.621 169.99 820.621 165.91C820.621 160.33 822.901 155.95 827.461 152.77C832.021 149.59 838.291 148 846.271 148H870.841V211H856.441V183.91H850.591C850.471 183.91 850.351 183.91 850.231 183.91C850.111 183.91 849.991 183.88 849.871 183.82C849.811 183.82 849.721 183.82 849.601 183.82C849.481 183.82 849.361 183.82 849.241 183.82L830.341 211H814.411L834.301 182.47ZM847.801 182.11H856.441V160.51H847.801C843.961 160.51 840.871 161.5 838.531 163.48C836.191 165.46 835.021 168.07 835.021 171.31C835.021 174.55 836.191 177.16 838.531 179.14C840.871 181.12 843.961 182.11 847.801 182.11ZM881.677 224.14V197.86H888.787C889.867 192.76 890.647 187.51 891.127 182.11C891.607 176.65 891.847 170.02 891.847 162.22C891.847 161.74 891.847 161.26 891.847 160.78C891.847 160.24 891.847 159.67 891.847 159.07V148H942.337V197.86H950.977V224.14H937.207V211H895.447V224.14H881.677ZM902.557 198.13H928.207V160.87H905.797V165.37C905.737 172.15 905.437 178.09 904.897 183.19C904.417 188.23 903.637 193.21 902.557 198.13ZM24.48 332.14V305.86H31.59C32.67 300.76 33.45 295.51 33.93 290.11C34.41 284.65 34.65 278.02 34.65 270.22C34.65 269.74 34.65 269.26 34.65 268.78C34.65 268.24 34.65 267.67 34.65 267.07V256H85.14V305.86H93.78V332.14H80.01V319H38.25V332.14H24.48ZM45.36 306.13H71.01V268.87H48.6V273.37C48.54 280.15 48.24 286.09 47.7 291.19C47.22 296.23 46.44 301.21 45.36 306.13ZM133.153 320.35C126.913 320.35 121.273 318.94 116.233 316.12C111.193 313.24 107.233 309.31 104.353 304.33C101.533 299.29 100.123 293.68 100.123 287.5C100.123 281.32 101.533 275.74 104.353 270.76C107.233 265.72 111.193 261.79 116.233 258.97C121.273 256.09 126.913 254.65 133.153 254.65C139.393 254.65 145.033 256.09 150.073 258.97C155.113 261.79 159.043 265.72 161.863 270.76C164.743 275.74 166.183 281.32 166.183 287.5C166.183 293.68 164.743 299.29 161.863 304.33C159.043 309.31 155.113 313.24 150.073 316.12C145.033 318.94 139.393 320.35 133.153 320.35ZM133.153 306.22C136.633 306.22 139.753 305.41 142.513 303.79C145.333 302.17 147.523 299.95 149.083 297.13C150.703 294.25 151.513 291.04 151.513 287.5C151.513 283.96 150.703 280.78 149.083 277.96C147.523 275.08 145.333 272.83 142.513 271.21C139.753 269.53 136.633 268.69 133.153 268.69C129.673 268.69 126.553 269.53 123.793 271.21C121.033 272.83 118.843 275.08 117.223 277.96C115.663 280.78 114.883 283.96 114.883 287.5C114.883 291.04 115.663 294.25 117.223 297.13C118.843 299.95 121.033 302.17 123.793 303.79C126.553 305.41 129.673 306.22 133.153 306.22ZM207.586 320.35C201.346 320.35 195.736 318.94 190.756 316.12C185.836 313.3 181.966 309.4 179.146 304.42C176.386 299.44 175.006 293.8 175.006 287.5C175.006 281.2 176.386 275.56 179.146 270.58C181.966 265.6 185.836 261.7 190.756 258.88C195.736 256.06 201.346 254.65 207.586 254.65C213.046 254.65 218.026 255.82 222.526 258.16C227.086 260.44 230.746 263.65 233.506 267.79C236.326 271.93 237.946 276.58 238.366 281.74H223.786C223.246 279.1 222.196 276.82 220.636 274.9C219.136 272.92 217.246 271.39 214.966 270.31C212.746 269.23 210.226 268.69 207.406 268.69C203.986 268.69 200.926 269.5 198.226 271.12C195.586 272.74 193.516 274.99 192.016 277.87C190.516 280.69 189.766 283.9 189.766 287.5C189.766 291.1 190.516 294.34 192.016 297.22C193.516 300.04 195.586 302.26 198.226 303.88C200.926 305.44 203.986 306.22 207.406 306.22C210.226 306.22 212.746 305.71 214.966 304.69C217.246 303.61 219.136 302.11 220.636 300.19C222.196 298.21 223.246 295.9 223.786 293.26H238.366C237.946 298.42 236.326 303.07 233.506 307.21C230.746 311.35 227.086 314.59 222.526 316.93C218.026 319.21 213.046 320.35 207.586 320.35ZM265.579 319V269.86H242.899V256H302.569V269.86H279.979V319H265.579ZM330.57 320.35C326.61 320.35 323.04 319.54 319.86 317.92C316.74 316.24 314.28 313.9 312.48 310.9C310.74 307.9 309.87 304.48 309.87 300.64V297.4H324V300.91C324 303.07 324.57 304.84 325.71 306.22C326.91 307.54 328.47 308.2 330.39 308.2C331.95 308.2 333.15 307.81 333.99 307.03C334.89 306.19 335.34 305.11 335.34 303.79C335.34 302.11 334.8 300.43 333.72 298.75L305.55 256H322.74L341.64 287.5C341.94 287.98 342.21 288.52 342.45 289.12C342.69 289.66 342.9 290.26 343.08 290.92L353.52 256H368.19L352.53 301.81C350.43 308.05 347.58 312.7 343.98 315.76C340.44 318.82 335.97 320.35 330.57 320.35ZM378.576 319V256H434.736V319H420.336V269.86H392.976V319H378.576ZM452.404 319V256H466.804V286.6H494.164V256H508.564V319H494.164V288.4H466.804V319H452.404ZM519.122 319L542.972 256H561.512L585.362 319H570.152L563.402 300.82H540.812L533.972 319H519.122ZM541.442 299.11H562.772L552.152 271.21L541.442 299.11ZM278.82 535V472H293.22V535H278.82ZM310.9 535V472H325.3V502.6H352.66V472H367.06V535H352.66V504.4H325.3V535H310.9ZM415.328 535V524.47H407.318C402.098 524.47 397.478 523.57 393.458 521.77C389.438 519.97 386.318 517.39 384.098 514.03C381.938 510.67 380.858 506.8 380.858 502.42C380.858 497.92 382.028 493.96 384.368 490.54C386.768 487.12 390.278 484.48 394.898 482.62C399.578 480.7 405.188 479.74 411.728 479.74H415.328V471.1H429.728V479.74H433.328C439.928 479.74 445.538 480.7 450.158 482.62C454.778 484.48 458.258 487.12 460.598 490.54C462.998 493.96 464.198 497.92 464.198 502.42C464.198 506.8 463.088 510.67 460.868 514.03C458.708 517.39 455.618 519.97 451.598 521.77C447.578 523.57 442.958 524.47 437.738 524.47H429.728V535H415.328ZM411.188 522.67H415.328V492.25H411.188C405.728 492.25 401.378 493.6 398.138 496.3C394.958 499 393.368 502.66 393.368 507.28C393.368 510.28 394.088 512.95 395.528 515.29C397.028 517.63 399.128 519.46 401.828 520.78C404.528 522.04 407.648 522.67 411.188 522.67ZM433.958 522.67C437.498 522.67 440.588 522.04 443.228 520.78C445.928 519.46 447.998 517.63 449.438 515.29C450.938 512.95 451.688 510.28 451.688 507.28C451.688 502.66 450.068 499 446.828 496.3C443.648 493.6 439.358 492.25 433.958 492.25H429.728V522.67H433.958ZM477.98 535V472H502.46C510.38 472 516.62 473.62 521.18 476.86C525.74 480.04 528.02 484.42 528.02 490C528.02 495.58 525.89 499.99 521.63 503.23C517.43 506.41 511.67 508 504.35 508H492.38V535H477.98ZM500.84 506.2C504.74 506.2 507.83 505.21 510.11 503.23C512.45 501.25 513.62 498.64 513.62 495.4C513.62 492.1 512.45 489.46 510.11 487.48C507.83 485.5 504.74 484.51 500.84 484.51H492.38V506.2H500.84ZM528.439 535L552.289 472H570.829L594.679 535H579.469L572.719 516.82H550.129L543.289 535H528.439ZM550.759 515.11H572.089L561.469 487.21L550.759 515.11ZM630.779 536.35C624.539 536.35 618.929 534.94 613.949 532.12C609.029 529.3 605.159 525.4 602.339 520.42C599.579 515.44 598.199 509.8 598.199 503.5C598.199 497.2 599.579 491.56 602.339 486.58C605.159 481.6 609.029 477.7 613.949 474.88C618.929 472.06 624.539 470.65 630.779 470.65C636.239 470.65 641.219 471.82 645.719 474.16C650.279 476.44 653.939 479.65 656.699 483.79C659.519 487.93 661.139 492.58 661.559 497.74H646.979C646.439 495.1 645.389 492.82 643.829 490.9C642.329 488.92 640.439 487.39 638.159 486.31C635.939 485.23 633.419 484.69 630.599 484.69C627.179 484.69 624.119 485.5 621.419 487.12C618.779 488.74 616.709 490.99 615.209 493.87C613.709 496.69 612.959 499.9 612.959 503.5C612.959 507.1 613.709 510.34 615.209 513.22C616.709 516.04 618.779 518.26 621.419 519.88C624.119 521.44 627.179 522.22 630.599 522.22C633.419 522.22 635.939 521.71 638.159 520.69C640.439 519.61 642.329 518.11 643.829 516.19C645.389 514.21 646.439 511.9 646.979 509.26H661.559C661.139 514.42 659.519 519.07 656.699 523.21C653.939 527.35 650.279 530.59 645.719 532.93C641.219 535.21 636.239 536.35 630.779 536.35ZM688.772 535V485.86H666.092V472H725.762V485.86H703.172V535H688.772ZM736.994 535V472H761.474C769.394 472 775.634 473.62 780.194 476.86C784.754 480.04 787.034 484.42 787.034 490C787.034 495.58 784.904 499.99 780.644 503.23C776.444 506.41 770.684 508 763.364 508H751.394V535H736.994ZM759.854 506.2C763.754 506.2 766.844 505.21 769.124 503.23C771.464 501.25 772.634 498.64 772.634 495.4C772.634 492.1 771.464 489.46 769.124 487.48C766.844 485.5 763.754 484.51 759.854 484.51H751.394V506.2H759.854ZM814.847 536.35C810.887 536.35 807.317 535.54 804.137 533.92C801.017 532.24 798.557 529.9 796.757 526.9C795.017 523.9 794.147 520.48 794.147 516.64V513.4H808.277V516.91C808.277 519.07 808.847 520.84 809.987 522.22C811.187 523.54 812.747 524.2 814.667 524.2C816.227 524.2 817.427 523.81 818.267 523.03C819.167 522.19 819.617 521.11 819.617 519.79C819.617 518.11 819.077 516.43 817.997 514.75L789.827 472H807.017L825.917 503.5C826.217 503.98 826.487 504.52 826.727 505.12C826.967 505.66 827.177 506.26 827.357 506.92L837.797 472H852.467L836.807 517.81C834.707 524.05 831.857 528.7 828.257 531.76C824.717 534.82 820.247 536.35 814.847 536.35ZM862.853 535V472H877.163V502.6H882.563L903.533 472H919.283L898.313 502.33L920.633 535H903.443L882.473 504.4H877.163V535H862.853ZM946.819 535V485.86H924.139V472H983.809V485.86H961.219V535H946.819ZM1011.81 536.35C1007.85 536.35 1004.28 535.54 1001.1 533.92C997.98 532.24 995.52 529.9 993.72 526.9C991.98 523.9 991.11 520.48 991.11 516.64V513.4H1005.24V516.91C1005.24 519.07 1005.81 520.84 1006.95 522.22C1008.15 523.54 1009.71 524.2 1011.63 524.2C1013.19 524.2 1014.39 523.81 1015.23 523.03C1016.13 522.19 1016.58 521.11 1016.58 519.79C1016.58 518.11 1016.04 516.43 1014.96 514.75L986.79 472H1003.98L1022.88 503.5C1023.18 503.98 1023.45 504.52 1023.69 505.12C1023.93 505.66 1024.14 506.26 1024.32 506.92L1034.76 472H1049.43L1033.77 517.81C1031.67 524.05 1028.82 528.7 1025.22 531.76C1021.68 534.82 1017.21 536.35 1011.81 536.35ZM1059.82 535V472H1084.3C1092.22 472 1098.46 473.62 1103.02 476.86C1107.58 480.04 1109.86 484.42 1109.86 490C1109.86 495.58 1107.73 499.99 1103.47 503.23C1099.27 506.41 1093.51 508 1086.19 508H1074.22V535H1059.82ZM1082.68 506.2C1086.58 506.2 1089.67 505.21 1091.95 503.23C1094.29 501.25 1095.46 498.64 1095.46 495.4C1095.46 492.1 1094.29 489.46 1091.95 487.48C1089.67 485.5 1086.58 484.51 1082.68 484.51H1074.22V506.2H1082.68ZM1110.27 535L1134.12 472H1152.66L1176.51 535H1161.3L1154.55 516.82H1131.96L1125.12 535H1110.27ZM1132.59 515.11H1153.92L1143.3 487.21L1132.59 515.11Z" fill="#FF9F42"/>
</svg>
