<svg width="1280" height="492" viewBox="0 0 1280 492" fill="none" xmlns="http://www.w3.org/2000/svg">
<line x1="1" y1="25.5" x2="89" y2="25.5" stroke="#FF9F42"/>
<path d="M110.4 33V18.6H121.43V33H119.96V20.01H111.87V33H110.4ZM128.798 33.3C127.745 33.3 126.831 33.0667 126.058 32.6C125.291 32.1333 124.695 31.4767 124.268 30.63C123.841 29.7833 123.628 28.79 123.628 27.65C123.628 26.47 123.838 25.45 124.258 24.59C124.678 23.73 125.268 23.0667 126.028 22.6C126.795 22.1333 127.698 21.9 128.738 21.9C129.805 21.9 130.715 22.1467 131.468 22.64C132.221 23.1267 132.791 23.8267 133.178 24.74C133.565 25.6533 133.741 26.7433 133.708 28.01H132.208V27.49C132.181 26.09 131.878 25.0333 131.298 24.32C130.725 23.6067 129.885 23.25 128.778 23.25C127.618 23.25 126.728 23.6267 126.108 24.38C125.495 25.1333 125.188 26.2067 125.188 27.6C125.188 28.96 125.495 30.0167 126.108 30.77C126.728 31.5167 127.605 31.89 128.738 31.89C129.511 31.89 130.185 31.7133 130.758 31.36C131.338 31 131.795 30.4833 132.128 29.81L133.498 30.34C133.071 31.28 132.441 32.01 131.608 32.53C130.781 33.0433 129.845 33.3 128.798 33.3ZM124.668 28.01V26.78H132.918V28.01H124.668ZM140.777 33.3C139.784 33.3 138.944 33.05 138.257 32.55C137.571 32.0433 137.051 31.36 136.697 30.5C136.344 29.6333 136.167 28.6633 136.167 27.59C136.167 26.4967 136.344 25.5233 136.697 24.67C137.057 23.81 137.584 23.1333 138.277 22.64C138.971 22.1467 139.824 21.9 140.837 21.9C141.824 21.9 142.671 22.15 143.377 22.65C144.084 23.15 144.624 23.83 144.997 24.69C145.377 25.55 145.567 26.5167 145.567 27.59C145.567 28.67 145.377 29.64 144.997 30.5C144.617 31.36 144.071 32.0433 143.357 32.55C142.644 33.05 141.784 33.3 140.777 33.3ZM135.917 37.8V22.2H137.237V30.33H137.397V37.8H135.917ZM140.627 31.93C141.381 31.93 142.007 31.74 142.507 31.36C143.007 30.98 143.381 30.4633 143.627 29.81C143.881 29.15 144.007 28.41 144.007 27.59C144.007 26.7767 143.884 26.0433 143.637 25.39C143.391 24.7367 143.014 24.22 142.507 23.84C142.007 23.46 141.371 23.27 140.597 23.27C139.844 23.27 139.217 23.4533 138.717 23.82C138.224 24.1867 137.854 24.6967 137.607 25.35C137.361 25.9967 137.237 26.7433 137.237 27.59C137.237 28.4233 137.361 29.17 137.607 29.83C137.854 30.4833 138.227 30.9967 138.727 31.37C139.227 31.7433 139.861 31.93 140.627 31.93ZM152.333 33.3C151.28 33.3 150.367 33.0667 149.593 32.6C148.827 32.1333 148.23 31.4767 147.803 30.63C147.377 29.7833 147.163 28.79 147.163 27.65C147.163 26.47 147.373 25.45 147.793 24.59C148.213 23.73 148.803 23.0667 149.563 22.6C150.33 22.1333 151.233 21.9 152.273 21.9C153.34 21.9 154.25 22.1467 155.003 22.64C155.757 23.1267 156.327 23.8267 156.713 24.74C157.1 25.6533 157.277 26.7433 157.243 28.01H155.743V27.49C155.717 26.09 155.413 25.0333 154.833 24.32C154.26 23.6067 153.42 23.25 152.313 23.25C151.153 23.25 150.263 23.6267 149.643 24.38C149.03 25.1333 148.723 26.2067 148.723 27.6C148.723 28.96 149.03 30.0167 149.643 30.77C150.263 31.5167 151.14 31.89 152.273 31.89C153.047 31.89 153.72 31.7133 154.293 31.36C154.873 31 155.33 30.4833 155.663 29.81L157.033 30.34C156.607 31.28 155.977 32.01 155.143 32.53C154.317 33.0433 153.38 33.3 152.333 33.3ZM148.203 28.01V26.78H156.453V28.01H148.203ZM159.453 33V22.2H163.903C164.129 22.2 164.403 22.2133 164.723 22.24C165.049 22.2667 165.353 22.3167 165.633 22.39C166.239 22.55 166.726 22.8767 167.093 23.37C167.466 23.8633 167.653 24.4567 167.653 25.15C167.653 25.5367 167.593 25.8833 167.473 26.19C167.359 26.49 167.196 26.75 166.983 26.97C166.883 27.0833 166.773 27.1833 166.653 27.27C166.533 27.35 166.416 27.4167 166.303 27.47C166.516 27.51 166.746 27.6033 166.993 27.75C167.379 27.9767 167.673 28.2833 167.873 28.67C168.073 29.05 168.173 29.5133 168.173 30.06C168.173 30.8 167.996 31.4033 167.643 31.87C167.289 32.3367 166.816 32.6567 166.223 32.83C165.956 32.9033 165.666 32.95 165.353 32.97C165.046 32.99 164.756 33 164.483 33H159.453ZM160.933 31.75H164.413C164.553 31.75 164.729 31.74 164.943 31.72C165.156 31.6933 165.346 31.66 165.513 31.62C165.906 31.52 166.193 31.32 166.373 31.02C166.559 30.7133 166.653 30.38 166.653 30.02C166.653 29.5467 166.513 29.16 166.233 28.86C165.959 28.5533 165.593 28.3667 165.133 28.3C164.979 28.2667 164.819 28.2467 164.653 28.24C164.486 28.2333 164.336 28.23 164.203 28.23H160.933V31.75ZM160.933 26.97H163.953C164.126 26.97 164.319 26.96 164.533 26.94C164.753 26.9133 164.943 26.87 165.103 26.81C165.449 26.69 165.703 26.4833 165.863 26.19C166.029 25.8967 166.113 25.5767 166.113 25.23C166.113 24.85 166.023 24.5167 165.843 24.23C165.669 23.9433 165.406 23.7433 165.053 23.63C164.813 23.5433 164.553 23.4933 164.273 23.48C163.999 23.4667 163.826 23.46 163.753 23.46H160.933V26.97ZM173.256 33.3C172.442 33.3 171.759 33.1533 171.206 32.86C170.659 32.5667 170.249 32.1767 169.976 31.69C169.702 31.2033 169.566 30.6733 169.566 30.1C169.566 29.5133 169.682 29.0133 169.916 28.6C170.156 28.18 170.479 27.8367 170.886 27.57C171.299 27.3033 171.776 27.1 172.316 26.96C172.862 26.8267 173.466 26.71 174.126 26.61C174.792 26.5033 175.442 26.4133 176.076 26.34C176.716 26.26 177.276 26.1833 177.756 26.11L177.236 26.43C177.256 25.3633 177.049 24.5733 176.616 24.06C176.182 23.5467 175.429 23.29 174.356 23.29C173.616 23.29 172.989 23.4567 172.476 23.79C171.969 24.1233 171.612 24.65 171.406 25.37L169.976 24.95C170.222 23.9833 170.719 23.2333 171.466 22.7C172.212 22.1667 173.182 21.9 174.376 21.9C175.362 21.9 176.199 22.0867 176.886 22.46C177.579 22.8267 178.069 23.36 178.356 24.06C178.489 24.3733 178.576 24.7233 178.616 25.11C178.656 25.4967 178.676 25.89 178.676 26.29V33H177.366V30.29L177.746 30.45C177.379 31.3767 176.809 32.0833 176.036 32.57C175.262 33.0567 174.336 33.3 173.256 33.3ZM173.426 32.03C174.112 32.03 174.712 31.9067 175.226 31.66C175.739 31.4133 176.152 31.0767 176.466 30.65C176.779 30.2167 176.982 29.73 177.076 29.19C177.156 28.8433 177.199 28.4633 177.206 28.05C177.212 27.63 177.216 27.3167 177.216 27.11L177.776 27.4C177.276 27.4667 176.732 27.5333 176.146 27.6C175.566 27.6667 174.992 27.7433 174.426 27.83C173.866 27.9167 173.359 28.02 172.906 28.14C172.599 28.2267 172.302 28.35 172.016 28.51C171.729 28.6633 171.492 28.87 171.306 29.13C171.126 29.39 171.036 29.7133 171.036 30.1C171.036 30.4133 171.112 30.7167 171.266 31.01C171.426 31.3033 171.679 31.5467 172.026 31.74C172.379 31.9333 172.846 32.03 173.426 32.03ZM181.279 33V22.2H188.679V23.61H182.749V33H181.279ZM199.156 22.2V33H197.726V24.59L191.806 33H190.566V22.2H191.996V30.54L197.926 22.2H199.156Z" fill="#FF9F42"/>
<path d="M60.49 129.35C54.25 129.35 48.64 127.94 43.66 125.12C38.74 122.3 34.87 118.4 32.05 113.42C29.29 108.44 27.91 102.8 27.91 96.5C27.91 90.2 29.29 84.56 32.05 79.58C34.87 74.6 38.74 70.7 43.66 67.88C48.64 65.06 54.25 63.65 60.49 63.65C65.95 63.65 70.93 64.79 75.43 67.07C79.93 69.35 83.56 72.53 86.32 76.61C89.14 80.69 90.76 85.31 91.18 90.47H76.69C76.09 87.95 75.01 85.73 73.45 83.81C71.95 81.89 70.06 80.39 67.78 79.31C65.56 78.23 63.07 77.69 60.31 77.69C57.01 77.69 54.04 78.47 51.4 80.03C48.76 81.53 46.66 83.63 45.1 86.33C43.6 89.03 42.79 92.12 42.67 95.6H63.64V97.4H42.67C42.79 100.88 43.6 103.97 45.1 106.67C46.66 109.37 48.76 111.47 51.4 112.97C54.04 114.47 57.01 115.22 60.31 115.22C63.07 115.22 65.56 114.71 67.78 113.69C70.06 112.61 71.95 111.11 73.45 109.19C75.01 107.27 76.09 105.05 76.69 102.53H91.18C90.76 107.63 89.14 112.22 86.32 116.3C83.56 120.38 79.93 123.59 75.43 125.93C70.93 128.21 65.95 129.35 60.49 129.35ZM205.48 249.14V222.86H212.59C213.67 217.76 214.45 212.51 214.93 207.11C215.41 201.65 215.65 195.02 215.65 187.22C215.65 186.74 215.65 186.26 215.65 185.78C215.65 185.24 215.65 184.67 215.65 184.07V173H266.14V222.86H274.78V249.14H261.01V236H219.25V249.14H205.48ZM226.36 223.13H252.01V185.87H229.6V190.37C229.54 197.15 229.24 203.09 228.7 208.19C228.22 213.23 227.44 218.21 226.36 223.13ZM287.303 237.26C285.563 237.26 284.033 237.14 282.713 236.9C281.393 236.66 280.253 236.36 279.293 236V222.14C279.353 222.14 279.383 222.14 279.383 222.14C280.463 222.32 281.453 222.44 282.353 222.5C283.313 222.56 284.363 222.59 285.503 222.59C286.223 222.59 286.883 222.44 287.483 222.14C288.083 221.78 288.593 221.27 289.013 220.61C289.493 219.95 289.853 219.11 290.093 218.09C290.933 215.15 291.503 210.71 291.803 204.77C292.163 198.83 292.343 191.6 292.343 183.08V173H342.203V236H327.803V186.86H306.113V189.47C306.053 198.11 305.663 206 304.943 213.14C304.283 220.28 303.113 225.5 301.433 228.8C299.993 231.68 298.133 233.81 295.853 235.19C293.573 236.57 290.723 237.26 287.303 237.26ZM371.678 207.47C367.358 206.27 363.998 204.23 361.598 201.35C359.198 198.47 357.998 194.99 357.998 190.91C357.998 185.33 360.278 180.95 364.838 177.77C369.398 174.59 375.668 173 383.648 173H408.218V236H393.818V208.91H387.968C387.848 208.91 387.728 208.91 387.608 208.91C387.488 208.91 387.368 208.88 387.248 208.82C387.188 208.82 387.098 208.82 386.978 208.82C386.858 208.82 386.738 208.82 386.618 208.82L367.718 236H351.788L371.678 207.47ZM385.178 207.11H393.818V185.51H385.178C381.338 185.51 378.248 186.5 375.908 188.48C373.568 190.46 372.398 193.07 372.398 196.31C372.398 199.55 373.568 202.16 375.908 204.14C378.248 206.12 381.338 207.11 385.178 207.11ZM448.394 236V173H462.704V203.6H468.104L489.074 173H504.824L483.854 203.33L506.174 236H488.984L468.014 205.4H462.704V236H448.394ZM542.932 237.35C536.692 237.35 531.052 235.94 526.012 233.12C520.972 230.24 517.012 226.31 514.132 221.33C511.312 216.29 509.902 210.68 509.902 204.5C509.902 198.32 511.312 192.74 514.132 187.76C517.012 182.72 520.972 178.79 526.012 175.97C531.052 173.09 536.692 171.65 542.932 171.65C549.172 171.65 554.812 173.09 559.852 175.97C564.892 178.79 568.822 182.72 571.642 187.76C574.522 192.74 575.962 198.32 575.962 204.5C575.962 210.68 574.522 216.29 571.642 221.33C568.822 226.31 564.892 230.24 559.852 233.12C554.812 235.94 549.172 237.35 542.932 237.35ZM542.932 223.22C546.412 223.22 549.532 222.41 552.292 220.79C555.112 219.17 557.302 216.95 558.862 214.13C560.482 211.25 561.292 208.04 561.292 204.5C561.292 200.96 560.482 197.78 558.862 194.96C557.302 192.08 555.112 189.83 552.292 188.21C549.532 186.53 546.412 185.69 542.932 185.69C539.452 185.69 536.332 186.53 533.572 188.21C530.812 189.83 528.622 192.08 527.002 194.96C525.442 197.78 524.662 200.96 524.662 204.5C524.662 208.04 525.442 211.25 527.002 214.13C528.622 216.95 530.812 219.17 533.572 220.79C536.332 222.41 539.452 223.22 542.932 223.22ZM587.965 236V173H602.725L622.525 233.39L642.415 173H657.085V236H642.685V178.49L623.605 236H621.445L602.365 178.49V236H587.965ZM705.313 236V225.47H697.303C692.083 225.47 687.463 224.57 683.443 222.77C679.423 220.97 676.303 218.39 674.083 215.03C671.923 211.67 670.843 207.8 670.843 203.42C670.843 198.92 672.013 194.96 674.353 191.54C676.753 188.12 680.263 185.48 684.883 183.62C689.563 181.7 695.173 180.74 701.713 180.74H705.313V172.1H719.713V180.74H723.313C729.913 180.74 735.523 181.7 740.143 183.62C744.763 185.48 748.243 188.12 750.583 191.54C752.983 194.96 754.183 198.92 754.183 203.42C754.183 207.8 753.073 211.67 750.853 215.03C748.693 218.39 745.603 220.97 741.583 222.77C737.563 224.57 732.943 225.47 727.723 225.47H719.713V236H705.313ZM701.173 223.67H705.313V193.25H701.173C695.713 193.25 691.363 194.6 688.123 197.3C684.943 200 683.353 203.66 683.353 208.28C683.353 211.28 684.073 213.95 685.513 216.29C687.013 218.63 689.113 220.46 691.813 221.78C694.513 223.04 697.633 223.67 701.173 223.67ZM723.943 223.67C727.483 223.67 730.573 223.04 733.213 221.78C735.913 220.46 737.983 218.63 739.423 216.29C740.923 213.95 741.673 211.28 741.673 208.28C741.673 203.66 740.053 200 736.813 197.3C733.633 194.6 729.343 193.25 723.943 193.25H719.713V223.67H723.943ZM796.585 237.35C790.345 237.35 784.705 235.94 779.665 233.12C774.625 230.24 770.665 226.31 767.785 221.33C764.965 216.29 763.555 210.68 763.555 204.5C763.555 198.32 764.965 192.74 767.785 187.76C770.665 182.72 774.625 178.79 779.665 175.97C784.705 173.09 790.345 171.65 796.585 171.65C802.825 171.65 808.465 173.09 813.505 175.97C818.545 178.79 822.475 182.72 825.295 187.76C828.175 192.74 829.615 198.32 829.615 204.5C829.615 210.68 828.175 216.29 825.295 221.33C822.475 226.31 818.545 230.24 813.505 233.12C808.465 235.94 802.825 237.35 796.585 237.35ZM796.585 223.22C800.065 223.22 803.185 222.41 805.945 220.79C808.765 219.17 810.955 216.95 812.515 214.13C814.135 211.25 814.945 208.04 814.945 204.5C814.945 200.96 814.135 197.78 812.515 194.96C810.955 192.08 808.765 189.83 805.945 188.21C803.185 186.53 800.065 185.69 796.585 185.69C793.105 185.69 789.985 186.53 787.225 188.21C784.465 189.83 782.275 192.08 780.655 194.96C779.095 197.78 778.315 200.96 778.315 204.5C778.315 208.04 779.095 211.25 780.655 214.13C782.275 216.95 784.465 219.17 787.225 220.79C789.985 222.41 793.105 223.22 796.585 223.22ZM841.617 236V173H866.097C874.017 173 880.257 174.62 884.817 177.86C889.377 181.04 891.657 185.42 891.657 191C891.657 196.58 889.527 200.99 885.267 204.23C881.067 207.41 875.307 209 867.987 209H856.017V236H841.617ZM864.477 207.2C868.377 207.2 871.467 206.21 873.747 204.23C876.087 202.25 877.257 199.64 877.257 196.4C877.257 193.1 876.087 190.46 873.747 188.48C871.467 186.5 868.377 185.51 864.477 185.51H856.017V207.2H864.477ZM920.046 236V186.86H897.366V173H957.036V186.86H934.446V236H920.046ZM968.267 236V173H982.667V203.6H1010.03V173H1024.43V236H1010.03V205.4H982.667V236H968.267ZM1069.48 237.35C1063.24 237.35 1057.6 235.94 1052.56 233.12C1047.52 230.24 1043.56 226.31 1040.68 221.33C1037.86 216.29 1036.45 210.68 1036.45 204.5C1036.45 198.32 1037.86 192.74 1040.68 187.76C1043.56 182.72 1047.52 178.79 1052.56 175.97C1057.6 173.09 1063.24 171.65 1069.48 171.65C1075.72 171.65 1081.36 173.09 1086.4 175.97C1091.44 178.79 1095.37 182.72 1098.19 187.76C1101.07 192.74 1102.51 198.32 1102.51 204.5C1102.51 210.68 1101.07 216.29 1098.19 221.33C1095.37 226.31 1091.44 230.24 1086.4 233.12C1081.36 235.94 1075.72 237.35 1069.48 237.35ZM1069.48 223.22C1072.96 223.22 1076.08 222.41 1078.84 220.79C1081.66 219.17 1083.85 216.95 1085.41 214.13C1087.03 211.25 1087.84 208.04 1087.84 204.5C1087.84 200.96 1087.03 197.78 1085.41 194.96C1083.85 192.08 1081.66 189.83 1078.84 188.21C1076.08 186.53 1072.96 185.69 1069.48 185.69C1066 185.69 1062.88 186.53 1060.12 188.21C1057.36 189.83 1055.17 192.08 1053.55 194.96C1051.99 197.78 1051.21 200.96 1051.21 204.5C1051.21 208.04 1051.99 211.25 1053.55 214.13C1055.17 216.95 1057.36 219.17 1060.12 220.79C1062.88 222.41 1066 223.22 1069.48 223.22ZM1114.52 236V173H1159.88V186.86H1128.92V236H1114.52ZM1195.87 237.35C1189.63 237.35 1183.99 235.94 1178.95 233.12C1173.91 230.24 1169.95 226.31 1167.07 221.33C1164.25 216.29 1162.84 210.68 1162.84 204.5C1162.84 198.32 1164.25 192.74 1167.07 187.76C1169.95 182.72 1173.91 178.79 1178.95 175.97C1183.99 173.09 1189.63 171.65 1195.87 171.65C1202.11 171.65 1207.75 173.09 1212.79 175.97C1217.83 178.79 1221.76 182.72 1224.58 187.76C1227.46 192.74 1228.9 198.32 1228.9 204.5C1228.9 210.68 1227.46 216.29 1224.58 221.33C1221.76 226.31 1217.83 230.24 1212.79 233.12C1207.75 235.94 1202.11 237.35 1195.87 237.35ZM1195.87 223.22C1199.35 223.22 1202.47 222.41 1205.23 220.79C1208.05 219.17 1210.24 216.95 1211.8 214.13C1213.42 211.25 1214.23 208.04 1214.23 204.5C1214.23 200.96 1213.42 197.78 1211.8 194.96C1210.24 192.08 1208.05 189.83 1205.23 188.21C1202.47 186.53 1199.35 185.69 1195.87 185.69C1192.39 185.69 1189.27 186.53 1186.51 188.21C1183.75 189.83 1181.56 192.08 1179.94 194.96C1178.38 197.78 1177.6 200.96 1177.6 204.5C1177.6 208.04 1178.38 211.25 1179.94 214.13C1181.56 216.95 1183.75 219.17 1186.51 220.79C1189.27 222.41 1192.39 223.22 1195.87 223.22ZM150.49 345.35C144.25 345.35 138.64 343.94 133.66 341.12C128.74 338.3 124.87 334.4 122.05 329.42C119.29 324.44 117.91 318.8 117.91 312.5C117.91 306.2 119.29 300.56 122.05 295.58C124.87 290.6 128.74 286.7 133.66 283.88C138.64 281.06 144.25 279.65 150.49 279.65C155.95 279.65 160.93 280.82 165.43 283.16C169.99 285.44 173.65 288.65 176.41 292.79C179.23 296.93 180.85 301.58 181.27 306.74H166.69C166.15 304.1 165.1 301.82 163.54 299.9C162.04 297.92 160.15 296.39 157.87 295.31C155.65 294.23 153.13 293.69 150.31 293.69C146.89 293.69 143.83 294.5 141.13 296.12C138.49 297.74 136.42 299.99 134.92 302.87C133.42 305.69 132.67 308.9 132.67 312.5C132.67 316.1 133.42 319.34 134.92 322.22C136.42 325.04 138.49 327.26 141.13 328.88C143.83 330.44 146.89 331.22 150.31 331.22C153.13 331.22 155.65 330.71 157.87 329.69C160.15 328.61 162.04 327.11 163.54 325.19C165.1 323.21 166.15 320.9 166.69 318.26H181.27C180.85 323.42 179.23 328.07 176.41 332.21C173.65 336.35 169.99 339.59 165.43 341.93C160.93 344.21 155.95 345.35 150.49 345.35ZM210.457 345.35C206.497 345.35 202.927 344.54 199.747 342.92C196.627 341.24 194.167 338.9 192.367 335.9C190.627 332.9 189.757 329.48 189.757 325.64V322.4H203.887V325.91C203.887 328.07 204.457 329.84 205.597 331.22C206.797 332.54 208.357 333.2 210.277 333.2C211.837 333.2 213.037 332.81 213.877 332.03C214.777 331.19 215.227 330.11 215.227 328.79C215.227 327.11 214.687 325.43 213.607 323.75L185.437 281H202.627L221.527 312.5C221.827 312.98 222.097 313.52 222.337 314.12C222.577 314.66 222.787 315.26 222.967 315.92L233.407 281H248.077L232.417 326.81C230.317 333.05 227.467 337.7 223.867 340.76C220.327 343.82 215.857 345.35 210.457 345.35ZM293.772 344V317H283.422C273.882 317 266.682 315.23 261.822 311.69C257.022 308.15 254.622 302.87 254.622 295.85V281H269.022V300.44C269.022 305.3 270.222 308.99 272.622 311.51C275.082 313.97 278.682 315.2 283.422 315.2H293.772V281H308.172V344H293.772ZM318.677 344L342.527 281H361.067L384.917 344H369.707L362.957 325.82H340.367L333.527 344H318.677ZM340.997 324.11H362.327L351.707 296.21L340.997 324.11ZM421.017 345.35C414.777 345.35 409.167 343.94 404.187 341.12C399.267 338.3 395.397 334.4 392.577 329.42C389.817 324.44 388.437 318.8 388.437 312.5C388.437 306.2 389.817 300.56 392.577 295.58C395.397 290.6 399.267 286.7 404.187 283.88C409.167 281.06 414.777 279.65 421.017 279.65C426.477 279.65 431.457 280.82 435.957 283.16C440.517 285.44 444.177 288.65 446.937 292.79C449.757 296.93 451.377 301.58 451.797 306.74H437.217C436.677 304.1 435.627 301.82 434.067 299.9C432.567 297.92 430.677 296.39 428.397 295.31C426.177 294.23 423.657 293.69 420.837 293.69C417.417 293.69 414.357 294.5 411.657 296.12C409.017 297.74 406.947 299.99 405.447 302.87C403.947 305.69 403.197 308.9 403.197 312.5C403.197 316.1 403.947 319.34 405.447 322.22C406.947 325.04 409.017 327.26 411.657 328.88C414.357 330.44 417.417 331.22 420.837 331.22C423.657 331.22 426.177 330.71 428.397 329.69C430.677 328.61 432.567 327.11 434.067 325.19C435.627 323.21 436.677 320.9 437.217 318.26H451.797C451.377 323.42 449.757 328.07 446.937 332.21C444.177 336.35 440.517 339.59 435.957 341.93C431.457 344.21 426.477 345.35 421.017 345.35ZM464.215 344V281H478.615V311.6H505.975V281H520.375V344H505.975V313.4H478.615V344H464.215ZM565.432 345.35C559.192 345.35 553.552 343.94 548.512 341.12C543.472 338.24 539.512 334.31 536.632 329.33C533.812 324.29 532.402 318.68 532.402 312.5C532.402 306.32 533.812 300.74 536.632 295.76C539.512 290.72 543.472 286.79 548.512 283.97C553.552 281.09 559.192 279.65 565.432 279.65C571.672 279.65 577.312 281.09 582.352 283.97C587.392 286.79 591.322 290.72 594.142 295.76C597.022 300.74 598.462 306.32 598.462 312.5C598.462 318.68 597.022 324.29 594.142 329.33C591.322 334.31 587.392 338.24 582.352 341.12C577.312 343.94 571.672 345.35 565.432 345.35ZM565.432 331.22C568.912 331.22 572.032 330.41 574.792 328.79C577.612 327.17 579.802 324.95 581.362 322.13C582.982 319.25 583.792 316.04 583.792 312.5C583.792 308.96 582.982 305.78 581.362 302.96C579.802 300.08 577.612 297.83 574.792 296.21C572.032 294.53 568.912 293.69 565.432 293.69C561.952 293.69 558.832 294.53 556.072 296.21C553.312 297.83 551.122 300.08 549.502 302.96C547.942 305.78 547.162 308.96 547.162 312.5C547.162 316.04 547.942 319.25 549.502 322.13C551.122 324.95 553.312 327.17 556.072 328.79C558.832 330.41 561.952 331.22 565.432 331.22ZM610.465 344V281H655.825V294.86H624.865V344H610.465ZM691.819 345.35C685.579 345.35 679.939 343.94 674.899 341.12C669.859 338.24 665.899 334.31 663.019 329.33C660.199 324.29 658.789 318.68 658.789 312.5C658.789 306.32 660.199 300.74 663.019 295.76C665.899 290.72 669.859 286.79 674.899 283.97C679.939 281.09 685.579 279.65 691.819 279.65C698.059 279.65 703.699 281.09 708.739 283.97C713.779 286.79 717.709 290.72 720.529 295.76C723.409 300.74 724.849 306.32 724.849 312.5C724.849 318.68 723.409 324.29 720.529 329.33C717.709 334.31 713.779 338.24 708.739 341.12C703.699 343.94 698.059 345.35 691.819 345.35ZM691.819 331.22C695.299 331.22 698.419 330.41 701.179 328.79C703.999 327.17 706.189 324.95 707.749 322.13C709.369 319.25 710.179 316.04 710.179 312.5C710.179 308.96 709.369 305.78 707.749 302.96C706.189 300.08 703.999 297.83 701.179 296.21C698.419 294.53 695.299 293.69 691.819 293.69C688.339 293.69 685.219 294.53 682.459 296.21C679.699 297.83 677.509 300.08 675.889 302.96C674.329 305.78 673.549 308.96 673.549 312.5C673.549 316.04 674.329 319.25 675.889 322.13C677.509 324.95 679.699 327.17 682.459 328.79C685.219 330.41 688.339 331.22 691.819 331.22ZM25.21 452L45.91 419.33L26.47 389H41.95L61.39 419.6H67.24V389H81.64V419.6H87.31L106.84 389H122.32L102.79 419.33L123.67 452H106.75L87.22 421.4H81.64V452H67.24V421.4H61.57L42.04 452H25.21ZM134.097 452V389H148.497V447.5L177.567 389H192.057V452H177.657V393.32L148.497 452H134.097ZM225.973 452V402.86H203.293V389H262.963V402.86H240.373V452H225.973ZM290.485 452V402.86H267.805V389H327.475V402.86H304.885V452H290.485ZM348.739 423.47C344.419 422.27 341.059 420.23 338.659 417.35C336.259 414.47 335.059 410.99 335.059 406.91C335.059 401.33 337.339 396.95 341.899 393.77C346.459 390.59 352.729 389 360.709 389H385.279V452H370.879V424.91H365.029C364.909 424.91 364.789 424.91 364.669 424.91C364.549 424.91 364.429 424.88 364.309 424.82C364.249 424.82 364.159 424.82 364.039 424.82C363.919 424.82 363.799 424.82 363.679 424.82L344.779 452H328.849L348.739 423.47ZM362.239 423.11H370.879V401.51H362.239C358.399 401.51 355.309 402.5 352.969 404.48C350.629 406.46 349.459 409.07 349.459 412.31C349.459 415.55 350.629 418.16 352.969 420.14C355.309 422.12 358.399 423.11 362.239 423.11Z" fill="black"/>
<path d="M126.099 128V65H156.879C163.299 65 168.339 66.44 171.999 69.32C175.719 72.2 177.579 76.16 177.579 81.2C177.579 84.86 176.559 87.95 174.519 90.47C172.539 92.99 169.719 94.82 166.059 95.96V96.41C170.259 97.43 173.559 99.29 175.959 101.99C178.359 104.69 179.559 107.96 179.559 111.8C179.559 115.04 178.719 117.89 177.039 120.35C175.419 122.81 173.079 124.7 170.019 126.02C167.019 127.34 163.509 128 159.489 128H126.099ZM154.359 114.5C157.419 114.5 159.879 113.72 161.739 112.16C163.599 110.54 164.529 108.47 164.529 105.95C164.529 103.37 163.569 101.3 161.649 99.74C159.789 98.18 157.359 97.4 154.359 97.4H140.499V114.5H154.359ZM153.099 95.6C156.159 95.6 158.619 94.82 160.479 93.26C162.339 91.64 163.269 89.57 163.269 87.05C163.269 84.47 162.339 82.4 160.479 80.84C158.619 79.28 156.159 78.5 153.099 78.5H140.499V95.6H153.099ZM219.924 129.35C213.684 129.35 208.074 127.94 203.094 125.12C198.174 122.3 194.304 118.4 191.484 113.42C188.724 108.44 187.344 102.8 187.344 96.5C187.344 90.2 188.724 84.56 191.484 79.58C194.304 74.6 198.174 70.7 203.094 67.88C208.074 65.06 213.684 63.65 219.924 63.65C225.384 63.65 230.364 64.82 234.864 67.16C239.424 69.44 243.084 72.65 245.844 76.79C248.664 80.93 250.284 85.58 250.704 90.74H236.124C235.584 88.1 234.534 85.82 232.974 83.9C231.474 81.92 229.584 80.39 227.304 79.31C225.084 78.23 222.564 77.69 219.744 77.69C216.324 77.69 213.264 78.5 210.564 80.12C207.924 81.74 205.854 83.99 204.354 86.87C202.854 89.69 202.104 92.9 202.104 96.5C202.104 100.1 202.854 103.34 204.354 106.22C205.854 109.04 207.924 111.26 210.564 112.88C213.264 114.44 216.324 115.22 219.744 115.22C222.564 115.22 225.084 114.71 227.304 113.69C229.584 112.61 231.474 111.11 232.974 109.19C234.534 107.21 235.584 104.9 236.124 102.26H250.704C250.284 107.42 248.664 112.07 245.844 116.21C243.084 120.35 239.424 123.59 234.864 125.93C230.364 128.21 225.384 129.35 219.924 129.35ZM263.121 128V65H306.591V77.51H277.251V95.6H297.231V97.4H277.251V115.49H309.201V128H263.121ZM345.035 128V65H359.435V95.6H386.795V65H401.195V128H386.795V97.4H359.435V128H345.035ZM418.863 128V65H462.333V77.51H432.993V95.6H452.973V97.4H432.993V115.49H464.943V128H418.863ZM503.909 129.35C497.669 129.35 492.029 127.94 486.989 125.12C481.949 122.24 477.989 118.31 475.109 113.33C472.289 108.29 470.879 102.68 470.879 96.5C470.879 90.32 472.289 84.74 475.109 79.76C477.989 74.72 481.949 70.79 486.989 67.97C492.029 65.09 497.669 63.65 503.909 63.65C510.149 63.65 515.789 65.09 520.829 67.97C525.869 70.79 529.799 74.72 532.619 79.76C535.499 84.74 536.939 90.32 536.939 96.5C536.939 102.68 535.499 108.29 532.619 113.33C529.799 118.31 525.869 122.24 520.829 125.12C515.789 127.94 510.149 129.35 503.909 129.35ZM503.909 115.22C507.389 115.22 510.509 114.41 513.269 112.79C516.089 111.17 518.279 108.95 519.839 106.13C521.459 103.25 522.269 100.04 522.269 96.5C522.269 92.96 521.459 89.78 519.839 86.96C518.279 84.08 516.089 81.83 513.269 80.21C510.509 78.53 507.389 77.69 503.909 77.69C500.429 77.69 497.309 78.53 494.549 80.21C491.789 81.83 489.599 84.08 487.979 86.96C486.419 89.78 485.639 92.96 485.639 96.5C485.639 100.04 486.419 103.25 487.979 106.13C489.599 108.95 491.789 111.17 494.549 112.79C497.309 114.41 500.429 115.22 503.909 115.22ZM550.172 128V65H597.602V77.51H563.942V92.36H578.252C585.512 92.36 591.242 93.95 595.442 97.13C599.642 100.31 601.742 104.66 601.742 110.18C601.742 115.7 599.642 120.05 595.442 123.23C591.242 126.41 585.512 128 578.252 128H550.172ZM574.832 115.49C578.612 115.49 581.642 114.53 583.922 112.61C586.202 110.63 587.342 108.02 587.342 104.78C587.342 101.54 586.202 98.96 583.922 97.04C581.642 95.12 578.612 94.16 574.832 94.16H563.942V115.49H574.832ZM606.159 128L628.299 95.6L607.059 65H623.799L638.829 86.69L653.769 65H670.149L648.819 95.51L671.139 128H654.219L638.469 105.23L622.629 128H606.159ZM681.216 128V65H695.616V128H681.216ZM706.457 141.14V114.86H713.567C714.647 109.76 715.427 104.51 715.907 99.11C716.387 93.65 716.627 87.02 716.627 79.22C716.627 78.74 716.627 78.26 716.627 77.78C716.627 77.24 716.627 76.67 716.627 76.07V65H767.117V114.86H775.757V141.14H761.987V128H720.227V141.14H706.457ZM727.337 115.13H752.987V77.87H730.577V82.37C730.517 89.15 730.217 95.09 729.677 100.19C729.197 105.23 728.417 110.21 727.337 115.13ZM787.74 128V65H802.14V95.6H829.5V65H843.9V128H829.5V97.4H802.14V128H787.74ZM861.568 128V65H905.038V77.51H875.698V95.6H895.678V97.4H875.698V115.49H907.648V128H861.568Z" fill="#FF9F42"/>
<line x1="410" y1="491.5" x2="1280" y2="491.5" stroke="#FF9F42"/>
<line x1="1279.5" y1="466" x2="1279.5" y2="115" stroke="#FF9F42"/>
<line x1="1279.5" y1="45" x2="1279.5" y2="2.18557e-08" stroke="#FF9F42"/>
<line x1="0.5" y1="25" x2="0.5" y2="352" stroke="#FF9F42"/>
<line x1="1280" y1="0.5" x2="919" y2="0.500032" stroke="#FF9F42"/>
</svg>
