<svg width="321" height="163" viewBox="0 0 321 163" fill="none" xmlns="http://www.w3.org/2000/svg">
<path d="M86.84 9V0.36H93.458V9H92.576V1.206H87.722V9H86.84ZM97.8789 9.18C97.2469 9.18 96.6989 9.04 96.2349 8.76C95.7749 8.48 95.4169 8.086 95.1609 7.578C94.9049 7.07 94.7769 6.474 94.7769 5.79C94.7769 5.082 94.9029 4.47 95.1549 3.954C95.4069 3.438 95.7609 3.04 96.2169 2.76C96.6769 2.48 97.2189 2.34 97.8429 2.34C98.4829 2.34 99.0289 2.488 99.4809 2.784C99.9329 3.076 100.275 3.496 100.507 4.044C100.739 4.592 100.845 5.246 100.825 6.006H99.9249V5.694C99.9089 4.854 99.7269 4.22 99.3789 3.792C99.0349 3.364 98.5309 3.15 97.8669 3.15C97.1709 3.15 96.6369 3.376 96.2649 3.828C95.8969 4.28 95.7129 4.924 95.7129 5.76C95.7129 6.576 95.8969 7.21 96.2649 7.662C96.6369 8.11 97.1629 8.334 97.8429 8.334C98.3069 8.334 98.7109 8.228 99.0549 8.016C99.4029 7.8 99.6769 7.49 99.8769 7.086L100.699 7.404C100.443 7.968 100.065 8.406 99.5649 8.718C99.0689 9.026 98.5069 9.18 97.8789 9.18ZM95.4009 6.006V5.268H100.351V6.006H95.4009ZM105.066 9.18C104.47 9.18 103.966 9.03 103.554 8.73C103.142 8.426 102.83 8.016 102.618 7.5C102.406 6.98 102.3 6.398 102.3 5.754C102.3 5.098 102.406 4.514 102.618 4.002C102.834 3.486 103.15 3.08 103.566 2.784C103.982 2.488 104.494 2.34 105.102 2.34C105.694 2.34 106.202 2.49 106.626 2.79C107.05 3.09 107.374 3.498 107.598 4.014C107.826 4.53 107.94 5.11 107.94 5.754C107.94 6.402 107.826 6.984 107.598 7.5C107.37 8.016 107.042 8.426 106.614 8.73C106.186 9.03 105.67 9.18 105.066 9.18ZM102.15 11.88V2.52H102.942V7.398H103.038V11.88H102.15ZM104.976 8.358C105.428 8.358 105.804 8.244 106.104 8.016C106.404 7.788 106.628 7.478 106.776 7.086C106.928 6.69 107.004 6.246 107.004 5.754C107.004 5.266 106.93 4.826 106.782 4.434C106.634 4.042 106.408 3.732 106.104 3.504C105.804 3.276 105.422 3.162 104.958 3.162C104.506 3.162 104.13 3.272 103.83 3.492C103.534 3.712 103.312 4.018 103.164 4.41C103.016 4.798 102.942 5.246 102.942 5.754C102.942 6.254 103.016 6.702 103.164 7.098C103.312 7.49 103.536 7.798 103.836 8.022C104.136 8.246 104.516 8.358 104.976 8.358ZM112 9.18C111.368 9.18 110.82 9.04 110.356 8.76C109.896 8.48 109.538 8.086 109.282 7.578C109.026 7.07 108.898 6.474 108.898 5.79C108.898 5.082 109.024 4.47 109.276 3.954C109.528 3.438 109.882 3.04 110.338 2.76C110.798 2.48 111.34 2.34 111.964 2.34C112.604 2.34 113.15 2.488 113.602 2.784C114.054 3.076 114.396 3.496 114.628 4.044C114.86 4.592 114.966 5.246 114.946 6.006H114.046V5.694C114.03 4.854 113.848 4.22 113.5 3.792C113.156 3.364 112.652 3.15 111.988 3.15C111.292 3.15 110.758 3.376 110.386 3.828C110.018 4.28 109.834 4.924 109.834 5.76C109.834 6.576 110.018 7.21 110.386 7.662C110.758 8.11 111.284 8.334 111.964 8.334C112.428 8.334 112.832 8.228 113.176 8.016C113.524 7.8 113.798 7.49 113.998 7.086L114.82 7.404C114.564 7.968 114.186 8.406 113.686 8.718C113.19 9.026 112.628 9.18 112 9.18ZM109.522 6.006V5.268H114.472V6.006H109.522ZM116.272 9V2.52H118.942C119.078 2.52 119.242 2.528 119.434 2.544C119.63 2.56 119.812 2.59 119.98 2.634C120.344 2.73 120.636 2.926 120.856 3.222C121.08 3.518 121.192 3.874 121.192 4.29C121.192 4.522 121.156 4.73 121.084 4.914C121.016 5.094 120.918 5.25 120.79 5.382C120.73 5.45 120.664 5.51 120.592 5.562C120.52 5.61 120.45 5.65 120.382 5.682C120.51 5.706 120.648 5.762 120.796 5.85C121.028 5.986 121.204 6.17 121.324 6.402C121.444 6.63 121.504 6.908 121.504 7.236C121.504 7.68 121.398 8.042 121.186 8.322C120.974 8.602 120.69 8.794 120.334 8.898C120.174 8.942 120 8.97 119.812 8.982C119.628 8.994 119.454 9 119.29 9H116.272ZM117.16 8.25H119.248C119.332 8.25 119.438 8.244 119.566 8.232C119.694 8.216 119.808 8.196 119.908 8.172C120.144 8.112 120.316 7.992 120.424 7.812C120.536 7.628 120.592 7.428 120.592 7.212C120.592 6.928 120.508 6.696 120.34 6.516C120.176 6.332 119.956 6.22 119.68 6.18C119.588 6.16 119.492 6.148 119.392 6.144C119.292 6.14 119.202 6.138 119.122 6.138H117.16V8.25ZM117.16 5.382H118.972C119.076 5.382 119.192 5.376 119.32 5.364C119.452 5.348 119.566 5.322 119.662 5.286C119.87 5.214 120.022 5.09 120.118 4.914C120.218 4.738 120.268 4.546 120.268 4.338C120.268 4.11 120.214 3.91 120.106 3.738C120.002 3.566 119.844 3.446 119.632 3.378C119.488 3.326 119.332 3.296 119.164 3.288C119 3.28 118.896 3.276 118.852 3.276H117.16V5.382ZM124.553 9.18C124.065 9.18 123.655 9.092 123.323 8.916C122.995 8.74 122.749 8.506 122.585 8.214C122.421 7.922 122.339 7.604 122.339 7.26C122.339 6.908 122.409 6.608 122.549 6.36C122.693 6.108 122.887 5.902 123.131 5.742C123.379 5.582 123.665 5.46 123.989 5.376C124.317 5.296 124.679 5.226 125.075 5.166C125.475 5.102 125.865 5.048 126.245 5.004C126.629 4.956 126.965 4.91 127.253 4.866L126.941 5.058C126.953 4.418 126.829 3.944 126.569 3.636C126.309 3.328 125.857 3.174 125.213 3.174C124.769 3.174 124.393 3.274 124.085 3.474C123.781 3.674 123.567 3.99 123.443 4.422L122.585 4.17C122.733 3.59 123.031 3.14 123.479 2.82C123.927 2.5 124.509 2.34 125.225 2.34C125.817 2.34 126.319 2.452 126.731 2.676C127.147 2.896 127.441 3.216 127.613 3.636C127.693 3.824 127.745 4.034 127.769 4.266C127.793 4.498 127.805 4.734 127.805 4.974V9H127.019V7.374L127.247 7.47C127.027 8.026 126.685 8.45 126.221 8.742C125.757 9.034 125.201 9.18 124.553 9.18ZM124.655 8.418C125.067 8.418 125.427 8.344 125.735 8.196C126.043 8.048 126.291 7.846 126.479 7.59C126.667 7.33 126.789 7.038 126.845 6.714C126.893 6.506 126.919 6.278 126.923 6.03C126.927 5.778 126.929 5.59 126.929 5.466L127.265 5.64C126.965 5.68 126.639 5.72 126.287 5.76C125.939 5.8 125.595 5.846 125.255 5.898C124.919 5.95 124.615 6.012 124.343 6.084C124.159 6.136 123.981 6.21 123.809 6.306C123.637 6.398 123.495 6.522 123.383 6.678C123.275 6.834 123.221 7.028 123.221 7.26C123.221 7.448 123.267 7.63 123.359 7.806C123.455 7.982 123.607 8.128 123.815 8.244C124.027 8.36 124.307 8.418 124.655 8.418ZM129.367 9V2.52H133.807V3.366H130.249V9H129.367ZM140.093 2.52V9H139.235V3.954L135.683 9H134.939V2.52H135.797V7.524L139.355 2.52H140.093Z" fill="#FF9F42"/>
<line x1="66" y1="5.5" x2="1" y2="5.50001" stroke="#FF9F42"/>
<line x1="1.5" y1="6" x2="1.5" y2="45" stroke="#FF9F42"/>
<path d="M39.508 45.42C37.5667 45.42 35.8213 44.9813 34.272 44.104C32.7413 43.2267 31.5373 42.0133 30.66 40.464C29.8013 38.9147 29.372 37.16 29.372 35.2C29.372 33.24 29.8013 31.4853 30.66 29.936C31.5373 28.3867 32.7413 27.1733 34.272 26.296C35.8213 25.4187 37.5667 24.98 39.508 24.98C41.2067 24.98 42.756 25.3347 44.156 26.044C45.556 26.7533 46.6853 27.7427 47.544 29.012C48.4213 30.2813 48.9253 31.7187 49.056 33.324H44.548C44.3613 32.54 44.0253 31.8493 43.54 31.252C43.0733 30.6547 42.4853 30.188 41.776 29.852C41.0853 29.516 40.3107 29.348 39.452 29.348C38.4253 29.348 37.5013 29.5907 36.68 30.076C35.8587 30.5427 35.2053 31.196 34.72 32.036C34.2533 32.876 34.0013 33.8373 33.964 34.92H40.488V35.48H33.964C34.0013 36.5627 34.2533 37.524 34.72 38.364C35.2053 39.204 35.8587 39.8573 36.68 40.324C37.5013 40.7907 38.4253 41.024 39.452 41.024C40.3107 41.024 41.0853 40.8653 41.776 40.548C42.4853 40.212 43.0733 39.7453 43.54 39.148C44.0253 38.5507 44.3613 37.86 44.548 37.076H49.056C48.9253 38.6627 48.4213 40.0907 47.544 41.36C46.6853 42.6293 45.556 43.628 44.156 44.356C42.756 45.0653 41.2067 45.42 39.508 45.42ZM0.616 83.088V74.912H2.828C3.164 73.3253 3.40667 71.692 3.556 70.012C3.70533 68.3133 3.78 66.2507 3.78 63.824C3.78 63.6747 3.78 63.5253 3.78 63.376C3.78 63.208 3.78 63.0307 3.78 62.844V59.4H19.488V74.912H22.176V83.088H17.892V79H4.9V83.088H0.616ZM7.112 74.996H15.092V63.404H8.12V64.804C8.10133 66.9133 8.008 68.7613 7.84 70.348C7.69067 71.916 7.448 73.4653 7.112 74.996ZM26.0722 79.392C25.5308 79.392 25.0548 79.3547 24.6442 79.28C24.2335 79.2053 23.8788 79.112 23.5802 79V74.688C23.5988 74.688 23.6082 74.688 23.6082 74.688C23.9442 74.744 24.2522 74.7813 24.5322 74.8C24.8308 74.8187 25.1575 74.828 25.5122 74.828C25.7362 74.828 25.9415 74.7813 26.1282 74.688C26.3148 74.576 26.4735 74.4173 26.6042 74.212C26.7535 74.0067 26.8655 73.7453 26.9402 73.428C27.2015 72.5133 27.3788 71.132 27.4722 69.284C27.5842 67.436 27.6402 65.1867 27.6402 62.536V59.4H43.1522V79H38.6722V63.712H31.9242V64.524C31.9055 67.212 31.7842 69.6667 31.5602 71.888C31.3548 74.1093 30.9908 75.7333 30.4682 76.76C30.0202 77.656 29.4415 78.3187 28.7322 78.748C28.0228 79.1773 27.1362 79.392 26.0722 79.392ZM52.3222 70.124C50.9782 69.7507 49.9328 69.116 49.1862 68.22C48.4395 67.324 48.0662 66.2413 48.0662 64.972C48.0662 63.236 48.7755 61.8733 50.1942 60.884C51.6128 59.8947 53.5635 59.4 56.0462 59.4H63.6902V79H59.2102V70.572H57.3902C57.3528 70.572 57.3155 70.572 57.2782 70.572C57.2408 70.572 57.2035 70.5627 57.1662 70.544C57.1475 70.544 57.1195 70.544 57.0822 70.544C57.0448 70.544 57.0075 70.544 56.9702 70.544L51.0902 79H46.1342L52.3222 70.124ZM56.5222 70.012H59.2102V63.292H56.5222C55.3275 63.292 54.3662 63.6 53.6382 64.216C52.9102 64.832 52.5462 65.644 52.5462 66.652C52.5462 67.66 52.9102 68.472 53.6382 69.088C54.3662 69.704 55.3275 70.012 56.5222 70.012ZM76.1893 79V59.4H80.6413V68.92H82.3213L88.8453 59.4H93.7453L87.2213 68.836L94.1653 79H88.8173L82.2933 69.48H80.6413V79H76.1893ZM105.601 79.42C103.66 79.42 101.905 78.9813 100.337 78.104C98.7691 77.208 97.5371 75.9853 96.6411 74.436C95.7638 72.868 95.3251 71.1227 95.3251 69.2C95.3251 67.2773 95.7638 65.5413 96.6411 63.992C97.5371 62.424 98.7691 61.2013 100.337 60.324C101.905 59.428 103.66 58.98 105.601 58.98C107.542 58.98 109.297 59.428 110.865 60.324C112.433 61.2013 113.656 62.424 114.533 63.992C115.429 65.5413 115.877 67.2773 115.877 69.2C115.877 71.1227 115.429 72.868 114.533 74.436C113.656 75.9853 112.433 77.208 110.865 78.104C109.297 78.9813 107.542 79.42 105.601 79.42ZM105.601 75.024C106.684 75.024 107.654 74.772 108.513 74.268C109.39 73.764 110.072 73.0733 110.557 72.196C111.061 71.3 111.313 70.3013 111.313 69.2C111.313 68.0987 111.061 67.1093 110.557 66.232C110.072 65.336 109.39 64.636 108.513 64.132C107.654 63.6093 106.684 63.348 105.601 63.348C104.518 63.348 103.548 63.6093 102.689 64.132C101.83 64.636 101.149 65.336 100.645 66.232C100.16 67.1093 99.9171 68.0987 99.9171 69.2C99.9171 70.3013 100.16 71.3 100.645 72.196C101.149 73.0733 101.83 73.764 102.689 74.268C103.548 74.772 104.518 75.024 105.601 75.024ZM119.611 79V59.4H124.203L130.363 78.188L136.551 59.4H141.115V79H136.635V61.108L130.699 79H130.027L124.091 61.108V79H119.611ZM156.119 79V75.724H153.627C152.003 75.724 150.566 75.444 149.315 74.884C148.065 74.324 147.094 73.5213 146.403 72.476C145.731 71.4307 145.395 70.2267 145.395 68.864C145.395 67.464 145.759 66.232 146.487 65.168C147.234 64.104 148.326 63.2827 149.763 62.704C151.219 62.1067 152.965 61.808 154.999 61.808H156.119V59.12H160.599V61.808H161.719C163.773 61.808 165.518 62.1067 166.955 62.704C168.393 63.2827 169.475 64.104 170.203 65.168C170.95 66.232 171.323 67.464 171.323 68.864C171.323 70.2267 170.978 71.4307 170.287 72.476C169.615 73.5213 168.654 74.324 167.403 74.884C166.153 75.444 164.715 75.724 163.091 75.724H160.599V79H156.119ZM154.831 75.164H156.119V65.7H154.831C153.133 65.7 151.779 66.12 150.771 66.96C149.782 67.8 149.287 68.9387 149.287 70.376C149.287 71.3093 149.511 72.14 149.959 72.868C150.426 73.596 151.079 74.1653 151.919 74.576C152.759 74.968 153.73 75.164 154.831 75.164ZM161.915 75.164C163.017 75.164 163.978 74.968 164.799 74.576C165.639 74.1653 166.283 73.596 166.731 72.868C167.198 72.14 167.431 71.3093 167.431 70.376C167.431 68.9387 166.927 67.8 165.919 66.96C164.93 66.12 163.595 65.7 161.915 65.7H160.599V75.164H161.915ZM184.515 79.42C182.574 79.42 180.819 78.9813 179.251 78.104C177.683 77.208 176.451 75.9853 175.555 74.436C174.678 72.868 174.239 71.1227 174.239 69.2C174.239 67.2773 174.678 65.5413 175.555 63.992C176.451 62.424 177.683 61.2013 179.251 60.324C180.819 59.428 182.574 58.98 184.515 58.98C186.457 58.98 188.211 59.428 189.779 60.324C191.347 61.2013 192.57 62.424 193.447 63.992C194.343 65.5413 194.791 67.2773 194.791 69.2C194.791 71.1227 194.343 72.868 193.447 74.436C192.57 75.9853 191.347 77.208 189.779 78.104C188.211 78.9813 186.457 79.42 184.515 79.42ZM184.515 75.024C185.598 75.024 186.569 74.772 187.427 74.268C188.305 73.764 188.986 73.0733 189.471 72.196C189.975 71.3 190.227 70.3013 190.227 69.2C190.227 68.0987 189.975 67.1093 189.471 66.232C188.986 65.336 188.305 64.636 187.427 64.132C186.569 63.6093 185.598 63.348 184.515 63.348C183.433 63.348 182.462 63.6093 181.603 64.132C180.745 64.636 180.063 65.336 179.559 66.232C179.074 67.1093 178.831 68.0987 178.831 69.2C178.831 70.3013 179.074 71.3 179.559 72.196C180.063 73.0733 180.745 73.764 181.603 74.268C182.462 74.772 183.433 75.024 184.515 75.024ZM198.525 79V59.4H206.141C208.605 59.4 210.547 59.904 211.965 60.912C213.384 61.9013 214.093 63.264 214.093 65C214.093 66.736 213.431 68.108 212.105 69.116C210.799 70.1053 209.007 70.6 206.729 70.6H203.005V79H198.525ZM205.637 70.04C206.851 70.04 207.812 69.732 208.521 69.116C209.249 68.5 209.613 67.688 209.613 66.68C209.613 65.6533 209.249 64.832 208.521 64.216C207.812 63.6 206.851 63.292 205.637 63.292H203.005V70.04H205.637ZM222.925 79V63.712H215.869V59.4H234.433V63.712H227.405V79H222.925ZM237.928 79V59.4H242.408V68.92H250.92V59.4H255.4V79H250.92V69.48H242.408V79H237.928ZM269.418 79.42C267.476 79.42 265.722 78.9813 264.154 78.104C262.586 77.208 261.354 75.9853 260.458 74.436C259.58 72.868 259.142 71.1227 259.142 69.2C259.142 67.2773 259.58 65.5413 260.458 63.992C261.354 62.424 262.586 61.2013 264.154 60.324C265.722 59.428 267.476 58.98 269.418 58.98C271.359 58.98 273.114 59.428 274.682 60.324C276.25 61.2013 277.472 62.424 278.35 63.992C279.246 65.5413 279.694 67.2773 279.694 69.2C279.694 71.1227 279.246 72.868 278.35 74.436C277.472 75.9853 276.25 77.208 274.682 78.104C273.114 78.9813 271.359 79.42 269.418 79.42ZM269.418 75.024C270.5 75.024 271.471 74.772 272.33 74.268C273.207 73.764 273.888 73.0733 274.374 72.196C274.878 71.3 275.13 70.3013 275.13 69.2C275.13 68.0987 274.878 67.1093 274.374 66.232C273.888 65.336 273.207 64.636 272.33 64.132C271.471 63.6093 270.5 63.348 269.418 63.348C268.335 63.348 267.364 63.6093 266.506 64.132C265.647 64.636 264.966 65.336 264.462 66.232C263.976 67.1093 263.734 68.0987 263.734 69.2C263.734 70.3013 263.976 71.3 264.462 72.196C264.966 73.0733 265.647 73.764 266.506 74.268C267.364 74.772 268.335 75.024 269.418 75.024ZM283.428 79V59.4H297.54V63.712H287.908V79H283.428ZM308.738 79.42C306.797 79.42 305.042 78.9813 303.474 78.104C301.906 77.208 300.674 75.9853 299.778 74.436C298.901 72.868 298.462 71.1227 298.462 69.2C298.462 67.2773 298.901 65.5413 299.778 63.992C300.674 62.424 301.906 61.2013 303.474 60.324C305.042 59.428 306.797 58.98 308.738 58.98C310.679 58.98 312.434 59.428 314.002 60.324C315.57 61.2013 316.793 62.424 317.67 63.992C318.566 65.5413 319.014 67.2773 319.014 69.2C319.014 71.1227 318.566 72.868 317.67 74.436C316.793 75.9853 315.57 77.208 314.002 78.104C312.434 78.9813 310.679 79.42 308.738 79.42ZM308.738 75.024C309.821 75.024 310.791 74.772 311.65 74.268C312.527 73.764 313.209 73.0733 313.694 72.196C314.198 71.3 314.45 70.3013 314.45 69.2C314.45 68.0987 314.198 67.1093 313.694 66.232C313.209 65.336 312.527 64.636 311.65 64.132C310.791 63.6093 309.821 63.348 308.738 63.348C307.655 63.348 306.685 63.6093 305.826 64.132C304.967 64.636 304.286 65.336 303.782 66.232C303.297 67.1093 303.054 68.0987 303.054 69.2C303.054 70.3013 303.297 71.3 303.782 72.196C304.286 73.0733 304.967 73.764 305.826 74.268C306.685 74.772 307.655 75.024 308.738 75.024ZM46.508 113.42C44.5667 113.42 42.8213 112.981 41.272 112.104C39.7413 111.227 38.5373 110.013 37.66 108.464C36.8013 106.915 36.372 105.16 36.372 103.2C36.372 101.24 36.8013 99.4853 37.66 97.936C38.5373 96.3867 39.7413 95.1733 41.272 94.296C42.8213 93.4187 44.5667 92.98 46.508 92.98C48.2067 92.98 49.756 93.344 51.156 94.072C52.5747 94.7813 53.7133 95.78 54.572 97.068C55.4493 98.356 55.9533 99.8027 56.084 101.408H51.548C51.38 100.587 51.0533 99.8773 50.568 99.28C50.1013 98.664 49.5133 98.188 48.804 97.852C48.1133 97.516 47.3293 97.348 46.452 97.348C45.388 97.348 44.436 97.6 43.596 98.104C42.7747 98.608 42.1307 99.308 41.664 100.204C41.1973 101.081 40.964 102.08 40.964 103.2C40.964 104.32 41.1973 105.328 41.664 106.224C42.1307 107.101 42.7747 107.792 43.596 108.296C44.436 108.781 45.388 109.024 46.452 109.024C47.3293 109.024 48.1133 108.865 48.804 108.548C49.5133 108.212 50.1013 107.745 50.568 107.148C51.0533 106.532 51.38 105.813 51.548 104.992H56.084C55.9533 106.597 55.4493 108.044 54.572 109.332C53.7133 110.62 52.5747 111.628 51.156 112.356C49.756 113.065 48.2067 113.42 46.508 113.42ZM65.1643 113.42C63.9323 113.42 62.8216 113.168 61.8323 112.664C60.8616 112.141 60.0963 111.413 59.5363 110.48C58.995 109.547 58.7243 108.483 58.7243 107.288V106.28H63.1203V107.372C63.1203 108.044 63.2976 108.595 63.6523 109.024C64.0256 109.435 64.511 109.64 65.1083 109.64C65.5936 109.64 65.967 109.519 66.2283 109.276C66.5083 109.015 66.6483 108.679 66.6483 108.268C66.6483 107.745 66.4803 107.223 66.1443 106.7L57.3803 93.4H62.7283L68.6083 103.2C68.7016 103.349 68.7856 103.517 68.8603 103.704C68.935 103.872 69.0003 104.059 69.0563 104.264L72.3043 93.4H76.8683L71.9963 107.652C71.343 109.593 70.4563 111.04 69.3363 111.992C68.235 112.944 66.8443 113.42 65.1643 113.42ZM91.0847 113V104.6H87.8647C84.8967 104.6 82.6567 104.049 81.1447 102.948C79.6513 101.847 78.9047 100.204 78.9047 98.02V93.4H83.3847V99.448C83.3847 100.96 83.758 102.108 84.5047 102.892C85.27 103.657 86.39 104.04 87.8647 104.04H91.0847V93.4H95.5647V113H91.0847ZM98.8328 113L106.253 93.4H112.021L119.441 113H114.709L112.609 107.344H105.581L103.453 113H98.8328ZM105.777 106.812H112.413L109.109 98.132L105.777 106.812ZM130.672 113.42C128.731 113.42 126.985 112.981 125.436 112.104C123.905 111.227 122.701 110.013 121.824 108.464C120.965 106.915 120.536 105.16 120.536 103.2C120.536 101.24 120.965 99.4853 121.824 97.936C122.701 96.3867 123.905 95.1733 125.436 94.296C126.985 93.4187 128.731 92.98 130.672 92.98C132.371 92.98 133.92 93.344 135.32 94.072C136.739 94.7813 137.877 95.78 138.736 97.068C139.613 98.356 140.117 99.8027 140.248 101.408H135.712C135.544 100.587 135.217 99.8773 134.732 99.28C134.265 98.664 133.677 98.188 132.968 97.852C132.277 97.516 131.493 97.348 130.616 97.348C129.552 97.348 128.6 97.6 127.76 98.104C126.939 98.608 126.295 99.308 125.828 100.204C125.361 101.081 125.128 102.08 125.128 103.2C125.128 104.32 125.361 105.328 125.828 106.224C126.295 107.101 126.939 107.792 127.76 108.296C128.6 108.781 129.552 109.024 130.616 109.024C131.493 109.024 132.277 108.865 132.968 108.548C133.677 108.212 134.265 107.745 134.732 107.148C135.217 106.532 135.544 105.813 135.712 104.992H140.248C140.117 106.597 139.613 108.044 138.736 109.332C137.877 110.62 136.739 111.628 135.32 112.356C133.92 113.065 132.371 113.42 130.672 113.42ZM144.111 113V93.4H148.591V102.92H157.103V93.4H161.583V113H157.103V103.48H148.591V113H144.111ZM175.601 113.42C173.66 113.42 171.905 112.981 170.337 112.104C168.769 111.208 167.537 109.985 166.641 108.436C165.764 106.868 165.325 105.123 165.325 103.2C165.325 101.277 165.764 99.5413 166.641 97.992C167.537 96.424 168.769 95.2013 170.337 94.324C171.905 93.428 173.66 92.98 175.601 92.98C177.542 92.98 179.297 93.428 180.865 94.324C182.433 95.2013 183.656 96.424 184.533 97.992C185.429 99.5413 185.877 101.277 185.877 103.2C185.877 105.123 185.429 106.868 184.533 108.436C183.656 109.985 182.433 111.208 180.865 112.104C179.297 112.981 177.542 113.42 175.601 113.42ZM175.601 109.024C176.684 109.024 177.654 108.772 178.513 108.268C179.39 107.764 180.072 107.073 180.557 106.196C181.061 105.3 181.313 104.301 181.313 103.2C181.313 102.099 181.061 101.109 180.557 100.232C180.072 99.336 179.39 98.636 178.513 98.132C177.654 97.6093 176.684 97.348 175.601 97.348C174.518 97.348 173.548 97.6093 172.689 98.132C171.83 98.636 171.149 99.336 170.645 100.232C170.16 101.109 169.917 102.099 169.917 103.2C169.917 104.301 170.16 105.3 170.645 106.196C171.149 107.073 171.83 107.764 172.689 108.268C173.548 108.772 174.518 109.024 175.601 109.024ZM189.611 113V93.4H203.723V97.712H194.091V113H189.611ZM214.921 113.42C212.98 113.42 211.225 112.981 209.657 112.104C208.089 111.208 206.857 109.985 205.961 108.436C205.084 106.868 204.645 105.123 204.645 103.2C204.645 101.277 205.084 99.5413 205.961 97.992C206.857 96.424 208.089 95.2013 209.657 94.324C211.225 93.428 212.98 92.98 214.921 92.98C216.863 92.98 218.617 93.428 220.185 94.324C221.753 95.2013 222.976 96.424 223.853 97.992C224.749 99.5413 225.197 101.277 225.197 103.2C225.197 105.123 224.749 106.868 223.853 108.436C222.976 109.985 221.753 111.208 220.185 112.104C218.617 112.981 216.863 113.42 214.921 113.42ZM214.921 109.024C216.004 109.024 216.975 108.772 217.833 108.268C218.711 107.764 219.392 107.073 219.877 106.196C220.381 105.3 220.633 104.301 220.633 103.2C220.633 102.099 220.381 101.109 219.877 100.232C219.392 99.336 218.711 98.636 217.833 98.132C216.975 97.6093 216.004 97.348 214.921 97.348C213.839 97.348 212.868 97.6093 212.009 98.132C211.151 98.636 210.469 99.336 209.965 100.232C209.48 101.109 209.237 102.099 209.237 103.2C209.237 104.301 209.48 105.3 209.965 106.196C210.469 107.073 211.151 107.764 212.009 108.268C212.868 108.772 213.839 109.024 214.921 109.024ZM7.532 147L13.972 136.836L7.924 127.4H12.74L18.788 136.92H20.608V127.4H25.088V136.92H26.852L32.928 127.4H37.744L31.668 136.836L38.164 147H32.9L26.824 137.48H25.088V147H20.608V137.48H18.844L12.768 147H7.532ZM41.4081 147V127.4H45.8881V145.6L54.9321 127.4H59.4401V147H54.9601V128.744L45.8881 147H41.4081ZM69.9917 147V131.712H62.9357V127.4H81.4997V131.712H74.4717V147H69.9917ZM90.062 147V131.712H83.006V127.4H101.57V131.712H94.542V147H90.062ZM108.185 138.124C106.841 137.751 105.796 137.116 105.049 136.22C104.303 135.324 103.929 134.241 103.929 132.972C103.929 131.236 104.639 129.873 106.057 128.884C107.476 127.895 109.427 127.4 111.909 127.4H119.553V147H115.073V138.572H113.253C113.216 138.572 113.179 138.572 113.141 138.572C113.104 138.572 113.067 138.563 113.029 138.544C113.011 138.544 112.983 138.544 112.945 138.544C112.908 138.544 112.871 138.544 112.833 138.544L106.953 147H101.997L108.185 138.124ZM112.385 138.012H115.073V131.292H112.385C111.191 131.292 110.229 131.6 109.501 132.216C108.773 132.832 108.409 133.644 108.409 134.652C108.409 135.66 108.773 136.472 109.501 137.088C110.229 137.704 111.191 138.012 112.385 138.012Z" fill="black"/>
<path d="M59.9198 45V25.4H69.4958C71.4931 25.4 73.0611 25.848 74.1998 26.744C75.3571 27.64 75.9358 28.872 75.9358 30.44C75.9358 31.5787 75.6184 32.54 74.9838 33.324C74.3678 34.108 73.4904 34.6773 72.3518 35.032V35.172C73.6584 35.4893 74.6851 36.068 75.4318 36.908C76.1784 37.748 76.5518 38.7653 76.5518 39.96C76.5518 40.968 76.2904 41.8547 75.7678 42.62C75.2638 43.3853 74.5358 43.9733 73.5838 44.384C72.6504 44.7947 71.5584 45 70.3078 45H59.9198ZM68.7118 40.8C69.6638 40.8 70.4291 40.5573 71.0078 40.072C71.5864 39.568 71.8758 38.924 71.8758 38.14C71.8758 37.3373 71.5771 36.6933 70.9798 36.208C70.4011 35.7227 69.6451 35.48 68.7118 35.48H64.3998V40.8H68.7118ZM68.3198 34.92C69.2718 34.92 70.0371 34.6773 70.6158 34.192C71.1944 33.688 71.4838 33.044 71.4838 32.26C71.4838 31.4573 71.1944 30.8133 70.6158 30.328C70.0371 29.8427 69.2718 29.6 68.3198 29.6H64.3998V34.92H68.3198ZM89.1096 45.42C87.1682 45.42 85.4229 44.9813 83.8736 44.104C82.3429 43.2267 81.1389 42.0133 80.2616 40.464C79.4029 38.9147 78.9736 37.16 78.9736 35.2C78.9736 33.24 79.4029 31.4853 80.2616 29.936C81.1389 28.3867 82.3429 27.1733 83.8736 26.296C85.4229 25.4187 87.1682 24.98 89.1096 24.98C90.8082 24.98 92.3576 25.344 93.7576 26.072C95.1762 26.7813 96.3149 27.78 97.1736 29.068C98.0509 30.356 98.5549 31.8027 98.6856 33.408H94.1496C93.9816 32.5867 93.6549 31.8773 93.1696 31.28C92.7029 30.664 92.1149 30.188 91.4056 29.852C90.7149 29.516 89.9309 29.348 89.0536 29.348C87.9896 29.348 87.0376 29.6 86.1976 30.104C85.3762 30.608 84.7322 31.308 84.2656 32.204C83.7989 33.0813 83.5656 34.08 83.5656 35.2C83.5656 36.32 83.7989 37.328 84.2656 38.224C84.7322 39.1013 85.3762 39.792 86.1976 40.296C87.0376 40.7813 87.9896 41.024 89.0536 41.024C89.9309 41.024 90.7149 40.8653 91.4056 40.548C92.1149 40.212 92.7029 39.7453 93.1696 39.148C93.6549 38.532 93.9816 37.8133 94.1496 36.992H98.6856C98.5549 38.5973 98.0509 40.044 97.1736 41.332C96.3149 42.62 95.1762 43.628 93.7576 44.356C92.3576 45.0653 90.8082 45.42 89.1096 45.42ZM102.549 45V25.4H116.073V29.292H106.945V34.92H113.161V35.48H106.945V41.108H116.885V45H102.549ZM128.033 45V25.4H132.513V34.92H141.025V25.4H145.505V45H141.025V35.48H132.513V45H128.033ZM151.002 45V25.4H164.526V29.292H155.398V34.92H161.614V35.48H155.398V41.108H165.338V45H151.002ZM177.461 45.42C175.519 45.42 173.765 44.9813 172.197 44.104C170.629 43.208 169.397 41.9853 168.501 40.436C167.623 38.868 167.185 37.1227 167.185 35.2C167.185 33.2773 167.623 31.5413 168.501 29.992C169.397 28.424 170.629 27.2013 172.197 26.324C173.765 25.428 175.519 24.98 177.461 24.98C179.402 24.98 181.157 25.428 182.725 26.324C184.293 27.2013 185.515 28.424 186.393 29.992C187.289 31.5413 187.737 33.2773 187.737 35.2C187.737 37.1227 187.289 38.868 186.393 40.436C185.515 41.9853 184.293 43.208 182.725 44.104C181.157 44.9813 179.402 45.42 177.461 45.42ZM177.461 41.024C178.543 41.024 179.514 40.772 180.373 40.268C181.25 39.764 181.931 39.0733 182.417 38.196C182.921 37.3 183.173 36.3013 183.173 35.2C183.173 34.0987 182.921 33.1093 182.417 32.232C181.931 31.336 181.25 30.636 180.373 30.132C179.514 29.6093 178.543 29.348 177.461 29.348C176.378 29.348 175.407 29.6093 174.549 30.132C173.69 30.636 173.009 31.336 172.505 32.232C172.019 33.1093 171.777 34.0987 171.777 35.2C171.777 36.3013 172.019 37.3 172.505 38.196C173.009 39.0733 173.69 39.764 174.549 40.268C175.407 40.772 176.378 41.024 177.461 41.024ZM191.853 45V25.4H206.609V29.292H196.137V33.912H200.589C202.848 33.912 204.631 34.4067 205.937 35.396C207.244 36.3853 207.897 37.7387 207.897 39.456C207.897 41.1733 207.244 42.5267 205.937 43.516C204.631 44.5053 202.848 45 200.589 45H191.853ZM199.525 41.108C200.701 41.108 201.644 40.8093 202.353 40.212C203.063 39.596 203.417 38.784 203.417 37.776C203.417 36.768 203.063 35.9653 202.353 35.368C201.644 34.7707 200.701 34.472 199.525 34.472H196.137V41.108H199.525ZM209.272 45L216.16 34.92L209.552 25.4H214.76L219.436 32.148L224.084 25.4H229.18L222.544 34.892L229.488 45H224.224L219.324 37.916L214.396 45H209.272ZM232.623 45V25.4H237.103V45H232.623ZM240.475 49.088V40.912H242.687C243.023 39.3253 243.266 37.692 243.415 36.012C243.565 34.3133 243.639 32.2507 243.639 29.824C243.639 29.6747 243.639 29.5253 243.639 29.376C243.639 29.208 243.639 29.0307 243.639 28.844V25.4H259.347V40.912H262.035V49.088H257.751V45H244.759V49.088H240.475ZM246.971 40.996H254.951V29.404H247.979V30.804C247.961 32.9133 247.867 34.7613 247.699 36.348C247.55 37.916 247.307 39.4653 246.971 40.996ZM265.764 45V25.4H270.244V34.92H278.756V25.4H283.236V45H278.756V35.48H270.244V45H265.764ZM288.732 45V25.4H302.256V29.292H293.128V34.92H299.344V35.48H293.128V41.108H303.068V45H288.732Z" fill="#FF9F42"/>
<line x1="122" y1="162.5" x2="320" y2="162.5" stroke="#FF9F42"/>
<line x1="319.5" y1="162" x2="319.5" y2="91" stroke="#FF9F42"/>
<line x1="319.5" y1="45" x2="319.5" y2="25" stroke="#FF9F42"/>
<line x1="320" y1="5.5" x2="255" y2="5.5" stroke="#FF9F42"/>
</svg>
