<svg width="40" height="40" viewBox="0 0 40 40" fill="none" xmlns="http://www.w3.org/2000/svg">
<g id="basil:telegram-outline">
<path id="Vector" fill-rule="evenodd" clip-rule="evenodd" d="M9.64654 23.3666C9.71815 23.3904 9.79179 23.4077 9.86654 23.4182C10.3381 24.5293 10.807 25.6416 11.2732 26.7549C12.1115 28.7582 12.9565 30.8216 13.1415 31.4149C13.3732 32.1449 13.6165 32.6416 13.8832 32.9816C14.0215 33.1549 14.1799 33.3082 14.3665 33.4249C14.4638 33.4857 14.5678 33.535 14.6765 33.5716C15.2099 33.7716 15.6965 33.6882 16.0015 33.5866C16.1805 33.5255 16.3508 33.4414 16.5082 33.3366L16.5165 33.3332L21.2265 30.3966L26.6682 34.5666C26.7482 34.6282 26.8349 34.6799 26.9282 34.7216C27.5815 35.0049 28.2149 35.1049 28.8115 35.0249C29.4049 34.9416 29.8765 34.6932 30.2282 34.4116C30.632 34.0861 30.9539 33.6705 31.1682 33.1982L31.1832 33.1616L31.1882 33.1482L31.1915 33.1416V33.1382L31.1932 33.1366C31.2222 33.0649 31.2445 32.9907 31.2599 32.9149L36.2265 7.87323C36.2422 7.79307 36.25 7.71157 36.2499 7.6299C36.2499 6.89656 35.9732 6.19823 35.3249 5.77656C34.7682 5.4149 34.1499 5.39823 33.7582 5.42823C33.3382 5.46156 32.9482 5.5649 32.6865 5.64823C32.5401 5.69465 32.3955 5.74692 32.2532 5.8049L32.2349 5.81323L4.37821 16.7399L4.37487 16.7416C4.28062 16.7762 4.18777 16.8146 4.09654 16.8566C3.87564 16.9559 3.66374 17.0741 3.46321 17.2099C3.08487 17.4682 2.21321 18.1782 2.36154 19.3516C2.47821 20.2849 3.11821 20.8599 3.50987 21.1366C3.72321 21.2882 3.92654 21.3966 4.07654 21.4682C4.14321 21.5016 4.28654 21.5582 4.34821 21.5849L4.36487 21.5899L9.64654 23.3666ZM33.2099 8.11323H33.2065C33.1922 8.1196 33.1778 8.12571 33.1632 8.13156L5.27321 19.0732C5.25886 19.079 5.24441 19.0846 5.22987 19.0899L5.21321 19.0949C5.16226 19.1149 5.11221 19.1372 5.06321 19.1616C5.1096 19.1881 5.15745 19.2121 5.20654 19.2332L10.4432 20.9966C10.5368 21.0281 10.6263 21.0706 10.7099 21.1232L28.0049 10.9982L28.0215 10.9899C28.0887 10.9491 28.1577 10.9113 28.2282 10.8766C28.3482 10.8149 28.5399 10.7249 28.7565 10.6582C28.9065 10.6116 29.3515 10.4799 29.8315 10.6349C30.0861 10.7151 30.313 10.8654 30.4863 11.0684C30.6596 11.2715 30.7723 11.5192 30.8115 11.7832C30.8736 12.0145 30.8753 12.2578 30.8165 12.4899C30.6999 12.9482 30.3799 13.3049 30.0882 13.5782C29.8382 13.8116 26.5949 16.9382 23.3965 20.0249L19.0415 24.2249L18.2665 24.9749L28.0532 32.4782C28.1853 32.5337 28.3288 32.5565 28.4715 32.5449C28.5435 32.5351 28.6111 32.5051 28.6665 32.4582C28.7341 32.4012 28.7921 32.3337 28.8382 32.2582L28.8415 32.2566L33.6582 7.96823C33.5065 8.00473 33.3577 8.05264 33.2132 8.11156L33.2099 8.11323ZM19.1082 28.7699L17.1549 27.2732L16.6815 30.2816L19.1082 28.7699ZM15.3632 24.3032L17.3049 22.4282L21.6599 18.2249L23.2815 16.6616L12.4149 23.0232L12.4732 23.1599C13.1585 24.7789 13.8363 26.4012 14.5065 28.0266L14.9782 25.0266C15.0209 24.7483 15.1566 24.4944 15.3632 24.3032Z" fill="white"/>
</g>
</svg>
