<svg width="40" height="40" viewBox="0 0 40 40" fill="none" xmlns="http://www.w3.org/2000/svg">
<g id="basil:youtube-outline">
<g id="Group">
<path id="Vector" fill-rule="evenodd" clip-rule="evenodd" d="M17.3103 13.9283C17.1207 13.8144 16.9042 13.7529 16.683 13.7501C16.4618 13.7473 16.2438 13.8032 16.0513 13.9122C15.8587 14.0211 15.6986 14.1792 15.5872 14.3704C15.4757 14.5615 15.417 14.7787 15.417 14.9999V24.9999C15.417 25.2211 15.4757 25.4384 15.5872 25.6295C15.6986 25.8206 15.8587 25.9787 16.0513 26.0877C16.2438 26.1967 16.4618 26.2526 16.683 26.2498C16.9042 26.2469 17.1207 26.1854 17.3103 26.0716L25.6437 21.0716C25.8287 20.9605 25.9818 20.8034 26.0881 20.6156C26.1943 20.4278 26.2502 20.2157 26.2502 19.9999C26.2502 19.7841 26.1943 19.572 26.0881 19.3842C25.9818 19.1964 25.8287 19.0393 25.6437 18.9283L17.3103 13.9283ZM22.5703 19.9999L17.917 22.7916V17.2083L22.5703 19.9999Z" fill="white"/>
<path id="Vector_2" fill-rule="evenodd" clip-rule="evenodd" d="M28.3833 7.7351C22.8029 7.29859 17.197 7.29859 11.6166 7.7351L7.88165 8.02844C6.77804 8.11446 5.73495 8.56732 4.91854 9.31487C4.10213 10.0624 3.55934 11.0617 3.37665 12.1534C2.50857 17.3485 2.50857 22.6517 3.37665 27.8468C3.55934 28.9386 4.10213 29.9378 4.91854 30.6853C5.73495 31.4329 6.77804 31.8857 7.88165 31.9718L11.615 32.2651C17.1966 32.7018 22.8033 32.7018 28.385 32.2651L32.1183 31.9718C33.2219 31.8857 34.265 31.4329 35.0814 30.6853C35.8978 29.9378 36.4406 28.9386 36.6233 27.8468C37.49 22.6518 37.49 17.3484 36.6233 12.1534C36.4406 11.0617 35.8978 10.0624 35.0814 9.31487C34.265 8.56732 33.2219 8.11446 32.1183 8.02844L28.3833 7.7351ZM11.8116 10.2284C17.2633 9.80189 22.74 9.80189 28.1916 10.2284L31.925 10.5201C33.0516 10.6084 33.9733 11.4534 34.1583 12.5668C34.9805 17.4882 34.9805 22.512 34.1583 27.4334C34.068 27.975 33.7991 28.4707 33.3944 28.8416C32.9896 29.2126 32.4723 29.4373 31.925 29.4801L28.1916 29.7718C22.74 30.1984 17.2633 30.1984 11.8116 29.7718L8.07831 29.4801C7.53097 29.4373 7.0137 29.2126 6.60895 28.8416C6.20419 28.4707 5.93525 27.975 5.84498 27.4334C5.02277 22.512 5.02277 17.4882 5.84498 12.5668C5.93525 12.0252 6.20419 11.5295 6.60895 11.1586C7.0137 10.7876 7.53097 10.5629 8.07831 10.5201L11.8116 10.2284Z" fill="white"/>
</g>
</g>
</svg>
