<svg width="1268" height="428" viewBox="0 0 1268 428" fill="none" xmlns="http://www.w3.org/2000/svg">
<path d="M110.528 15.1989V13.5511H111.438C111.788 13.5511 112.081 13.4825 112.318 13.3452C112.56 13.2079 112.759 13.0303 112.915 12.8125C113.076 12.5947 113.208 12.3674 113.312 12.1307L113.54 11.5909L108.511 0.454545H110.415L114.42 9.48864L118.085 0.454545H119.96L114.932 12.642C114.733 13.0966 114.506 13.518 114.25 13.9062C113.999 14.2945 113.656 14.607 113.22 14.8438C112.789 15.0805 112.205 15.1989 111.466 15.1989H110.528ZM127.18 12.7273L130.987 4.09091H132.577L127.862 15H126.498L121.867 4.09091H123.43L127.18 12.7273ZM122.89 4.09091V15H121.214V4.09091H122.89ZM131.469 15V4.09091H133.146V15H131.469ZM140.646 15.2273C139.661 15.2273 138.797 14.9929 138.053 14.5241C137.315 14.0554 136.737 13.3996 136.32 12.5568C135.908 11.714 135.702 10.7292 135.702 9.60227C135.702 8.46591 135.908 7.47396 136.32 6.62642C136.737 5.77888 137.315 5.12074 138.053 4.65199C138.797 4.18324 139.661 3.94886 140.646 3.94886C141.63 3.94886 142.492 4.18324 143.231 4.65199C143.974 5.12074 144.552 5.77888 144.964 6.62642C145.38 7.47396 145.589 8.46591 145.589 9.60227C145.589 10.7292 145.38 11.714 144.964 12.5568C144.552 13.3996 143.974 14.0554 143.231 14.5241C142.492 14.9929 141.63 15.2273 140.646 15.2273ZM140.646 13.7216C141.394 13.7216 142.009 13.5298 142.492 13.1463C142.975 12.7628 143.333 12.2585 143.565 11.6335C143.797 11.0085 143.913 10.3314 143.913 9.60227C143.913 8.87311 143.797 8.19366 143.565 7.56392C143.333 6.93419 142.975 6.42519 142.492 6.03693C142.009 5.64867 141.394 5.45455 140.646 5.45455C139.897 5.45455 139.282 5.64867 138.799 6.03693C138.316 6.42519 137.959 6.93419 137.727 7.56392C137.495 8.19366 137.379 8.87311 137.379 9.60227C137.379 10.3314 137.495 11.0085 137.727 11.6335C137.959 12.2585 138.316 12.7628 138.799 13.1463C139.282 13.5298 139.897 13.7216 140.646 13.7216ZM148.147 15V4.09091H152.608C153.782 4.09091 154.715 4.35606 155.406 4.88636C156.097 5.41667 156.443 6.11742 156.443 6.98864C156.443 7.65152 156.246 8.16525 155.853 8.52983C155.46 8.88968 154.956 9.13352 154.341 9.26136C154.743 9.31818 155.134 9.46023 155.512 9.6875C155.896 9.91477 156.213 10.2273 156.464 10.625C156.715 11.018 156.841 11.5009 156.841 12.0739C156.841 12.6326 156.699 13.1321 156.414 13.5724C156.13 14.0128 155.723 14.3608 155.193 14.6165C154.663 14.8722 154.028 15 153.289 15H148.147ZM149.738 13.4659H153.289C153.867 13.4659 154.319 13.3286 154.646 13.054C154.973 12.7794 155.136 12.4053 155.136 11.9318C155.136 11.3684 154.973 10.9257 154.646 10.6037C154.319 10.277 153.867 10.1136 153.289 10.1136H149.738V13.4659ZM149.738 8.66477H152.608C153.057 8.66477 153.443 8.60322 153.765 8.48011C154.087 8.35227 154.333 8.17235 154.504 7.94034C154.679 7.7036 154.767 7.42424 154.767 7.10227C154.767 6.64299 154.575 6.28314 154.191 6.02273C153.808 5.75758 153.28 5.625 152.608 5.625H149.738V8.66477ZM161.054 12.5284L166.31 4.09091H168.241V15H166.565V6.5625L161.338 15H159.378V4.09091H161.054V12.5284ZM176.936 15V4.09091H185.516V15H183.84V5.65341H178.613V15H176.936ZM188.577 19.0909V4.09091H190.196V5.82386H190.395C190.518 5.63447 190.689 5.39299 190.907 5.09943C191.129 4.80114 191.446 4.53598 191.858 4.30398C192.275 4.06723 192.838 3.94886 193.549 3.94886C194.467 3.94886 195.277 4.1785 195.978 4.63778C196.678 5.09706 197.225 5.74811 197.618 6.59091C198.011 7.43371 198.208 8.42803 198.208 9.57386C198.208 10.7292 198.011 11.7306 197.618 12.5781C197.225 13.4209 196.681 14.0743 195.985 14.5384C195.289 14.9976 194.486 15.2273 193.577 15.2273C192.876 15.2273 192.315 15.1113 191.894 14.8793C191.472 14.6425 191.148 14.375 190.921 14.0767C190.694 13.7737 190.518 13.5227 190.395 13.3239H190.253V19.0909H188.577ZM190.225 9.54545C190.225 10.3693 190.346 11.0961 190.587 11.7259C190.828 12.3509 191.181 12.8409 191.645 13.196C192.109 13.5464 192.677 13.7216 193.35 13.7216C194.051 13.7216 194.635 13.5369 195.104 13.1676C195.578 12.7936 195.933 12.2917 196.169 11.6619C196.411 11.0275 196.532 10.322 196.532 9.54545C196.532 8.77841 196.413 8.08712 196.176 7.47159C195.944 6.85133 195.592 6.36127 195.118 6.00142C194.65 5.63684 194.06 5.45455 193.35 5.45455C192.668 5.45455 192.095 5.62737 191.631 5.97301C191.167 6.31392 190.817 6.79214 190.58 7.40767C190.343 8.01847 190.225 8.73106 190.225 9.54545ZM202.441 12.5284L207.696 4.09091H209.628V15H207.952V6.5625L202.725 15H200.765V4.09091H202.441V12.5284ZM211.533 18.125V13.4375H212.442C212.665 13.2055 212.857 12.9545 213.018 12.6847C213.179 12.4148 213.318 12.0952 213.437 11.7259C213.56 11.3518 213.664 10.8973 213.749 10.3622C213.835 9.82244 213.91 9.1714 213.977 8.40909L214.346 4.09091H221.278V13.4375H222.954V18.125H221.278V15H213.21V18.125H211.533ZM214.346 13.4375H219.602V5.65341H215.908L215.624 8.40909C215.506 9.55019 215.359 10.5469 215.184 11.3991C215.009 12.2514 214.729 12.9309 214.346 13.4375ZM233.275 0L234.127 1.02273C233.796 1.3447 233.413 1.5696 232.977 1.69744C232.541 1.82528 232.049 1.90341 231.5 1.93182C230.95 1.96023 230.34 1.98864 229.667 2.01705C228.91 2.04545 228.282 2.23011 227.785 2.57102C227.288 2.91193 226.904 3.40436 226.635 4.0483C226.365 4.69223 226.192 5.48295 226.116 6.42045H226.258C226.627 5.73864 227.139 5.23674 227.792 4.91477C228.446 4.5928 229.146 4.43182 229.895 4.43182C230.747 4.43182 231.514 4.63068 232.196 5.02841C232.877 5.42614 233.417 6.01562 233.815 6.79688C234.213 7.57812 234.412 8.54167 234.412 9.6875C234.412 10.8286 234.208 11.8134 233.801 12.642C233.398 13.4706 232.833 14.1098 232.103 14.5597C231.379 15.0047 230.529 15.2273 229.554 15.2273C228.578 15.2273 227.724 14.9976 226.99 14.5384C226.256 14.0743 225.685 13.3878 225.278 12.4787C224.871 11.5649 224.667 10.4356 224.667 9.09091V7.92614C224.667 5.49716 225.079 3.6553 225.903 2.40057C226.732 1.14583 227.977 0.497158 229.639 0.454545C230.226 0.435606 230.749 0.430871 231.208 0.44034C231.668 0.44981 232.068 0.428503 232.409 0.37642C232.75 0.324337 233.038 0.198863 233.275 0ZM229.554 13.7216C230.212 13.7216 230.778 13.5559 231.251 13.2244C231.729 12.893 232.096 12.4266 232.352 11.8253C232.608 11.2192 232.735 10.5066 232.735 9.6875C232.735 8.89205 232.605 8.21496 232.345 7.65625C232.089 7.09754 231.722 6.6714 231.244 6.37784C230.766 6.08428 230.193 5.9375 229.525 5.9375C229.038 5.9375 228.6 6.02036 228.211 6.18608C227.823 6.3518 227.492 6.59564 227.217 6.91761C226.942 7.23958 226.729 7.63258 226.578 8.09659C226.431 8.56061 226.353 9.09091 226.343 9.6875C226.343 10.9091 226.63 11.8868 227.203 12.6207C227.776 13.3546 228.559 13.7216 229.554 13.7216ZM240.186 15.2557C239.494 15.2557 238.867 15.1255 238.304 14.8651C237.74 14.5999 237.293 14.2188 236.961 13.7216C236.63 13.2197 236.464 12.6136 236.464 11.9034C236.464 11.2784 236.587 10.7718 236.833 10.3835C237.08 9.99053 237.409 9.68276 237.821 9.46023C238.233 9.23769 238.687 9.07197 239.184 8.96307C239.686 8.84943 240.19 8.75947 240.697 8.69318C241.36 8.60795 241.897 8.54403 242.309 8.50142C242.726 8.45407 243.029 8.37595 243.218 8.26705C243.413 8.15814 243.51 7.96875 243.51 7.69886V7.64205C243.51 6.94129 243.318 6.39678 242.934 6.00852C242.556 5.62027 241.98 5.42614 241.208 5.42614C240.408 5.42614 239.781 5.60133 239.326 5.9517C238.872 6.30208 238.552 6.67614 238.368 7.07386L236.777 6.50568C237.061 5.8428 237.44 5.3267 237.913 4.95739C238.391 4.58333 238.912 4.32292 239.475 4.17614C240.044 4.02462 240.602 3.94886 241.152 3.94886C241.502 3.94886 241.904 3.99148 242.359 4.0767C242.818 4.1572 243.261 4.32528 243.687 4.58097C244.118 4.83665 244.475 5.22254 244.76 5.73864C245.044 6.25473 245.186 6.94602 245.186 7.8125V15H243.51V13.5227H243.424C243.311 13.7595 243.121 14.0128 242.856 14.2827C242.591 14.5526 242.238 14.7822 241.798 14.9716C241.358 15.161 240.82 15.2557 240.186 15.2557ZM240.441 13.75C241.104 13.75 241.663 13.6198 242.118 13.3594C242.577 13.099 242.922 12.7628 243.154 12.3509C243.391 11.9389 243.51 11.5057 243.51 11.0511V9.51705C243.439 9.60227 243.282 9.6804 243.041 9.75142C242.804 9.81771 242.529 9.87689 242.217 9.92898C241.909 9.97633 241.609 10.0189 241.315 10.0568C241.026 10.09 240.792 10.1184 240.612 10.142C240.176 10.1989 239.769 10.2912 239.39 10.419C239.016 10.5421 238.713 10.7292 238.481 10.9801C238.254 11.2263 238.14 11.5625 238.14 11.9886C238.14 12.571 238.356 13.0114 238.787 13.3097C239.222 13.6032 239.774 13.75 240.441 13.75ZM255.546 8.77841V10.3409H249.523V8.77841H255.546ZM249.921 4.09091V15H248.245V4.09091H249.921ZM256.825 4.09091V15H255.148V4.09091H256.825ZM267.187 8.77841V10.3409H261.164V8.77841H267.187ZM261.562 4.09091V15H259.886V4.09091H261.562ZM268.465 4.09091V15H266.789V4.09091H268.465ZM278.089 15V5.625H275.191C274.538 5.625 274.024 5.77652 273.65 6.07955C273.276 6.38258 273.089 6.79924 273.089 7.32955C273.089 7.85038 273.257 8.25994 273.593 8.55824C273.934 8.85653 274.4 9.00568 274.992 9.00568H278.515V10.5682H274.992C274.254 10.5682 273.617 10.438 273.082 10.1776C272.547 9.91714 272.135 9.54545 271.846 9.0625C271.557 8.57481 271.413 7.99716 271.413 7.32955C271.413 6.6572 271.564 6.07955 271.867 5.59659C272.17 5.11364 272.603 4.74195 273.167 4.48153C273.735 4.22112 274.41 4.09091 275.191 4.09091H279.68V15H278.089ZM270.816 15L273.913 9.57386H275.731L272.634 15H270.816Z" fill="#FF9F42"/>
<line y1="6.5" x2="88" y2="6.5" stroke="#FF9F42"/>
<line x1="375" y1="9.5" x2="1201" y2="9.5" stroke="#FF9F42"/>
<path d="M258.57 211.35C253.17 211.35 248.22 210.39 243.72 208.47C239.28 206.49 235.65 203.55 232.83 199.65C230.01 195.69 228.42 190.92 228.06 185.34H242.1C242.64 189.42 244.35 192.63 247.23 194.97C250.11 197.25 253.8 198.39 258.3 198.39C262.44 198.39 265.71 197.52 268.11 195.78C270.51 193.98 271.71 191.58 271.71 188.58C271.71 186.78 271.26 185.19 270.36 183.81C269.46 182.43 268.14 181.35 266.4 180.57C264.72 179.79 262.8 179.4 260.64 179.4H253.35V177.6H260.64C262.5 177.6 264.15 177.21 265.59 176.43C267.09 175.59 268.26 174.48 269.1 173.1C269.94 171.72 270.36 170.19 270.36 168.51C270.36 166.53 269.79 164.79 268.65 163.29C267.57 161.79 266.04 160.65 264.06 159.87C262.14 159.09 259.92 158.7 257.4 158.7C253.32 158.7 249.96 159.72 247.32 161.76C244.74 163.74 243.18 166.5 242.64 170.04H228.69C229.41 164.64 231.18 160.11 234 156.45C236.88 152.79 240.45 150.09 244.71 148.35C248.97 146.55 253.65 145.65 258.75 145.65C263.37 145.65 267.63 146.37 271.53 147.81C275.49 149.25 278.61 151.35 280.89 154.11C283.23 156.87 284.4 160.11 284.4 163.83C284.4 167.43 283.29 170.52 281.07 173.1C278.91 175.62 275.94 177.39 272.16 178.41C276.18 179.25 279.42 180.93 281.88 183.45C284.34 185.97 285.57 189 285.57 192.54C285.57 196.32 284.4 199.65 282.06 202.53C279.78 205.35 276.6 207.54 272.52 209.1C268.44 210.6 263.79 211.35 258.57 211.35ZM289.903 210L313.753 147H332.293L356.143 210H340.933L334.183 191.82H311.593L304.753 210H289.903ZM312.223 190.11H333.553L322.933 162.21L312.223 190.11ZM389.123 210V147H403.523V210H389.123ZM421.203 210V147H477.363V210H462.963V160.86H435.603V210H421.203ZM522.42 211.35C516.18 211.35 510.54 209.94 505.5 207.12C500.46 204.24 496.5 200.31 493.62 195.33C490.8 190.29 489.39 184.68 489.39 178.5C489.39 172.32 490.8 166.74 493.62 161.76C496.5 156.72 500.46 152.79 505.5 149.97C510.54 147.09 516.18 145.65 522.42 145.65C528.66 145.65 534.3 147.09 539.34 149.97C544.38 152.79 548.31 156.72 551.13 161.76C554.01 166.74 555.45 172.32 555.45 178.5C555.45 184.68 554.01 190.29 551.13 195.33C548.31 200.31 544.38 204.24 539.34 207.12C534.3 209.94 528.66 211.35 522.42 211.35ZM522.42 197.22C525.9 197.22 529.02 196.41 531.78 194.79C534.6 193.17 536.79 190.95 538.35 188.13C539.97 185.25 540.78 182.04 540.78 178.5C540.78 174.96 539.97 171.78 538.35 168.96C536.79 166.08 534.6 163.83 531.78 162.21C529.02 160.53 525.9 159.69 522.42 159.69C518.94 159.69 515.82 160.53 513.06 162.21C510.3 163.83 508.11 166.08 506.49 168.96C504.93 171.78 504.15 174.96 504.15 178.5C504.15 182.04 504.93 185.25 506.49 188.13C508.11 190.95 510.3 193.17 513.06 194.79C515.82 196.41 518.94 197.22 522.42 197.22ZM582.424 210V160.86H559.744V147H619.414V160.86H596.824V210H582.424ZM630.646 210V147H674.116V159.51H644.776V177.6H664.756V179.4H644.776V197.49H676.726V210H630.646ZM724.667 210V183H714.317C704.777 183 697.577 181.23 692.717 177.69C687.917 174.15 685.517 168.87 685.517 161.85V147H699.917V166.44C699.917 171.3 701.117 174.99 703.517 177.51C705.977 179.97 709.577 181.2 714.317 181.2H724.667V147H739.067V210H724.667ZM756.681 210V147H771.081V177.6H798.441V147H812.841V210H798.441V179.4H771.081V210H756.681ZM857.899 211.35C851.659 211.35 846.019 209.94 840.979 207.12C835.939 204.24 831.979 200.31 829.099 195.33C826.279 190.29 824.869 184.68 824.869 178.5C824.869 172.32 826.279 166.74 829.099 161.76C831.979 156.72 835.939 152.79 840.979 149.97C846.019 147.09 851.659 145.65 857.899 145.65C864.139 145.65 869.779 147.09 874.819 149.97C879.859 152.79 883.789 156.72 886.609 161.76C889.489 166.74 890.929 172.32 890.929 178.5C890.929 184.68 889.489 190.29 886.609 195.33C883.789 200.31 879.859 204.24 874.819 207.12C869.779 209.94 864.139 211.35 857.899 211.35ZM857.899 197.22C861.379 197.22 864.499 196.41 867.259 194.79C870.079 193.17 872.269 190.95 873.829 188.13C875.449 185.25 876.259 182.04 876.259 178.5C876.259 174.96 875.449 171.78 873.829 168.96C872.269 166.08 870.079 163.83 867.259 162.21C864.499 160.53 861.379 159.69 857.899 159.69C854.419 159.69 851.299 160.53 848.539 162.21C845.779 163.83 843.589 166.08 841.969 168.96C840.409 171.78 839.629 174.96 839.629 178.5C839.629 182.04 840.409 185.25 841.969 188.13C843.589 190.95 845.779 193.17 848.539 194.79C851.299 196.41 854.419 197.22 857.899 197.22ZM960.261 211.35C954.261 211.35 948.831 209.97 943.971 207.21C939.111 204.45 935.241 200.64 932.361 195.78C929.481 190.92 927.981 185.46 927.861 179.4H917.331V210H902.931V147H917.331V177.6H927.861C927.981 171.54 929.481 166.08 932.361 161.22C935.241 156.36 939.111 152.55 943.971 149.79C948.831 147.03 954.261 145.65 960.261 145.65C966.381 145.65 971.901 147.09 976.821 149.97C981.801 152.79 985.701 156.72 988.521 161.76C991.341 166.74 992.751 172.32 992.751 178.5C992.751 184.68 991.341 190.29 988.521 195.33C985.701 200.31 981.801 204.24 976.821 207.12C971.901 209.94 966.381 211.35 960.261 211.35ZM960.261 197.22C963.621 197.22 966.651 196.41 969.351 194.79C972.051 193.17 974.151 190.95 975.651 188.13C977.211 185.25 977.991 182.04 977.991 178.5C977.991 174.96 977.211 171.78 975.651 168.96C974.151 166.08 972.051 163.83 969.351 162.21C966.651 160.53 963.621 159.69 960.261 159.69C956.961 159.69 953.931 160.53 951.171 162.21C948.471 163.83 946.341 166.08 944.781 168.96C943.281 171.78 942.531 174.96 942.531 178.5C942.531 182.04 943.281 185.25 944.781 188.13C946.341 190.95 948.471 193.17 951.171 194.79C953.931 196.41 956.961 197.22 960.261 197.22ZM121.32 318V255H177.48V318H163.08V268.86H135.72V318H121.32ZM195.148 318V255H219.628C227.548 255 233.788 256.62 238.348 259.86C242.908 263.04 245.188 267.42 245.188 273C245.188 278.58 243.058 282.99 238.798 286.23C234.598 289.41 228.838 291 221.518 291H209.548V318H195.148ZM218.008 289.2C221.908 289.2 224.998 288.21 227.278 286.23C229.618 284.25 230.788 281.64 230.788 278.4C230.788 275.1 229.618 272.46 227.278 270.48C224.998 268.5 221.908 267.51 218.008 267.51H209.548V289.2H218.008ZM286.17 319.35C279.93 319.35 274.29 317.94 269.25 315.12C264.21 312.24 260.25 308.31 257.37 303.33C254.55 298.29 253.14 292.68 253.14 286.5C253.14 280.32 254.55 274.74 257.37 269.76C260.25 264.72 264.21 260.79 269.25 257.97C274.29 255.09 279.93 253.65 286.17 253.65C292.41 253.65 298.05 255.09 303.09 257.97C308.13 260.79 312.06 264.72 314.88 269.76C317.76 274.74 319.2 280.32 319.2 286.5C319.2 292.68 317.76 298.29 314.88 303.33C312.06 308.31 308.13 312.24 303.09 315.12C298.05 317.94 292.41 319.35 286.17 319.35ZM286.17 305.22C289.65 305.22 292.77 304.41 295.53 302.79C298.35 301.17 300.54 298.95 302.1 296.13C303.72 293.25 304.53 290.04 304.53 286.5C304.53 282.96 303.72 279.78 302.1 276.96C300.54 274.08 298.35 271.83 295.53 270.21C292.77 268.53 289.65 267.69 286.17 267.69C282.69 267.69 279.57 268.53 276.81 270.21C274.05 271.83 271.86 274.08 270.24 276.96C268.68 279.78 267.9 282.96 267.9 286.5C267.9 290.04 268.68 293.25 270.24 296.13C271.86 298.95 274.05 301.17 276.81 302.79C279.57 304.41 282.69 305.22 286.17 305.22ZM331.203 318V255H376.563V268.86H345.603V318H331.203ZM387.98 318V255H412.46C420.38 255 426.62 256.62 431.18 259.86C435.74 263.04 438.02 267.42 438.02 273C438.02 278.58 435.89 282.99 431.63 286.23C427.43 289.41 421.67 291 414.35 291H402.38V318H387.98ZM410.84 289.2C414.74 289.2 417.83 288.21 420.11 286.23C422.45 284.25 423.62 281.64 423.62 278.4C423.62 275.1 422.45 272.46 420.11 270.48C417.83 268.5 414.74 267.51 410.84 267.51H402.38V289.2H410.84ZM438.439 318L462.289 255H480.829L504.679 318H489.469L482.719 299.82H460.129L453.289 318H438.439ZM460.759 298.11H482.089L471.469 270.21L460.759 298.11ZM515.158 318V255H529.918L549.718 315.39L569.608 255H584.278V318H569.878V260.49L550.798 318H548.638L529.558 260.49V318H515.158ZM629.295 319.35C623.055 319.35 617.415 317.94 612.375 315.12C607.335 312.24 603.375 308.31 600.495 303.33C597.675 298.29 596.265 292.68 596.265 286.5C596.265 280.32 597.675 274.74 600.495 269.76C603.375 264.72 607.335 260.79 612.375 257.97C617.415 255.09 623.055 253.65 629.295 253.65C635.535 253.65 641.175 255.09 646.215 257.97C651.255 260.79 655.185 264.72 658.005 269.76C660.885 274.74 662.325 280.32 662.325 286.5C662.325 292.68 660.885 298.29 658.005 303.33C655.185 308.31 651.255 312.24 646.215 315.12C641.175 317.94 635.535 319.35 629.295 319.35ZM629.295 305.22C632.775 305.22 635.895 304.41 638.655 302.79C641.475 301.17 643.665 298.95 645.225 296.13C646.845 293.25 647.655 290.04 647.655 286.5C647.655 282.96 646.845 279.78 645.225 276.96C643.665 274.08 641.475 271.83 638.655 270.21C635.895 268.53 632.775 267.69 629.295 267.69C625.815 267.69 622.695 268.53 619.935 270.21C617.175 271.83 614.985 274.08 613.365 276.96C611.805 279.78 611.025 282.96 611.025 286.5C611.025 290.04 611.805 293.25 613.365 296.13C614.985 298.95 617.175 301.17 619.935 302.79C622.695 304.41 625.815 305.22 629.295 305.22ZM731.658 319.35C725.658 319.35 720.228 317.97 715.368 315.21C710.508 312.45 706.638 308.64 703.758 303.78C700.878 298.92 699.378 293.46 699.258 287.4H688.728V318H674.328V255H688.728V285.6H699.258C699.378 279.54 700.878 274.08 703.758 269.22C706.638 264.36 710.508 260.55 715.368 257.79C720.228 255.03 725.658 253.65 731.658 253.65C737.778 253.65 743.298 255.09 748.218 257.97C753.198 260.79 757.098 264.72 759.918 269.76C762.738 274.74 764.148 280.32 764.148 286.5C764.148 292.68 762.738 298.29 759.918 303.33C757.098 308.31 753.198 312.24 748.218 315.12C743.298 317.94 737.778 319.35 731.658 319.35ZM731.658 305.22C735.018 305.22 738.048 304.41 740.748 302.79C743.448 301.17 745.548 298.95 747.048 296.13C748.608 293.25 749.388 290.04 749.388 286.5C749.388 282.96 748.608 279.78 747.048 276.96C745.548 274.08 743.448 271.83 740.748 270.21C738.048 268.53 735.018 267.69 731.658 267.69C728.358 267.69 725.328 268.53 722.568 270.21C719.868 271.83 717.738 274.08 716.178 276.96C714.678 279.78 713.928 282.96 713.928 286.5C713.928 290.04 714.678 293.25 716.178 296.13C717.738 298.95 719.868 301.17 722.568 302.79C725.328 304.41 728.358 305.22 731.658 305.22Z" fill="black"/>
<path d="M166.32 102V39H222.48V102H208.08V52.86H180.72V102H166.32ZM240.148 102V39H264.628C272.548 39 278.788 40.62 283.348 43.86C287.908 47.04 290.188 51.42 290.188 57C290.188 62.58 288.058 66.99 283.798 70.23C279.598 73.41 273.838 75 266.518 75H254.548V102H240.148ZM263.008 73.2C266.908 73.2 269.998 72.21 272.278 70.23C274.618 68.25 275.788 65.64 275.788 62.4C275.788 59.1 274.618 56.46 272.278 54.48C269.998 52.5 266.908 51.51 263.008 51.51H254.548V73.2H263.008ZM331.17 103.35C324.93 103.35 319.29 101.94 314.25 99.12C309.21 96.24 305.25 92.31 302.37 87.33C299.55 82.29 298.14 76.68 298.14 70.5C298.14 64.32 299.55 58.74 302.37 53.76C305.25 48.72 309.21 44.79 314.25 41.97C319.29 39.09 324.93 37.65 331.17 37.65C337.41 37.65 343.05 39.09 348.09 41.97C353.13 44.79 357.06 48.72 359.88 53.76C362.76 58.74 364.2 64.32 364.2 70.5C364.2 76.68 362.76 82.29 359.88 87.33C357.06 92.31 353.13 96.24 348.09 99.12C343.05 101.94 337.41 103.35 331.17 103.35ZM331.17 89.22C334.65 89.22 337.77 88.41 340.53 86.79C343.35 85.17 345.54 82.95 347.1 80.13C348.72 77.25 349.53 74.04 349.53 70.5C349.53 66.96 348.72 63.78 347.1 60.96C345.54 58.08 343.35 55.83 340.53 54.21C337.77 52.53 334.65 51.69 331.17 51.69C327.69 51.69 324.57 52.53 321.81 54.21C319.05 55.83 316.86 58.08 315.24 60.96C313.68 63.78 312.9 66.96 312.9 70.5C312.9 74.04 313.68 77.25 315.24 80.13C316.86 82.95 319.05 85.17 321.81 86.79C324.57 88.41 327.69 89.22 331.17 89.22ZM369.978 115.14V88.86H377.088C378.168 83.76 378.948 78.51 379.428 73.11C379.908 67.65 380.148 61.02 380.148 53.22C380.148 52.74 380.148 52.26 380.148 51.78C380.148 51.24 380.148 50.67 380.148 50.07V39H430.638V88.86H439.278V115.14H425.508V102H383.748V115.14H369.978ZM390.858 89.13H416.508V51.87H394.098V56.37C394.038 63.15 393.738 69.09 393.198 74.19C392.718 79.23 391.938 84.21 390.858 89.13ZM444.151 102L468.001 39H486.541L510.391 102H495.181L488.431 83.82H465.841L459.001 102H444.151ZM466.471 82.11H487.801L477.181 54.21L466.471 82.11ZM511.827 102L532.527 69.33L513.087 39H528.567L548.007 69.6H553.857V39H568.257V69.6H573.927L593.457 39H608.937L589.407 69.33L610.287 102H593.367L573.837 71.4H568.257V102H553.857V71.4H548.187L528.657 102H511.827ZM643.215 102V39H657.525V69.6H662.925L683.895 39H699.645L678.675 69.33L700.995 102H683.805L662.835 71.4H657.525V102H643.215ZM711.506 102V39H742.286C748.706 39 753.746 40.44 757.406 43.32C761.126 46.2 762.986 50.16 762.986 55.2C762.986 58.86 761.966 61.95 759.926 64.47C757.946 66.99 755.126 68.82 751.466 69.96V70.41C755.666 71.43 758.966 73.29 761.366 75.99C763.766 78.69 764.966 81.96 764.966 85.8C764.966 89.04 764.126 91.89 762.446 94.35C760.826 96.81 758.486 98.7 755.426 100.02C752.426 101.34 748.916 102 744.896 102H711.506ZM739.766 88.5C742.826 88.5 745.286 87.72 747.146 86.16C749.006 84.54 749.936 82.47 749.936 79.95C749.936 77.37 748.976 75.3 747.056 73.74C745.196 72.18 742.766 71.4 739.766 71.4H725.906V88.5H739.766ZM738.506 69.6C741.566 69.6 744.026 68.82 745.886 67.26C747.746 65.64 748.676 63.57 748.676 61.05C748.676 58.47 747.746 56.4 745.886 54.84C744.026 53.28 741.566 52.5 738.506 52.5H725.906V69.6H738.506ZM769.435 102L793.285 39H811.825L835.675 102H820.465L813.715 83.82H791.125L784.285 102H769.435ZM791.755 82.11H813.085L802.465 54.21L791.755 82.11ZM846.154 102V39H870.634C878.554 39 884.794 40.62 889.354 43.86C893.914 47.04 896.194 51.42 896.194 57C896.194 62.58 894.064 66.99 889.804 70.23C885.604 73.41 879.844 75 872.524 75H860.554V102H846.154ZM869.014 73.2C872.914 73.2 876.004 72.21 878.284 70.23C880.624 68.25 881.794 65.64 881.794 62.4C881.794 59.1 880.624 56.46 878.284 54.48C876.004 52.5 872.914 51.51 869.014 51.51H860.554V73.2H869.014ZM924.583 102V52.86H901.903V39H961.573V52.86H938.983V102H924.583ZM972.804 102V39H987.204V97.5L1016.27 39H1030.76V102H1016.36V43.32L987.204 102H972.804ZM1048.39 102V39H1072.87C1080.79 39 1087.03 40.62 1091.59 43.86C1096.15 47.04 1098.43 51.42 1098.43 57C1098.43 62.58 1096.3 66.99 1092.04 70.23C1087.84 73.41 1082.08 75 1074.76 75H1062.79V102H1048.39ZM1071.25 73.2C1075.15 73.2 1078.24 72.21 1080.52 70.23C1082.86 68.25 1084.03 65.64 1084.03 62.4C1084.03 59.1 1082.86 56.46 1080.52 54.48C1078.24 52.5 1075.15 51.51 1071.25 51.51H1062.79V73.2H1071.25ZM54.18 361.29H61.11C60.33 362.55 59.61 363.9 58.95 365.34C58.29 366.78 57.81 368.25 57.51 369.75C57.57 369.75 57.6 369.75 57.6 369.75C57.6 369.75 57.63 369.75 57.69 369.75C59.79 370.41 61.35 371.46 62.37 372.9C63.45 374.34 63.99 375.96 63.99 377.76C63.99 379.2 63.63 380.58 62.91 381.9C62.25 383.22 61.26 384.3 59.94 385.14C58.68 385.98 57.21 386.4 55.53 386.4C53.13 386.4 51.06 385.62 49.32 384.06C47.64 382.5 46.8 380.37 46.8 377.67C46.8 374.97 47.52 372 48.96 368.76C50.46 365.52 52.2 363.03 54.18 361.29ZM32.94 361.29H39.87C39.09 362.55 38.37 363.9 37.71 365.34C37.05 366.78 36.57 368.25 36.27 369.75C36.33 369.75 36.36 369.75 36.36 369.75C36.36 369.75 36.39 369.75 36.45 369.75C38.55 370.41 40.11 371.46 41.13 372.9C42.21 374.34 42.75 375.96 42.75 377.76C42.75 379.2 42.39 380.58 41.67 381.9C41.01 383.22 40.02 384.3 38.7 385.14C37.44 385.98 35.97 386.4 34.29 386.4C31.89 386.4 29.82 385.62 28.08 384.06C26.4 382.5 25.56 380.37 25.56 377.67C25.56 374.97 26.28 372 27.72 368.76C29.22 365.52 30.96 363.03 32.94 361.29ZM89.3313 426.9C84.7113 426.9 80.5413 425.88 76.8213 423.84C73.1613 421.8 70.2813 419.01 68.1813 415.47C66.0813 411.93 65.0313 407.94 65.0313 403.5C65.0313 399.06 66.0813 395.07 68.1813 391.53C70.2813 387.99 73.1613 385.2 76.8213 383.16C80.5413 381.12 84.7113 380.1 89.3313 380.1C93.4713 380.1 97.2513 380.94 100.671 382.62C104.151 384.24 106.941 386.52 109.041 389.46C111.141 392.34 112.371 395.55 112.731 399.09H100.311C99.6513 396.81 98.3313 394.95 96.3513 393.51C94.3713 392.07 92.0313 391.35 89.3313 391.35C87.1113 391.35 85.1013 391.83 83.3013 392.79C81.5013 393.75 80.0613 395.1 78.9813 396.84C77.9013 398.52 77.3013 400.44 77.1813 402.6H91.5813V404.4H77.1813C77.3013 406.56 77.9013 408.48 78.9813 410.16C80.0613 411.84 81.5013 413.16 83.3013 414.12C85.1013 415.08 87.1113 415.56 89.3313 415.56C92.0313 415.56 94.3713 414.84 96.3513 413.4C98.3313 411.96 99.6513 410.1 100.311 407.82H112.731C112.371 411.42 111.111 414.69 108.951 417.63C106.851 420.51 104.091 422.79 100.671 424.47C97.2513 426.09 93.4713 426.9 89.3313 426.9ZM153.456 427.35C147.216 427.35 141.576 425.94 136.536 423.12C131.496 420.24 127.536 416.31 124.656 411.33C121.836 406.29 120.426 400.68 120.426 394.5C120.426 388.32 121.836 382.74 124.656 377.76C127.536 372.72 131.496 368.79 136.536 365.97C141.576 363.09 147.216 361.65 153.456 361.65C159.696 361.65 165.336 363.09 170.376 365.97C175.416 368.79 179.346 372.72 182.166 377.76C185.046 382.74 186.486 388.32 186.486 394.5C186.486 400.68 185.046 406.29 182.166 411.33C179.346 416.31 175.416 420.24 170.376 423.12C165.336 425.94 159.696 427.35 153.456 427.35ZM153.456 413.22C156.936 413.22 160.056 412.41 162.816 410.79C165.636 409.17 167.826 406.95 169.386 404.13C171.006 401.25 171.816 398.04 171.816 394.5C171.816 390.96 171.006 387.78 169.386 384.96C167.826 382.08 165.636 379.83 162.816 378.21C160.056 376.53 156.936 375.69 153.456 375.69C149.976 375.69 146.856 376.53 144.096 378.21C141.336 379.83 139.146 382.08 137.526 384.96C135.966 387.78 135.186 390.96 135.186 394.5C135.186 398.04 135.966 401.25 137.526 404.13C139.146 406.95 141.336 409.17 144.096 410.79C146.856 412.41 149.976 413.22 153.456 413.22ZM218.618 426.9C213.998 426.9 209.828 425.88 206.108 423.84C202.448 421.8 199.568 419.01 197.468 415.47C195.368 411.93 194.318 407.94 194.318 403.5C194.318 399.06 195.368 395.07 197.468 391.53C199.568 387.99 202.448 385.2 206.108 383.16C209.828 381.12 213.998 380.1 218.618 380.1C222.698 380.1 226.388 380.94 229.688 382.62C233.048 384.24 235.748 386.52 237.788 389.46C239.888 392.34 241.118 395.55 241.478 399.09H229.058C228.398 396.81 227.138 394.95 225.278 393.51C223.418 392.07 221.198 391.35 218.618 391.35C216.338 391.35 214.298 391.89 212.498 392.97C210.758 393.99 209.378 395.43 208.358 397.29C207.338 399.15 206.828 401.22 206.828 403.5C206.828 405.78 207.338 407.85 208.358 409.71C209.378 411.51 210.758 412.95 212.498 414.03C214.298 415.05 216.338 415.56 218.618 415.56C221.198 415.56 223.418 414.84 225.278 413.4C227.138 411.96 228.398 410.1 229.058 407.82H241.478C241.118 411.42 239.888 414.69 237.788 417.63C235.748 420.51 233.048 422.79 229.688 424.47C226.388 426.09 222.698 426.9 218.618 426.9ZM273.023 426.9C268.463 426.9 264.323 425.91 260.603 423.93C256.943 421.95 254.033 419.22 251.873 415.74C249.773 412.26 248.723 408.3 248.723 403.86C248.723 399.24 249.803 395.13 251.963 391.53C254.123 387.93 257.063 385.14 260.783 383.16C264.503 381.12 268.613 380.1 273.113 380.1C277.613 380.1 281.663 381.12 285.263 383.16C288.923 385.14 291.803 387.93 293.903 391.53C296.003 395.07 297.053 399.06 297.053 403.5C297.053 403.62 297.053 403.77 297.053 403.95C297.053 404.13 297.053 404.28 297.053 404.4H261.053C261.173 406.56 261.773 408.51 262.853 410.25C263.993 411.93 265.433 413.28 267.173 414.3C268.973 415.26 270.953 415.74 273.113 415.74C275.213 415.74 277.103 415.32 278.783 414.48C280.463 413.64 281.633 412.53 282.293 411.15H295.703C295.403 413.67 294.263 416.16 292.283 418.62C290.363 421.02 287.723 423 284.363 424.56C281.063 426.12 277.283 426.9 273.023 426.9ZM285.263 402.6C285.143 400.44 284.543 398.52 283.463 396.84C282.383 395.1 280.943 393.75 279.143 392.79C277.403 391.77 275.423 391.26 273.203 391.26C271.043 391.26 269.063 391.77 267.263 392.79C265.523 393.75 264.083 395.1 262.943 396.84C261.863 398.52 261.263 400.44 261.143 402.6H285.263ZM307.985 427.08C306.545 427.08 305.225 426.96 304.025 426.72C302.825 426.48 301.775 426.21 300.875 425.91V414.66C301.655 414.78 302.435 414.87 303.215 414.93C303.995 414.99 304.775 415.02 305.555 415.02C306.275 415.02 306.935 414.81 307.535 414.39C308.135 413.97 308.615 413.28 308.975 412.32C309.575 410.88 309.995 408.51 310.235 405.21C310.475 401.91 310.655 397.89 310.775 393.15C310.775 392.37 310.775 391.59 310.775 390.81C310.775 389.97 310.775 389.16 310.775 388.38V381H350.285V426H337.775V392.61H322.295V394.5C322.175 401.4 321.845 407.1 321.305 411.6C320.825 416.04 319.985 419.34 318.785 421.5C317.765 423.36 316.325 424.77 314.465 425.73C312.665 426.63 310.505 427.08 307.985 427.08ZM372.297 406.38C368.997 405.54 366.417 404.07 364.557 401.97C362.757 399.87 361.857 397.23 361.857 394.05C361.857 390.03 363.597 386.85 367.077 384.51C370.557 382.17 375.297 381 381.297 381H403.167V426H390.747V407.1H385.617C385.497 407.1 385.377 407.1 385.257 407.1C385.137 407.1 385.047 407.1 384.987 407.1L372.387 426H358.437L372.297 406.38ZM383.007 405.3H390.747V390.99H383.007C380.427 390.99 378.327 391.65 376.707 392.97C375.147 394.29 374.367 396 374.367 398.1C374.367 400.26 375.147 402 376.707 403.32C378.327 404.64 380.427 405.3 383.007 405.3ZM422.153 386.67H415.223C416.003 385.41 416.723 384.06 417.383 382.62C418.043 381.18 418.523 379.71 418.823 378.21C418.763 378.21 418.733 378.21 418.733 378.21C418.733 378.21 418.703 378.21 418.643 378.21C416.543 377.55 414.953 376.5 413.873 375.06C412.853 373.62 412.343 372 412.343 370.2C412.343 368.76 412.673 367.38 413.333 366.06C414.053 364.74 415.043 363.66 416.303 362.82C417.623 361.98 419.123 361.56 420.803 361.56C423.203 361.56 425.243 362.34 426.923 363.9C428.663 365.46 429.533 367.59 429.533 370.29C429.533 372.99 428.783 375.96 427.283 379.2C425.843 382.44 424.133 384.93 422.153 386.67ZM443.393 386.67H436.463C437.243 385.41 437.963 384.06 438.623 382.62C439.283 381.18 439.763 379.71 440.063 378.21C440.003 378.21 439.973 378.21 439.973 378.21C439.973 378.21 439.943 378.21 439.883 378.21C437.783 377.55 436.193 376.5 435.113 375.06C434.093 373.62 433.583 372 433.583 370.2C433.583 368.76 433.913 367.38 434.573 366.06C435.293 364.74 436.283 363.66 437.543 362.82C438.863 361.98 440.363 361.56 442.043 361.56C444.443 361.56 446.483 362.34 448.163 363.9C449.903 365.46 450.773 367.59 450.773 370.29C450.773 372.99 450.023 375.96 448.523 379.2C447.083 382.44 445.373 384.93 443.393 386.67Z" fill="#FF9F42"/>
<line x1="1200.5" y1="10" x2="1200.5" y2="139" stroke="#FF9F42"/>
</svg>
