<svg width="321" height="159" viewBox="0 0 321 159" fill="none" xmlns="http://www.w3.org/2000/svg">
<path d="M87.298 9L88.27 6.954L85.198 0.36H86.176L88.732 6.006L91.336 0.36H92.278L88.258 9H87.298ZM92.7129 9V2.52H93.4989L96.0249 7.824L98.5569 2.52H99.3369V9H98.4849V4.404L96.3069 9H95.7489L93.5709 4.404V9H92.7129ZM103.722 9.18C103.078 9.18 102.528 9.034 102.072 8.742C101.616 8.45 101.266 8.046 101.022 7.53C100.778 7.014 100.656 6.422 100.656 5.754C100.656 5.074 100.78 4.478 101.028 3.966C101.276 3.454 101.628 3.056 102.084 2.772C102.544 2.484 103.09 2.34 103.722 2.34C104.37 2.34 104.922 2.486 105.378 2.778C105.838 3.066 106.188 3.468 106.428 3.984C106.672 4.496 106.794 5.086 106.794 5.754C106.794 6.434 106.672 7.032 106.428 7.548C106.184 8.06 105.832 8.46 105.372 8.748C104.912 9.036 104.362 9.18 103.722 9.18ZM103.722 8.334C104.442 8.334 104.978 8.096 105.33 7.62C105.682 7.14 105.858 6.518 105.858 5.754C105.858 4.97 105.68 4.346 105.324 3.882C104.972 3.418 104.438 3.186 103.722 3.186C103.238 3.186 102.838 3.296 102.522 3.516C102.21 3.732 101.976 4.034 101.82 4.422C101.668 4.806 101.592 5.25 101.592 5.754C101.592 6.534 101.772 7.16 102.132 7.632C102.492 8.1 103.022 8.334 103.722 8.334ZM108.111 9V2.52H110.781C110.917 2.52 111.081 2.528 111.273 2.544C111.469 2.56 111.651 2.59 111.819 2.634C112.183 2.73 112.475 2.926 112.695 3.222C112.919 3.518 113.031 3.874 113.031 4.29C113.031 4.522 112.995 4.73 112.923 4.914C112.855 5.094 112.757 5.25 112.629 5.382C112.569 5.45 112.503 5.51 112.431 5.562C112.359 5.61 112.289 5.65 112.221 5.682C112.349 5.706 112.487 5.762 112.635 5.85C112.867 5.986 113.043 6.17 113.163 6.402C113.283 6.63 113.343 6.908 113.343 7.236C113.343 7.68 113.237 8.042 113.025 8.322C112.813 8.602 112.529 8.794 112.173 8.898C112.013 8.942 111.839 8.97 111.651 8.982C111.467 8.994 111.293 9 111.129 9H108.111ZM108.999 8.25H111.087C111.171 8.25 111.277 8.244 111.405 8.232C111.533 8.216 111.647 8.196 111.747 8.172C111.983 8.112 112.155 7.992 112.263 7.812C112.375 7.628 112.431 7.428 112.431 7.212C112.431 6.928 112.347 6.696 112.179 6.516C112.015 6.332 111.795 6.22 111.519 6.18C111.427 6.16 111.331 6.148 111.231 6.144C111.131 6.14 111.041 6.138 110.961 6.138H108.999V8.25ZM108.999 5.382H110.811C110.915 5.382 111.031 5.376 111.159 5.364C111.291 5.348 111.405 5.322 111.501 5.286C111.709 5.214 111.861 5.09 111.957 4.914C112.057 4.738 112.107 4.546 112.107 4.338C112.107 4.11 112.053 3.91 111.945 3.738C111.841 3.566 111.683 3.446 111.471 3.378C111.327 3.326 111.171 3.296 111.003 3.288C110.839 3.28 110.735 3.276 110.691 3.276H108.999V5.382ZM119.687 2.52V9H118.829V3.954L115.277 9H114.533V2.52H115.391V7.524L118.949 2.52H119.687ZM123.768 9V2.52H128.922V9H128.04V3.366H124.65V9H123.768ZM133.516 9.18C132.92 9.18 132.416 9.03 132.004 8.73C131.592 8.426 131.28 8.016 131.068 7.5C130.856 6.98 130.75 6.398 130.75 5.754C130.75 5.098 130.856 4.514 131.068 4.002C131.284 3.486 131.6 3.08 132.016 2.784C132.432 2.488 132.944 2.34 133.552 2.34C134.144 2.34 134.652 2.49 135.076 2.79C135.5 3.09 135.824 3.498 136.048 4.014C136.276 4.53 136.39 5.11 136.39 5.754C136.39 6.402 136.276 6.984 136.048 7.5C135.82 8.016 135.492 8.426 135.064 8.73C134.636 9.03 134.12 9.18 133.516 9.18ZM130.6 11.88V2.52H131.392V7.398H131.488V11.88H130.6ZM133.426 8.358C133.878 8.358 134.254 8.244 134.554 8.016C134.854 7.788 135.078 7.478 135.226 7.086C135.378 6.69 135.454 6.246 135.454 5.754C135.454 5.266 135.38 4.826 135.232 4.434C135.084 4.042 134.858 3.732 134.554 3.504C134.254 3.276 133.872 3.162 133.408 3.162C132.956 3.162 132.58 3.272 132.28 3.492C131.984 3.712 131.762 4.018 131.614 4.41C131.466 4.798 131.392 5.246 131.392 5.754C131.392 6.254 131.466 6.702 131.614 7.098C131.762 7.49 131.986 7.798 132.286 8.022C132.586 8.246 132.966 8.358 133.426 8.358ZM142.855 2.52V9H141.997V3.954L138.445 9H137.701V2.52H138.559V7.524L142.117 2.52H142.855ZM144.059 10.44V8.244C144.427 8.244 144.691 8.126 144.851 7.89C145.011 7.65 145.141 7.268 145.241 6.744C145.309 6.404 145.365 6.038 145.409 5.646C145.453 5.254 145.491 4.806 145.523 4.302C145.555 3.794 145.585 3.2 145.613 2.52H149.897V8.244H150.521V10.44H149.669V9H144.905V10.44H144.059ZM145.553 8.244H149.021V3.276H146.429C146.417 3.58 146.399 3.902 146.375 4.242C146.355 4.582 146.329 4.922 146.297 5.262C146.269 5.602 146.235 5.922 146.195 6.222C146.159 6.518 146.115 6.778 146.063 7.002C146.003 7.29 145.937 7.536 145.865 7.74C145.797 7.944 145.693 8.112 145.553 8.244ZM154.321 9.186C153.717 9.182 153.199 9.05 152.767 8.79C152.335 8.53 151.999 8.142 151.759 7.626C151.523 7.11 151.395 6.466 151.375 5.694C151.363 5.354 151.371 4.984 151.399 4.584C151.427 4.18 151.471 3.796 151.531 3.432C151.591 3.068 151.663 2.772 151.747 2.544C151.851 2.248 151.999 1.972 152.191 1.716C152.387 1.456 152.613 1.244 152.869 1.08C153.117 0.911999 153.397 0.781999 153.709 0.689999C154.025 0.594 154.353 0.52 154.693 0.468C155.037 0.416 155.377 0.37 155.713 0.33C156.053 0.29 156.367 0.24 156.655 0.18L156.751 0.978C156.531 1.022 156.271 1.062 155.971 1.098C155.671 1.134 155.357 1.178 155.029 1.23C154.701 1.278 154.387 1.344 154.087 1.428C153.787 1.512 153.531 1.622 153.319 1.758C152.995 1.954 152.745 2.25 152.569 2.646C152.397 3.042 152.291 3.496 152.251 4.008C152.499 3.62 152.827 3.328 153.235 3.132C153.647 2.936 154.093 2.838 154.573 2.838C155.157 2.838 155.659 2.972 156.079 3.24C156.503 3.508 156.829 3.88 157.057 4.356C157.285 4.832 157.399 5.378 157.399 5.994C157.399 6.638 157.273 7.2 157.021 7.68C156.773 8.16 156.419 8.532 155.959 8.796C155.499 9.056 154.953 9.186 154.321 9.186ZM154.387 8.34C155.067 8.34 155.583 8.128 155.935 7.704C156.291 7.28 156.469 6.716 156.469 6.012C156.469 5.292 156.285 4.724 155.917 4.308C155.553 3.892 155.039 3.684 154.375 3.684C153.711 3.684 153.201 3.892 152.845 4.308C152.489 4.724 152.311 5.292 152.311 6.012C152.311 6.732 152.489 7.3 152.845 7.716C153.201 8.132 153.715 8.34 154.387 8.34ZM160.573 9.18C160.085 9.18 159.675 9.092 159.343 8.916C159.015 8.74 158.769 8.506 158.605 8.214C158.441 7.922 158.359 7.604 158.359 7.26C158.359 6.908 158.429 6.608 158.569 6.36C158.713 6.108 158.907 5.902 159.151 5.742C159.399 5.582 159.685 5.46 160.009 5.376C160.337 5.296 160.699 5.226 161.095 5.166C161.495 5.102 161.885 5.048 162.265 5.004C162.649 4.956 162.985 4.91 163.273 4.866L162.961 5.058C162.973 4.418 162.849 3.944 162.589 3.636C162.329 3.328 161.877 3.174 161.233 3.174C160.789 3.174 160.413 3.274 160.105 3.474C159.801 3.674 159.587 3.99 159.463 4.422L158.605 4.17C158.753 3.59 159.051 3.14 159.499 2.82C159.947 2.5 160.529 2.34 161.245 2.34C161.837 2.34 162.339 2.452 162.751 2.676C163.167 2.896 163.461 3.216 163.633 3.636C163.713 3.824 163.765 4.034 163.789 4.266C163.813 4.498 163.825 4.734 163.825 4.974V9H163.039V7.374L163.267 7.47C163.047 8.026 162.705 8.45 162.241 8.742C161.777 9.034 161.221 9.18 160.573 9.18ZM160.675 8.418C161.087 8.418 161.447 8.344 161.755 8.196C162.063 8.048 162.311 7.846 162.499 7.59C162.687 7.33 162.809 7.038 162.865 6.714C162.913 6.506 162.939 6.278 162.943 6.03C162.947 5.778 162.949 5.59 162.949 5.466L163.285 5.64C162.985 5.68 162.659 5.72 162.307 5.76C161.959 5.8 161.615 5.846 161.275 5.898C160.939 5.95 160.635 6.012 160.363 6.084C160.179 6.136 160.001 6.21 159.829 6.306C159.657 6.398 159.515 6.522 159.403 6.678C159.295 6.834 159.241 7.028 159.241 7.26C159.241 7.448 159.287 7.63 159.379 7.806C159.475 7.982 159.627 8.128 159.835 8.244C160.047 8.36 160.327 8.418 160.675 8.418ZM165.381 9V2.52H166.263V5.334H169.917V2.52H170.799V9H169.917V6.18H166.263V9H165.381ZM172.471 9V2.52H173.353V5.334H177.007V2.52H177.889V9H177.007V6.18H173.353V9H172.471ZM183.629 9V6.558H182.117C181.941 6.558 181.759 6.552 181.571 6.54C181.387 6.524 181.215 6.502 181.055 6.474C180.599 6.386 180.211 6.186 179.891 5.874C179.575 5.558 179.417 5.122 179.417 4.566C179.417 4.022 179.565 3.586 179.861 3.258C180.157 2.926 180.515 2.71 180.935 2.61C181.127 2.566 181.321 2.54 181.517 2.532C181.717 2.524 181.889 2.52 182.033 2.52H184.511L184.517 9H183.629ZM179.207 9L181.013 6.282H181.991L180.173 9H179.207ZM182.069 5.802H183.629V3.276H182.069C181.973 3.276 181.839 3.28 181.667 3.288C181.495 3.296 181.333 3.322 181.181 3.366C181.049 3.406 180.917 3.476 180.785 3.576C180.657 3.672 180.549 3.802 180.461 3.966C180.373 4.126 180.329 4.322 180.329 4.554C180.329 4.878 180.417 5.138 180.593 5.334C180.773 5.526 180.997 5.658 181.265 5.73C181.409 5.762 181.553 5.782 181.697 5.79C181.841 5.798 181.965 5.802 182.069 5.802Z" fill="#FF9F42"/>
<line x1="65" y1="5.5" x2="4.37114e-08" y2="5.50001" stroke="#FF9F42"/>
<path d="M66.444 79.42C64.764 79.42 63.224 79.1213 61.824 78.524C60.4427 77.908 59.3133 76.9933 58.436 75.78C57.5587 74.548 57.064 73.064 56.952 71.328H61.32C61.488 72.5973 62.02 73.596 62.916 74.324C63.812 75.0333 64.96 75.388 66.36 75.388C67.648 75.388 68.6653 75.1173 69.412 74.576C70.1587 74.016 70.532 73.2693 70.532 72.336C70.532 71.776 70.392 71.2813 70.112 70.852C69.832 70.4227 69.4213 70.0867 68.88 69.844C68.3573 69.6013 67.76 69.48 67.088 69.48H64.82V68.92H67.088C67.6667 68.92 68.18 68.7987 68.628 68.556C69.0947 68.2947 69.4587 67.9493 69.72 67.52C69.9813 67.0907 70.112 66.6147 70.112 66.092C70.112 65.476 69.9347 64.9347 69.58 64.468C69.244 64.0013 68.768 63.6467 68.152 63.404C67.5547 63.1613 66.864 63.04 66.08 63.04C64.8107 63.04 63.7653 63.3573 62.944 63.992C62.1413 64.608 61.656 65.4667 61.488 66.568H57.148C57.372 64.888 57.9227 63.4787 58.8 62.34C59.696 61.2013 60.8067 60.3613 62.132 59.82C63.4573 59.26 64.9133 58.98 66.5 58.98C67.9373 58.98 69.2627 59.204 70.476 59.652C71.708 60.1 72.6787 60.7533 73.388 61.612C74.116 62.4707 74.48 63.4787 74.48 64.636C74.48 65.756 74.1347 66.7173 73.444 67.52C72.772 68.304 71.848 68.8547 70.672 69.172C71.9227 69.4333 72.9307 69.956 73.696 70.74C74.4613 71.524 74.844 72.4667 74.844 73.568C74.844 74.744 74.48 75.78 73.752 76.676C73.0427 77.5533 72.0533 78.2347 70.784 78.72C69.5147 79.1867 68.068 79.42 66.444 79.42ZM76.1922 79L83.6122 59.4H89.3802L96.8002 79H92.0682L89.9682 73.344H82.9402L80.8122 79H76.1922ZM83.1362 72.812H89.7722L86.4682 64.132L83.1362 72.812ZM107.06 79V59.4H111.54V79H107.06ZM117.041 79V59.4H134.513V79H130.033V63.712H121.521V79H117.041ZM148.531 79.42C146.589 79.42 144.835 78.9813 143.267 78.104C141.699 77.208 140.467 75.9853 139.571 74.436C138.693 72.868 138.255 71.1227 138.255 69.2C138.255 67.2773 138.693 65.5413 139.571 63.992C140.467 62.424 141.699 61.2013 143.267 60.324C144.835 59.428 146.589 58.98 148.531 58.98C150.472 58.98 152.227 59.428 153.795 60.324C155.363 61.2013 156.585 62.424 157.463 63.992C158.359 65.5413 158.807 67.2773 158.807 69.2C158.807 71.1227 158.359 72.868 157.463 74.436C156.585 75.9853 155.363 77.208 153.795 78.104C152.227 78.9813 150.472 79.42 148.531 79.42ZM148.531 75.024C149.613 75.024 150.584 74.772 151.443 74.268C152.32 73.764 153.001 73.0733 153.487 72.196C153.991 71.3 154.243 70.3013 154.243 69.2C154.243 68.0987 153.991 67.1093 153.487 66.232C153.001 65.336 152.32 64.636 151.443 64.132C150.584 63.6093 149.613 63.348 148.531 63.348C147.448 63.348 146.477 63.6093 145.619 64.132C144.76 64.636 144.079 65.336 143.575 66.232C143.089 67.1093 142.847 68.0987 142.847 69.2C142.847 70.3013 143.089 71.3 143.575 72.196C144.079 73.0733 144.76 73.764 145.619 74.268C146.477 74.772 147.448 75.024 148.531 75.024ZM167.199 79V63.712H160.143V59.4H178.707V63.712H171.679V79H167.199ZM182.201 79V59.4H195.725V63.292H186.597V68.92H192.813V69.48H186.597V75.108H196.537V79H182.201ZM211.452 79V70.6H208.232C205.264 70.6 203.024 70.0493 201.512 68.948C200.019 67.8467 199.272 66.204 199.272 64.02V59.4H203.752V65.448C203.752 66.96 204.125 68.108 204.872 68.892C205.637 69.6573 206.757 70.04 208.232 70.04H211.452V59.4H215.932V79H211.452ZM221.412 79V59.4H225.892V68.92H234.404V59.4H238.884V79H234.404V69.48H225.892V79H221.412ZM252.902 79.42C250.961 79.42 249.206 78.9813 247.638 78.104C246.07 77.208 244.838 75.9853 243.942 74.436C243.065 72.868 242.626 71.1227 242.626 69.2C242.626 67.2773 243.065 65.5413 243.942 63.992C244.838 62.424 246.07 61.2013 247.638 60.324C249.206 59.428 250.961 58.98 252.902 58.98C254.843 58.98 256.598 59.428 258.166 60.324C259.734 61.2013 260.957 62.424 261.834 63.992C262.73 65.5413 263.178 67.2773 263.178 69.2C263.178 71.1227 262.73 72.868 261.834 74.436C260.957 75.9853 259.734 77.208 258.166 78.104C256.598 78.9813 254.843 79.42 252.902 79.42ZM252.902 75.024C253.985 75.024 254.955 74.772 255.814 74.268C256.691 73.764 257.373 73.0733 257.858 72.196C258.362 71.3 258.614 70.3013 258.614 69.2C258.614 68.0987 258.362 67.1093 257.858 66.232C257.373 65.336 256.691 64.636 255.814 64.132C254.955 63.6093 253.985 63.348 252.902 63.348C251.819 63.348 250.849 63.6093 249.99 64.132C249.131 64.636 248.45 65.336 247.946 66.232C247.461 67.1093 247.218 68.0987 247.218 69.2C247.218 70.3013 247.461 71.3 247.946 72.196C248.45 73.0733 249.131 73.764 249.99 74.268C250.849 74.772 251.819 75.024 252.902 75.024ZM284.748 79.42C282.881 79.42 281.192 78.9907 279.68 78.132C278.168 77.2733 276.964 76.088 276.068 74.576C275.172 73.064 274.705 71.3653 274.668 69.48H271.392V79H266.912V59.4H271.392V68.92H274.668C274.705 67.0347 275.172 65.336 276.068 63.824C276.964 62.312 278.168 61.1267 279.68 60.268C281.192 59.4093 282.881 58.98 284.748 58.98C286.652 58.98 288.369 59.428 289.9 60.324C291.449 61.2013 292.663 62.424 293.54 63.992C294.417 65.5413 294.856 67.2773 294.856 69.2C294.856 71.1227 294.417 72.868 293.54 74.436C292.663 75.9853 291.449 77.208 289.9 78.104C288.369 78.9813 286.652 79.42 284.748 79.42ZM284.748 75.024C285.793 75.024 286.736 74.772 287.576 74.268C288.416 73.764 289.069 73.0733 289.536 72.196C290.021 71.3 290.264 70.3013 290.264 69.2C290.264 68.0987 290.021 67.1093 289.536 66.232C289.069 65.336 288.416 64.636 287.576 64.132C286.736 63.6093 285.793 63.348 284.748 63.348C283.721 63.348 282.779 63.6093 281.92 64.132C281.08 64.636 280.417 65.336 279.932 66.232C279.465 67.1093 279.232 68.0987 279.232 69.2C279.232 70.3013 279.465 71.3 279.932 72.196C280.417 73.0733 281.08 73.764 281.92 74.268C282.779 74.772 283.721 75.024 284.748 75.024ZM37.744 113V93.4H55.216V113H50.736V97.712H42.224V113H37.744ZM60.7128 113V93.4H68.3288C70.7928 93.4 72.7341 93.904 74.1528 94.912C75.5714 95.9013 76.2808 97.264 76.2808 99C76.2808 100.736 75.6181 102.108 74.2928 103.116C72.9861 104.105 71.1941 104.6 68.9168 104.6H65.1928V113H60.7128ZM67.8248 104.04C69.0381 104.04 69.9994 103.732 70.7088 103.116C71.4368 102.5 71.8008 101.688 71.8008 100.68C71.8008 99.6533 71.4368 98.832 70.7088 98.216C69.9994 97.6 69.0381 97.292 67.8248 97.292H65.1928V104.04H67.8248ZM89.0308 113.42C87.0895 113.42 85.3348 112.981 83.7668 112.104C82.1988 111.208 80.9668 109.985 80.0708 108.436C79.1935 106.868 78.7548 105.123 78.7548 103.2C78.7548 101.277 79.1935 99.5413 80.0708 97.992C80.9668 96.424 82.1988 95.2013 83.7668 94.324C85.3348 93.428 87.0895 92.98 89.0308 92.98C90.9721 92.98 92.7268 93.428 94.2948 94.324C95.8628 95.2013 97.0855 96.424 97.9628 97.992C98.8588 99.5413 99.3068 101.277 99.3068 103.2C99.3068 105.123 98.8588 106.868 97.9628 108.436C97.0855 109.985 95.8628 111.208 94.2948 112.104C92.7268 112.981 90.9721 113.42 89.0308 113.42ZM89.0308 109.024C90.1135 109.024 91.0841 108.772 91.9428 108.268C92.8201 107.764 93.5015 107.073 93.9868 106.196C94.4908 105.3 94.7428 104.301 94.7428 103.2C94.7428 102.099 94.4908 101.109 93.9868 100.232C93.5015 99.336 92.8201 98.636 91.9428 98.132C91.0841 97.6093 90.1135 97.348 89.0308 97.348C87.9481 97.348 86.9775 97.6093 86.1188 98.132C85.2601 98.636 84.5788 99.336 84.0748 100.232C83.5895 101.109 83.3468 102.099 83.3468 103.2C83.3468 104.301 83.5895 105.3 84.0748 106.196C84.5788 107.073 85.2601 107.764 86.1188 108.268C86.9775 108.772 87.9481 109.024 89.0308 109.024ZM103.041 113V93.4H117.153V97.712H107.521V113H103.041ZM120.705 113V93.4H128.321C130.785 93.4 132.726 93.904 134.145 94.912C135.564 95.9013 136.273 97.264 136.273 99C136.273 100.736 135.61 102.108 134.285 103.116C132.978 104.105 131.186 104.6 128.909 104.6H125.185V113H120.705ZM127.817 104.04C129.03 104.04 129.992 103.732 130.701 103.116C131.429 102.5 131.793 101.688 131.793 100.68C131.793 99.6533 131.429 98.832 130.701 98.216C129.992 97.6 129.03 97.292 127.817 97.292H125.185V104.04H127.817ZM136.403 113L143.823 93.4H149.591L157.011 113H152.279L150.179 107.344H143.151L141.023 113H136.403ZM143.347 106.812H149.983L146.679 98.132L143.347 106.812ZM160.271 113V93.4H164.863L171.023 112.188L177.211 93.4H181.775V113H177.295V95.108L171.359 113H170.687L164.751 95.108V113H160.271ZM195.781 113.42C193.839 113.42 192.085 112.981 190.517 112.104C188.949 111.208 187.717 109.985 186.821 108.436C185.943 106.868 185.505 105.123 185.505 103.2C185.505 101.277 185.943 99.5413 186.821 97.992C187.717 96.424 188.949 95.2013 190.517 94.324C192.085 93.428 193.839 92.98 195.781 92.98C197.722 92.98 199.477 93.428 201.045 94.324C202.613 95.2013 203.835 96.424 204.713 97.992C205.609 99.5413 206.057 101.277 206.057 103.2C206.057 105.123 205.609 106.868 204.713 108.436C203.835 109.985 202.613 111.208 201.045 112.104C199.477 112.981 197.722 113.42 195.781 113.42ZM195.781 109.024C196.863 109.024 197.834 108.772 198.693 108.268C199.57 107.764 200.251 107.073 200.737 106.196C201.241 105.3 201.493 104.301 201.493 103.2C201.493 102.099 201.241 101.109 200.737 100.232C200.251 99.336 199.57 98.636 198.693 98.132C197.834 97.6093 196.863 97.348 195.781 97.348C194.698 97.348 193.727 97.6093 192.869 98.132C192.01 98.636 191.329 99.336 190.825 100.232C190.339 101.109 190.097 102.099 190.097 103.2C190.097 104.301 190.339 105.3 190.825 106.196C191.329 107.073 192.01 107.764 192.869 108.268C193.727 108.772 194.698 109.024 195.781 109.024ZM227.627 113.42C225.76 113.42 224.071 112.991 222.559 112.132C221.047 111.273 219.843 110.088 218.947 108.576C218.051 107.064 217.584 105.365 217.547 103.48H214.271V113H209.791V93.4H214.271V102.92H217.547C217.584 101.035 218.051 99.336 218.947 97.824C219.843 96.312 221.047 95.1267 222.559 94.268C224.071 93.4093 225.76 92.98 227.627 92.98C229.531 92.98 231.248 93.428 232.779 94.324C234.328 95.2013 235.542 96.424 236.419 97.992C237.296 99.5413 237.735 101.277 237.735 103.2C237.735 105.123 237.296 106.868 236.419 108.436C235.542 109.985 234.328 111.208 232.779 112.104C231.248 112.981 229.531 113.42 227.627 113.42ZM227.627 109.024C228.672 109.024 229.615 108.772 230.455 108.268C231.295 107.764 231.948 107.073 232.415 106.196C232.9 105.3 233.143 104.301 233.143 103.2C233.143 102.099 232.9 101.109 232.415 100.232C231.948 99.336 231.295 98.636 230.455 98.132C229.615 97.6093 228.672 97.348 227.627 97.348C226.6 97.348 225.658 97.6093 224.799 98.132C223.959 98.636 223.296 99.336 222.811 100.232C222.344 101.109 222.111 102.099 222.111 103.2C222.111 104.301 222.344 105.3 222.811 106.196C223.296 107.073 223.959 107.764 224.799 108.268C225.658 108.772 226.6 109.024 227.627 109.024Z" fill="black"/>
<path d="M16.744 45V25.4H34.216V45H29.736V29.712H21.224V45H16.744ZM39.7128 45V25.4H47.3288C49.7928 25.4 51.7341 25.904 53.1528 26.912C54.5714 27.9013 55.2808 29.264 55.2808 31C55.2808 32.736 54.6181 34.108 53.2928 35.116C51.9861 36.1053 50.1941 36.6 47.9168 36.6H44.1928V45H39.7128ZM46.8248 36.04C48.0381 36.04 48.9994 35.732 49.7088 35.116C50.4368 34.5 50.8008 33.688 50.8008 32.68C50.8008 31.6533 50.4368 30.832 49.7088 30.216C48.9994 29.6 48.0381 29.292 46.8248 29.292H44.1928V36.04H46.8248ZM68.0308 45.42C66.0895 45.42 64.3348 44.9813 62.7668 44.104C61.1988 43.208 59.9668 41.9853 59.0708 40.436C58.1935 38.868 57.7548 37.1227 57.7548 35.2C57.7548 33.2773 58.1935 31.5413 59.0708 29.992C59.9668 28.424 61.1988 27.2013 62.7668 26.324C64.3348 25.428 66.0895 24.98 68.0308 24.98C69.9721 24.98 71.7268 25.428 73.2948 26.324C74.8628 27.2013 76.0855 28.424 76.9628 29.992C77.8588 31.5413 78.3068 33.2773 78.3068 35.2C78.3068 37.1227 77.8588 38.868 76.9628 40.436C76.0855 41.9853 74.8628 43.208 73.2948 44.104C71.7268 44.9813 69.9721 45.42 68.0308 45.42ZM68.0308 41.024C69.1135 41.024 70.0841 40.772 70.9428 40.268C71.8201 39.764 72.5015 39.0733 72.9868 38.196C73.4908 37.3 73.7428 36.3013 73.7428 35.2C73.7428 34.0987 73.4908 33.1093 72.9868 32.232C72.5015 31.336 71.8201 30.636 70.9428 30.132C70.0841 29.6093 69.1135 29.348 68.0308 29.348C66.9481 29.348 65.9775 29.6093 65.1188 30.132C64.2601 30.636 63.5788 31.336 63.0748 32.232C62.5895 33.1093 62.3468 34.0987 62.3468 35.2C62.3468 36.3013 62.5895 37.3 63.0748 38.196C63.5788 39.0733 64.2601 39.764 65.1188 40.268C65.9775 40.772 66.9481 41.024 68.0308 41.024ZM80.1043 49.088V40.912H82.3163C82.6523 39.3253 82.8949 37.692 83.0443 36.012C83.1936 34.3133 83.2683 32.2507 83.2683 29.824C83.2683 29.6747 83.2683 29.5253 83.2683 29.376C83.2683 29.208 83.2683 29.0307 83.2683 28.844V25.4H98.9763V40.912H101.664V49.088H97.3803V45H84.3883V49.088H80.1043ZM86.6003 40.996H94.5803V29.404H87.6083V30.804C87.5896 32.9133 87.4963 34.7613 87.3283 36.348C87.1789 37.916 86.9363 39.4653 86.6003 40.996ZM103.18 45L110.6 25.4H116.368L123.788 45H119.056L116.956 39.344H109.928L107.8 45H103.18ZM110.124 38.812H116.76L113.456 30.132L110.124 38.812ZM124.235 45L130.675 34.836L124.627 25.4H129.443L135.491 34.92H137.311V25.4H141.791V34.92H143.555L149.631 25.4H154.447L148.371 34.836L154.867 45H149.603L143.527 35.48H141.791V45H137.311V35.48H135.547L129.471 45H124.235ZM172.111 45V25.4H176.563V34.92H178.243L184.767 25.4H189.667L183.143 34.836L190.087 45H184.739L178.215 35.48H176.563V45H172.111ZM193.357 45V25.4H202.933C204.931 25.4 206.499 25.848 207.637 26.744C208.795 27.64 209.373 28.872 209.373 30.44C209.373 31.5787 209.056 32.54 208.421 33.324C207.805 34.108 206.928 34.6773 205.789 35.032V35.172C207.096 35.4893 208.123 36.068 208.869 36.908C209.616 37.748 209.989 38.7653 209.989 39.96C209.989 40.968 209.728 41.8547 209.205 42.62C208.701 43.3853 207.973 43.9733 207.021 44.384C206.088 44.7947 204.996 45 203.745 45H193.357ZM202.149 40.8C203.101 40.8 203.867 40.5573 204.445 40.072C205.024 39.568 205.313 38.924 205.313 38.14C205.313 37.3373 205.015 36.6933 204.417 36.208C203.839 35.7227 203.083 35.48 202.149 35.48H197.837V40.8H202.149ZM201.757 34.92C202.709 34.92 203.475 34.6773 204.053 34.192C204.632 33.688 204.921 33.044 204.921 32.26C204.921 31.4573 204.632 30.8133 204.053 30.328C203.475 29.8427 202.709 29.6 201.757 29.6H197.837V34.92H201.757ZM211.38 45L218.8 25.4H224.568L231.988 45H227.256L225.156 39.344H218.128L216 45H211.38ZM218.324 38.812H224.96L221.656 30.132L218.324 38.812ZM235.248 45V25.4H242.864C245.328 25.4 247.269 25.904 248.688 26.912C250.107 27.9013 250.816 29.264 250.816 31C250.816 32.736 250.153 34.108 248.828 35.116C247.521 36.1053 245.729 36.6 243.452 36.6H239.728V45H235.248ZM242.36 36.04C243.573 36.04 244.535 35.732 245.244 35.116C245.972 34.5 246.336 33.688 246.336 32.68C246.336 31.6533 245.972 30.832 245.244 30.216C244.535 29.6 243.573 29.292 242.36 29.292H239.728V36.04H242.36ZM259.648 45V29.712H252.592V25.4H271.156V29.712H264.128V45H259.648ZM274.65 45V25.4H279.13V43.6L288.174 25.4H292.682V45H288.202V26.744L279.13 45H274.65ZM298.166 45V25.4H305.782C308.246 25.4 310.187 25.904 311.606 26.912C313.025 27.9013 313.734 29.264 313.734 31C313.734 32.736 313.071 34.108 311.746 35.116C310.439 36.1053 308.647 36.6 306.37 36.6H302.646V45H298.166ZM305.278 36.04C306.491 36.04 307.453 35.732 308.162 35.116C308.89 34.5 309.254 33.688 309.254 32.68C309.254 31.6533 308.89 30.832 308.162 30.216C307.453 29.6 306.491 29.292 305.278 29.292H302.646V36.04H305.278ZM9.856 126.868H12.012C11.7693 127.26 11.5453 127.68 11.34 128.128C11.1347 128.576 10.9853 129.033 10.892 129.5C10.9107 129.5 10.92 129.5 10.92 129.5C10.92 129.5 10.9293 129.5 10.948 129.5C11.6013 129.705 12.0867 130.032 12.404 130.48C12.74 130.928 12.908 131.432 12.908 131.992C12.908 132.44 12.796 132.869 12.572 133.28C12.3667 133.691 12.0587 134.027 11.648 134.288C11.256 134.549 10.7987 134.68 10.276 134.68C9.52933 134.68 8.88533 134.437 8.344 133.952C7.82133 133.467 7.56 132.804 7.56 131.964C7.56 131.124 7.784 130.2 8.232 129.192C8.69867 128.184 9.24 127.409 9.856 126.868ZM3.248 126.868H5.404C5.16133 127.26 4.93733 127.68 4.732 128.128C4.52667 128.576 4.37733 129.033 4.284 129.5C4.30267 129.5 4.312 129.5 4.312 129.5C4.312 129.5 4.32133 129.5 4.34 129.5C4.99333 129.705 5.47867 130.032 5.796 130.48C6.132 130.928 6.3 131.432 6.3 131.992C6.3 132.44 6.188 132.869 5.964 133.28C5.75867 133.691 5.45067 134.027 5.04 134.288C4.648 134.549 4.19067 134.68 3.668 134.68C2.92133 134.68 2.27733 134.437 1.736 133.952C1.21333 133.467 0.952 132.804 0.952 131.964C0.952 131.124 1.176 130.2 1.624 129.192C2.09067 128.184 2.632 127.409 3.248 126.868ZM20.792 147.28C19.3546 147.28 18.0573 146.963 16.9 146.328C15.7613 145.693 14.8653 144.825 14.212 143.724C13.5586 142.623 13.232 141.381 13.232 140C13.232 138.619 13.5586 137.377 14.212 136.276C14.8653 135.175 15.7613 134.307 16.9 133.672C18.0573 133.037 19.3546 132.72 20.792 132.72C22.08 132.72 23.256 132.981 24.32 133.504C25.4026 134.008 26.2706 134.717 26.924 135.632C27.5773 136.528 27.96 137.527 28.072 138.628H24.208C24.0026 137.919 23.592 137.34 22.976 136.892C22.36 136.444 21.632 136.22 20.792 136.22C20.1013 136.22 19.476 136.369 18.916 136.668C18.356 136.967 17.908 137.387 17.572 137.928C17.236 138.451 17.0493 139.048 17.012 139.72H21.492V140.28H17.012C17.0493 140.952 17.236 141.549 17.572 142.072C17.908 142.595 18.356 143.005 18.916 143.304C19.476 143.603 20.1013 143.752 20.792 143.752C21.632 143.752 22.36 143.528 22.976 143.08C23.592 142.632 24.0026 142.053 24.208 141.344H28.072C27.96 142.464 27.568 143.481 26.896 144.396C26.2426 145.292 25.384 146.001 24.32 146.524C23.256 147.028 22.08 147.28 20.792 147.28ZM40.7418 147.42C38.8004 147.42 37.0458 146.981 35.4778 146.104C33.9098 145.208 32.6778 143.985 31.7818 142.436C30.9044 140.868 30.4658 139.123 30.4658 137.2C30.4658 135.277 30.9044 133.541 31.7818 131.992C32.6778 130.424 33.9098 129.201 35.4778 128.324C37.0458 127.428 38.8004 126.98 40.7418 126.98C42.6831 126.98 44.4378 127.428 46.0058 128.324C47.5738 129.201 48.7964 130.424 49.6738 131.992C50.5698 133.541 51.0178 135.277 51.0178 137.2C51.0178 139.123 50.5698 140.868 49.6738 142.436C48.7964 143.985 47.5738 145.208 46.0058 146.104C44.4378 146.981 42.6831 147.42 40.7418 147.42ZM40.7418 143.024C41.8244 143.024 42.7951 142.772 43.6538 142.268C44.5311 141.764 45.2124 141.073 45.6978 140.196C46.2018 139.3 46.4538 138.301 46.4538 137.2C46.4538 136.099 46.2018 135.109 45.6978 134.232C45.2124 133.336 44.5311 132.636 43.6538 132.132C42.7951 131.609 41.8244 131.348 40.7418 131.348C39.6591 131.348 38.6884 131.609 37.8298 132.132C36.9711 132.636 36.2898 133.336 35.7858 134.232C35.3004 135.109 35.0578 136.099 35.0578 137.2C35.0578 138.301 35.3004 139.3 35.7858 140.196C36.2898 141.073 36.9711 141.764 37.8298 142.268C38.6884 142.772 39.6591 143.024 40.7418 143.024ZM61.0146 147.28C59.5773 147.28 58.28 146.963 57.1226 146.328C55.984 145.693 55.088 144.825 54.4346 143.724C53.7813 142.623 53.4546 141.381 53.4546 140C53.4546 138.619 53.7813 137.377 54.4346 136.276C55.088 135.175 55.984 134.307 57.1226 133.672C58.28 133.037 59.5773 132.72 61.0146 132.72C62.284 132.72 63.432 132.981 64.4586 133.504C65.504 134.008 66.344 134.717 66.9786 135.632C67.632 136.528 68.0146 137.527 68.1266 138.628H64.2626C64.0573 137.919 63.6653 137.34 63.0866 136.892C62.508 136.444 61.8173 136.22 61.0146 136.22C60.3053 136.22 59.6706 136.388 59.1106 136.724C58.5693 137.041 58.14 137.489 57.8226 138.068C57.5053 138.647 57.3466 139.291 57.3466 140C57.3466 140.709 57.5053 141.353 57.8226 141.932C58.14 142.492 58.5693 142.94 59.1106 143.276C59.6706 143.593 60.3053 143.752 61.0146 143.752C61.8173 143.752 62.508 143.528 63.0866 143.08C63.6653 142.632 64.0573 142.053 64.2626 141.344H68.1266C68.0146 142.464 67.632 143.481 66.9786 144.396C66.344 145.292 65.504 146.001 64.4586 146.524C63.432 147.028 62.284 147.28 61.0146 147.28ZM77.9404 147.28C76.5217 147.28 75.2337 146.972 74.0764 146.356C72.9377 145.74 72.0324 144.891 71.3604 143.808C70.7071 142.725 70.3804 141.493 70.3804 140.112C70.3804 138.675 70.7164 137.396 71.3884 136.276C72.0604 135.156 72.9751 134.288 74.1324 133.672C75.2897 133.037 76.5684 132.72 77.9684 132.72C79.3684 132.72 80.6284 133.037 81.7484 133.672C82.8871 134.288 83.7831 135.156 84.4364 136.276C85.0897 137.377 85.4164 138.619 85.4164 140C85.4164 140.037 85.4164 140.084 85.4164 140.14C85.4164 140.196 85.4164 140.243 85.4164 140.28H74.2164C74.2537 140.952 74.4404 141.559 74.7764 142.1C75.1311 142.623 75.5791 143.043 76.1204 143.36C76.6804 143.659 77.2964 143.808 77.9684 143.808C78.6217 143.808 79.2097 143.677 79.7324 143.416C80.2551 143.155 80.6191 142.809 80.8244 142.38H84.9964C84.9031 143.164 84.5484 143.939 83.9324 144.704C83.3351 145.451 82.5137 146.067 81.4684 146.552C80.4417 147.037 79.2657 147.28 77.9404 147.28ZM81.7484 139.72C81.7111 139.048 81.5244 138.451 81.1884 137.928C80.8524 137.387 80.4044 136.967 79.8444 136.668C79.3031 136.351 78.6871 136.192 77.9964 136.192C77.3244 136.192 76.7084 136.351 76.1484 136.668C75.6071 136.967 75.1591 137.387 74.8044 137.928C74.4684 138.451 74.2817 139.048 74.2444 139.72H81.7484ZM88.8175 147.336C88.3695 147.336 87.9589 147.299 87.5855 147.224C87.2122 147.149 86.8855 147.065 86.6055 146.972V143.472C86.8482 143.509 87.0909 143.537 87.3335 143.556C87.5762 143.575 87.8189 143.584 88.0615 143.584C88.2855 143.584 88.4909 143.519 88.6775 143.388C88.8642 143.257 89.0135 143.043 89.1255 142.744C89.3122 142.296 89.4429 141.559 89.5175 140.532C89.5922 139.505 89.6482 138.255 89.6855 136.78C89.6855 136.537 89.6855 136.295 89.6855 136.052C89.6855 135.791 89.6855 135.539 89.6855 135.296V133H101.978V147H98.0855V136.612H93.2695V137.2C93.2322 139.347 93.1295 141.12 92.9615 142.52C92.8122 143.901 92.5509 144.928 92.1775 145.6C91.8602 146.179 91.4122 146.617 90.8335 146.916C90.2735 147.196 89.6015 147.336 88.8175 147.336ZM108.826 140.896C107.799 140.635 106.996 140.177 106.418 139.524C105.858 138.871 105.578 138.049 105.578 137.06C105.578 135.809 106.119 134.82 107.202 134.092C108.284 133.364 109.759 133 111.626 133H118.43V147H114.566V141.12H112.97C112.932 141.12 112.895 141.12 112.858 141.12C112.82 141.12 112.792 141.12 112.774 141.12L108.854 147H104.514L108.826 140.896ZM112.158 140.56H114.566V136.108H112.158C111.355 136.108 110.702 136.313 110.198 136.724C109.712 137.135 109.47 137.667 109.47 138.32C109.47 138.992 109.712 139.533 110.198 139.944C110.702 140.355 111.355 140.56 112.158 140.56ZM124.337 134.764H122.181C122.423 134.372 122.647 133.952 122.853 133.504C123.058 133.056 123.207 132.599 123.301 132.132C123.282 132.132 123.273 132.132 123.273 132.132C123.273 132.132 123.263 132.132 123.245 132.132C122.591 131.927 122.097 131.6 121.761 131.152C121.443 130.704 121.285 130.2 121.285 129.64C121.285 129.192 121.387 128.763 121.593 128.352C121.817 127.941 122.125 127.605 122.517 127.344C122.927 127.083 123.394 126.952 123.917 126.952C124.663 126.952 125.298 127.195 125.821 127.68C126.362 128.165 126.633 128.828 126.633 129.668C126.633 130.508 126.399 131.432 125.933 132.44C125.485 133.448 124.953 134.223 124.337 134.764ZM130.945 134.764H128.789C129.031 134.372 129.255 133.952 129.461 133.504C129.666 133.056 129.815 132.599 129.909 132.132C129.89 132.132 129.881 132.132 129.881 132.132C129.881 132.132 129.871 132.132 129.853 132.132C129.199 131.927 128.705 131.6 128.369 131.152C128.051 130.704 127.893 130.2 127.893 129.64C127.893 129.192 127.995 128.763 128.201 128.352C128.425 127.941 128.733 127.605 129.125 127.344C129.535 127.083 130.002 126.952 130.525 126.952C131.271 126.952 131.906 127.195 132.429 127.68C132.97 128.165 133.241 128.828 133.241 129.668C133.241 130.508 133.007 131.432 132.541 132.44C132.093 133.448 131.561 134.223 130.945 134.764Z" fill="#FF9F42"/>
<line x1="206" y1="4.5" x2="320" y2="4.5" stroke="#FF9F42"/>
<line x1="320.5" y1="4" x2="320.5" y2="56" stroke="#FF9F42"/>
<line x1="12" y1="158.5" x2="144" y2="158.5" stroke="#FF9F42"/>
</svg>
