<svg width="1268" height="445" viewBox="0 0 1268 445" fill="none" xmlns="http://www.w3.org/2000/svg">
<path d="M109.761 15V0.454545H111.523V6.93182H119.278V0.454545H121.04V15H119.278V8.49432H111.523V15H109.761ZM127.549 15.2557C126.858 15.2557 126.23 15.1255 125.667 14.8651C125.103 14.5999 124.656 14.2188 124.325 13.7216C123.993 13.2197 123.827 12.6136 123.827 11.9034C123.827 11.2784 123.951 10.7718 124.197 10.3835C124.443 9.99053 124.772 9.68276 125.184 9.46023C125.596 9.23769 126.05 9.07197 126.548 8.96307C127.049 8.84943 127.554 8.75947 128.06 8.69318C128.723 8.60795 129.261 8.54403 129.673 8.50142C130.089 8.45407 130.392 8.37595 130.582 8.26705C130.776 8.15814 130.873 7.96875 130.873 7.69886V7.64205C130.873 6.94129 130.681 6.39678 130.298 6.00852C129.919 5.62027 129.344 5.42614 128.572 5.42614C127.772 5.42614 127.144 5.60133 126.69 5.9517C126.235 6.30208 125.915 6.67614 125.731 7.07386L124.14 6.50568C124.424 5.8428 124.803 5.3267 125.276 4.95739C125.754 4.58333 126.275 4.32292 126.839 4.17614C127.407 4.02462 127.966 3.94886 128.515 3.94886C128.865 3.94886 129.268 3.99148 129.722 4.0767C130.182 4.1572 130.624 4.32528 131.05 4.58097C131.481 4.83665 131.839 5.22254 132.123 5.73864C132.407 6.25473 132.549 6.94602 132.549 7.8125V15H130.873V13.5227H130.788C130.674 13.7595 130.485 14.0128 130.219 14.2827C129.954 14.5526 129.602 14.7822 129.161 14.9716C128.721 15.161 128.183 15.2557 127.549 15.2557ZM127.805 13.75C128.468 13.75 129.026 13.6198 129.481 13.3594C129.94 13.099 130.286 12.7628 130.518 12.3509C130.754 11.9389 130.873 11.5057 130.873 11.0511V9.51705C130.802 9.60227 130.646 9.6804 130.404 9.75142C130.167 9.81771 129.893 9.87689 129.58 9.92898C129.272 9.97633 128.972 10.0189 128.678 10.0568C128.389 10.09 128.155 10.1184 127.975 10.142C127.54 10.1989 127.132 10.2912 126.754 10.419C126.379 10.5421 126.076 10.7292 125.844 10.9801C125.617 11.2263 125.504 11.5625 125.504 11.9886C125.504 12.571 125.719 13.0114 126.15 13.3097C126.585 13.6032 127.137 13.75 127.805 13.75ZM135.608 4.09091H137.284V13.4375H141.404V4.09091H143.08V13.4375H147.199V4.09091H148.875V15H135.608V4.09091ZM151.936 15V4.09091H153.613V15H151.936ZM152.789 2.27273C152.462 2.27273 152.18 2.16146 151.944 1.93892C151.712 1.71638 151.596 1.44886 151.596 1.13636C151.596 0.823864 151.712 0.556345 151.944 0.333806C152.18 0.111269 152.462 0 152.789 0C153.115 0 153.395 0.111269 153.627 0.333806C153.864 0.556345 153.982 0.823864 153.982 1.13636C153.982 1.44886 153.864 1.71638 153.627 1.93892C153.395 2.16146 153.115 2.27273 152.789 2.27273ZM162.308 15V4.09091H170.887V15H169.211V5.65341H163.984V15H162.308ZM173.948 19.0909V4.09091H175.567V5.82386H175.766C175.889 5.63447 176.06 5.39299 176.278 5.09943C176.5 4.80114 176.817 4.53598 177.229 4.30398C177.646 4.06723 178.21 3.94886 178.92 3.94886C179.838 3.94886 180.648 4.1785 181.349 4.63778C182.049 5.09706 182.596 5.74811 182.989 6.59091C183.382 7.43371 183.579 8.42803 183.579 9.57386C183.579 10.7292 183.382 11.7306 182.989 12.5781C182.596 13.4209 182.052 14.0743 181.356 14.5384C180.66 14.9976 179.857 15.2273 178.948 15.2273C178.247 15.2273 177.686 15.1113 177.265 14.8793C176.844 14.6425 176.519 14.375 176.292 14.0767C176.065 13.7737 175.889 13.5227 175.766 13.3239H175.624V19.0909H173.948ZM175.596 9.54545C175.596 10.3693 175.717 11.0961 175.958 11.7259C176.2 12.3509 176.552 12.8409 177.016 13.196C177.48 13.5464 178.049 13.7216 178.721 13.7216C179.422 13.7216 180.006 13.5369 180.475 13.1676C180.949 12.7936 181.304 12.2917 181.54 11.6619C181.782 11.0275 181.903 10.322 181.903 9.54545C181.903 8.77841 181.784 8.08712 181.548 7.47159C181.316 6.85133 180.963 6.36127 180.489 6.00142C180.021 5.63684 179.431 5.45455 178.721 5.45455C178.039 5.45455 177.466 5.62737 177.002 5.97301C176.538 6.31392 176.188 6.79214 175.951 7.40767C175.714 8.01847 175.596 8.73106 175.596 9.54545ZM190.567 15.2273C189.583 15.2273 188.719 14.9929 187.975 14.5241C187.237 14.0554 186.659 13.3996 186.242 12.5568C185.83 11.714 185.624 10.7292 185.624 9.60227C185.624 8.46591 185.83 7.47396 186.242 6.62642C186.659 5.77888 187.237 5.12074 187.975 4.65199C188.719 4.18324 189.583 3.94886 190.567 3.94886C191.552 3.94886 192.414 4.18324 193.153 4.65199C193.896 5.12074 194.474 5.77888 194.886 6.62642C195.302 7.47396 195.511 8.46591 195.511 9.60227C195.511 10.7292 195.302 11.714 194.886 12.5568C194.474 13.3996 193.896 14.0554 193.153 14.5241C192.414 14.9929 191.552 15.2273 190.567 15.2273ZM190.567 13.7216C191.316 13.7216 191.931 13.5298 192.414 13.1463C192.897 12.7628 193.254 12.2585 193.487 11.6335C193.719 11.0085 193.835 10.3314 193.835 9.60227C193.835 8.87311 193.719 8.19366 193.487 7.56392C193.254 6.93419 192.897 6.42519 192.414 6.03693C191.931 5.64867 191.316 5.45455 190.567 5.45455C189.819 5.45455 189.204 5.64867 188.721 6.03693C188.238 6.42519 187.88 6.93419 187.648 7.56392C187.416 8.19366 187.3 8.87311 187.3 9.60227C187.3 10.3314 187.416 11.0085 187.648 11.6335C187.88 12.2585 188.238 12.7628 188.721 13.1463C189.204 13.5298 189.819 13.7216 190.567 13.7216ZM202.501 8.94886V10.5114H197.132V8.94886H202.501ZM206.081 7.35795H204.404C204.277 6.8608 203.993 6.42045 203.552 6.03693C203.117 5.64867 202.529 5.45455 201.791 5.45455C201.137 5.45455 200.565 5.625 200.072 5.96591C199.584 6.30208 199.203 6.77794 198.929 7.39347C198.659 8.00426 198.524 8.72159 198.524 9.54545C198.524 10.3883 198.656 11.1222 198.922 11.7472C199.191 12.3722 199.57 12.8575 200.058 13.2031C200.55 13.5488 201.128 13.7216 201.791 13.7216C202.226 13.7216 202.622 13.6458 202.977 13.4943C203.332 13.3428 203.633 13.125 203.879 12.8409C204.125 12.5568 204.3 12.2159 204.404 11.8182H206.081C205.986 12.4621 205.752 13.0421 205.377 13.5582C205.008 14.0696 204.518 14.4768 203.907 14.7798C203.301 15.0781 202.596 15.2273 201.791 15.2273C200.778 15.2273 199.902 14.9882 199.163 14.5099C198.424 14.027 197.854 13.3594 197.451 12.5071C197.049 11.6501 196.848 10.6629 196.848 9.54545C196.848 8.45644 197.051 7.49053 197.458 6.64773C197.87 5.80492 198.443 5.14441 199.177 4.66619C199.916 4.18797 200.778 3.94886 201.762 3.94886C202.529 3.94886 203.221 4.09091 203.836 4.375C204.452 4.65909 204.956 5.05682 205.349 5.56818C205.742 6.07955 205.986 6.67614 206.081 7.35795ZM208.87 15V4.09091H210.546V8.83523H211.654L215.575 4.09091H217.734L213.33 9.34659L217.79 15H215.631L212.052 10.3977H210.546V15H208.87ZM218.987 5.65341V4.09091H227.851V5.65341H224.271V15H222.595V5.65341H218.987ZM231.972 12.5284L237.228 4.09091H239.159V15H237.483V6.5625L232.256 15H230.296V4.09091H231.972V12.5284Z" fill="#FF9F42"/>
<line x1="1" y1="6.5" x2="88" y2="6.5" stroke="#FF9F42"/>
<path d="M233.82 103V40H258.3C266.22 40 272.46 41.62 277.02 44.86C281.58 48.04 283.86 52.42 283.86 58C283.86 63.58 281.73 67.99 277.47 71.23C273.27 74.41 267.51 76 260.19 76H248.22V103H233.82ZM256.68 74.2C260.58 74.2 263.67 73.21 265.95 71.23C268.29 69.25 269.46 66.64 269.46 63.4C269.46 60.1 268.29 57.46 265.95 55.48C263.67 53.5 260.58 52.51 256.68 52.51H248.22V74.2H256.68ZM294.289 103V40H337.759V52.51H308.419V70.6H328.399V72.4H308.419V90.49H340.369V103H294.289ZM344.659 103L368.509 40H387.049L410.899 103H395.689L388.939 84.82H366.349L359.509 103H344.659ZM366.979 83.11H388.309L377.689 55.21L366.979 83.11ZM421.919 104.26C420.179 104.26 418.649 104.14 417.329 103.9C416.009 103.66 414.869 103.36 413.909 103V89.14C413.969 89.14 413.999 89.14 413.999 89.14C415.079 89.32 416.069 89.44 416.969 89.5C417.929 89.56 418.979 89.59 420.119 89.59C420.839 89.59 421.499 89.44 422.099 89.14C422.699 88.78 423.209 88.27 423.629 87.61C424.109 86.95 424.469 86.11 424.709 85.09C425.549 82.15 426.119 77.71 426.419 71.77C426.779 65.83 426.959 58.6 426.959 50.08V40H476.819V103H462.419V53.86H440.729V56.47C440.669 65.11 440.279 73 439.559 80.14C438.899 87.28 437.729 92.5 436.049 95.8C434.609 98.68 432.749 100.81 430.469 102.19C428.189 103.57 425.339 104.26 421.919 104.26ZM494.504 103V40H508.904V103H494.504ZM551.334 104.35C545.934 104.35 540.984 103.39 536.484 101.47C532.044 99.49 528.414 96.55 525.594 92.65C522.774 88.69 521.184 83.92 520.824 78.34H534.864C535.404 82.42 537.114 85.63 539.994 87.97C542.874 90.25 546.564 91.39 551.064 91.39C555.204 91.39 558.474 90.52 560.874 88.78C563.274 86.98 564.474 84.58 564.474 81.58C564.474 79.78 564.024 78.19 563.124 76.81C562.224 75.43 560.904 74.35 559.164 73.57C557.484 72.79 555.564 72.4 553.404 72.4H546.114V70.6H553.404C555.264 70.6 556.914 70.21 558.354 69.43C559.854 68.59 561.024 67.48 561.864 66.1C562.704 64.72 563.124 63.19 563.124 61.51C563.124 59.53 562.554 57.79 561.414 56.29C560.334 54.79 558.804 53.65 556.824 52.87C554.904 52.09 552.684 51.7 550.164 51.7C546.084 51.7 542.724 52.72 540.084 54.76C537.504 56.74 535.944 59.5 535.404 63.04H521.454C522.174 57.64 523.944 53.11 526.764 49.45C529.644 45.79 533.214 43.09 537.474 41.35C541.734 39.55 546.414 38.65 551.514 38.65C556.134 38.65 560.394 39.37 564.294 40.81C568.254 42.25 571.374 44.35 573.654 47.11C575.994 49.87 577.164 53.11 577.164 56.83C577.164 60.43 576.054 63.52 573.834 66.1C571.674 68.62 568.704 70.39 564.924 71.41C568.944 72.25 572.184 73.93 574.644 76.45C577.104 78.97 578.334 82 578.334 85.54C578.334 89.32 577.164 92.65 574.824 95.53C572.544 98.35 569.364 100.54 565.284 102.1C561.204 103.6 556.554 104.35 551.334 104.35ZM619.012 104.35C612.772 104.35 607.132 102.94 602.092 100.12C597.052 97.24 593.092 93.31 590.212 88.33C587.392 83.29 585.982 77.68 585.982 71.5C585.982 65.32 587.392 59.74 590.212 54.76C593.092 49.72 597.052 45.79 602.092 42.97C607.132 40.09 612.772 38.65 619.012 38.65C625.252 38.65 630.892 40.09 635.932 42.97C640.972 45.79 644.902 49.72 647.722 54.76C650.602 59.74 652.042 65.32 652.042 71.5C652.042 77.68 650.602 83.29 647.722 88.33C644.902 93.31 640.972 97.24 635.932 100.12C630.892 102.94 625.252 104.35 619.012 104.35ZM619.012 90.22C622.492 90.22 625.612 89.41 628.372 87.79C631.192 86.17 633.382 83.95 634.942 81.13C636.562 78.25 637.372 75.04 637.372 71.5C637.372 67.96 636.562 64.78 634.942 61.96C633.382 59.08 631.192 56.83 628.372 55.21C625.612 53.53 622.492 52.69 619.012 52.69C615.532 52.69 612.412 53.53 609.652 55.21C606.892 56.83 604.702 59.08 603.082 61.96C601.522 64.78 600.742 67.96 600.742 71.5C600.742 75.04 601.522 78.25 603.082 81.13C604.702 83.95 606.892 86.17 609.652 87.79C612.412 89.41 615.532 90.22 619.012 90.22ZM664.045 103V40H694.825C701.245 40 706.285 41.44 709.945 44.32C713.665 47.2 715.525 51.16 715.525 56.2C715.525 59.86 714.505 62.95 712.465 65.47C710.485 67.99 707.665 69.82 704.005 70.96V71.41C708.205 72.43 711.505 74.29 713.905 76.99C716.305 79.69 717.505 82.96 717.505 86.8C717.505 90.04 716.665 92.89 714.985 95.35C713.365 97.81 711.025 99.7 707.965 101.02C704.965 102.34 701.455 103 697.435 103H664.045ZM692.305 89.5C695.365 89.5 697.825 88.72 699.685 87.16C701.545 85.54 702.475 83.47 702.475 80.95C702.475 78.37 701.515 76.3 699.595 74.74C697.735 73.18 695.305 72.4 692.305 72.4H678.445V89.5H692.305ZM691.045 70.6C694.105 70.6 696.565 69.82 698.425 68.26C700.285 66.64 701.215 64.57 701.215 62.05C701.215 59.47 700.285 57.4 698.425 55.84C696.565 54.28 694.105 53.5 691.045 53.5H678.445V70.6H691.045ZM721.974 103L745.824 40H764.364L788.214 103H773.004L766.254 84.82H743.664L736.824 103H721.974ZM744.294 83.11H765.624L755.004 55.21L744.294 83.11ZM798.693 103V40H813.093V70.6H840.453V40H854.853V103H840.453V72.4H813.093V103H798.693ZM872.521 103V40H886.921V103H872.521ZM250.11 319V269.86H227.43V256H287.1V269.86H264.51V319H250.11ZM298.332 319V256H322.812C330.732 256 336.972 257.62 341.532 260.86C346.092 264.04 348.372 268.42 348.372 274C348.372 278.26 347.112 281.86 344.592 284.8C342.072 287.68 338.502 289.69 333.882 290.83L353.682 319H337.662L318.762 291.91C318.642 291.97 318.492 292 318.312 292C318.192 292 318.072 292 317.952 292H312.462V319H298.332ZM321.192 290.2C325.092 290.2 328.182 289.21 330.462 287.23C332.802 285.25 333.972 282.64 333.972 279.4C333.972 276.1 332.802 273.46 330.462 271.48C328.182 269.5 325.092 268.51 321.192 268.51H312.462V290.2H321.192ZM355.997 319L379.847 256H398.387L422.237 319H407.027L400.277 300.82H377.687L370.847 319H355.997ZM378.317 299.11H399.647L389.027 271.21L378.317 299.11ZM432.716 319V256H447.026V286.6H452.426L473.396 256H489.146L468.176 286.33L490.496 319H473.306L452.336 288.4H447.026V319H432.716ZM522.851 320.35C516.851 320.35 511.601 319.36 507.101 317.38C502.601 315.4 499.061 312.58 496.481 308.92C493.901 305.2 492.491 300.88 492.251 295.96H506.561C506.861 298.6 507.641 300.88 508.901 302.8C510.161 304.66 511.901 306.1 514.121 307.12C516.341 308.14 518.921 308.65 521.861 308.65C526.181 308.65 529.511 307.84 531.851 306.22C534.251 304.54 535.451 302.2 535.451 299.2C535.451 296.98 534.731 295.15 533.291 293.71C531.851 292.21 529.781 290.95 527.081 289.93C524.381 288.91 520.841 287.95 516.461 287.05H516.371C511.631 286.03 507.701 284.86 504.581 283.54C501.521 282.22 499.121 280.54 497.381 278.5C495.701 276.46 494.861 274 494.861 271.12C494.861 267.82 495.941 264.94 498.101 262.48C500.321 259.96 503.321 258.04 507.101 256.72C510.881 255.34 515.171 254.65 519.971 254.65C525.851 254.65 530.951 255.61 535.271 257.53C539.651 259.45 543.071 262.18 545.531 265.72C547.991 269.26 549.371 273.49 549.671 278.41H534.731C534.371 274.69 532.931 271.78 530.411 269.68C527.891 267.58 524.561 266.53 520.421 266.53C517.841 266.53 515.591 266.92 513.671 267.7C511.751 268.42 510.281 269.5 509.261 270.94C508.241 272.32 507.731 274 507.731 275.98C507.731 278.2 508.481 280 509.981 281.38C511.481 282.76 513.791 283.99 516.911 285.07C520.091 286.15 524.651 287.35 530.591 288.67C530.831 288.73 531.041 288.79 531.221 288.85C531.461 288.85 531.701 288.88 531.941 288.94C532.061 289 532.181 289.03 532.301 289.03C532.421 289.03 532.541 289.06 532.661 289.12C536.141 289.96 539.081 290.95 541.481 292.09C543.881 293.17 545.771 294.64 547.151 296.5C548.531 298.36 549.221 300.7 549.221 303.52C549.221 306.82 548.111 309.76 545.891 312.34C543.731 314.86 540.641 316.84 536.621 318.28C532.601 319.66 528.011 320.35 522.851 320.35ZM561.916 319V256H576.316V305.14H607.636V319H561.916ZM619.396 319V256H662.866V268.51H633.526V286.6H653.506V288.4H633.526V306.49H665.476V319H619.396ZM678.81 319V256H703.29C711.21 256 717.45 257.62 722.01 260.86C726.57 264.04 728.85 268.42 728.85 274C728.85 278.26 727.59 281.86 725.07 284.8C722.55 287.68 718.98 289.69 714.36 290.83L734.16 319H718.14L699.24 291.91C699.12 291.97 698.97 292 698.79 292C698.67 292 698.55 292 698.43 292H692.94V319H678.81ZM701.67 290.2C705.57 290.2 708.66 289.21 710.94 287.23C713.28 285.25 714.45 282.64 714.45 279.4C714.45 276.1 713.28 273.46 710.94 271.48C708.66 269.5 705.57 268.51 701.67 268.51H692.94V290.2H701.67ZM8.82 427V364H29.88C36.84 364 42.96 365.32 48.24 367.96C53.52 370.54 57.6 374.23 60.48 379.03C63.42 383.77 64.89 389.26 64.89 395.5C64.89 401.74 63.42 407.26 60.48 412.06C57.6 416.8 53.52 420.49 48.24 423.13C42.96 425.71 36.84 427 29.88 427H8.82ZM29.88 413.95C34.08 413.95 37.68 413.23 40.68 411.79C43.68 410.29 45.96 408.16 47.52 405.4C49.14 402.58 49.95 399.28 49.95 395.5C49.95 391.72 49.14 388.45 47.52 385.69C45.96 382.87 43.68 380.74 40.68 379.3C37.68 377.8 34.08 377.05 29.88 377.05H23.22V413.95H29.88ZM76.8473 427V364H120.317V376.51H90.9773V394.6H110.957V396.4H90.9773V414.49H122.927V427H76.8473ZM152.401 427L128.191 364H143.761L161.941 414.4H162.301L180.571 364H195.691L171.391 427H152.401ZM205.168 427V364H248.638V376.51H219.298V394.6H239.278V396.4H219.298V414.49H251.248V427H205.168ZM264.582 427V364H278.982V413.14H310.302V427H264.582ZM349.452 428.35C343.212 428.35 337.572 426.94 332.532 424.12C327.492 421.24 323.532 417.31 320.652 412.33C317.832 407.29 316.422 401.68 316.422 395.5C316.422 389.32 317.832 383.74 320.652 378.76C323.532 373.72 327.492 369.79 332.532 366.97C337.572 364.09 343.212 362.65 349.452 362.65C355.692 362.65 361.332 364.09 366.372 366.97C371.412 369.79 375.342 373.72 378.162 378.76C381.042 383.74 382.482 389.32 382.482 395.5C382.482 401.68 381.042 407.29 378.162 412.33C375.342 417.31 371.412 421.24 366.372 424.12C361.332 426.94 355.692 428.35 349.452 428.35ZM349.452 414.22C352.932 414.22 356.052 413.41 358.812 411.79C361.632 410.17 363.822 407.95 365.382 405.13C367.002 402.25 367.812 399.04 367.812 395.5C367.812 391.96 367.002 388.78 365.382 385.96C363.822 383.08 361.632 380.83 358.812 379.21C356.052 377.53 352.932 376.69 349.452 376.69C345.972 376.69 342.852 377.53 340.092 379.21C337.332 380.83 335.142 383.08 333.522 385.96C331.962 388.78 331.182 391.96 331.182 395.5C331.182 399.04 331.962 402.25 333.522 405.13C335.142 407.95 337.332 410.17 340.092 411.79C342.852 413.41 345.972 414.22 349.452 414.22ZM394.484 427V364H418.964C426.884 364 433.124 365.62 437.684 368.86C442.244 372.04 444.524 376.42 444.524 382C444.524 387.58 442.394 391.99 438.134 395.23C433.934 398.41 428.174 400 420.854 400H408.884V427H394.484ZM417.344 398.2C421.244 398.2 424.334 397.21 426.614 395.23C428.954 393.25 430.124 390.64 430.124 387.4C430.124 384.1 428.954 381.46 426.614 379.48C424.334 377.5 421.244 376.51 417.344 376.51H408.884V398.2H417.344ZM454.953 427V364H469.713L489.513 424.39L509.403 364H524.073V427H509.673V369.49L490.593 427H488.433L469.353 369.49V427H454.953ZM541.701 427V364H585.171V376.51H555.831V394.6H575.811V396.4H555.831V414.49H587.781V427H541.701ZM601.115 427V364H615.605L644.675 422.59V364H659.075V427H644.585L615.515 368.41V427H601.115ZM692.991 427V377.86H670.311V364H729.981V377.86H707.391V427H692.991Z" fill="black"/>
<path d="M46.71 211L67.41 178.33L47.97 148H63.45L82.89 178.6H88.74V148H103.14V178.6H108.81L128.34 148H143.82L124.29 178.33L145.17 211H128.25L108.72 180.4H103.14V211H88.74V180.4H83.07L63.54 211H46.71ZM155.597 211V148H169.997V206.5L199.067 148H213.557V211H199.157V152.32L169.997 211H155.597ZM247.473 211V161.86H224.793V148H284.463V161.86H261.873V211H247.473ZM292.544 212.26C290.804 212.26 289.274 212.14 287.954 211.9C286.634 211.66 285.494 211.36 284.534 211V197.14C284.594 197.14 284.624 197.14 284.624 197.14C285.704 197.32 286.694 197.44 287.594 197.5C288.554 197.56 289.604 197.59 290.744 197.59C291.464 197.59 292.124 197.44 292.724 197.14C293.324 196.78 293.834 196.27 294.254 195.61C294.734 194.95 295.094 194.11 295.334 193.09C296.174 190.15 296.744 185.71 297.044 179.77C297.404 173.83 297.584 166.6 297.584 158.08V148H347.444V211H333.044V161.86H311.354V164.47C311.294 173.11 310.904 181 310.184 188.14C309.524 195.28 308.354 200.5 306.674 203.8C305.234 206.68 303.374 208.81 301.094 210.19C298.814 211.57 295.964 212.26 292.544 212.26ZM392.518 212.35C386.278 212.35 380.638 210.94 375.598 208.12C370.558 205.24 366.598 201.31 363.718 196.33C360.898 191.29 359.488 185.68 359.488 179.5C359.488 173.32 360.898 167.74 363.718 162.76C366.598 157.72 370.558 153.79 375.598 150.97C380.638 148.09 386.278 146.65 392.518 146.65C398.758 146.65 404.398 148.09 409.438 150.97C414.478 153.79 418.408 157.72 421.228 162.76C424.108 167.74 425.548 173.32 425.548 179.5C425.548 185.68 424.108 191.29 421.228 196.33C418.408 201.31 414.478 205.24 409.438 208.12C404.398 210.94 398.758 212.35 392.518 212.35ZM392.518 198.22C395.998 198.22 399.118 197.41 401.878 195.79C404.698 194.17 406.888 191.95 408.448 189.13C410.068 186.25 410.878 183.04 410.878 179.5C410.878 175.96 410.068 172.78 408.448 169.96C406.888 167.08 404.698 164.83 401.878 163.21C399.118 161.53 395.998 160.69 392.518 160.69C389.038 160.69 385.918 161.53 383.158 163.21C380.398 164.83 378.208 167.08 376.588 169.96C375.028 172.78 374.248 175.96 374.248 179.5C374.248 183.04 375.028 186.25 376.588 189.13C378.208 191.95 380.398 194.17 383.158 195.79C385.918 197.41 389.038 198.22 392.518 198.22ZM437.55 211V148H468.33C474.75 148 479.79 149.44 483.45 152.32C487.17 155.2 489.03 159.16 489.03 164.2C489.03 167.86 488.01 170.95 485.97 173.47C483.99 175.99 481.17 177.82 477.51 178.96V179.41C481.71 180.43 485.01 182.29 487.41 184.99C489.81 187.69 491.01 190.96 491.01 194.8C491.01 198.04 490.17 200.89 488.49 203.35C486.87 205.81 484.53 207.7 481.47 209.02C478.47 210.34 474.96 211 470.94 211H437.55ZM465.81 197.5C468.87 197.5 471.33 196.72 473.19 195.16C475.05 193.54 475.98 191.47 475.98 188.95C475.98 186.37 475.02 184.3 473.1 182.74C471.24 181.18 468.81 180.4 465.81 180.4H451.95V197.5H465.81ZM464.55 178.6C467.61 178.6 470.07 177.82 471.93 176.26C473.79 174.64 474.72 172.57 474.72 170.05C474.72 167.47 473.79 165.4 471.93 163.84C470.07 162.28 467.61 161.5 464.55 161.5H451.95V178.6H464.55ZM503.82 211V148H518.22V211H503.82ZM558.4 211V148H572.71V178.6H578.11L599.08 148H614.83L593.86 178.33L616.18 211H598.99L578.02 180.4H572.71V211H558.4ZM652.938 212.35C646.698 212.35 641.058 210.94 636.018 208.12C630.978 205.24 627.018 201.31 624.138 196.33C621.318 191.29 619.908 185.68 619.908 179.5C619.908 173.32 621.318 167.74 624.138 162.76C627.018 157.72 630.978 153.79 636.018 150.97C641.058 148.09 646.698 146.65 652.938 146.65C659.178 146.65 664.818 148.09 669.858 150.97C674.898 153.79 678.828 157.72 681.648 162.76C684.528 167.74 685.968 173.32 685.968 179.5C685.968 185.68 684.528 191.29 681.648 196.33C678.828 201.31 674.898 205.24 669.858 208.12C664.818 210.94 659.178 212.35 652.938 212.35ZM652.938 198.22C656.418 198.22 659.538 197.41 662.298 195.79C665.118 194.17 667.308 191.95 668.868 189.13C670.488 186.25 671.298 183.04 671.298 179.5C671.298 175.96 670.488 172.78 668.868 169.96C667.308 167.08 665.118 164.83 662.298 163.21C659.538 161.53 656.418 160.69 652.938 160.69C649.458 160.69 646.338 161.53 643.578 163.21C640.818 164.83 638.628 167.08 637.008 169.96C635.448 172.78 634.668 175.96 634.668 179.5C634.668 183.04 635.448 186.25 637.008 189.13C638.628 191.95 640.818 194.17 643.578 195.79C646.338 197.41 649.458 198.22 652.938 198.22ZM697.97 211V148H712.73L732.53 208.39L752.42 148H767.09V211H752.69V153.49L733.61 211H731.45L712.37 153.49V211H697.97ZM785.258 212.26C783.518 212.26 781.988 212.14 780.668 211.9C779.348 211.66 778.208 211.36 777.248 211V197.14C777.308 197.14 777.338 197.14 777.338 197.14C778.418 197.32 779.408 197.44 780.308 197.5C781.268 197.56 782.318 197.59 783.458 197.59C784.178 197.59 784.838 197.44 785.438 197.14C786.038 196.78 786.548 196.27 786.968 195.61C787.448 194.95 787.808 194.11 788.048 193.09C788.888 190.15 789.458 185.71 789.758 179.77C790.118 173.83 790.298 166.6 790.298 158.08V148H840.158V211H825.758V161.86H804.068V164.47C804.008 173.11 803.618 181 802.898 188.14C802.238 195.28 801.068 200.5 799.388 203.8C797.948 206.68 796.088 208.81 793.808 210.19C791.528 211.57 788.678 212.26 785.258 212.26ZM857.843 211V148H901.313V160.51H871.973V178.6H891.953V180.4H871.973V198.49H903.923V211H857.843ZM917.258 211V148H931.567V178.6H936.968L957.938 148H973.688L952.718 178.33L975.038 211H957.848L936.878 180.4H931.567V211H917.258ZM1011.35 212.35C1005.11 212.35 999.495 210.94 994.515 208.12C989.595 205.3 985.725 201.4 982.905 196.42C980.145 191.44 978.765 185.8 978.765 179.5C978.765 173.2 980.145 167.56 982.905 162.58C985.725 157.6 989.595 153.7 994.515 150.88C999.495 148.06 1005.11 146.65 1011.35 146.65C1016.81 146.65 1021.79 147.82 1026.29 150.16C1030.85 152.44 1034.51 155.65 1037.27 159.79C1040.09 163.93 1041.71 168.58 1042.13 173.74H1027.55C1027.01 171.1 1025.96 168.82 1024.4 166.9C1022.9 164.92 1021.01 163.39 1018.73 162.31C1016.51 161.23 1013.99 160.69 1011.17 160.69C1007.75 160.69 1004.69 161.5 1001.99 163.12C999.345 164.74 997.275 166.99 995.775 169.87C994.275 172.69 993.525 175.9 993.525 179.5C993.525 183.1 994.275 186.34 995.775 189.22C997.275 192.04 999.345 194.26 1001.99 195.88C1004.69 197.44 1007.75 198.22 1011.17 198.22C1013.99 198.22 1016.51 197.71 1018.73 196.69C1021.01 195.61 1022.9 194.11 1024.4 192.19C1025.96 190.21 1027.01 187.9 1027.55 185.26H1042.13C1041.71 190.42 1040.09 195.07 1037.27 199.21C1034.51 203.35 1030.85 206.59 1026.29 208.93C1021.79 211.21 1016.81 212.35 1011.35 212.35ZM1054.54 211V148H1068.94V206.5L1098.01 148H1112.5V211H1098.1V152.32L1068.94 211H1054.54Z" fill="#FF9F42"/>
<line x1="262" y1="7.5" x2="895" y2="7.5" stroke="#FF9F42"/>
</svg>
