<svg width="320" height="188" viewBox="0 0 320 188" fill="none" xmlns="http://www.w3.org/2000/svg">
<path d="M85.84 9V0.36H86.722V4.254H91.498V0.36H92.374V9H91.498V5.1H86.722V9H85.84ZM95.9088 9.18C95.4208 9.18 95.0108 9.092 94.6788 8.916C94.3508 8.74 94.1048 8.506 93.9408 8.214C93.7768 7.922 93.6948 7.604 93.6948 7.26C93.6948 6.908 93.7648 6.608 93.9048 6.36C94.0488 6.108 94.2428 5.902 94.4868 5.742C94.7348 5.582 95.0208 5.46 95.3448 5.376C95.6728 5.296 96.0348 5.226 96.4308 5.166C96.8308 5.102 97.2208 5.048 97.6008 5.004C97.9848 4.956 98.3208 4.91 98.6088 4.866L98.2968 5.058C98.3088 4.418 98.1848 3.944 97.9248 3.636C97.6648 3.328 97.2128 3.174 96.5688 3.174C96.1248 3.174 95.7488 3.274 95.4408 3.474C95.1368 3.674 94.9228 3.99 94.7988 4.422L93.9408 4.17C94.0888 3.59 94.3868 3.14 94.8348 2.82C95.2828 2.5 95.8648 2.34 96.5808 2.34C97.1728 2.34 97.6748 2.452 98.0868 2.676C98.5028 2.896 98.7968 3.216 98.9688 3.636C99.0488 3.824 99.1008 4.034 99.1248 4.266C99.1488 4.498 99.1608 4.734 99.1608 4.974V9H98.3748V7.374L98.6028 7.47C98.3828 8.026 98.0408 8.45 97.5768 8.742C97.1128 9.034 96.5568 9.18 95.9088 9.18ZM96.0108 8.418C96.4228 8.418 96.7828 8.344 97.0908 8.196C97.3988 8.048 97.6468 7.846 97.8348 7.59C98.0228 7.33 98.1448 7.038 98.2008 6.714C98.2488 6.506 98.2748 6.278 98.2788 6.03C98.2828 5.778 98.2848 5.59 98.2848 5.466L98.6208 5.64C98.3208 5.68 97.9948 5.72 97.6428 5.76C97.2948 5.8 96.9508 5.846 96.6108 5.898C96.2748 5.95 95.9708 6.012 95.6988 6.084C95.5148 6.136 95.3368 6.21 95.1648 6.306C94.9928 6.398 94.8508 6.522 94.7388 6.678C94.6308 6.834 94.5768 7.028 94.5768 7.26C94.5768 7.448 94.6228 7.63 94.7148 7.806C94.8108 7.982 94.9628 8.128 95.1708 8.244C95.3828 8.36 95.6628 8.418 96.0108 8.418ZM100.717 9V2.52H101.575V8.184H104.005V2.52H104.863V8.184H107.287V2.52H108.145V9H100.717ZM109.948 1.29V0.3H110.83V1.29H109.948ZM109.948 9V2.52H110.83V9H109.948ZM115.025 9V2.52H120.179V9H119.297V3.366H115.907V9H115.025ZM124.773 9.18C124.177 9.18 123.673 9.03 123.261 8.73C122.849 8.426 122.537 8.016 122.325 7.5C122.113 6.98 122.007 6.398 122.007 5.754C122.007 5.098 122.113 4.514 122.325 4.002C122.541 3.486 122.857 3.08 123.273 2.784C123.689 2.488 124.201 2.34 124.809 2.34C125.401 2.34 125.909 2.49 126.333 2.79C126.757 3.09 127.081 3.498 127.305 4.014C127.533 4.53 127.647 5.11 127.647 5.754C127.647 6.402 127.533 6.984 127.305 7.5C127.077 8.016 126.749 8.426 126.321 8.73C125.893 9.03 125.377 9.18 124.773 9.18ZM121.857 11.88V2.52H122.649V7.398H122.745V11.88H121.857ZM124.683 8.358C125.135 8.358 125.511 8.244 125.811 8.016C126.111 7.788 126.335 7.478 126.483 7.086C126.635 6.69 126.711 6.246 126.711 5.754C126.711 5.266 126.637 4.826 126.489 4.434C126.341 4.042 126.115 3.732 125.811 3.504C125.511 3.276 125.129 3.162 124.665 3.162C124.213 3.162 123.837 3.272 123.537 3.492C123.241 3.712 123.019 4.018 122.871 4.41C122.723 4.798 122.649 5.246 122.649 5.754C122.649 6.254 122.723 6.702 122.871 7.098C123.019 7.49 123.243 7.798 123.543 8.022C123.843 8.246 124.223 8.358 124.683 8.358ZM131.671 9.18C131.027 9.18 130.477 9.034 130.021 8.742C129.565 8.45 129.215 8.046 128.971 7.53C128.727 7.014 128.605 6.422 128.605 5.754C128.605 5.074 128.729 4.478 128.977 3.966C129.225 3.454 129.577 3.056 130.033 2.772C130.493 2.484 131.039 2.34 131.671 2.34C132.319 2.34 132.871 2.486 133.327 2.778C133.787 3.066 134.137 3.468 134.377 3.984C134.621 4.496 134.743 5.086 134.743 5.754C134.743 6.434 134.621 7.032 134.377 7.548C134.133 8.06 133.781 8.46 133.321 8.748C132.861 9.036 132.311 9.18 131.671 9.18ZM131.671 8.334C132.391 8.334 132.927 8.096 133.279 7.62C133.631 7.14 133.807 6.518 133.807 5.754C133.807 4.97 133.629 4.346 133.273 3.882C132.921 3.418 132.387 3.186 131.671 3.186C131.187 3.186 130.787 3.296 130.471 3.516C130.159 3.732 129.925 4.034 129.769 4.422C129.617 4.806 129.541 5.25 129.541 5.754C129.541 6.534 129.721 7.16 130.081 7.632C130.441 8.1 130.971 8.334 131.671 8.334ZM138.749 9.18C138.109 9.18 137.563 9.038 137.111 8.754C136.659 8.466 136.311 8.066 136.067 7.554C135.827 7.042 135.707 6.446 135.707 5.766C135.707 5.082 135.827 4.484 136.067 3.972C136.307 3.456 136.653 3.056 137.105 2.772C137.557 2.484 138.099 2.34 138.731 2.34C139.407 2.34 139.987 2.5 140.471 2.82C140.959 3.14 141.293 3.578 141.473 4.134L140.609 4.41C140.453 4.018 140.211 3.716 139.883 3.504C139.555 3.292 139.173 3.186 138.737 3.186C138.093 3.186 137.601 3.39 137.261 3.798C136.921 4.202 136.725 4.73 136.673 5.382H139.571V6.138H136.673C136.729 6.806 136.929 7.34 137.273 7.74C137.621 8.136 138.115 8.334 138.755 8.334C139.195 8.334 139.569 8.234 139.877 8.034C140.189 7.83 140.425 7.534 140.585 7.146L141.473 7.41C141.233 7.986 140.881 8.426 140.417 8.73C139.953 9.03 139.397 9.18 138.749 9.18ZM142.705 9L142.711 2.52H143.599V5.64L146.491 2.52H147.667L144.631 5.76L148.063 9H146.779L143.599 5.88V9H142.705ZM150.422 9V3.336H148.124V2.52H153.602V3.336H151.304V9H150.422ZM159.894 2.52V9H159.036V3.954L155.484 9H154.74V2.52H155.598V7.524L159.156 2.52H159.894Z" fill="#FF9F42"/>
<line x1="65" y1="5.5" x2="4.37114e-08" y2="5.50001" stroke="#FF9F42"/>
<path d="M65.744 51V31.4H73.36C75.824 31.4 77.7653 31.904 79.184 32.912C80.6027 33.9013 81.312 35.264 81.312 37C81.312 38.736 80.6493 40.108 79.324 41.116C78.0173 42.1053 76.2253 42.6 73.948 42.6H70.224V51H65.744ZM72.856 42.04C74.0693 42.04 75.0307 41.732 75.74 41.116C76.468 40.5 76.832 39.688 76.832 38.68C76.832 37.6533 76.468 36.832 75.74 36.216C75.0307 35.6 74.0693 35.292 72.856 35.292H70.224V42.04H72.856ZM84.5565 51V31.4H98.0805V35.292H88.9525V40.92H95.1685V41.48H88.9525V47.108H98.8925V51H84.5565ZM100.227 51L107.647 31.4H113.415L120.835 51H116.103L114.003 45.344H106.975L104.847 51H100.227ZM107.171 44.812H113.807L110.503 36.132L107.171 44.812ZM124.264 51.392C123.722 51.392 123.246 51.3547 122.836 51.28C122.425 51.2053 122.07 51.112 121.772 51V46.688C121.79 46.688 121.8 46.688 121.8 46.688C122.136 46.744 122.444 46.7813 122.724 46.8C123.022 46.8187 123.349 46.828 123.704 46.828C123.928 46.828 124.133 46.7813 124.32 46.688C124.506 46.576 124.665 46.4173 124.796 46.212C124.945 46.0067 125.057 45.7453 125.132 45.428C125.393 44.5133 125.57 43.132 125.664 41.284C125.776 39.436 125.832 37.1867 125.832 34.536V31.4H141.344V51H136.864V35.712H130.116V36.524C130.097 39.212 129.976 41.6667 129.752 43.888C129.546 46.1093 129.182 47.7333 128.66 48.76C128.212 49.656 127.633 50.3187 126.924 50.748C126.214 51.1773 125.328 51.392 124.264 51.392ZM146.846 51V31.4H151.326V51H146.846ZM164.526 51.42C162.846 51.42 161.306 51.1213 159.906 50.524C158.525 49.908 157.395 48.9933 156.518 47.78C155.641 46.548 155.146 45.064 155.034 43.328H159.402C159.57 44.5973 160.102 45.596 160.998 46.324C161.894 47.0333 163.042 47.388 164.442 47.388C165.73 47.388 166.747 47.1173 167.494 46.576C168.241 46.016 168.614 45.2693 168.614 44.336C168.614 43.776 168.474 43.2813 168.194 42.852C167.914 42.4227 167.503 42.0867 166.962 41.844C166.439 41.6013 165.842 41.48 165.17 41.48H162.902V40.92H165.17C165.749 40.92 166.262 40.7987 166.71 40.556C167.177 40.2947 167.541 39.9493 167.802 39.52C168.063 39.0907 168.194 38.6147 168.194 38.092C168.194 37.476 168.017 36.9347 167.662 36.468C167.326 36.0013 166.85 35.6467 166.234 35.404C165.637 35.1613 164.946 35.04 164.162 35.04C162.893 35.04 161.847 35.3573 161.026 35.992C160.223 36.608 159.738 37.4667 159.57 38.568H155.23C155.454 36.888 156.005 35.4787 156.882 34.34C157.778 33.2013 158.889 32.3613 160.214 31.82C161.539 31.26 162.995 30.98 164.582 30.98C166.019 30.98 167.345 31.204 168.558 31.652C169.79 32.1 170.761 32.7533 171.47 33.612C172.198 34.4707 172.562 35.4787 172.562 36.636C172.562 37.756 172.217 38.7173 171.526 39.52C170.854 40.304 169.93 40.8547 168.754 41.172C170.005 41.4333 171.013 41.956 171.778 42.74C172.543 43.524 172.926 44.4667 172.926 45.568C172.926 46.744 172.562 47.78 171.834 48.676C171.125 49.5533 170.135 50.2347 168.866 50.72C167.597 51.1867 166.15 51.42 164.526 51.42ZM185.582 51.42C183.64 51.42 181.886 50.9813 180.318 50.104C178.75 49.208 177.518 47.9853 176.622 46.436C175.744 44.868 175.306 43.1227 175.306 41.2C175.306 39.2773 175.744 37.5413 176.622 35.992C177.518 34.424 178.75 33.2013 180.318 32.324C181.886 31.428 183.64 30.98 185.582 30.98C187.523 30.98 189.278 31.428 190.846 32.324C192.414 33.2013 193.636 34.424 194.514 35.992C195.41 37.5413 195.858 39.2773 195.858 41.2C195.858 43.1227 195.41 44.868 194.514 46.436C193.636 47.9853 192.414 49.208 190.846 50.104C189.278 50.9813 187.523 51.42 185.582 51.42ZM185.582 47.024C186.664 47.024 187.635 46.772 188.494 46.268C189.371 45.764 190.052 45.0733 190.538 44.196C191.042 43.3 191.294 42.3013 191.294 41.2C191.294 40.0987 191.042 39.1093 190.538 38.232C190.052 37.336 189.371 36.636 188.494 36.132C187.635 35.6093 186.664 35.348 185.582 35.348C184.499 35.348 183.528 35.6093 182.67 36.132C181.811 36.636 181.13 37.336 180.626 38.232C180.14 39.1093 179.898 40.0987 179.898 41.2C179.898 42.3013 180.14 43.3 180.626 44.196C181.13 45.0733 181.811 45.764 182.67 46.268C183.528 46.772 184.499 47.024 185.582 47.024ZM199.592 51V31.4H209.168C211.165 31.4 212.733 31.848 213.872 32.744C215.029 33.64 215.608 34.872 215.608 36.44C215.608 37.5787 215.29 38.54 214.656 39.324C214.04 40.108 213.162 40.6773 212.024 41.032V41.172C213.33 41.4893 214.357 42.068 215.104 42.908C215.85 43.748 216.224 44.7653 216.224 45.96C216.224 46.968 215.962 47.8547 215.44 48.62C214.936 49.3853 214.208 49.9733 213.256 50.384C212.322 50.7947 211.23 51 209.98 51H199.592ZM208.384 46.8C209.336 46.8 210.101 46.5573 210.68 46.072C211.258 45.568 211.548 44.924 211.548 44.14C211.548 43.3373 211.249 42.6933 210.652 42.208C210.073 41.7227 209.317 41.48 208.384 41.48H204.072V46.8H208.384ZM207.992 40.92C208.944 40.92 209.709 40.6773 210.288 40.192C210.866 39.688 211.156 39.044 211.156 38.26C211.156 37.4573 210.866 36.8133 210.288 36.328C209.709 35.8427 208.944 35.6 207.992 35.6H204.072V40.92H207.992ZM217.614 51L225.034 31.4H230.802L238.222 51H233.49L231.39 45.344H224.362L222.234 51H217.614ZM224.558 44.812H231.194L227.89 36.132L224.558 44.812ZM241.482 51V31.4H245.962V40.92H254.474V31.4H258.954V51H254.474V41.48H245.962V51H241.482ZM264.451 51V31.4H268.931V51H264.451ZM70.812 153V137.712H63.756V133.4H82.32V137.712H75.292V153H70.812ZM85.8143 153V133.4H93.4303C95.8943 133.4 97.8356 133.904 99.2543 134.912C100.673 135.901 101.382 137.264 101.382 139C101.382 140.325 100.99 141.445 100.206 142.36C99.4223 143.256 98.3116 143.881 96.8743 144.236L103.034 153H98.0503L92.1703 144.572C92.133 144.591 92.0863 144.6 92.0303 144.6C91.993 144.6 91.9556 144.6 91.9183 144.6H90.2103V153H85.8143ZM92.9263 144.04C94.1396 144.04 95.101 143.732 95.8103 143.116C96.5383 142.5 96.9023 141.688 96.9023 140.68C96.9023 139.653 96.5383 138.832 95.8103 138.216C95.101 137.6 94.1396 137.292 92.9263 137.292H90.2103V144.04H92.9263ZM103.755 153L111.175 133.4H116.943L124.363 153H119.631L117.531 147.344H110.503L108.375 153H103.755ZM110.699 146.812H117.335L114.031 138.132L110.699 146.812ZM127.623 153V133.4H132.075V142.92H133.755L140.279 133.4H145.179L138.655 142.836L145.599 153H140.251L133.727 143.48H132.075V153H127.623ZM155.665 153.42C153.798 153.42 152.165 153.112 150.765 152.496C149.365 151.88 148.263 151.003 147.461 149.864C146.658 148.707 146.219 147.363 146.145 145.832H150.597C150.69 146.653 150.933 147.363 151.325 147.96C151.717 148.539 152.258 148.987 152.949 149.304C153.639 149.621 154.442 149.78 155.357 149.78C156.701 149.78 157.737 149.528 158.465 149.024C159.211 148.501 159.585 147.773 159.585 146.84C159.585 146.149 159.361 145.58 158.913 145.132C158.465 144.665 157.821 144.273 156.981 143.956C156.141 143.639 155.039 143.34 153.677 143.06H153.649C152.174 142.743 150.951 142.379 149.981 141.968C149.029 141.557 148.282 141.035 147.741 140.4C147.218 139.765 146.957 139 146.957 138.104C146.957 137.077 147.293 136.181 147.965 135.416C148.655 134.632 149.589 134.035 150.765 133.624C151.941 133.195 153.275 132.98 154.769 132.98C156.598 132.98 158.185 133.279 159.529 133.876C160.891 134.473 161.955 135.323 162.721 136.424C163.486 137.525 163.915 138.841 164.009 140.372H159.361C159.249 139.215 158.801 138.309 158.017 137.656C157.233 137.003 156.197 136.676 154.909 136.676C154.106 136.676 153.406 136.797 152.809 137.04C152.211 137.264 151.754 137.6 151.437 138.048C151.119 138.477 150.961 139 150.961 139.616C150.961 140.307 151.194 140.867 151.661 141.296C152.127 141.725 152.846 142.108 153.817 142.444C154.806 142.78 156.225 143.153 158.073 143.564C158.147 143.583 158.213 143.601 158.269 143.62C158.343 143.62 158.418 143.629 158.493 143.648C158.53 143.667 158.567 143.676 158.605 143.676C158.642 143.676 158.679 143.685 158.717 143.704C159.799 143.965 160.714 144.273 161.461 144.628C162.207 144.964 162.795 145.421 163.225 146C163.654 146.579 163.869 147.307 163.869 148.184C163.869 149.211 163.523 150.125 162.833 150.928C162.161 151.712 161.199 152.328 159.949 152.776C158.698 153.205 157.27 153.42 155.665 153.42ZM167.818 153V133.4H172.298V148.688H182.042V153H167.818ZM185.701 153V133.4H199.225V137.292H190.097V142.92H196.313V143.48H190.097V149.108H200.037V153H185.701ZM204.185 153V133.4H211.801C214.265 133.4 216.207 133.904 217.625 134.912C219.044 135.901 219.753 137.264 219.753 139C219.753 140.325 219.361 141.445 218.577 142.36C217.793 143.256 216.683 143.881 215.245 144.236L221.405 153H216.421L210.541 144.572C210.504 144.591 210.457 144.6 210.401 144.6C210.364 144.6 210.327 144.6 210.289 144.6H208.581V153H204.185ZM211.297 144.04C212.511 144.04 213.472 143.732 214.181 143.116C214.909 142.5 215.273 141.688 215.273 140.68C215.273 139.653 214.909 138.832 214.181 138.216C213.472 137.6 212.511 137.292 211.297 137.292H208.581V144.04H211.297ZM93.744 187V167.4H100.296C102.461 167.4 104.365 167.811 106.008 168.632C107.651 169.435 108.92 170.583 109.816 172.076C110.731 173.551 111.188 175.259 111.188 177.2C111.188 179.141 110.731 180.859 109.816 182.352C108.92 183.827 107.651 184.975 106.008 185.796C104.365 186.599 102.461 187 100.296 187H93.744ZM100.296 182.94C101.603 182.94 102.723 182.716 103.656 182.268C104.589 181.801 105.299 181.139 105.784 180.28C106.288 179.403 106.54 178.376 106.54 177.2C106.54 176.024 106.288 175.007 105.784 174.148C105.299 173.271 104.589 172.608 103.656 172.16C102.723 171.693 101.603 171.46 100.296 171.46H98.224V182.94H100.296ZM114.908 187V167.4H128.432V171.292H119.304V176.92H125.52V177.48H119.304V183.108H129.244V187H114.908ZM138.414 187L130.882 167.4H135.726L141.382 183.08H141.494L147.178 167.4H151.882L144.322 187H138.414ZM154.83 187V167.4H168.354V171.292H159.226V176.92H165.442V177.48H159.226V183.108H169.166V187H154.83ZM173.314 187V167.4H177.794V182.688H187.538V187H173.314ZM199.718 187.42C197.777 187.42 196.022 186.981 194.454 186.104C192.886 185.208 191.654 183.985 190.758 182.436C189.881 180.868 189.442 179.123 189.442 177.2C189.442 175.277 189.881 173.541 190.758 171.992C191.654 170.424 192.886 169.201 194.454 168.324C196.022 167.428 197.777 166.98 199.718 166.98C201.66 166.98 203.414 167.428 204.982 168.324C206.55 169.201 207.773 170.424 208.65 171.992C209.546 173.541 209.994 175.277 209.994 177.2C209.994 179.123 209.546 180.868 208.65 182.436C207.773 183.985 206.55 185.208 204.982 186.104C203.414 186.981 201.66 187.42 199.718 187.42ZM199.718 183.024C200.801 183.024 201.772 182.772 202.63 182.268C203.508 181.764 204.189 181.073 204.674 180.196C205.178 179.3 205.43 178.301 205.43 177.2C205.43 176.099 205.178 175.109 204.674 174.232C204.189 173.336 203.508 172.636 202.63 172.132C201.772 171.609 200.801 171.348 199.718 171.348C198.636 171.348 197.665 171.609 196.806 172.132C195.948 172.636 195.266 173.336 194.762 174.232C194.277 175.109 194.034 176.099 194.034 177.2C194.034 178.301 194.277 179.3 194.762 180.196C195.266 181.073 195.948 181.764 196.806 182.268C197.665 182.772 198.636 183.024 199.718 183.024ZM213.728 187V167.4H221.344C223.808 167.4 225.75 167.904 227.168 168.912C228.587 169.901 229.296 171.264 229.296 173C229.296 174.736 228.634 176.108 227.308 177.116C226.002 178.105 224.21 178.6 221.932 178.6H218.208V187H213.728ZM220.84 178.04C222.054 178.04 223.015 177.732 223.724 177.116C224.452 176.5 224.816 175.688 224.816 174.68C224.816 173.653 224.452 172.832 223.724 172.216C223.015 171.6 222.054 171.292 220.84 171.292H218.208V178.04H220.84ZM232.541 187V167.4H237.133L243.293 186.188L249.481 167.4H254.045V187H249.565V169.108L243.629 187H242.957L237.021 169.108V187H232.541ZM259.529 187V167.4H273.053V171.292H263.925V176.92H270.141V177.48H263.925V183.108H273.865V187H259.529ZM278.014 187V167.4H282.522L291.566 185.628V167.4H296.046V187H291.538L282.494 168.772V187H278.014ZM306.597 187V171.712H299.541V167.4H318.105V171.712H311.077V187H306.597Z" fill="black"/>
<path d="M28.532 85L34.972 74.836L28.924 65.4H33.74L39.788 74.92H41.608V65.4H46.088V74.92H47.852L53.928 65.4H58.744L52.668 74.836L59.164 85H53.9L47.824 75.48H46.088V85H41.608V75.48H39.844L33.768 85H28.532ZM62.4081 85V65.4H66.8881V83.6L75.9321 65.4H80.4401V85H75.9601V66.744L66.8881 85H62.4081ZM90.9917 85V69.712H83.9357V65.4H102.5V69.712H95.4717V85H90.9917ZM105.014 85.392C104.472 85.392 103.996 85.3547 103.586 85.28C103.175 85.2053 102.82 85.112 102.522 85V80.688C102.54 80.688 102.55 80.688 102.55 80.688C102.886 80.744 103.194 80.7813 103.474 80.8C103.772 80.8187 104.099 80.828 104.454 80.828C104.678 80.828 104.883 80.7813 105.07 80.688C105.256 80.576 105.415 80.4173 105.546 80.212C105.695 80.0067 105.807 79.7453 105.882 79.428C106.143 78.5133 106.32 77.132 106.414 75.284C106.526 73.436 106.582 71.1867 106.582 68.536V65.4H122.094V85H117.614V69.712H110.866V70.524C110.847 73.212 110.726 75.6667 110.502 77.888C110.296 80.1093 109.932 81.7333 109.41 82.76C108.962 83.656 108.383 84.3187 107.674 84.748C106.964 85.1773 106.078 85.392 105.014 85.392ZM136.117 85.42C134.175 85.42 132.421 84.9813 130.853 84.104C129.285 83.208 128.053 81.9853 127.157 80.436C126.279 78.868 125.841 77.1227 125.841 75.2C125.841 73.2773 126.279 71.5413 127.157 69.992C128.053 68.424 129.285 67.2013 130.853 66.324C132.421 65.428 134.175 64.98 136.117 64.98C138.058 64.98 139.813 65.428 141.381 66.324C142.949 67.2013 144.171 68.424 145.049 69.992C145.945 71.5413 146.393 73.2773 146.393 75.2C146.393 77.1227 145.945 78.868 145.049 80.436C144.171 81.9853 142.949 83.208 141.381 84.104C139.813 84.9813 138.058 85.42 136.117 85.42ZM136.117 81.024C137.199 81.024 138.17 80.772 139.029 80.268C139.906 79.764 140.587 79.0733 141.073 78.196C141.577 77.3 141.829 76.3013 141.829 75.2C141.829 74.0987 141.577 73.1093 141.073 72.232C140.587 71.336 139.906 70.636 139.029 70.132C138.17 69.6093 137.199 69.348 136.117 69.348C135.034 69.348 134.063 69.6093 133.205 70.132C132.346 70.636 131.665 71.336 131.161 72.232C130.675 73.1093 130.433 74.0987 130.433 75.2C130.433 76.3013 130.675 77.3 131.161 78.196C131.665 79.0733 132.346 79.764 133.205 80.268C134.063 80.772 135.034 81.024 136.117 81.024ZM150.127 85V65.4H159.703C161.7 65.4 163.268 65.848 164.407 66.744C165.564 67.64 166.143 68.872 166.143 70.44C166.143 71.5787 165.825 72.54 165.191 73.324C164.575 74.108 163.697 74.6773 162.559 75.032V75.172C163.865 75.4893 164.892 76.068 165.639 76.908C166.385 77.748 166.759 78.7653 166.759 79.96C166.759 80.968 166.497 81.8547 165.975 82.62C165.471 83.3853 164.743 83.9733 163.791 84.384C162.857 84.7947 161.765 85 160.515 85H150.127ZM158.919 80.8C159.871 80.8 160.636 80.5573 161.215 80.072C161.793 79.568 162.083 78.924 162.083 78.14C162.083 77.3373 161.784 76.6933 161.187 76.208C160.608 75.7227 159.852 75.48 158.919 75.48H154.607V80.8H158.919ZM158.527 74.92C159.479 74.92 160.244 74.6773 160.823 74.192C161.401 73.688 161.691 73.044 161.691 72.26C161.691 71.4573 161.401 70.8133 160.823 70.328C160.244 69.8427 159.479 69.6 158.527 69.6H154.607V74.92H158.527ZM170.744 85V65.4H175.224V85H170.744ZM86.744 119V99.4H91.196V108.92H92.876L99.4 99.4H104.3L97.776 108.836L104.72 119H99.372L92.848 109.48H91.196V119H86.744ZM116.156 119.42C114.214 119.42 112.46 118.981 110.892 118.104C109.324 117.208 108.092 115.985 107.196 114.436C106.318 112.868 105.88 111.123 105.88 109.2C105.88 107.277 106.318 105.541 107.196 103.992C108.092 102.424 109.324 101.201 110.892 100.324C112.46 99.428 114.214 98.98 116.156 98.98C118.097 98.98 119.852 99.428 121.42 100.324C122.988 101.201 124.21 102.424 125.088 103.992C125.984 105.541 126.432 107.277 126.432 109.2C126.432 111.123 125.984 112.868 125.088 114.436C124.21 115.985 122.988 117.208 121.42 118.104C119.852 118.981 118.097 119.42 116.156 119.42ZM116.156 115.024C117.238 115.024 118.209 114.772 119.068 114.268C119.945 113.764 120.626 113.073 121.112 112.196C121.616 111.3 121.868 110.301 121.868 109.2C121.868 108.099 121.616 107.109 121.112 106.232C120.626 105.336 119.945 104.636 119.068 104.132C118.209 103.609 117.238 103.348 116.156 103.348C115.073 103.348 114.102 103.609 113.244 104.132C112.385 104.636 111.704 105.336 111.2 106.232C110.714 107.109 110.472 108.099 110.472 109.2C110.472 110.301 110.714 111.3 111.2 112.196C111.704 113.073 112.385 113.764 113.244 114.268C114.102 114.772 115.073 115.024 116.156 115.024ZM130.166 119V99.4H134.758L140.918 118.188L147.106 99.4H151.67V119H147.19V101.108L141.254 119H140.582L134.646 101.108V119H130.166ZM157.322 119.392C156.781 119.392 156.305 119.355 155.894 119.28C155.483 119.205 155.129 119.112 154.83 119V114.688C154.849 114.688 154.858 114.688 154.858 114.688C155.194 114.744 155.502 114.781 155.782 114.8C156.081 114.819 156.407 114.828 156.762 114.828C156.986 114.828 157.191 114.781 157.378 114.688C157.565 114.576 157.723 114.417 157.854 114.212C158.003 114.007 158.115 113.745 158.19 113.428C158.451 112.513 158.629 111.132 158.722 109.284C158.834 107.436 158.89 105.187 158.89 102.536V99.4H174.402V119H169.922V103.712H163.174V104.524C163.155 107.212 163.034 109.667 162.81 111.888C162.605 114.109 162.241 115.733 161.718 116.76C161.27 117.656 160.691 118.319 159.982 118.748C159.273 119.177 158.386 119.392 157.322 119.392ZM179.904 119V99.4H193.428V103.292H184.3V108.92H190.516V109.48H184.3V115.108H194.24V119H179.904ZM198.389 119V99.4H202.841V108.92H204.521L211.045 99.4H215.945L209.421 108.836L216.365 119H211.017L204.493 109.48H202.841V119H198.389ZM227.66 119.42C225.719 119.42 223.974 118.981 222.424 118.104C220.894 117.227 219.69 116.013 218.812 114.464C217.954 112.915 217.524 111.16 217.524 109.2C217.524 107.24 217.954 105.485 218.812 103.936C219.69 102.387 220.894 101.173 222.424 100.296C223.974 99.4187 225.719 98.98 227.66 98.98C229.359 98.98 230.908 99.344 232.308 100.072C233.727 100.781 234.866 101.78 235.724 103.068C236.602 104.356 237.106 105.803 237.236 107.408H232.7C232.532 106.587 232.206 105.877 231.72 105.28C231.254 104.664 230.666 104.188 229.956 103.852C229.266 103.516 228.482 103.348 227.604 103.348C226.54 103.348 225.588 103.6 224.748 104.104C223.927 104.608 223.283 105.308 222.816 106.204C222.35 107.081 222.116 108.08 222.116 109.2C222.116 110.32 222.35 111.328 222.816 112.224C223.283 113.101 223.927 113.792 224.748 114.296C225.588 114.781 226.54 115.024 227.604 115.024C228.482 115.024 229.266 114.865 229.956 114.548C230.666 114.212 231.254 113.745 231.72 113.148C232.206 112.532 232.532 111.813 232.7 110.992H237.236C237.106 112.597 236.602 114.044 235.724 115.332C234.866 116.62 233.727 117.628 232.308 118.356C230.908 119.065 229.359 119.42 227.66 119.42ZM241.099 119V99.4H245.579V117.6L254.623 99.4H259.131V119H254.651V100.744L245.579 119H241.099Z" fill="#FF9F42"/>
<line x1="0.5" y1="5" x2="0.499997" y2="85" stroke="#FF9F42"/>
<line x1="53.5" y1="133" x2="53.5" y2="162" stroke="#FF9F42"/>
<line x1="53" y1="162.5" x2="81" y2="162.5" stroke="#FF9F42"/>
<line x1="81.5" y1="162" x2="81.5" y2="188" stroke="#FF9F42"/>
<line x1="320" y1="156.5" x2="276" y2="156.5" stroke="#FF9F42"/>
<line x1="275.5" y1="157" x2="275.5" y2="121" stroke="#FF9F42"/>
</svg>
