<svg width="29" height="28" viewBox="0 0 29 28" fill="none" xmlns="http://www.w3.org/2000/svg">
<g id="f7:arrow-up">
<path id="Vector" d="M3.6628 13.9943C3.6628 14.6043 4.0848 15.0493 4.6943 15.0493L20.1278 15.0493L22.6238 14.9553L18.7803 18.4593L16.1553 21.1313C15.9678 21.3188 15.8738 21.5998 15.8738 21.8693C15.8738 22.4553 16.3188 22.8893 16.8938 22.8893C17.1748 22.8893 17.4208 22.7833 17.6553 22.5608L25.4483 14.7803C25.6823 14.5573 25.7998 14.2878 25.7998 13.9953C25.7998 13.7138 25.6823 13.4443 25.4483 13.2213L17.6553 5.4403C17.4203 5.2178 17.1748 5.1123 16.8933 5.1123C16.3193 5.1123 15.8738 5.5458 15.8738 6.1198C15.8738 6.4013 15.9678 6.6823 16.1553 6.8698L18.7803 9.5298L22.6353 13.0458L20.1278 12.9518H4.6943C4.0848 12.9518 3.6628 13.3848 3.6628 13.9943Z" fill="#FF9F42"/>
</g>
</svg>
