<svg width="1280" height="428" viewBox="0 0 1280 428" fill="none" xmlns="http://www.w3.org/2000/svg">
<path d="M277.748 96L298.908 62.604L279.036 31.6H294.86L314.732 62.88H320.712V31.6H335.432V62.88H341.228L361.192 31.6H377.016L357.052 62.604L378.396 96H361.1L341.136 64.72H335.432V96H320.712V64.72H314.916L294.952 96H277.748ZM389.055 96V31.6H403.683V62.88H409.203L430.639 31.6H446.739L425.303 62.604L448.119 96H430.547L409.111 64.72H403.683V96H389.055ZM1030.57 96.92C1028.11 96.92 1026.03 96.092 1024.31 94.436C1022.65 92.7187 1021.83 90.6333 1021.83 88.18C1021.83 85.6653 1022.65 83.58 1024.31 81.924C1026.03 80.268 1028.11 79.44 1030.57 79.44C1033.02 79.44 1035.07 80.268 1036.73 81.924C1038.45 83.58 1039.31 85.6653 1039.31 88.18C1039.31 90.6333 1038.45 92.7187 1036.73 94.436C1035.07 96.092 1033.02 96.92 1030.57 96.92ZM1030.57 67.848C1028.11 67.848 1026.03 67.02 1024.31 65.364C1022.65 63.6467 1021.83 61.5613 1021.83 59.108C1021.83 56.5933 1022.65 54.508 1024.31 52.852C1026.03 51.196 1028.11 50.368 1030.57 50.368C1033.02 50.368 1035.07 51.196 1036.73 52.852C1038.45 54.508 1039.31 56.5933 1039.31 59.108C1039.31 61.5613 1038.45 63.6467 1036.73 65.364C1035.07 67.02 1033.02 67.848 1030.57 67.848ZM428.168 219.432V206H377.016V141.6H391.736V192.568H419.704V141.6H434.424V192.568H442.244V219.432H428.168ZM454.461 206V141.6H498.897V154.388H468.905V172.88H489.329V174.72H468.905V193.212H501.565V206H454.461ZM538.196 206V141.6H569.66C576.222 141.6 581.374 143.072 585.116 146.016C588.918 148.96 590.82 153.008 590.82 158.16C590.82 161.901 589.777 165.06 587.692 167.636C585.668 170.212 582.785 172.083 579.044 173.248V173.708C583.337 174.751 586.71 176.652 589.164 179.412C591.617 182.172 592.844 185.515 592.844 189.44C592.844 192.752 591.985 195.665 590.268 198.18C588.612 200.695 586.22 202.627 583.092 203.976C580.025 205.325 576.437 206 572.328 206H538.196ZM567.084 192.2C570.212 192.2 572.726 191.403 574.628 189.808C576.529 188.152 577.48 186.036 577.48 183.46C577.48 180.823 576.498 178.707 574.536 177.112C572.634 175.517 570.15 174.72 567.084 174.72H552.916V192.2H567.084ZM565.796 172.88C568.924 172.88 571.438 172.083 573.34 170.488C575.241 168.832 576.192 166.716 576.192 164.14C576.192 161.503 575.241 159.387 573.34 157.792C571.438 156.197 568.924 155.4 565.796 155.4H552.916V172.88H565.796ZM621.063 206V155.768H597.879V141.6H658.875V155.768H635.783V206H621.063ZM670.356 206V141.6H685.076V206H670.356ZM703.701 207.288C701.922 207.288 700.358 207.165 699.009 206.92C697.659 206.675 696.494 206.368 695.513 206V191.832C695.574 191.832 695.605 191.832 695.605 191.832C696.709 192.016 697.721 192.139 698.641 192.2C699.622 192.261 700.695 192.292 701.861 192.292C702.597 192.292 703.271 192.139 703.885 191.832C704.498 191.464 705.019 190.943 705.449 190.268C705.939 189.593 706.307 188.735 706.553 187.692C707.411 184.687 707.994 180.148 708.301 174.076C708.669 168.004 708.853 160.613 708.853 151.904V141.6H759.821V206H745.101V155.768H722.929V158.436C722.867 167.268 722.469 175.333 721.733 182.632C721.058 189.931 719.862 195.267 718.145 198.64C716.673 201.584 714.771 203.761 712.441 205.172C710.11 206.583 707.197 207.288 703.701 207.288ZM777.899 206V141.6H822.335V154.388H792.343V172.88H812.767V174.72H792.343V193.212H825.003V206H777.899ZM838.633 206V141.6H853.353V172.88H881.321V141.6H896.041V206H881.321V174.72H853.353V206H838.633ZM914.102 206V141.6H928.822V172.88H956.79V141.6H971.51V206H956.79V174.72H928.822V206H914.102ZM1001.62 176.836C997.207 175.609 993.772 173.524 991.319 170.58C988.865 167.636 987.639 164.079 987.639 159.908C987.639 154.204 989.969 149.727 994.631 146.476C999.292 143.225 1005.7 141.6 1013.86 141.6H1038.97V206H1024.25V178.308H1018.27C1018.15 178.308 1018.03 178.308 1017.91 178.308C1017.78 178.308 1017.66 178.277 1017.54 178.216C1017.48 178.216 1017.39 178.216 1017.26 178.216C1017.14 178.216 1017.02 178.216 1016.89 178.216L997.575 206H981.291L1001.62 176.836ZM1015.42 176.468H1024.25V154.388H1015.42C1011.5 154.388 1008.34 155.4 1005.95 157.424C1003.55 159.448 1002.36 162.116 1002.36 165.428C1002.36 168.74 1003.55 171.408 1005.95 173.432C1008.34 175.456 1011.5 176.468 1015.42 176.468ZM566.812 317.38C560.433 317.38 554.699 315.939 549.608 313.056C544.579 310.173 540.623 306.187 537.74 301.096C534.919 296.005 533.508 290.24 533.508 283.8C533.508 277.36 534.919 271.595 537.74 266.504C540.623 261.413 544.579 257.427 549.608 254.544C554.699 251.661 560.433 250.22 566.812 250.22C572.393 250.22 577.484 251.416 582.084 253.808C586.745 256.139 590.487 259.42 593.308 263.652C596.191 267.884 597.847 272.637 598.276 277.912H583.372C582.82 275.213 581.747 272.883 580.152 270.92C578.619 268.896 576.687 267.332 574.356 266.228C572.087 265.124 569.511 264.572 566.628 264.572C563.132 264.572 560.004 265.4 557.244 267.056C554.545 268.712 552.429 271.012 550.896 273.956C549.363 276.839 548.596 280.12 548.596 283.8C548.596 287.48 549.363 290.792 550.896 293.736C552.429 296.619 554.545 298.888 557.244 300.544C560.004 302.139 563.132 302.936 566.628 302.936C569.511 302.936 572.087 302.415 574.356 301.372C576.687 300.268 578.619 298.735 580.152 296.772C581.747 294.748 582.82 292.387 583.372 289.688H598.276C597.847 294.963 596.191 299.716 593.308 303.948C590.487 308.18 586.745 311.492 582.084 313.884C577.484 316.215 572.393 317.38 566.812 317.38ZM628.111 317.38C624.063 317.38 620.414 316.552 617.163 314.896C613.974 313.179 611.459 310.787 609.619 307.72C607.841 304.653 606.951 301.157 606.951 297.232V293.92H621.395V297.508C621.395 299.716 621.978 301.525 623.143 302.936C624.37 304.285 625.965 304.96 627.927 304.96C629.522 304.96 630.749 304.561 631.607 303.764C632.527 302.905 632.987 301.801 632.987 300.452C632.987 298.735 632.435 297.017 631.331 295.3L602.535 251.6H620.107L639.427 283.8C639.734 284.291 640.01 284.843 640.255 285.456C640.501 286.008 640.715 286.621 640.899 287.296L651.571 251.6H666.567L650.559 298.428C648.413 304.807 645.499 309.56 641.819 312.688C638.201 315.816 633.631 317.38 628.111 317.38ZM713.278 316V288.4H702.698C692.946 288.4 685.586 286.591 680.618 282.972C675.711 279.353 673.258 273.956 673.258 266.78V251.6H687.978V271.472C687.978 276.44 689.205 280.212 691.658 282.788C694.173 285.303 697.853 286.56 702.698 286.56H713.278V251.6H727.998V316H713.278ZM738.736 316L763.116 251.6H782.068L806.448 316H790.9L784 297.416H760.908L753.916 316H738.736ZM761.552 295.668H783.356L772.5 267.148L761.552 295.668ZM843.351 317.38C836.972 317.38 831.238 315.939 826.147 313.056C821.118 310.173 817.162 306.187 814.279 301.096C811.458 296.005 810.047 290.24 810.047 283.8C810.047 277.36 811.458 271.595 814.279 266.504C817.162 261.413 821.118 257.427 826.147 254.544C831.238 251.661 836.972 250.22 843.351 250.22C848.932 250.22 854.023 251.416 858.623 253.808C863.284 256.139 867.026 259.42 869.847 263.652C872.73 267.884 874.386 272.637 874.815 277.912H859.911C859.359 275.213 858.286 272.883 856.691 270.92C855.158 268.896 853.226 267.332 850.895 266.228C848.626 265.124 846.05 264.572 843.167 264.572C839.671 264.572 836.543 265.4 833.783 267.056C831.084 268.712 828.968 271.012 827.435 273.956C825.902 276.839 825.135 280.12 825.135 283.8C825.135 287.48 825.902 290.792 827.435 293.736C828.968 296.619 831.084 298.888 833.783 300.544C836.543 302.139 839.671 302.936 843.167 302.936C846.05 302.936 848.626 302.415 850.895 301.372C853.226 300.268 855.158 298.735 856.691 296.772C858.286 294.748 859.359 292.387 859.911 289.688H874.815C874.386 294.963 872.73 299.716 869.847 303.948C867.026 308.18 863.284 311.492 858.623 313.884C854.023 316.215 848.932 317.38 843.351 317.38ZM887.508 316V251.6H902.228V282.88H930.196V251.6H944.916V316H930.196V284.72H902.228V316H887.508ZM990.975 317.38C984.596 317.38 978.831 315.939 973.679 313.056C968.527 310.112 964.479 306.095 961.535 301.004C958.652 295.852 957.211 290.117 957.211 283.8C957.211 277.483 958.652 271.779 961.535 266.688C964.479 261.536 968.527 257.519 973.679 254.636C978.831 251.692 984.596 250.22 990.975 250.22C997.354 250.22 1003.12 251.692 1008.27 254.636C1013.42 257.519 1017.44 261.536 1020.32 266.688C1023.27 271.779 1024.74 277.483 1024.74 283.8C1024.74 290.117 1023.27 295.852 1020.32 301.004C1017.44 306.095 1013.42 310.112 1008.27 313.056C1003.12 315.939 997.354 317.38 990.975 317.38ZM990.975 302.936C994.532 302.936 997.722 302.108 1000.54 300.452C1003.43 298.796 1005.66 296.527 1007.26 293.644C1008.92 290.7 1009.74 287.419 1009.74 283.8C1009.74 280.181 1008.92 276.931 1007.26 274.048C1005.66 271.104 1003.43 268.804 1000.54 267.148C997.722 265.431 994.532 264.572 990.975 264.572C987.418 264.572 984.228 265.431 981.407 267.148C978.586 268.804 976.347 271.104 974.691 274.048C973.096 276.931 972.299 280.181 972.299 283.8C972.299 287.419 973.096 290.7 974.691 293.644C976.347 296.527 978.586 298.796 981.407 300.452C984.228 302.108 987.418 302.936 990.975 302.936ZM1037.01 316V251.6H1083.38V265.768H1051.73V316H1037.01ZM1120.17 317.38C1113.79 317.38 1108.03 315.939 1102.87 313.056C1097.72 310.112 1093.67 306.095 1090.73 301.004C1087.85 295.852 1086.41 290.117 1086.41 283.8C1086.41 277.483 1087.85 271.779 1090.73 266.688C1093.67 261.536 1097.72 257.519 1102.87 254.636C1108.03 251.692 1113.79 250.22 1120.17 250.22C1126.55 250.22 1132.31 251.692 1137.47 254.636C1142.62 257.519 1146.64 261.536 1149.52 266.688C1152.46 271.779 1153.93 277.483 1153.93 283.8C1153.93 290.117 1152.46 295.852 1149.52 301.004C1146.64 306.095 1142.62 310.112 1137.47 313.056C1132.31 315.939 1126.55 317.38 1120.17 317.38ZM1120.17 302.936C1123.73 302.936 1126.92 302.108 1129.74 300.452C1132.62 298.796 1134.86 296.527 1136.45 293.644C1138.11 290.7 1138.94 287.419 1138.94 283.8C1138.94 280.181 1138.11 276.931 1136.45 274.048C1134.86 271.104 1132.62 268.804 1129.74 267.148C1126.92 265.431 1123.73 264.572 1120.17 264.572C1116.61 264.572 1113.42 265.431 1110.6 267.148C1107.78 268.804 1105.54 271.104 1103.89 274.048C1102.29 276.931 1101.49 280.181 1101.49 283.8C1101.49 287.419 1102.29 290.7 1103.89 293.644C1105.54 296.527 1107.78 298.796 1110.6 300.452C1113.42 302.108 1116.61 302.936 1120.17 302.936ZM9.016 426V361.6H66.424V426H51.704V375.768H23.736V426H9.016ZM112.483 427.38C106.104 427.38 100.339 425.939 95.1869 423.056C90.0349 420.112 85.9869 416.095 83.0429 411.004C80.1603 405.852 78.7189 400.117 78.7189 393.8C78.7189 387.483 80.1603 381.779 83.0429 376.688C85.9869 371.536 90.0349 367.519 95.1869 364.636C100.339 361.692 106.104 360.22 112.483 360.22C118.862 360.22 124.627 361.692 129.779 364.636C134.931 367.519 138.948 371.536 141.831 376.688C144.775 381.779 146.247 387.483 146.247 393.8C146.247 400.117 144.775 405.852 141.831 411.004C138.948 416.095 134.931 420.112 129.779 423.056C124.627 425.939 118.862 427.38 112.483 427.38ZM112.483 412.936C116.04 412.936 119.23 412.108 122.051 410.452C124.934 408.796 127.172 406.527 128.767 403.644C130.423 400.7 131.251 397.419 131.251 393.8C131.251 390.181 130.423 386.931 128.767 384.048C127.172 381.104 124.934 378.804 122.051 377.148C119.23 375.431 116.04 374.572 112.483 374.572C108.926 374.572 105.736 375.431 102.915 377.148C100.094 378.804 97.8549 381.104 96.1989 384.048C94.6043 386.931 93.8069 390.181 93.8069 393.8C93.8069 397.419 94.6043 400.7 96.1989 403.644C97.8549 406.527 100.094 408.796 102.915 410.452C105.736 412.108 108.926 412.936 112.483 412.936ZM158.516 426V361.6H173.604L193.844 423.332L214.176 361.6H229.172V426H214.452V367.212L194.948 426H192.74L173.236 367.212V426H158.516ZM247.192 426V361.6H291.628V374.388H261.636V392.88H282.06V394.72H261.636V413.212H294.296V426H247.192ZM307.926 426V361.6H322.646V412.568H344.082V361.6H358.802V412.568H380.238V361.6H394.958V426H307.926ZM412.954 426V361.6H427.581V392.88H433.102L454.538 361.6H470.638L449.202 392.604L472.018 426H454.446L433.01 394.72H427.581V426H412.954ZM473.518 426L497.898 361.6H516.85L541.23 426H525.682L518.782 407.416H495.69L488.698 426H473.518ZM496.334 405.668H518.138L507.282 377.148L496.334 405.668ZM551.942 426V361.6H566.662V392.88H594.63V361.6H609.35V426H594.63V394.72H566.662V426H551.942ZM627.411 426V361.6H642.131V392.88H670.099V361.6H684.819V426H670.099V394.72H642.131V426H627.411ZM714.931 396.836C710.515 395.609 707.081 393.524 704.627 390.58C702.174 387.636 700.947 384.079 700.947 379.908C700.947 374.204 703.278 369.727 707.939 366.476C712.601 363.225 719.01 361.6 727.167 361.6H752.283V426H737.563V398.308H731.583C731.461 398.308 731.338 398.308 731.215 398.308C731.093 398.308 730.97 398.277 730.847 398.216C730.786 398.216 730.694 398.216 730.571 398.216C730.449 398.216 730.326 398.216 730.203 398.216L710.883 426H694.599L714.931 396.836ZM728.731 396.468H737.563V374.388H728.731C724.806 374.388 721.647 375.4 719.255 377.424C716.863 379.448 715.667 382.116 715.667 385.428C715.667 388.74 716.863 391.408 719.255 393.432C721.647 395.456 724.806 396.468 728.731 396.468Z" fill="black"/>
<path d="M482.692 53.772L475.7 31.324H490.696L483.612 53.772H482.692ZM497.136 53.772L490.144 31.324H505.14L498.056 53.772H497.136ZM516.903 96V31.6H531.531V62.88H537.051L558.487 31.6H574.587L553.151 62.604L575.967 96H558.395L536.959 64.72H531.531V96H516.903ZM586.711 96V31.6H618.175C624.738 31.6 629.89 33.072 633.631 36.016C637.434 38.96 639.335 43.008 639.335 48.16C639.335 51.9013 638.293 55.06 636.207 57.636C634.183 60.212 631.301 62.0827 627.559 63.248V63.708C631.853 64.7507 635.226 66.652 637.679 69.412C640.133 72.172 641.359 75.5147 641.359 79.44C641.359 82.752 640.501 85.6653 638.783 88.18C637.127 90.6947 634.735 92.6267 631.607 93.976C628.541 95.3253 624.953 96 620.843 96H586.711ZM615.599 82.2C618.727 82.2 621.242 81.4027 623.143 79.808C625.045 78.152 625.995 76.036 625.995 73.46C625.995 70.8227 625.014 68.7067 623.051 67.112C621.15 65.5173 618.666 64.72 615.599 64.72H601.431V82.2H615.599ZM614.311 62.88C617.439 62.88 619.954 62.0827 621.855 60.488C623.757 58.832 624.707 56.716 624.707 54.14C624.707 51.5027 623.757 49.3867 621.855 47.792C619.954 46.1973 617.439 45.4 614.311 45.4H601.431V62.88H614.311ZM645.928 96L670.308 31.6H689.26L713.64 96H698.092L691.192 77.416H668.1L661.108 96H645.928ZM668.744 75.668H690.548L679.692 47.148L668.744 75.668ZM717.36 109.432V82.568H724.628C725.732 77.3547 726.529 71.988 727.02 66.468C727.511 60.8867 727.756 54.1093 727.756 46.136C727.756 45.6453 727.756 45.1547 727.756 44.664C727.756 44.112 727.756 43.5293 727.756 42.916V31.6H779.368V82.568H788.2V109.432H774.124V96H731.436V109.432H717.36ZM738.704 82.844H764.924V44.756H742.016V49.356C741.955 56.2867 741.648 62.3587 741.096 67.572C740.605 72.724 739.808 77.8147 738.704 82.844ZM800.45 96V31.6H825.474C833.57 31.6 839.948 33.256 844.61 36.568C849.271 39.8187 851.602 44.296 851.602 50C851.602 55.704 849.424 60.212 845.07 63.524C840.776 66.7747 834.888 68.4 827.406 68.4H815.17V96H800.45ZM823.818 66.56C827.804 66.56 830.963 65.548 833.294 63.524C835.686 61.5 836.882 58.832 836.882 55.52C836.882 52.1467 835.686 49.448 833.294 47.424C830.963 45.4 827.804 44.388 823.818 44.388H815.17V66.56H823.818ZM852.029 96L876.409 31.6H895.361L919.741 96H904.193L897.293 77.416H874.201L867.209 96H852.029ZM874.845 75.668H896.649L885.793 47.148L874.845 75.668ZM941.266 96V45.768H918.082V31.6H979.078V45.768H955.986V96H941.266ZM991.387 53.772L984.395 31.324H999.391L992.307 53.772H991.387ZM1005.83 53.772L998.839 31.324H1013.83L1006.75 53.772H1005.83Z" fill="#FF9F42"/>
<line x1="1280" y1="0.5" x2="280" y2="0.500087" stroke="#FF9F42"/>
<path d="M109.4 71V56.6H120.43V71H118.96V58.01H110.87V71H109.4ZM128.078 71.3C127.085 71.3 126.245 71.05 125.558 70.55C124.871 70.0433 124.351 69.36 123.998 68.5C123.645 67.6333 123.468 66.6633 123.468 65.59C123.468 64.4967 123.645 63.5233 123.998 62.67C124.358 61.81 124.885 61.1333 125.578 60.64C126.271 60.1467 127.125 59.9 128.138 59.9C129.125 59.9 129.971 60.15 130.678 60.65C131.385 61.15 131.925 61.83 132.298 62.69C132.678 63.55 132.868 64.5167 132.868 65.59C132.868 66.67 132.678 67.64 132.298 68.5C131.918 69.36 131.371 70.0433 130.658 70.55C129.945 71.05 129.085 71.3 128.078 71.3ZM123.218 75.8V60.2H124.538V68.33H124.698V75.8H123.218ZM127.928 69.93C128.681 69.93 129.308 69.74 129.808 69.36C130.308 68.98 130.681 68.4633 130.928 67.81C131.181 67.15 131.308 66.41 131.308 65.59C131.308 64.7767 131.185 64.0433 130.938 63.39C130.691 62.7367 130.315 62.22 129.808 61.84C129.308 61.46 128.671 61.27 127.898 61.27C127.145 61.27 126.518 61.4533 126.018 61.82C125.525 62.1867 125.155 62.6967 124.908 63.35C124.661 63.9967 124.538 64.7433 124.538 65.59C124.538 66.4233 124.661 67.17 124.908 67.83C125.155 68.4833 125.528 68.9967 126.028 69.37C126.528 69.7433 127.161 69.93 127.928 69.93ZM139.574 71.3C138.501 71.3 137.584 71.0567 136.824 70.57C136.064 70.0833 135.481 69.41 135.074 68.55C134.667 67.69 134.464 66.7033 134.464 65.59C134.464 64.4567 134.671 63.4633 135.084 62.61C135.497 61.7567 136.084 61.0933 136.844 60.62C137.611 60.14 138.521 59.9 139.574 59.9C140.654 59.9 141.574 60.1433 142.334 60.63C143.101 61.11 143.684 61.78 144.084 62.64C144.491 63.4933 144.694 64.4767 144.694 65.59C144.694 66.7233 144.491 67.72 144.084 68.58C143.677 69.4333 143.091 70.1 142.324 70.58C141.557 71.06 140.641 71.3 139.574 71.3ZM139.574 69.89C140.774 69.89 141.667 69.4933 142.254 68.7C142.841 67.9 143.134 66.8633 143.134 65.59C143.134 64.2833 142.837 63.2433 142.244 62.47C141.657 61.6967 140.767 61.31 139.574 61.31C138.767 61.31 138.101 61.4933 137.574 61.86C137.054 62.22 136.664 62.7233 136.404 63.37C136.151 64.01 136.024 64.75 136.024 65.59C136.024 66.89 136.324 67.9333 136.924 68.72C137.524 69.5 138.407 69.89 139.574 69.89ZM150.894 71V60.2H159.484V71H158.014V61.61H152.364V71H150.894ZM167.141 71.3C166.147 71.3 165.307 71.05 164.621 70.55C163.934 70.0433 163.414 69.36 163.061 68.5C162.707 67.6333 162.531 66.6633 162.531 65.59C162.531 64.4967 162.707 63.5233 163.061 62.67C163.421 61.81 163.947 61.1333 164.641 60.64C165.334 60.1467 166.187 59.9 167.201 59.9C168.187 59.9 169.034 60.15 169.741 60.65C170.447 61.15 170.987 61.83 171.361 62.69C171.741 63.55 171.931 64.5167 171.931 65.59C171.931 66.67 171.741 67.64 171.361 68.5C170.981 69.36 170.434 70.0433 169.721 70.55C169.007 71.05 168.147 71.3 167.141 71.3ZM162.281 75.8V60.2H163.601V68.33H163.761V75.8H162.281ZM166.991 69.93C167.744 69.93 168.371 69.74 168.871 69.36C169.371 68.98 169.744 68.4633 169.991 67.81C170.244 67.15 170.371 66.41 170.371 65.59C170.371 64.7767 170.247 64.0433 170.001 63.39C169.754 62.7367 169.377 62.22 168.871 61.84C168.371 61.46 167.734 61.27 166.961 61.27C166.207 61.27 165.581 61.4533 165.081 61.82C164.587 62.1867 164.217 62.6967 163.971 63.35C163.724 63.9967 163.601 64.7433 163.601 65.59C163.601 66.4233 163.724 67.17 163.971 67.83C164.217 68.4833 164.591 68.9967 165.091 69.37C165.591 69.7433 166.224 69.93 166.991 69.93ZM178.637 71.3C177.563 71.3 176.647 71.0567 175.887 70.57C175.127 70.0833 174.543 69.41 174.137 68.55C173.73 67.69 173.527 66.7033 173.527 65.59C173.527 64.4567 173.733 63.4633 174.147 62.61C174.56 61.7567 175.147 61.0933 175.907 60.62C176.673 60.14 177.583 59.9 178.637 59.9C179.717 59.9 180.637 60.1433 181.397 60.63C182.163 61.11 182.747 61.78 183.147 62.64C183.553 63.4933 183.757 64.4767 183.757 65.59C183.757 66.7233 183.553 67.72 183.147 68.58C182.74 69.4333 182.153 70.1 181.387 70.58C180.62 71.06 179.703 71.3 178.637 71.3ZM178.637 69.89C179.837 69.89 180.73 69.4933 181.317 68.7C181.903 67.9 182.197 66.8633 182.197 65.59C182.197 64.2833 181.9 63.2433 181.307 62.47C180.72 61.6967 179.83 61.31 178.637 61.31C177.83 61.31 177.163 61.4933 176.637 61.86C176.117 62.22 175.727 62.7233 175.467 63.37C175.213 64.01 175.087 64.75 175.087 65.59C175.087 66.89 175.387 67.9333 175.987 68.72C176.587 69.5 177.47 69.89 178.637 69.89ZM190.433 71.3C189.366 71.3 188.456 71.0633 187.703 70.59C186.949 70.11 186.369 69.4433 185.963 68.59C185.563 67.7367 185.363 66.7433 185.363 65.61C185.363 64.47 185.563 63.4733 185.963 62.62C186.363 61.76 186.939 61.0933 187.693 60.62C188.446 60.14 189.349 59.9 190.403 59.9C191.529 59.9 192.496 60.1667 193.303 60.7C194.116 61.2333 194.673 61.9633 194.973 62.89L193.533 63.35C193.273 62.6967 192.869 62.1933 192.323 61.84C191.776 61.4867 191.139 61.31 190.413 61.31C189.339 61.31 188.519 61.65 187.953 62.33C187.386 63.0033 187.059 63.8833 186.973 64.97H191.803V66.23H186.973C187.066 67.3433 187.399 68.2333 187.973 68.9C188.553 69.56 189.376 69.89 190.442 69.89C191.176 69.89 191.799 69.7233 192.313 69.39C192.833 69.05 193.226 68.5567 193.493 67.91L194.973 68.35C194.573 69.31 193.986 70.0433 193.213 70.55C192.439 71.05 191.513 71.3 190.433 71.3ZM197.027 71L197.037 60.2H198.517V65.4L203.337 60.2H205.297L200.237 65.6L205.957 71H203.817L198.517 65.8V71H197.027ZM209.889 71V61.56H206.059V60.2H215.189V61.56H211.359V71H209.889Z" fill="#FF9F42"/>
<line y1="64.5" x2="88" y2="64.5" stroke="#FF9F42"/>
<line x1="808" y1="395.5" x2="1279" y2="395.5" stroke="#FF9F42"/>
<line x1="1279.5" y1="396" x2="1279.5" y2="138" stroke="#FF9F42"/>
<line x1="0.5" y1="64" x2="0.499989" y2="312" stroke="#FF9F42"/>
</svg>
