<svg width="320" height="148" viewBox="0 0 320 148" fill="none" xmlns="http://www.w3.org/2000/svg">
<path d="M14.532 45L20.972 34.836L14.924 25.4H19.74L25.788 34.92H27.608V25.4H32.088V34.92H33.852L39.928 25.4H44.744L38.668 34.836L45.164 45H39.9L33.824 35.48H32.088V45H27.608V35.48H25.844L19.768 45H14.532ZM48.4081 45V25.4H52.8601V34.92H54.5401L61.0641 25.4H65.9641L59.4401 34.836L66.3841 45H61.0361L54.5121 35.48H52.8601V45H48.4081ZM243.651 45.28C242.904 45.28 242.269 45.028 241.747 44.524C241.243 44.0013 240.991 43.3667 240.991 42.62C240.991 41.8547 241.243 41.22 241.747 40.716C242.269 40.212 242.904 39.96 243.651 39.96C244.397 39.96 245.023 40.212 245.527 40.716C246.049 41.22 246.311 41.8547 246.311 42.62C246.311 43.3667 246.049 44.0013 245.527 44.524C245.023 45.028 244.397 45.28 243.651 45.28ZM243.651 36.432C242.904 36.432 242.269 36.18 241.747 35.676C241.243 35.1533 240.991 34.5187 240.991 33.772C240.991 33.0067 241.243 32.372 241.747 31.868C242.269 31.364 242.904 31.112 243.651 31.112C244.397 31.112 245.023 31.364 245.527 31.868C246.049 32.372 246.311 33.0067 246.311 33.772C246.311 34.5187 246.049 35.1533 245.527 35.676C245.023 36.18 244.397 36.432 243.651 36.432ZM60.312 83.088V79H44.744V59.4H49.224V74.912H57.736V59.4H62.216V74.912H64.596V83.088H60.312ZM68.3143 79V59.4H81.8383V63.292H72.7103V68.92H78.9263V69.48H72.7103V75.108H82.6503V79H68.3143ZM93.7987 79V59.4H103.375C105.372 59.4 106.94 59.848 108.079 60.744C109.236 61.64 109.815 62.872 109.815 64.44C109.815 65.5787 109.497 66.54 108.863 67.324C108.247 68.108 107.369 68.6773 106.231 69.032V69.172C107.537 69.4893 108.564 70.068 109.311 70.908C110.057 71.748 110.431 72.7653 110.431 73.96C110.431 74.968 110.169 75.8547 109.647 76.62C109.143 77.3853 108.415 77.9733 107.463 78.384C106.529 78.7947 105.437 79 104.187 79H93.7987ZM102.591 74.8C103.543 74.8 104.308 74.5573 104.887 74.072C105.465 73.568 105.755 72.924 105.755 72.14C105.755 71.3373 105.456 70.6933 104.859 70.208C104.28 69.7227 103.524 69.48 102.591 69.48H98.2787V74.8H102.591ZM102.199 68.92C103.151 68.92 103.916 68.6773 104.495 68.192C105.073 67.688 105.363 67.044 105.363 66.26C105.363 65.4573 105.073 64.8133 104.495 64.328C103.916 63.8427 103.151 63.6 102.199 63.6H98.2787V68.92H102.199ZM119.019 79V63.712H111.963V59.4H130.527V63.712H123.499V79H119.019ZM134.021 79V59.4H138.501V79H134.021ZM144.17 79.392C143.628 79.392 143.152 79.3547 142.742 79.28C142.331 79.2053 141.976 79.112 141.678 79V74.688C141.696 74.688 141.706 74.688 141.706 74.688C142.042 74.744 142.35 74.7813 142.63 74.8C142.928 74.8187 143.255 74.828 143.61 74.828C143.834 74.828 144.039 74.7813 144.226 74.688C144.412 74.576 144.571 74.4173 144.702 74.212C144.851 74.0067 144.963 73.7453 145.038 73.428C145.299 72.5133 145.476 71.132 145.57 69.284C145.682 67.436 145.738 65.1867 145.738 62.536V59.4H161.25V79H156.77V63.712H150.022V64.524C150.003 67.212 149.882 69.6667 149.658 71.888C149.452 74.1093 149.088 75.7333 148.566 76.76C148.118 77.656 147.539 78.3187 146.83 78.748C146.12 79.1773 145.234 79.392 144.17 79.392ZM166.752 79V59.4H180.276V63.292H171.148V68.92H177.364V69.48H171.148V75.108H181.088V79H166.752ZM185.236 79V59.4H189.716V68.92H198.228V59.4H202.708V79H198.228V69.48H189.716V79H185.236ZM208.205 79V59.4H212.685V68.92H221.197V59.4H225.677V79H221.197V69.48H212.685V79H208.205ZM234.842 70.124C233.498 69.7507 232.452 69.116 231.706 68.22C230.959 67.324 230.586 66.2413 230.586 64.972C230.586 63.236 231.295 61.8733 232.714 60.884C234.132 59.8947 236.083 59.4 238.566 59.4H246.21V79H241.73V70.572H239.91C239.872 70.572 239.835 70.572 239.798 70.572C239.76 70.572 239.723 70.5627 239.686 70.544C239.667 70.544 239.639 70.544 239.602 70.544C239.564 70.544 239.527 70.544 239.49 70.544L233.61 79H228.654L234.842 70.124ZM239.042 70.012H241.73V63.292H239.042C237.847 63.292 236.886 63.6 236.158 64.216C235.43 64.832 235.066 65.644 235.066 66.652C235.066 67.66 235.43 68.472 236.158 69.088C236.886 69.704 237.847 70.012 239.042 70.012ZM95.508 113.42C93.5667 113.42 91.8213 112.981 90.272 112.104C88.7413 111.227 87.5373 110.013 86.66 108.464C85.8013 106.915 85.372 105.16 85.372 103.2C85.372 101.24 85.8013 99.4853 86.66 97.936C87.5373 96.3867 88.7413 95.1733 90.272 94.296C91.8213 93.4187 93.5667 92.98 95.508 92.98C97.2067 92.98 98.756 93.344 100.156 94.072C101.575 94.7813 102.713 95.78 103.572 97.068C104.449 98.356 104.953 99.8027 105.084 101.408H100.548C100.38 100.587 100.053 99.8773 99.568 99.28C99.1013 98.664 98.5133 98.188 97.804 97.852C97.1133 97.516 96.3293 97.348 95.452 97.348C94.388 97.348 93.436 97.6 92.596 98.104C91.7747 98.608 91.1307 99.308 90.664 100.204C90.1973 101.081 89.964 102.08 89.964 103.2C89.964 104.32 90.1973 105.328 90.664 106.224C91.1307 107.101 91.7747 107.792 92.596 108.296C93.436 108.781 94.388 109.024 95.452 109.024C96.3293 109.024 97.1133 108.865 97.804 108.548C98.5133 108.212 99.1013 107.745 99.568 107.148C100.053 106.532 100.38 105.813 100.548 104.992H105.084C104.953 106.597 104.449 108.044 103.572 109.332C102.713 110.62 101.575 111.628 100.156 112.356C98.756 113.065 97.2067 113.42 95.508 113.42ZM114.164 113.42C112.932 113.42 111.822 113.168 110.832 112.664C109.862 112.141 109.096 111.413 108.536 110.48C107.995 109.547 107.724 108.483 107.724 107.288V106.28H112.12V107.372C112.12 108.044 112.298 108.595 112.652 109.024C113.026 109.435 113.511 109.64 114.108 109.64C114.594 109.64 114.967 109.519 115.228 109.276C115.508 109.015 115.648 108.679 115.648 108.268C115.648 107.745 115.48 107.223 115.144 106.7L106.38 93.4H111.728L117.608 103.2C117.702 103.349 117.786 103.517 117.86 103.704C117.935 103.872 118 104.059 118.056 104.264L121.304 93.4H125.868L120.996 107.652C120.343 109.593 119.456 111.04 118.336 111.992C117.235 112.944 115.844 113.42 114.164 113.42ZM140.085 113V104.6H136.865C133.897 104.6 131.657 104.049 130.145 102.948C128.651 101.847 127.905 100.204 127.905 98.02V93.4H132.385V99.448C132.385 100.96 132.758 102.108 133.505 102.892C134.27 103.657 135.39 104.04 136.865 104.04H140.085V93.4H144.565V113H140.085ZM147.833 113L155.253 93.4H161.021L168.441 113H163.709L161.609 107.344H154.581L152.453 113H147.833ZM154.777 106.812H161.413L158.109 98.132L154.777 106.812ZM179.672 113.42C177.731 113.42 175.985 112.981 174.436 112.104C172.905 111.227 171.701 110.013 170.824 108.464C169.965 106.915 169.536 105.16 169.536 103.2C169.536 101.24 169.965 99.4853 170.824 97.936C171.701 96.3867 172.905 95.1733 174.436 94.296C175.985 93.4187 177.731 92.98 179.672 92.98C181.371 92.98 182.92 93.344 184.32 94.072C185.739 94.7813 186.877 95.78 187.736 97.068C188.613 98.356 189.117 99.8027 189.248 101.408H184.712C184.544 100.587 184.217 99.8773 183.732 99.28C183.265 98.664 182.677 98.188 181.968 97.852C181.277 97.516 180.493 97.348 179.616 97.348C178.552 97.348 177.6 97.6 176.76 98.104C175.939 98.608 175.295 99.308 174.828 100.204C174.361 101.081 174.128 102.08 174.128 103.2C174.128 104.32 174.361 105.328 174.828 106.224C175.295 107.101 175.939 107.792 176.76 108.296C177.6 108.781 178.552 109.024 179.616 109.024C180.493 109.024 181.277 108.865 181.968 108.548C182.677 108.212 183.265 107.745 183.732 107.148C184.217 106.532 184.544 105.813 184.712 104.992H189.248C189.117 106.597 188.613 108.044 187.736 109.332C186.877 110.62 185.739 111.628 184.32 112.356C182.92 113.065 181.371 113.42 179.672 113.42ZM193.111 113V93.4H197.591V102.92H206.103V93.4H210.583V113H206.103V103.48H197.591V113H193.111ZM224.601 113.42C222.66 113.42 220.905 112.981 219.337 112.104C217.769 111.208 216.537 109.985 215.641 108.436C214.764 106.868 214.325 105.123 214.325 103.2C214.325 101.277 214.764 99.5413 215.641 97.992C216.537 96.424 217.769 95.2013 219.337 94.324C220.905 93.428 222.66 92.98 224.601 92.98C226.542 92.98 228.297 93.428 229.865 94.324C231.433 95.2013 232.656 96.424 233.533 97.992C234.429 99.5413 234.877 101.277 234.877 103.2C234.877 105.123 234.429 106.868 233.533 108.436C232.656 109.985 231.433 111.208 229.865 112.104C228.297 112.981 226.542 113.42 224.601 113.42ZM224.601 109.024C225.684 109.024 226.654 108.772 227.513 108.268C228.39 107.764 229.072 107.073 229.557 106.196C230.061 105.3 230.313 104.301 230.313 103.2C230.313 102.099 230.061 101.109 229.557 100.232C229.072 99.336 228.39 98.636 227.513 98.132C226.654 97.6093 225.684 97.348 224.601 97.348C223.518 97.348 222.548 97.6093 221.689 98.132C220.83 98.636 220.149 99.336 219.645 100.232C219.16 101.109 218.917 102.099 218.917 103.2C218.917 104.301 219.16 105.3 219.645 106.196C220.149 107.073 220.83 107.764 221.689 108.268C222.548 108.772 223.518 109.024 224.601 109.024ZM238.611 113V93.4H252.723V97.712H243.091V113H238.611ZM263.921 113.42C261.98 113.42 260.225 112.981 258.657 112.104C257.089 111.208 255.857 109.985 254.961 108.436C254.084 106.868 253.645 105.123 253.645 103.2C253.645 101.277 254.084 99.5413 254.961 97.992C255.857 96.424 257.089 95.2013 258.657 94.324C260.225 93.428 261.98 92.98 263.921 92.98C265.863 92.98 267.617 93.428 269.185 94.324C270.753 95.2013 271.976 96.424 272.853 97.992C273.749 99.5413 274.197 101.277 274.197 103.2C274.197 105.123 273.749 106.868 272.853 108.436C271.976 109.985 270.753 111.208 269.185 112.104C267.617 112.981 265.863 113.42 263.921 113.42ZM263.921 109.024C265.004 109.024 265.975 108.772 266.833 108.268C267.711 107.764 268.392 107.073 268.877 106.196C269.381 105.3 269.633 104.301 269.633 103.2C269.633 102.099 269.381 101.109 268.877 100.232C268.392 99.336 267.711 98.636 266.833 98.132C265.975 97.6093 265.004 97.348 263.921 97.348C262.839 97.348 261.868 97.6093 261.009 98.132C260.151 98.636 259.469 99.336 258.965 100.232C258.48 101.109 258.237 102.099 258.237 103.2C258.237 104.301 258.48 105.3 258.965 106.196C259.469 107.073 260.151 107.764 261.009 108.268C261.868 108.772 262.839 109.024 263.921 109.024ZM2.744 147V127.4H20.216V147H15.736V131.712H7.224V147H2.744ZM34.2339 147.42C32.2926 147.42 30.5379 146.981 28.9699 146.104C27.4019 145.208 26.1699 143.985 25.2739 142.436C24.3966 140.868 23.9579 139.123 23.9579 137.2C23.9579 135.277 24.3966 133.541 25.2739 131.992C26.1699 130.424 27.4019 129.201 28.9699 128.324C30.5379 127.428 32.2926 126.98 34.2339 126.98C36.1753 126.98 37.9299 127.428 39.4979 128.324C41.0659 129.201 42.2886 130.424 43.1659 131.992C44.0619 133.541 44.5099 135.277 44.5099 137.2C44.5099 139.123 44.0619 140.868 43.1659 142.436C42.2886 143.985 41.0659 145.208 39.4979 146.104C37.9299 146.981 36.1753 147.42 34.2339 147.42ZM34.2339 143.024C35.3166 143.024 36.2873 142.772 37.1459 142.268C38.0233 141.764 38.7046 141.073 39.1899 140.196C39.6939 139.3 39.9459 138.301 39.9459 137.2C39.9459 136.099 39.6939 135.109 39.1899 134.232C38.7046 133.336 38.0233 132.636 37.1459 132.132C36.2873 131.609 35.3166 131.348 34.2339 131.348C33.1513 131.348 32.1806 131.609 31.3219 132.132C30.4633 132.636 29.7819 133.336 29.2779 134.232C28.7926 135.109 28.5499 136.099 28.5499 137.2C28.5499 138.301 28.7926 139.3 29.2779 140.196C29.7819 141.073 30.4633 141.764 31.3219 142.268C32.1806 142.772 33.1513 143.024 34.2339 143.024ZM48.244 147V127.4H52.836L58.996 146.188L65.184 127.4H69.748V147H65.268V129.108L59.332 147H58.66L52.724 129.108V147H48.244ZM75.2323 147V127.4H88.7563V131.292H79.6283V136.92H85.8443V137.48H79.6283V143.108H89.5683V147H75.2323ZM93.7167 147V127.4H98.1967V142.912H104.721V127.4H109.201V142.912H115.725V127.4H120.205V147H93.7167ZM125.682 147V127.4H130.133V136.92H131.814L138.338 127.4H143.238L136.714 136.836L143.658 147H138.31L131.786 137.48H130.133V147H125.682ZM144.114 147L151.534 127.4H157.302L164.722 147H159.99L157.89 141.344H150.862L148.734 147H144.114ZM151.058 140.812H157.694L154.39 132.132L151.058 140.812ZM167.982 147V127.4H172.462V136.92H180.974V127.4H185.454V147H180.974V137.48H172.462V147H167.982ZM190.951 147V127.4H195.431V136.92H203.943V127.4H208.423V147H203.943V137.48H195.431V147H190.951ZM217.588 138.124C216.244 137.751 215.198 137.116 214.452 136.22C213.705 135.324 213.332 134.241 213.332 132.972C213.332 131.236 214.041 129.873 215.46 128.884C216.878 127.895 218.829 127.4 221.312 127.4H228.956V147H224.476V138.572H222.656C222.618 138.572 222.581 138.572 222.544 138.572C222.506 138.572 222.469 138.563 222.432 138.544C222.413 138.544 222.385 138.544 222.348 138.544C222.31 138.544 222.273 138.544 222.236 138.544L216.356 147H211.4L217.588 138.124ZM221.788 138.012H224.476V131.292H221.788C220.593 131.292 219.632 131.6 218.904 132.216C218.176 132.832 217.812 133.644 217.812 134.652C217.812 135.66 218.176 136.472 218.904 137.088C219.632 137.704 220.593 138.012 221.788 138.012Z" fill="black"/>
<path d="M76.9062 32.148L74.7782 25.316H79.3422L77.1862 32.148H76.9062ZM81.3022 32.148L79.1742 25.316H83.7382L81.5822 32.148H81.3022ZM87.3182 45V25.4H91.7702V34.92H93.4502L99.9742 25.4H104.874L98.3502 34.836L105.294 45H99.9462L93.4222 35.48H91.7702V45H87.3182ZM108.564 45V25.4H118.14C120.138 25.4 121.706 25.848 122.844 26.744C124.002 27.64 124.58 28.872 124.58 30.44C124.58 31.5787 124.263 32.54 123.628 33.324C123.012 34.108 122.135 34.6773 120.996 35.032V35.172C122.303 35.4893 123.33 36.068 124.076 36.908C124.823 37.748 125.196 38.7653 125.196 39.96C125.196 40.968 124.935 41.8547 124.412 42.62C123.908 43.3853 123.18 43.9733 122.228 44.384C121.295 44.7947 120.203 45 118.952 45H108.564ZM117.356 40.8C118.308 40.8 119.074 40.5573 119.652 40.072C120.231 39.568 120.52 38.924 120.52 38.14C120.52 37.3373 120.222 36.6933 119.624 36.208C119.046 35.7227 118.29 35.48 117.356 35.48H113.044V40.8H117.356ZM116.964 34.92C117.916 34.92 118.682 34.6773 119.26 34.192C119.839 33.688 120.128 33.044 120.128 32.26C120.128 31.4573 119.839 30.8133 119.26 30.328C118.682 29.8427 117.916 29.6 116.964 29.6H113.044V34.92H116.964ZM126.587 45L134.007 25.4H139.775L147.195 45H142.463L140.363 39.344H133.335L131.207 45H126.587ZM133.531 38.812H140.167L136.863 30.132L133.531 38.812ZM148.327 49.088V40.912H150.539C150.875 39.3253 151.118 37.692 151.267 36.012C151.416 34.3133 151.491 32.2507 151.491 29.824C151.491 29.6747 151.491 29.5253 151.491 29.376C151.491 29.208 151.491 29.0307 151.491 28.844V25.4H167.199V40.912H169.887V49.088H165.603V45H152.611V49.088H148.327ZM154.823 40.996H162.803V29.404H155.831V30.804C155.812 32.9133 155.719 34.7613 155.551 36.348C155.402 37.916 155.159 39.4653 154.823 40.996ZM173.615 45V25.4H181.231C183.695 25.4 185.636 25.904 187.055 26.912C188.474 27.9013 189.183 29.264 189.183 31C189.183 32.736 188.52 34.108 187.195 35.116C185.888 36.1053 184.096 36.6 181.819 36.6H178.095V45H173.615ZM180.727 36.04C181.94 36.04 182.902 35.732 183.611 35.116C184.339 34.5 184.703 33.688 184.703 32.68C184.703 31.6533 184.339 30.832 183.611 30.216C182.902 29.6 181.94 29.292 180.727 29.292H178.095V36.04H180.727ZM189.313 45L196.733 25.4H202.501L209.921 45H205.189L203.089 39.344H196.061L193.933 45H189.313ZM196.257 38.812H202.893L199.589 30.132L196.257 38.812ZM216.472 45V29.712H209.416V25.4H227.98V29.712H220.952V45H216.472ZM231.726 32.148L229.598 25.316H234.162L232.006 32.148H231.726ZM236.122 32.148L233.994 25.316H238.558L236.402 32.148H236.122Z" fill="#FF9F42"/>
<path d="M85.84 9V0.36H92.458V9H91.576V1.206H86.722V9H85.84ZM97.0469 9.18C96.4509 9.18 95.9469 9.03 95.5349 8.73C95.1229 8.426 94.8109 8.016 94.5989 7.5C94.3869 6.98 94.2809 6.398 94.2809 5.754C94.2809 5.098 94.3869 4.514 94.5989 4.002C94.8149 3.486 95.1309 3.08 95.5469 2.784C95.9629 2.488 96.4749 2.34 97.0829 2.34C97.6749 2.34 98.1829 2.49 98.6069 2.79C99.0309 3.09 99.3549 3.498 99.5789 4.014C99.8069 4.53 99.9209 5.11 99.9209 5.754C99.9209 6.402 99.8069 6.984 99.5789 7.5C99.3509 8.016 99.0229 8.426 98.5949 8.73C98.1669 9.03 97.6509 9.18 97.0469 9.18ZM94.1309 11.88V2.52H94.9229V7.398H95.0189V11.88H94.1309ZM96.9569 8.358C97.4089 8.358 97.7849 8.244 98.0849 8.016C98.3849 7.788 98.6089 7.478 98.7569 7.086C98.9089 6.69 98.9849 6.246 98.9849 5.754C98.9849 5.266 98.9109 4.826 98.7629 4.434C98.6149 4.042 98.3889 3.732 98.0849 3.504C97.7849 3.276 97.4029 3.162 96.9389 3.162C96.4869 3.162 96.1109 3.272 95.8109 3.492C95.5149 3.712 95.2929 4.018 95.1449 4.41C94.9969 4.798 94.9229 5.246 94.9229 5.754C94.9229 6.254 94.9969 6.702 95.1449 7.098C95.2929 7.49 95.5169 7.798 95.8169 8.022C96.1169 8.246 96.4969 8.358 96.9569 8.358ZM103.944 9.18C103.3 9.18 102.75 9.034 102.294 8.742C101.838 8.45 101.488 8.046 101.244 7.53C101 7.014 100.878 6.422 100.878 5.754C100.878 5.074 101.002 4.478 101.25 3.966C101.498 3.454 101.85 3.056 102.306 2.772C102.766 2.484 103.312 2.34 103.944 2.34C104.592 2.34 105.144 2.486 105.6 2.778C106.06 3.066 106.41 3.468 106.65 3.984C106.894 4.496 107.016 5.086 107.016 5.754C107.016 6.434 106.894 7.032 106.65 7.548C106.406 8.06 106.054 8.46 105.594 8.748C105.134 9.036 104.584 9.18 103.944 9.18ZM103.944 8.334C104.664 8.334 105.2 8.096 105.552 7.62C105.904 7.14 106.08 6.518 106.08 5.754C106.08 4.97 105.902 4.346 105.546 3.882C105.194 3.418 104.66 3.186 103.944 3.186C103.46 3.186 103.06 3.296 102.744 3.516C102.432 3.732 102.198 4.034 102.042 4.422C101.89 4.806 101.814 5.25 101.814 5.754C101.814 6.534 101.994 7.16 102.354 7.632C102.714 8.1 103.244 8.334 103.944 8.334ZM110.736 9V2.52H115.89V9H115.008V3.366H111.618V9H110.736ZM120.484 9.18C119.888 9.18 119.384 9.03 118.972 8.73C118.56 8.426 118.248 8.016 118.036 7.5C117.824 6.98 117.718 6.398 117.718 5.754C117.718 5.098 117.824 4.514 118.036 4.002C118.252 3.486 118.568 3.08 118.984 2.784C119.4 2.488 119.912 2.34 120.52 2.34C121.112 2.34 121.62 2.49 122.044 2.79C122.468 3.09 122.792 3.498 123.016 4.014C123.244 4.53 123.358 5.11 123.358 5.754C123.358 6.402 123.244 6.984 123.016 7.5C122.788 8.016 122.46 8.426 122.032 8.73C121.604 9.03 121.088 9.18 120.484 9.18ZM117.568 11.88V2.52H118.36V7.398H118.456V11.88H117.568ZM120.394 8.358C120.846 8.358 121.222 8.244 121.522 8.016C121.822 7.788 122.046 7.478 122.194 7.086C122.346 6.69 122.422 6.246 122.422 5.754C122.422 5.266 122.348 4.826 122.2 4.434C122.052 4.042 121.826 3.732 121.522 3.504C121.222 3.276 120.84 3.162 120.376 3.162C119.924 3.162 119.548 3.272 119.248 3.492C118.952 3.712 118.73 4.018 118.582 4.41C118.434 4.798 118.36 5.246 118.36 5.754C118.36 6.254 118.434 6.702 118.582 7.098C118.73 7.49 118.954 7.798 119.254 8.022C119.554 8.246 119.934 8.358 120.394 8.358ZM127.382 9.18C126.738 9.18 126.188 9.034 125.732 8.742C125.276 8.45 124.926 8.046 124.682 7.53C124.438 7.014 124.316 6.422 124.316 5.754C124.316 5.074 124.44 4.478 124.688 3.966C124.936 3.454 125.288 3.056 125.744 2.772C126.204 2.484 126.75 2.34 127.382 2.34C128.03 2.34 128.582 2.486 129.038 2.778C129.498 3.066 129.848 3.468 130.088 3.984C130.332 4.496 130.454 5.086 130.454 5.754C130.454 6.434 130.332 7.032 130.088 7.548C129.844 8.06 129.492 8.46 129.032 8.748C128.572 9.036 128.022 9.18 127.382 9.18ZM127.382 8.334C128.102 8.334 128.638 8.096 128.99 7.62C129.342 7.14 129.518 6.518 129.518 5.754C129.518 4.97 129.34 4.346 128.984 3.882C128.632 3.418 128.098 3.186 127.382 3.186C126.898 3.186 126.498 3.296 126.182 3.516C125.87 3.732 125.636 4.034 125.48 4.422C125.328 4.806 125.252 5.25 125.252 5.754C125.252 6.534 125.432 7.16 125.792 7.632C126.152 8.1 126.682 8.334 127.382 8.334ZM134.46 9.18C133.82 9.18 133.274 9.038 132.822 8.754C132.37 8.466 132.022 8.066 131.778 7.554C131.538 7.042 131.418 6.446 131.418 5.766C131.418 5.082 131.538 4.484 131.778 3.972C132.018 3.456 132.364 3.056 132.816 2.772C133.268 2.484 133.81 2.34 134.442 2.34C135.118 2.34 135.698 2.5 136.182 2.82C136.67 3.14 137.004 3.578 137.184 4.134L136.32 4.41C136.164 4.018 135.922 3.716 135.594 3.504C135.266 3.292 134.884 3.186 134.448 3.186C133.804 3.186 133.312 3.39 132.972 3.798C132.632 4.202 132.436 4.73 132.384 5.382H135.282V6.138H132.384C132.44 6.806 132.64 7.34 132.984 7.74C133.332 8.136 133.826 8.334 134.465 8.334C134.906 8.334 135.28 8.234 135.588 8.034C135.9 7.83 136.136 7.534 136.296 7.146L137.184 7.41C136.944 7.986 136.592 8.426 136.128 8.73C135.664 9.03 135.108 9.18 134.46 9.18ZM138.416 9L138.422 2.52H139.31V5.64L142.202 2.52H143.378L140.342 5.76L143.774 9H142.49L139.31 5.88V9H138.416ZM146.133 9V3.336H143.835V2.52H149.313V3.336H147.015V9H146.133Z" fill="#FF9F42"/>
<line x1="65" y1="5.5" y2="5.5" stroke="#FF9F42"/>
<line x1="0.5" y1="5" x2="0.499995" y2="114" stroke="#FF9F42"/>
<line x1="170" y1="4.5" x2="320" y2="4.49999" stroke="#FF9F42"/>
<line x1="255" y1="137.5" x2="320" y2="137.5" stroke="#FF9F42"/>
</svg>
