<svg width="1254" height="438" viewBox="0 0 1254 438" fill="none" xmlns="http://www.w3.org/2000/svg">
<line x1="-4.37114e-08" y1="7.5" x2="88" y2="7.49999" stroke="#FF9F42"/>
<line x1="0.5" y1="8" x2="0.499995" y2="125" stroke="#FF9F42"/>
<line x1="198" y1="7.5" x2="897" y2="7.5" stroke="#FF9F42"/>
<line x1="1002.5" y1="40" x2="1002.5" y2="125" stroke="#FF9F42"/>
<line x1="1003" y1="124.5" x2="1100" y2="124.5" stroke="#FF9F42"/>
<line x1="1232" y1="437.5" x2="961" y2="437.5" stroke="#FF9F42"/>
<path d="M32.016 104V39.6H80.5V52.388H46.092V67.568H60.72C68.1413 67.568 73.9987 69.1933 78.292 72.444C82.5853 75.6947 84.732 80.1413 84.732 85.784C84.732 91.4267 82.5853 95.8733 78.292 99.124C73.9987 102.375 68.1413 104 60.72 104H32.016ZM57.224 91.212C61.088 91.212 64.1853 90.2307 66.516 88.268C68.8467 86.244 70.012 83.576 70.012 80.264C70.012 76.952 68.8467 74.3147 66.516 72.352C64.1853 70.3893 61.088 69.408 57.224 69.408H46.092V91.212H57.224ZM98.141 104V39.6H112.861V104H98.141ZM131.486 105.288C129.707 105.288 128.143 105.165 126.794 104.92C125.445 104.675 124.279 104.368 123.298 104V89.832C123.359 89.832 123.39 89.832 123.39 89.832C124.494 90.016 125.506 90.1387 126.426 90.2C127.407 90.2613 128.481 90.292 129.646 90.292C130.382 90.292 131.057 90.1387 131.67 89.832C132.283 89.464 132.805 88.9427 133.234 88.268C133.725 87.5933 134.093 86.7347 134.338 85.692C135.197 82.6867 135.779 78.148 136.086 72.076C136.454 66.004 136.638 58.6133 136.638 49.904V39.6H187.606V104H172.886V53.768H150.714V56.436C150.653 65.268 150.254 73.3333 149.518 80.632C148.843 87.9307 147.647 93.2667 145.93 96.64C144.458 99.584 142.557 101.761 140.226 103.172C137.895 104.583 134.982 105.288 131.486 105.288ZM205.684 104V39.6H220.128V67.2H232.824C240.307 67.2 246.195 68.856 250.488 72.168C254.843 75.4187 257.02 79.896 257.02 85.6C257.02 89.4027 255.947 92.684 253.8 95.444C251.715 98.204 248.709 100.32 244.784 101.792C240.859 103.264 236.228 104 230.892 104H205.684ZM229.236 91.212C233.223 91.212 236.381 90.2 238.712 88.176C241.104 86.152 242.3 83.4533 242.3 80.08C242.3 76.768 241.104 74.1 238.712 72.076C236.381 70.052 233.223 69.04 229.236 69.04H220.128V91.212H229.236ZM270.012 104V39.6H284.732V90.568H306.168V39.6H320.888V90.568H342.324V39.6H357.044V104H270.012ZM375.039 104V39.6H419.475V52.388H389.483V70.88H409.907V72.72H389.483V91.212H422.143V104H375.039ZM239.016 214V149.6H270.48C277.043 149.6 282.195 151.072 285.936 154.016C289.739 156.96 291.64 161.008 291.64 166.16C291.64 169.901 290.597 173.06 288.512 175.636C286.488 178.212 283.605 180.083 279.864 181.248V181.708C284.157 182.751 287.531 184.652 289.984 187.412C292.437 190.172 293.664 193.515 293.664 197.44C293.664 200.752 292.805 203.665 291.088 206.18C289.432 208.695 287.04 210.627 283.912 211.976C280.845 213.325 277.257 214 273.148 214H239.016ZM267.904 200.2C271.032 200.2 273.547 199.403 275.448 197.808C277.349 196.152 278.3 194.036 278.3 191.46C278.3 188.823 277.319 186.707 275.356 185.112C273.455 183.517 270.971 182.72 267.904 182.72H253.736V200.2H267.904ZM266.616 180.88C269.744 180.88 272.259 180.083 274.16 178.488C276.061 176.832 277.012 174.716 277.012 172.14C277.012 169.503 276.061 167.387 274.16 165.792C272.259 164.197 269.744 163.4 266.616 163.4H253.736V180.88H266.616ZM297.514 214L318.674 180.604L298.802 149.6H314.626L334.498 180.88H340.478V149.6H355.198V180.88H360.994L380.958 149.6H396.782L376.818 180.604L398.162 214H380.866L360.902 182.72H355.198V214H340.478V182.72H334.682L314.718 214H297.514ZM408.821 214V149.6H453.257V162.388H423.265V180.88H443.689V182.72H423.265V201.212H455.925V214H408.821ZM165.416 325.38C161.368 325.38 157.719 324.552 154.468 322.896C151.279 321.179 148.764 318.787 146.924 315.72C145.145 312.653 144.256 309.157 144.256 305.232V301.92H158.7V305.508C158.7 307.716 159.283 309.525 160.448 310.936C161.675 312.285 163.269 312.96 165.232 312.96C166.827 312.96 168.053 312.561 168.912 311.764C169.832 310.905 170.292 309.801 170.292 308.452C170.292 306.735 169.74 305.017 168.636 303.3L139.84 259.6H157.412L176.732 291.8C177.039 292.291 177.315 292.843 177.56 293.456C177.805 294.008 178.02 294.621 178.204 295.296L188.876 259.6H203.872L187.864 306.428C185.717 312.807 182.804 317.56 179.124 320.688C175.505 323.816 170.936 325.38 165.416 325.38ZM237.489 324V259.6H252.117V290.88H257.637L279.073 259.6H295.173L273.737 290.604L296.553 324H278.981L257.545 292.72H252.117V324H237.489ZM334.127 325.38C327.749 325.38 321.983 323.939 316.831 321.056C311.679 318.112 307.631 314.095 304.687 309.004C301.805 303.852 300.363 298.117 300.363 291.8C300.363 285.483 301.805 279.779 304.687 274.688C307.631 269.536 311.679 265.519 316.831 262.636C321.983 259.692 327.749 258.22 334.127 258.22C340.506 258.22 346.271 259.692 351.423 262.636C356.575 265.519 360.593 269.536 363.475 274.688C366.419 279.779 367.891 285.483 367.891 291.8C367.891 298.117 366.419 303.852 363.475 309.004C360.593 314.095 356.575 318.112 351.423 321.056C346.271 323.939 340.506 325.38 334.127 325.38ZM334.127 310.936C337.685 310.936 340.874 310.108 343.695 308.452C346.578 306.796 348.817 304.527 350.411 301.644C352.067 298.7 352.895 295.419 352.895 291.8C352.895 288.181 352.067 284.931 350.411 282.048C348.817 279.104 346.578 276.804 343.695 275.148C340.874 273.431 337.685 272.572 334.127 272.572C330.57 272.572 327.381 273.431 324.559 275.148C321.738 276.804 319.499 279.104 317.843 282.048C316.249 284.931 315.451 288.181 315.451 291.8C315.451 295.419 316.249 298.7 317.843 301.644C319.499 304.527 321.738 306.796 324.559 308.452C327.381 310.108 330.57 310.936 334.127 310.936ZM380.161 324V259.6H395.249L415.489 321.332L435.821 259.6H450.817V324H436.097V265.212L416.593 324H414.385L394.881 265.212V324H380.161ZM468.836 324V259.6H526.244V324H511.524V273.768H483.556V324H468.836ZM544.857 325.288C543.078 325.288 541.514 325.165 540.165 324.92C538.816 324.675 537.65 324.368 536.669 324V309.832C536.73 309.832 536.761 309.832 536.761 309.832C537.865 310.016 538.877 310.139 539.797 310.2C540.778 310.261 541.852 310.292 543.017 310.292C543.753 310.292 544.428 310.139 545.041 309.832C545.654 309.464 546.176 308.943 546.605 308.268C547.096 307.593 547.464 306.735 547.709 305.692C548.568 302.687 549.15 298.148 549.457 292.076C549.825 286.004 550.009 278.613 550.009 269.904V259.6H600.977V324H586.257V273.768H564.085V276.436C564.024 285.268 563.625 293.333 562.889 300.632C562.214 307.931 561.018 313.267 559.301 316.64C557.829 319.584 555.928 321.761 553.597 323.172C551.266 324.583 548.353 325.288 544.857 325.288ZM619.055 324V259.6H663.491V272.388H633.499V290.88H653.923V292.72H633.499V311.212H666.159V324H619.055ZM679.789 324V259.6H694.417V290.88H699.937L721.373 259.6H737.473L716.037 290.604L738.853 324H721.281L699.845 292.72H694.417V324H679.789ZM775.968 325.38C769.59 325.38 763.855 323.939 758.764 321.056C753.735 318.173 749.779 314.187 746.896 309.096C744.075 304.005 742.664 298.24 742.664 291.8C742.664 285.36 744.075 279.595 746.896 274.504C749.779 269.413 753.735 265.427 758.764 262.544C763.855 259.661 769.59 258.22 775.968 258.22C781.55 258.22 786.64 259.416 791.24 261.808C795.902 264.139 799.643 267.42 802.464 271.652C805.347 275.884 807.003 280.637 807.432 285.912H792.528C791.976 283.213 790.903 280.883 789.308 278.92C787.775 276.896 785.843 275.332 783.512 274.228C781.243 273.124 778.667 272.572 775.784 272.572C772.288 272.572 769.16 273.4 766.4 275.056C763.702 276.712 761.586 279.012 760.052 281.956C758.519 284.839 757.752 288.12 757.752 291.8C757.752 295.48 758.519 298.792 760.052 301.736C761.586 304.619 763.702 306.888 766.4 308.544C769.16 310.139 772.288 310.936 775.784 310.936C778.667 310.936 781.243 310.415 783.512 309.372C785.843 308.268 787.775 306.735 789.308 304.772C790.903 302.748 791.976 300.387 792.528 297.688H807.432C807.003 302.963 805.347 307.716 802.464 311.948C799.643 316.18 795.902 319.492 791.24 321.884C786.64 324.215 781.55 325.38 775.968 325.38ZM820.125 324V259.6H834.845V324H820.125Z" fill="black"/>
<path d="M468.894 104V56.344L453.254 66.004V50.456L470.918 39.6H482.602V104H468.894ZM525.556 105.38C519.913 105.38 514.884 103.969 510.468 101.148C506.113 98.2653 502.709 94.2787 500.256 89.188C497.802 84.0973 496.576 78.3013 496.576 71.8C496.576 65.2987 497.802 59.5027 500.256 54.412C502.709 49.3213 506.113 45.3653 510.468 42.544C514.884 39.6613 519.913 38.22 525.556 38.22C531.137 38.22 536.105 39.6613 540.46 42.544C544.876 45.3653 548.31 49.3213 550.764 54.412C553.217 59.5027 554.444 65.2987 554.444 71.8C554.444 78.3013 553.217 84.0973 550.764 89.188C548.31 94.2787 544.876 98.2653 540.46 101.148C536.105 103.969 531.137 105.38 525.556 105.38ZM525.556 92.592C528.438 92.592 530.984 91.764 533.192 90.108C535.4 88.3907 537.086 85.968 538.252 82.84C539.478 79.6507 540.092 75.9707 540.092 71.8C540.092 67.6293 539.478 63.98 538.252 60.852C537.086 57.6627 535.4 55.24 533.192 53.584C530.984 51.8667 528.438 51.008 525.556 51.008C522.612 51.008 520.036 51.8667 517.828 53.584C515.681 55.24 513.994 57.6627 512.768 60.852C511.602 63.98 511.02 67.6293 511.02 71.8C511.02 75.9707 511.602 79.6507 512.768 82.84C513.994 85.968 515.681 88.3907 517.828 90.108C520.036 91.764 522.612 92.592 525.556 92.592ZM591.86 105.38C586.218 105.38 581.188 103.969 576.772 101.148C572.418 98.2653 569.014 94.2787 566.56 89.188C564.107 84.0973 562.88 78.3013 562.88 71.8C562.88 65.2987 564.107 59.5027 566.56 54.412C569.014 49.3213 572.418 45.3653 576.772 42.544C581.188 39.6613 586.218 38.22 591.86 38.22C597.442 38.22 602.41 39.6613 606.764 42.544C611.18 45.3653 614.615 49.3213 617.068 54.412C619.522 59.5027 620.748 65.2987 620.748 71.8C620.748 78.3013 619.522 84.0973 617.068 89.188C614.615 94.2787 611.18 98.2653 606.764 101.148C602.41 103.969 597.442 105.38 591.86 105.38ZM591.86 92.592C594.743 92.592 597.288 91.764 599.496 90.108C601.704 88.3907 603.391 85.968 604.556 82.84C605.783 79.6507 606.396 75.9707 606.396 71.8C606.396 67.6293 605.783 63.98 604.556 60.852C603.391 57.6627 601.704 55.24 599.496 53.584C597.288 51.8667 594.743 51.008 591.86 51.008C588.916 51.008 586.34 51.8667 584.132 53.584C581.986 55.24 580.299 57.6627 579.072 60.852C577.907 63.98 577.324 67.6293 577.324 71.8C577.324 75.9707 577.907 79.6507 579.072 82.84C580.299 85.968 581.986 88.3907 584.132 90.108C586.34 91.764 588.916 92.592 591.86 92.592ZM685.765 105.38C679.386 105.38 673.652 103.939 668.561 101.056C663.532 98.1733 659.576 94.1867 656.693 89.096C653.872 84.0053 652.461 78.24 652.461 71.8C652.461 65.36 653.872 59.5947 656.693 54.504C659.576 49.4133 663.532 45.4267 668.561 42.544C673.652 39.6613 679.386 38.22 685.765 38.22C691.346 38.22 696.437 39.416 701.037 41.808C705.698 44.1387 709.44 47.42 712.261 51.652C715.144 55.884 716.8 60.6373 717.229 65.912H702.325C701.773 63.2133 700.7 60.8827 699.105 58.92C697.572 56.896 695.64 55.332 693.309 54.228C691.04 53.124 688.464 52.572 685.581 52.572C682.085 52.572 678.957 53.4 676.197 55.056C673.498 56.712 671.382 59.012 669.849 61.956C668.316 64.8387 667.549 68.12 667.549 71.8C667.549 75.48 668.316 78.792 669.849 81.736C671.382 84.6187 673.498 86.888 676.197 88.544C678.957 90.1387 682.085 90.936 685.581 90.936C688.464 90.936 691.04 90.4147 693.309 89.372C695.64 88.268 697.572 86.7347 699.105 84.772C700.7 82.748 701.773 80.3867 702.325 77.688H717.229C716.8 82.9627 715.144 87.716 712.261 91.948C709.44 96.18 705.698 99.492 701.037 101.884C696.437 104.215 691.346 105.38 685.765 105.38ZM729.922 104V39.6H744.642V104H729.922ZM762.715 104V39.6H777.803L798.043 101.332L818.375 39.6H833.371V104H818.651V45.212L799.147 104H796.939L777.435 45.212V104H762.715ZM851.391 104V39.6H895.827V52.388H865.835V70.88H886.259V72.72H865.835V91.212H898.495V104H851.391ZM912.125 104V39.6H926.845V99.4L956.561 39.6H971.373V104H956.653V44.016L926.845 104H912.125ZM941.749 34.632C938.131 34.632 934.911 33.896 932.089 32.424C929.329 30.952 927.183 28.9587 925.649 26.444C924.116 23.868 923.349 20.9853 923.349 17.796V17.06H933.837V17.704C933.837 19.9733 934.573 21.8133 936.045 23.224C937.517 24.6347 939.419 25.34 941.749 25.34C944.141 25.34 946.073 24.6347 947.545 23.224C949.017 21.8133 949.753 19.9733 949.753 17.704V17.06H960.149V17.796C960.149 20.9853 959.383 23.868 957.849 26.444C956.316 28.9587 954.139 30.952 951.317 32.424C948.557 33.896 945.368 34.632 941.749 34.632ZM492.555 214V149.6H549.963V214H535.243V163.768H507.275V214H492.555ZM568.024 214V149.6H593.048C601.144 149.6 607.522 151.256 612.184 154.568C616.845 157.819 619.176 162.296 619.176 168C619.176 173.704 616.998 178.212 612.644 181.524C608.35 184.775 602.462 186.4 594.98 186.4H582.744V214H568.024ZM591.392 184.56C595.378 184.56 598.537 183.548 600.868 181.524C603.26 179.5 604.456 176.832 604.456 173.52C604.456 170.147 603.26 167.448 600.868 165.424C598.537 163.4 595.378 162.388 591.392 162.388H582.744V184.56H591.392ZM661.069 215.38C654.69 215.38 648.925 213.939 643.773 211.056C638.621 208.112 634.573 204.095 631.629 199.004C628.746 193.852 627.305 188.117 627.305 181.8C627.305 175.483 628.746 169.779 631.629 164.688C634.573 159.536 638.621 155.519 643.773 152.636C648.925 149.692 654.69 148.22 661.069 148.22C667.448 148.22 673.213 149.692 678.365 152.636C683.517 155.519 687.534 159.536 690.417 164.688C693.361 169.779 694.833 175.483 694.833 181.8C694.833 188.117 693.361 193.852 690.417 199.004C687.534 204.095 683.517 208.112 678.365 211.056C673.213 213.939 667.448 215.38 661.069 215.38ZM661.069 200.936C664.626 200.936 667.816 200.108 670.637 198.452C673.52 196.796 675.758 194.527 677.353 191.644C679.009 188.7 679.837 185.419 679.837 181.8C679.837 178.181 679.009 174.931 677.353 172.048C675.758 169.104 673.52 166.804 670.637 165.148C667.816 163.431 664.626 162.572 661.069 162.572C657.512 162.572 654.322 163.431 651.501 165.148C648.68 166.804 646.441 169.104 644.785 172.048C643.19 174.931 642.393 178.181 642.393 181.8C642.393 185.419 643.19 188.7 644.785 191.644C646.441 194.527 648.68 196.796 651.501 198.452C654.322 200.108 657.512 200.936 661.069 200.936ZM699.115 214L720.275 180.604L700.403 149.6H716.227L736.099 180.88H742.079V149.6H756.799V180.88H762.595L782.559 149.6H798.383L778.419 180.604L799.763 214H782.467L762.503 182.72H756.799V214H742.079V182.72H736.283L716.319 214H699.115ZM810.422 214V149.6H825.142V209.4L854.858 149.6H869.67V214H854.95V154.016L825.142 214H810.422ZM887.688 214V149.6H919.152C925.715 149.6 930.867 151.072 934.608 154.016C938.411 156.96 940.312 161.008 940.312 166.16C940.312 169.901 939.269 173.06 937.184 175.636C935.16 178.212 932.277 180.083 928.536 181.248V181.708C932.829 182.751 936.203 184.652 938.656 187.412C941.109 190.172 942.336 193.515 942.336 197.44C942.336 200.752 941.477 203.665 939.76 206.18C938.104 208.695 935.712 210.627 932.584 211.976C929.517 213.325 925.929 214 921.82 214H887.688ZM916.576 200.2C919.704 200.2 922.219 199.403 924.12 197.808C926.021 196.152 926.972 194.036 926.972 191.46C926.972 188.823 925.991 186.707 924.028 185.112C922.127 183.517 919.643 182.72 916.576 182.72H902.408V200.2H916.576ZM915.288 180.88C918.416 180.88 920.931 180.083 922.832 178.488C924.733 176.832 925.684 174.716 925.684 172.14C925.684 169.503 924.733 167.387 922.832 165.792C920.931 164.197 918.416 163.4 915.288 163.4H902.408V180.88H915.288ZM946.904 214L971.284 149.6H990.236L1014.62 214H999.068L992.168 195.416H969.076L962.084 214H946.904ZM969.72 193.668H991.524L980.668 165.148L969.72 193.668ZM1083.93 215.38C1077.8 215.38 1072.25 213.969 1067.28 211.148C1062.31 208.327 1058.36 204.432 1055.41 199.464C1052.47 194.496 1050.94 188.915 1050.81 182.72H1040.05V214H1025.33V149.6H1040.05V180.88H1050.81C1050.94 174.685 1052.47 169.104 1055.41 164.136C1058.36 159.168 1062.31 155.273 1067.28 152.452C1072.25 149.631 1077.8 148.22 1083.93 148.22C1090.19 148.22 1095.83 149.692 1100.86 152.636C1105.95 155.519 1109.94 159.536 1112.82 164.688C1115.7 169.779 1117.14 175.483 1117.14 181.8C1117.14 188.117 1115.7 193.852 1112.82 199.004C1109.94 204.095 1105.95 208.112 1100.86 211.056C1095.83 213.939 1090.19 215.38 1083.93 215.38ZM1083.93 200.936C1087.37 200.936 1090.46 200.108 1093.22 198.452C1095.98 196.796 1098.13 194.527 1099.66 191.644C1101.26 188.7 1102.06 185.419 1102.06 181.8C1102.06 178.181 1101.26 174.931 1099.66 172.048C1098.13 169.104 1095.98 166.804 1093.22 165.148C1090.46 163.431 1087.37 162.572 1083.93 162.572C1080.56 162.572 1077.46 163.431 1074.64 165.148C1071.88 166.804 1069.7 169.104 1068.11 172.048C1066.58 174.931 1065.81 178.181 1065.81 181.8C1065.81 185.419 1066.58 188.7 1068.11 191.644C1069.7 194.527 1071.88 196.796 1074.64 198.452C1077.46 200.108 1080.56 200.936 1083.93 200.936ZM1144.67 214V163.768H1121.49V149.6H1182.48V163.768H1159.39V214H1144.67ZM1193.97 214V149.6H1208.41V177.2H1221.11C1228.59 177.2 1234.48 178.856 1238.77 182.168C1243.12 185.419 1245.3 189.896 1245.3 195.6C1245.3 199.403 1244.23 202.684 1242.08 205.444C1240 208.204 1236.99 210.32 1233.07 211.792C1229.14 213.264 1224.51 214 1219.17 214H1193.97ZM1217.52 201.212C1221.5 201.212 1224.66 200.2 1226.99 198.176C1229.39 196.152 1230.58 193.453 1230.58 190.08C1230.58 186.768 1229.39 184.1 1226.99 182.076C1224.66 180.052 1221.5 179.04 1217.52 179.04H1208.41V201.212H1217.52Z" fill="#FF9F42"/>
<path d="M109.4 15V0.599999H114.96C115.767 0.599999 116.47 0.766666 117.07 1.1C117.67 1.43333 118.137 1.88333 118.47 2.45C118.803 3.01 118.97 3.63 118.97 4.31C118.97 5.08333 118.763 5.77333 118.35 6.38C117.937 6.98 117.383 7.39667 116.69 7.63L116.67 7.14C117.603 7.40667 118.337 7.87333 118.87 8.54C119.403 9.20667 119.67 10.0133 119.67 10.96C119.67 11.7933 119.493 12.5133 119.14 13.12C118.787 13.72 118.29 14.1833 117.65 14.51C117.01 14.8367 116.267 15 115.42 15H109.4ZM110.88 13.59H115.06C115.647 13.59 116.173 13.4867 116.64 13.28C117.107 13.0667 117.473 12.7667 117.74 12.38C118.013 11.9933 118.15 11.5267 118.15 10.98C118.15 10.4467 118.027 9.96667 117.78 9.54C117.533 9.11333 117.197 8.77333 116.77 8.52C116.35 8.26 115.87 8.13 115.33 8.13H110.88V13.59ZM110.88 6.74H114.95C115.41 6.74 115.83 6.63667 116.21 6.43C116.59 6.21667 116.89 5.92667 117.11 5.56C117.337 5.19333 117.45 4.77 117.45 4.29C117.45 3.61 117.213 3.05667 116.74 2.63C116.273 2.20333 115.677 1.99 114.95 1.99H110.88V6.74ZM121.866 2.15V0.5H123.336V2.15H121.866ZM121.866 15V4.2H123.336V15H121.866ZM125.534 17.4V13.74C126.147 13.74 126.587 13.5433 126.854 13.15C127.12 12.75 127.337 12.1133 127.504 11.24C127.617 10.6733 127.71 10.0633 127.784 9.41C127.857 8.75667 127.92 8.01 127.974 7.17C128.027 6.32333 128.077 5.33333 128.124 4.2H135.264V13.74H136.304V17.4H134.884V15H126.944V17.4H125.534ZM128.024 13.74H133.804V5.46H129.484C129.464 5.96667 129.434 6.50333 129.394 7.07C129.36 7.63667 129.317 8.20333 129.264 8.77C129.217 9.33667 129.16 9.87 129.094 10.37C129.034 10.8633 128.96 11.2967 128.874 11.67C128.774 12.15 128.664 12.56 128.544 12.9C128.43 13.24 128.257 13.52 128.024 13.74ZM138.306 15V4.2H145.706V5.61H139.776V15H138.306ZM149.006 19.8L151.096 14.13L151.126 15.81L146.396 4.2H147.956L151.836 13.91H151.196L154.776 4.2H156.276L150.476 19.8H149.006ZM158.003 15L158.013 4.2H159.493V9.4L164.313 4.2H166.273L161.213 9.6L166.933 15H164.793L159.493 9.8V15H158.003ZM176.515 4.2V15H175.085V6.59L169.165 15H167.925V4.2H169.355V12.54L175.285 4.2H176.515Z" fill="#FF9F42"/>
</svg>
