<svg width="320" height="129" viewBox="0 0 320 129" fill="none" xmlns="http://www.w3.org/2000/svg">
<path d="M85.84 9V0.36H89.176C89.66 0.36 90.082 0.46 90.442 0.659999C90.802 0.86 91.082 1.13 91.282 1.47C91.482 1.806 91.582 2.178 91.582 2.586C91.582 3.05 91.458 3.464 91.21 3.828C90.962 4.188 90.63 4.438 90.214 4.578L90.202 4.284C90.762 4.444 91.202 4.724 91.522 5.124C91.842 5.524 92.002 6.008 92.002 6.576C92.002 7.076 91.896 7.508 91.684 7.872C91.472 8.232 91.174 8.51 90.79 8.706C90.406 8.902 89.96 9 89.452 9H85.84ZM86.728 8.154H89.236C89.588 8.154 89.904 8.092 90.184 7.968C90.464 7.84 90.684 7.66 90.844 7.428C91.008 7.196 91.09 6.916 91.09 6.588C91.09 6.268 91.016 5.98 90.868 5.724C90.72 5.468 90.518 5.264 90.262 5.112C90.01 4.956 89.722 4.878 89.398 4.878H86.728V8.154ZM86.728 4.044H89.17C89.446 4.044 89.698 3.982 89.926 3.858C90.154 3.73 90.334 3.556 90.466 3.336C90.602 3.116 90.67 2.862 90.67 2.574C90.67 2.166 90.528 1.834 90.244 1.578C89.964 1.322 89.606 1.194 89.17 1.194H86.728V4.044ZM93.3194 1.29V0.3H94.2014V1.29H93.3194ZM93.3194 9V2.52H94.2014V9H93.3194ZM95.5202 10.44V8.244C95.8882 8.244 96.1522 8.126 96.3122 7.89C96.4722 7.65 96.6022 7.268 96.7022 6.744C96.7702 6.404 96.8262 6.038 96.8702 5.646C96.9142 5.254 96.9522 4.806 96.9842 4.302C97.0162 3.794 97.0462 3.2 97.0742 2.52H101.358V8.244H101.982V10.44H101.13V9H96.3662V10.44H95.5202ZM97.0142 8.244H100.482V3.276H97.8902C97.8782 3.58 97.8602 3.902 97.8362 4.242C97.8162 4.582 97.7902 4.922 97.7582 5.262C97.7302 5.602 97.6962 5.922 97.6562 6.222C97.6202 6.518 97.5762 6.778 97.5242 7.002C97.4642 7.29 97.3982 7.536 97.3262 7.74C97.2582 7.944 97.1542 8.112 97.0142 8.244ZM103.184 9V2.52H107.624V3.366H104.066V9H103.184ZM109.604 11.88L110.858 8.478L110.876 9.486L108.038 2.52H108.974L111.302 8.346H110.918L113.066 2.52H113.966L110.486 11.88H109.604ZM115.002 9L115.008 2.52H115.896V5.64L118.788 2.52H119.964L116.928 5.76L120.36 9H119.076L115.896 5.88V9H115.002ZM126.109 2.52V9H125.251V3.954L121.699 9H120.955V2.52H121.813V7.524L125.371 2.52H126.109Z" fill="#FF9F42"/>
<path d="M30.744 45V25.4H45.5V29.292H35.028V33.912H39.48C41.7387 33.912 43.5213 34.4067 44.828 35.396C46.1347 36.3853 46.788 37.7387 46.788 39.456C46.788 41.1733 46.1347 42.5267 44.828 43.516C43.5213 44.5053 41.7387 45 39.48 45H30.744ZM38.416 41.108C39.592 41.108 40.5347 40.8093 41.244 40.212C41.9533 39.596 42.308 38.784 42.308 37.776C42.308 36.768 41.9533 35.9653 41.244 35.368C40.5347 34.7707 39.592 34.472 38.416 34.472H35.028V41.108H38.416ZM50.869 45V25.4H55.349V45H50.869ZM61.0175 45.392C60.4761 45.392 60.0001 45.3547 59.5895 45.28C59.1788 45.2053 58.8241 45.112 58.5255 45V40.688C58.5441 40.688 58.5535 40.688 58.5535 40.688C58.8895 40.744 59.1975 40.7813 59.4775 40.8C59.7761 40.8187 60.1028 40.828 60.4575 40.828C60.6815 40.828 60.8868 40.7813 61.0735 40.688C61.2601 40.576 61.4188 40.4173 61.5495 40.212C61.6988 40.0067 61.8108 39.7453 61.8855 39.428C62.1468 38.5133 62.3241 37.132 62.4175 35.284C62.5295 33.436 62.5855 31.1867 62.5855 28.536V25.4H78.0975V45H73.6175V29.712H66.8695V30.524C66.8508 33.212 66.7295 35.6667 66.5055 37.888C66.3001 40.1093 65.9361 41.7333 65.4135 42.76C64.9655 43.656 64.3868 44.3187 63.6775 44.748C62.9681 45.1773 62.0815 45.392 61.0175 45.392ZM83.5995 45V25.4H87.9955V33.8H91.8595C94.1368 33.8 95.9288 34.304 97.2355 35.312C98.5608 36.3013 99.2235 37.664 99.2235 39.4C99.2235 40.5573 98.8968 41.556 98.2435 42.396C97.6088 43.236 96.6941 43.88 95.4995 44.328C94.3048 44.776 92.8955 45 91.2715 45H83.5995ZM90.7675 41.108C91.9808 41.108 92.9421 40.8 93.6515 40.184C94.3795 39.568 94.7435 38.7467 94.7435 37.72C94.7435 36.712 94.3795 35.9 93.6515 35.284C92.9421 34.668 91.9808 34.36 90.7675 34.36H87.9955V41.108H90.7675ZM103.178 45V25.4H107.658V40.912H114.182V25.4H118.662V40.912H125.186V25.4H129.666V45H103.178ZM135.142 45V25.4H148.666V29.292H139.538V34.92H145.754V35.48H139.538V41.108H149.478V45H135.142ZM2.744 79V59.4H12.32C14.3173 59.4 15.8853 59.848 17.024 60.744C18.1813 61.64 18.76 62.872 18.76 64.44C18.76 65.5787 18.4427 66.54 17.808 67.324C17.192 68.108 16.3147 68.6773 15.176 69.032V69.172C16.4827 69.4893 17.5093 70.068 18.256 70.908C19.0027 71.748 19.376 72.7653 19.376 73.96C19.376 74.968 19.1147 75.8547 18.592 76.62C18.088 77.3853 17.36 77.9733 16.408 78.384C15.4747 78.7947 14.3827 79 13.132 79H2.744ZM11.536 74.8C12.488 74.8 13.2533 74.5573 13.832 74.072C14.4107 73.568 14.7 72.924 14.7 72.14C14.7 71.3373 14.4013 70.6933 13.804 70.208C13.2253 69.7227 12.4693 69.48 11.536 69.48H7.224V74.8H11.536ZM11.144 68.92C12.096 68.92 12.8613 68.6773 13.44 68.192C14.0187 67.688 14.308 67.044 14.308 66.26C14.308 65.4573 14.0187 64.8133 13.44 64.328C12.8613 63.8427 12.096 63.6 11.144 63.6H7.224V68.92H11.144ZM20.5476 79L26.9876 68.836L20.9396 59.4H25.7556L31.8036 68.92H33.6236V59.4H38.1036V68.92H39.8676L45.9436 59.4H50.7596L44.6836 68.836L51.1796 79H45.9156L39.8396 69.48H38.1036V79H33.6236V69.48H31.8596L25.7836 79H20.5476ZM54.4237 79V59.4H67.9477V63.292H58.8197V68.92H65.0357V69.48H58.8197V75.108H68.7597V79H54.4237ZM85.344 113.42C84.112 113.42 83.0013 113.168 82.012 112.664C81.0413 112.141 80.276 111.413 79.716 110.48C79.1747 109.547 78.904 108.483 78.904 107.288V106.28H83.3V107.372C83.3 108.044 83.4773 108.595 83.832 109.024C84.2053 109.435 84.6907 109.64 85.288 109.64C85.7733 109.64 86.1467 109.519 86.408 109.276C86.688 109.015 86.828 108.679 86.828 108.268C86.828 107.745 86.66 107.223 86.324 106.7L77.56 93.4H82.908L88.788 103.2C88.8813 103.349 88.9653 103.517 89.04 103.704C89.1147 103.872 89.18 104.059 89.236 104.264L92.484 93.4H97.048L92.176 107.652C91.5227 109.593 90.636 111.04 89.516 111.992C88.4147 112.944 87.024 113.42 85.344 113.42ZM107.279 113V93.4H111.731V102.92H113.411L119.935 93.4H124.835L118.311 102.836L125.255 113H119.907L113.383 103.48H111.731V113H107.279ZM136.691 113.42C134.75 113.42 132.995 112.981 131.427 112.104C129.859 111.208 128.627 109.985 127.731 108.436C126.854 106.868 126.415 105.123 126.415 103.2C126.415 101.277 126.854 99.5413 127.731 97.992C128.627 96.424 129.859 95.2013 131.427 94.324C132.995 93.428 134.75 92.98 136.691 92.98C138.632 92.98 140.387 93.428 141.955 94.324C143.523 95.2013 144.746 96.424 145.623 97.992C146.519 99.5413 146.967 101.277 146.967 103.2C146.967 105.123 146.519 106.868 145.623 108.436C144.746 109.985 143.523 111.208 141.955 112.104C140.387 112.981 138.632 113.42 136.691 113.42ZM136.691 109.024C137.774 109.024 138.744 108.772 139.603 108.268C140.48 107.764 141.162 107.073 141.647 106.196C142.151 105.3 142.403 104.301 142.403 103.2C142.403 102.099 142.151 101.109 141.647 100.232C141.162 99.336 140.48 98.636 139.603 98.132C138.744 97.6093 137.774 97.348 136.691 97.348C135.608 97.348 134.638 97.6093 133.779 98.132C132.92 98.636 132.239 99.336 131.735 100.232C131.25 101.109 131.007 102.099 131.007 103.2C131.007 104.301 131.25 105.3 131.735 106.196C132.239 107.073 132.92 107.764 133.779 108.268C134.638 108.772 135.608 109.024 136.691 109.024ZM150.701 113V93.4H155.293L161.453 112.188L167.641 93.4H172.205V113H167.725V95.108L161.789 113H161.117L155.181 95.108V113H150.701ZM177.689 113V93.4H195.161V113H190.681V97.712H182.169V113H177.689ZM200.826 113.392C200.285 113.392 199.809 113.355 199.398 113.28C198.987 113.205 198.633 113.112 198.334 113V108.688C198.353 108.688 198.362 108.688 198.362 108.688C198.698 108.744 199.006 108.781 199.286 108.8C199.585 108.819 199.911 108.828 200.266 108.828C200.49 108.828 200.695 108.781 200.882 108.688C201.069 108.576 201.227 108.417 201.358 108.212C201.507 108.007 201.619 107.745 201.694 107.428C201.955 106.513 202.133 105.132 202.226 103.284C202.338 101.436 202.394 99.1867 202.394 96.536V93.4H217.906V113H213.426V97.712H206.678V98.524C206.659 101.212 206.538 103.667 206.314 105.888C206.109 108.109 205.745 109.733 205.222 110.76C204.774 111.656 204.195 112.319 203.486 112.748C202.777 113.177 201.89 113.392 200.826 113.392ZM223.408 113V93.4H236.932V97.292H227.804V102.92H234.02V103.48H227.804V109.108H237.744V113H223.408ZM241.892 113V93.4H246.344V102.92H248.024L254.548 93.4H259.448L252.924 102.836L259.868 113H254.52L247.996 103.48H246.344V113H241.892ZM271.164 113.42C269.223 113.42 267.478 112.981 265.928 112.104C264.398 111.227 263.194 110.013 262.316 108.464C261.458 106.915 261.028 105.16 261.028 103.2C261.028 101.24 261.458 99.4853 262.316 97.936C263.194 96.3867 264.398 95.1733 265.928 94.296C267.478 93.4187 269.223 92.98 271.164 92.98C272.863 92.98 274.412 93.344 275.812 94.072C277.231 94.7813 278.37 95.78 279.228 97.068C280.106 98.356 280.61 99.8027 280.74 101.408H276.204C276.036 100.587 275.71 99.8773 275.224 99.28C274.758 98.664 274.17 98.188 273.46 97.852C272.77 97.516 271.986 97.348 271.108 97.348C270.044 97.348 269.092 97.6 268.252 98.104C267.431 98.608 266.787 99.308 266.32 100.204C265.854 101.081 265.62 102.08 265.62 103.2C265.62 104.32 265.854 105.328 266.32 106.224C266.787 107.101 267.431 107.792 268.252 108.296C269.092 108.781 270.044 109.024 271.108 109.024C271.986 109.024 272.77 108.865 273.46 108.548C274.17 108.212 274.758 107.745 275.224 107.148C275.71 106.532 276.036 105.813 276.204 104.992H280.74C280.61 106.597 280.106 108.044 279.228 109.332C278.37 110.62 277.231 111.628 275.812 112.356C274.412 113.065 272.863 113.42 271.164 113.42ZM284.603 113V93.4H289.083V113H284.603Z" fill="black"/>
<path d="M163.707 45V30.496L158.947 33.436V28.704L164.323 25.4H167.879V45H163.707ZM180.952 45.42C179.234 45.42 177.704 44.9907 176.36 44.132C175.034 43.2547 173.998 42.0413 173.252 40.492C172.505 38.9427 172.132 37.1787 172.132 35.2C172.132 33.2213 172.505 31.4573 173.252 29.908C173.998 28.3587 175.034 27.1547 176.36 26.296C177.704 25.4187 179.234 24.98 180.952 24.98C182.65 24.98 184.162 25.4187 185.488 26.296C186.832 27.1547 187.877 28.3587 188.624 29.908C189.37 31.4573 189.744 33.2213 189.744 35.2C189.744 37.1787 189.37 38.9427 188.624 40.492C187.877 42.0413 186.832 43.2547 185.488 44.132C184.162 44.9907 182.65 45.42 180.952 45.42ZM180.952 41.528C181.829 41.528 182.604 41.276 183.276 40.772C183.948 40.2493 184.461 39.512 184.816 38.56C185.189 37.5893 185.376 36.4693 185.376 35.2C185.376 33.9307 185.189 32.82 184.816 31.868C184.461 30.8973 183.948 30.16 183.276 29.656C182.604 29.1333 181.829 28.872 180.952 28.872C180.056 28.872 179.272 29.1333 178.6 29.656C177.946 30.16 177.433 30.8973 177.06 31.868C176.705 32.82 176.528 33.9307 176.528 35.2C176.528 36.4693 176.705 37.5893 177.06 38.56C177.433 39.512 177.946 40.2493 178.6 40.772C179.272 41.276 180.056 41.528 180.952 41.528ZM201.131 45.42C199.414 45.42 197.883 44.9907 196.539 44.132C195.214 43.2547 194.178 42.0413 193.431 40.492C192.685 38.9427 192.311 37.1787 192.311 35.2C192.311 33.2213 192.685 31.4573 193.431 29.908C194.178 28.3587 195.214 27.1547 196.539 26.296C197.883 25.4187 199.414 24.98 201.131 24.98C202.83 24.98 204.342 25.4187 205.667 26.296C207.011 27.1547 208.057 28.3587 208.803 29.908C209.55 31.4573 209.923 33.2213 209.923 35.2C209.923 37.1787 209.55 38.9427 208.803 40.492C208.057 42.0413 207.011 43.2547 205.667 44.132C204.342 44.9907 202.83 45.42 201.131 45.42ZM201.131 41.528C202.009 41.528 202.783 41.276 203.455 40.772C204.127 40.2493 204.641 39.512 204.995 38.56C205.369 37.5893 205.555 36.4693 205.555 35.2C205.555 33.9307 205.369 32.82 204.995 31.868C204.641 30.8973 204.127 30.16 203.455 29.656C202.783 29.1333 202.009 28.872 201.131 28.872C200.235 28.872 199.451 29.1333 198.779 29.656C198.126 30.16 197.613 30.8973 197.239 31.868C196.885 32.82 196.707 33.9307 196.707 35.2C196.707 36.4693 196.885 37.5893 197.239 38.56C197.613 39.512 198.126 40.2493 198.779 40.772C199.451 41.276 200.235 41.528 201.131 41.528ZM229.711 45.42C227.77 45.42 226.024 44.9813 224.475 44.104C222.944 43.2267 221.74 42.0133 220.863 40.464C220.004 38.9147 219.575 37.16 219.575 35.2C219.575 33.24 220.004 31.4853 220.863 29.936C221.74 28.3867 222.944 27.1733 224.475 26.296C226.024 25.4187 227.77 24.98 229.711 24.98C231.41 24.98 232.959 25.344 234.359 26.072C235.778 26.7813 236.916 27.78 237.775 29.068C238.652 30.356 239.156 31.8027 239.287 33.408H234.751C234.583 32.5867 234.256 31.8773 233.771 31.28C233.304 30.664 232.716 30.188 232.007 29.852C231.316 29.516 230.532 29.348 229.655 29.348C228.591 29.348 227.639 29.6 226.799 30.104C225.978 30.608 225.334 31.308 224.867 32.204C224.4 33.0813 224.167 34.08 224.167 35.2C224.167 36.32 224.4 37.328 224.867 38.224C225.334 39.1013 225.978 39.792 226.799 40.296C227.639 40.7813 228.591 41.024 229.655 41.024C230.532 41.024 231.316 40.8653 232.007 40.548C232.716 40.212 233.304 39.7453 233.771 39.148C234.256 38.532 234.583 37.8133 234.751 36.992H239.287C239.156 38.5973 238.652 40.044 237.775 41.332C236.916 42.62 235.778 43.628 234.359 44.356C232.959 45.0653 231.41 45.42 229.711 45.42ZM243.15 45V25.4H247.63V45H243.15ZM253.131 45V25.4H257.723L263.883 44.188L270.071 25.4H274.635V45H270.155V27.108L264.219 45H263.547L257.611 27.108V45H253.131ZM280.119 45V25.4H293.643V29.292H284.515V34.92H290.731V35.48H284.515V41.108H294.455V45H280.119ZM298.603 45V25.4H303.083V43.6L312.127 25.4H316.635V45H312.155V26.744L303.083 45H298.603ZM307.619 23.888C306.518 23.888 305.538 23.664 304.679 23.216C303.839 22.768 303.186 22.1613 302.719 21.396C302.253 20.612 302.019 19.7347 302.019 18.764V18.54H305.211V18.736C305.211 19.4267 305.435 19.9867 305.883 20.416C306.331 20.8453 306.91 21.06 307.619 21.06C308.347 21.06 308.935 20.8453 309.383 20.416C309.831 19.9867 310.055 19.4267 310.055 18.736V18.54H313.219V18.764C313.219 19.7347 312.986 20.612 312.519 21.396C312.053 22.1613 311.39 22.768 310.531 23.216C309.691 23.664 308.721 23.888 307.619 23.888ZM79.9081 79V59.4H97.3801V79H92.9001V63.712H84.3881V79H79.9081ZM102.877 79V59.4H110.493C112.957 59.4 114.898 59.904 116.317 60.912C117.735 61.9013 118.445 63.264 118.445 65C118.445 66.736 117.782 68.108 116.457 69.116C115.15 70.1053 113.358 70.6 111.081 70.6H107.357V79H102.877ZM109.989 70.04C111.202 70.04 112.163 69.732 112.873 69.116C113.601 68.5 113.965 67.688 113.965 66.68C113.965 65.6533 113.601 64.832 112.873 64.216C112.163 63.6 111.202 63.292 109.989 63.292H107.357V70.04H109.989ZM131.195 79.42C129.254 79.42 127.499 78.9813 125.931 78.104C124.363 77.208 123.131 75.9853 122.235 74.436C121.358 72.868 120.919 71.1227 120.919 69.2C120.919 67.2773 121.358 65.5413 122.235 63.992C123.131 62.424 124.363 61.2013 125.931 60.324C127.499 59.428 129.254 58.98 131.195 58.98C133.136 58.98 134.891 59.428 136.459 60.324C138.027 61.2013 139.25 62.424 140.127 63.992C141.023 65.5413 141.471 67.2773 141.471 69.2C141.471 71.1227 141.023 72.868 140.127 74.436C139.25 75.9853 138.027 77.208 136.459 78.104C134.891 78.9813 133.136 79.42 131.195 79.42ZM131.195 75.024C132.278 75.024 133.248 74.772 134.107 74.268C134.984 73.764 135.666 73.0733 136.151 72.196C136.655 71.3 136.907 70.3013 136.907 69.2C136.907 68.0987 136.655 67.1093 136.151 66.232C135.666 65.336 134.984 64.636 134.107 64.132C133.248 63.6093 132.278 63.348 131.195 63.348C130.112 63.348 129.142 63.6093 128.283 64.132C127.424 64.636 126.743 65.336 126.239 66.232C125.754 67.1093 125.511 68.0987 125.511 69.2C125.511 70.3013 125.754 71.3 126.239 72.196C126.743 73.0733 127.424 73.764 128.283 74.268C129.142 74.772 130.112 75.024 131.195 75.024ZM142.774 79L149.214 68.836L143.166 59.4H147.982L154.03 68.92H155.85V59.4H160.33V68.92H162.094L168.17 59.4H172.986L166.91 68.836L173.406 79H168.142L162.066 69.48H160.33V79H155.85V69.48H154.086L148.01 79H142.774ZM176.65 79V59.4H181.13V77.6L190.174 59.4H194.682V79H190.202V60.744L181.13 79H176.65ZM200.166 79V59.4H209.742C211.739 59.4 213.307 59.848 214.446 60.744C215.603 61.64 216.182 62.872 216.182 64.44C216.182 65.5787 215.865 66.54 215.23 67.324C214.614 68.108 213.737 68.6773 212.598 69.032V69.172C213.905 69.4893 214.931 70.068 215.678 70.908C216.425 71.748 216.798 72.7653 216.798 73.96C216.798 74.968 216.537 75.8547 216.014 76.62C215.51 77.3853 214.782 77.9733 213.83 78.384C212.897 78.7947 211.805 79 210.554 79H200.166ZM208.958 74.8C209.91 74.8 210.675 74.5573 211.254 74.072C211.833 73.568 212.122 72.924 212.122 72.14C212.122 71.3373 211.823 70.6933 211.226 70.208C210.647 69.7227 209.891 69.48 208.958 69.48H204.646V74.8H208.958ZM208.566 68.92C209.518 68.92 210.283 68.6773 210.862 68.192C211.441 67.688 211.73 67.044 211.73 66.26C211.73 65.4573 211.441 64.8133 210.862 64.328C210.283 63.8427 209.518 63.6 208.566 63.6H204.646V68.92H208.566ZM218.188 79L225.608 59.4H231.376L238.796 79H234.064L231.964 73.344H224.936L222.808 79H218.188ZM225.132 72.812H231.768L228.464 64.132L225.132 72.812ZM259.893 79.42C258.026 79.42 256.337 78.9907 254.825 78.132C253.313 77.2733 252.109 76.088 251.213 74.576C250.317 73.064 249.85 71.3653 249.813 69.48H246.537V79H242.057V59.4H246.537V68.92H249.813C249.85 67.0347 250.317 65.336 251.213 63.824C252.109 62.312 253.313 61.1267 254.825 60.268C256.337 59.4093 258.026 58.98 259.893 58.98C261.797 58.98 263.514 59.428 265.045 60.324C266.594 61.2013 267.807 62.424 268.685 63.992C269.562 65.5413 270.001 67.2773 270.001 69.2C270.001 71.1227 269.562 72.868 268.685 74.436C267.807 75.9853 266.594 77.208 265.045 78.104C263.514 78.9813 261.797 79.42 259.893 79.42ZM259.893 75.024C260.938 75.024 261.881 74.772 262.721 74.268C263.561 73.764 264.214 73.0733 264.681 72.196C265.166 71.3 265.409 70.3013 265.409 69.2C265.409 68.0987 265.166 67.1093 264.681 66.232C264.214 65.336 263.561 64.636 262.721 64.132C261.881 63.6093 260.938 63.348 259.893 63.348C258.866 63.348 257.923 63.6093 257.065 64.132C256.225 64.636 255.562 65.336 255.077 66.232C254.61 67.1093 254.377 68.0987 254.377 69.2C254.377 70.3013 254.61 71.3 255.077 72.196C255.562 73.0733 256.225 73.764 257.065 74.268C257.923 74.772 258.866 75.024 259.893 75.024ZM278.378 79V63.712H271.322V59.4H289.886V63.712H282.858V79H278.378ZM293.381 79V59.4H297.777V67.8H301.641C303.918 67.8 305.71 68.304 307.017 69.312C308.342 70.3013 309.005 71.664 309.005 73.4C309.005 74.5573 308.678 75.556 308.025 76.396C307.39 77.236 306.475 77.88 305.281 78.328C304.086 78.776 302.677 79 301.053 79H293.381ZM300.549 75.108C301.762 75.108 302.723 74.8 303.433 74.184C304.161 73.568 304.525 72.7467 304.525 71.72C304.525 70.712 304.161 69.9 303.433 69.284C302.723 68.668 301.762 68.36 300.549 68.36H297.777V75.108H300.549Z" fill="#FF9F42"/>
<line x1="65" y1="5.5" x2="4.37114e-08" y2="5.50001" stroke="#FF9F42"/>
<line x1="0.5" y1="5" x2="0.5" y2="44" stroke="#FF9F42"/>
<line x1="147" y1="4.5" x2="320" y2="4.5" stroke="#FF9F42"/>
<line x1="170" y1="128.5" x2="308" y2="128.5" stroke="#FF9F42"/>
</svg>
